<svg xmlns="http://www.w3.org/2000/svg" width="348.333" height="177" viewBox="0 0 348.333 177">
  <g id="Group_71" data-name="Group 71" transform="translate(-7033.237 -215.144)">
    <g id="Group_70" data-name="Group 70">
      <path id="Path_214" data-name="Path 214" d="M7150.347,316.292a5.451,5.451,0,1,1-5.451-5.451A5.443,5.443,0,0,1,7150.347,316.292Z" fill="#2bb788"/>
      <path id="Path_215" data-name="Path 215" d="M7155.16,330.733a5.451,5.451,0,1,1-5.45-5.452A5.444,5.444,0,0,1,7155.16,330.733Z" fill="#2bb788"/>
      <path id="Shape" d="M7185.089,274.342a13.574,13.574,0,1,0,13.574,13.575A13.59,13.59,0,0,0,7185.089,274.342Zm0,18.1a4.525,4.525,0,1,1,4.524-4.524A4.519,4.519,0,0,1,7185.089,292.441Z" fill="#2bb788"/>
      <path id="Shape-2" data-name="Shape" d="M7230.311,274.342a13.574,13.574,0,1,0,13.574,13.575A13.59,13.59,0,0,0,7230.311,274.342Zm0,18.1a4.525,4.525,0,1,1,4.525-4.524A4.519,4.519,0,0,1,7230.311,292.441Z" fill="#2bb788"/>
      <path id="Shape-3" data-name="Shape" d="M7225.787,337.663a4.522,4.522,0,1,0,9.044,0,27.133,27.133,0,1,0-54.265,0,4.522,4.522,0,1,0,9.044,0,18.089,18.089,0,0,1,36.177,0Z" fill="#2bb788"/>
      <path id="Path_216" data-name="Path 216" d="M7271.249,306a4.785,4.785,0,0,1-4.785-4.785,58.692,58.692,0,0,0-117.385,0,4.785,4.785,0,0,1-9.57,0,68.263,68.263,0,0,1,136.525,0A4.785,4.785,0,0,1,7271.249,306Z" fill="#2bb788"/>
    </g>
    <text id="_4" data-name="4" transform="translate(7033.237 345.145)" fill="#ffac00" font-size="153.909" font-family="Orkney-Bold, Orkney" font-weight="700"><tspan x="0" y="0">4</tspan></text>
    <text id="_4-2" data-name="4" transform="translate(7284.57 345.144)" fill="#ffac00" font-size="153.909" font-family="Orkney-Bold, Orkney" font-weight="700"><tspan x="0" y="0">4</tspan></text>
  </g>
</svg>
