<svg xmlns="http://www.w3.org/2000/svg" width="391.798" height="177" viewBox="0 0 391.798 177">
  <g id="Group_2076" data-name="Group 2076" transform="translate(-422.102 -215.145)">
    <path id="Path_156" data-name="Path 156" d="M8439.211,316.292a5.451,5.451,0,1,1-5.45-5.451A5.443,5.443,0,0,1,8439.211,316.292Z" transform="translate(-7900)" fill="#2bb788"/>
    <path id="Path_157" data-name="Path 157" d="M8444.025,330.733a5.451,5.451,0,1,1-5.451-5.452A5.445,5.445,0,0,1,8444.025,330.733Z" transform="translate(-7900)" fill="#2bb788"/>
    <path id="Shape" d="M8514.651,337.663a4.522,4.522,0,1,0,9.044,0,27.133,27.133,0,1,0-54.266,0,4.522,4.522,0,1,0,9.044,0,18.089,18.089,0,0,1,36.178,0Z" transform="translate(-7900)" fill="#2bb788"/>
    <g id="Group_2075" data-name="Group 2075">
      <path id="Path_158" data-name="Path 158" d="M8560.113,306a4.785,4.785,0,0,1-4.785-4.785,58.692,58.692,0,0,0-117.385,0,4.785,4.785,0,0,1-9.57,0,68.263,68.263,0,0,1,136.526,0A4.786,4.786,0,0,1,8560.113,306Z" transform="translate(-7900)" fill="#2bb788"/>
      <g id="Group_55" data-name="Group 55" transform="translate(-7900)">
        <path id="Path_159" data-name="Path 159" d="M8588.211,316.292a5.451,5.451,0,1,1-5.45-5.451A5.443,5.443,0,0,1,8588.211,316.292Z" fill="#2bb788"/>
        <path id="Path_160" data-name="Path 160" d="M8593.025,330.733a5.451,5.451,0,1,1-5.451-5.452A5.445,5.445,0,0,1,8593.025,330.733Z" fill="#2bb788"/>
        <path id="Shape-2" data-name="Shape" d="M8622.953,274.342a13.574,13.574,0,1,0,13.574,13.575A13.59,13.59,0,0,0,8622.953,274.342Zm0,18.1a4.525,4.525,0,1,1,4.524-4.524A4.52,4.52,0,0,1,8622.953,292.441Z" fill="#2bb788"/>
        <path id="Shape-3" data-name="Shape" d="M8668.175,274.342a13.574,13.574,0,1,0,13.574,13.575A13.59,13.59,0,0,0,8668.175,274.342Zm0,18.1a4.525,4.525,0,1,1,4.525-4.524A4.518,4.518,0,0,1,8668.175,292.441Z" fill="#2bb788"/>
        <path id="Shape-4" data-name="Shape" d="M8663.651,337.663a4.522,4.522,0,1,0,9.044,0,27.133,27.133,0,1,0-54.266,0,4.522,4.522,0,1,0,9.044,0,18.089,18.089,0,0,1,36.178,0Z" fill="#2bb788"/>
        <path id="Path_161" data-name="Path 161" d="M8709.113,306a4.785,4.785,0,0,1-4.785-4.785,58.692,58.692,0,0,0-117.385,0,4.785,4.785,0,0,1-9.57,0,68.263,68.263,0,0,1,136.526,0A4.786,4.786,0,0,1,8709.113,306Z" fill="#2bb788"/>
      </g>
      <text id="_5" data-name="5" transform="translate(422.102 345.145)" fill="#ffac00" font-size="153.909" font-family="Orkney-Bold, Orkney" font-weight="700"><tspan x="0" y="0">5</tspan></text>
      <g id="Group_56" data-name="Group 56" transform="translate(-7900)">
        <path id="Path_162" data-name="Path 162" d="M8487.777,295.294l0,.005a2.73,2.73,0,0,1-3.86,0l-6.634-6.634a2.73,2.73,0,0,0-3.861,0l-6.077,6.078a2.731,2.731,0,0,1-3.863,0h0a2.73,2.73,0,0,1,0-3.859l6.078-6.074a2.729,2.729,0,0,0,0-3.861l-5.531-5.533a2.729,2.729,0,0,1,0-3.86l0-.005a2.728,2.728,0,0,1,3.859,0l5.532,5.533a2.731,2.731,0,0,0,3.862,0L8483.36,271a2.729,2.729,0,0,1,3.858,0h0a2.73,2.73,0,0,1,0,3.863l-6.078,6.078a2.73,2.73,0,0,0,0,3.86l6.635,6.634A2.732,2.732,0,0,1,8487.777,295.294Z" fill="#2bb788"/>
        <path id="Path_163" data-name="Path 163" d="M8526.82,295.294l0,.005a2.73,2.73,0,0,1-3.86,0l-6.635-6.634a2.729,2.729,0,0,0-3.86,0l-6.078,6.078a2.729,2.729,0,0,1-3.862,0h0a2.729,2.729,0,0,1,0-3.859l6.078-6.074a2.729,2.729,0,0,0,0-3.861l-5.532-5.533a2.729,2.729,0,0,1,0-3.86l0-.005a2.73,2.73,0,0,1,3.86,0l5.532,5.533a2.73,2.73,0,0,0,3.861,0L8522.4,271a2.729,2.729,0,0,1,3.858,0h0a2.73,2.73,0,0,1,0,3.863l-6.077,6.078a2.73,2.73,0,0,0,0,3.86l6.635,6.634A2.732,2.732,0,0,1,8526.82,295.294Z" fill="#2bb788"/>
      </g>
    </g>
  </g>
</svg>
