<svg xmlns="http://www.w3.org/2000/svg" width="164.084" height="117.4" viewBox="0 0 164.084 117.4">
  <g id="Group_2009" data-name="Group 2009" transform="translate(-164.84 -75.741)">
    <g id="Group_2007" data-name="Group 2007" transform="translate(180.983 75.741)">
      <path id="Path_3329" data-name="Path 3329" d="M268.524,336.808l-.059-25.711-7.42,3.855v17.2l-11.452,2.667-1.754.408-6.66,1.551V318.44a68.459,68.459,0,0,0-11.365,4.481,41.524,41.524,0,0,0-7.8,5.044,18.629,18.629,0,0,0-4.47,5.255,10.854,10.854,0,0,0-1.432,5.126q0,4.967,2.454,7.229t8.414.881a12.5,12.5,0,0,0,3.886-1.488,10.1,10.1,0,0,0,2.191-1.8,5.346,5.346,0,0,0,1.168-2.2,7.372,7.372,0,0,0,.468,1.355,6.3,6.3,0,0,0,.73,1.118,2.631,2.631,0,0,0,1.081.8l11.335-2.632,1.754-.407Zm-34.414,1.612-6.719,1.565a4.285,4.285,0,0,1-3.214-.129,2.578,2.578,0,0,1-.994-2.341v-1.871a4.128,4.128,0,0,1,.847-2.069,11.78,11.78,0,0,1,2.191-2.266,26.379,26.379,0,0,1,3.418-2.32,39.981,39.981,0,0,1,4.47-2.216Z" transform="translate(-216.113 -236.996)" fill="#2bb788"/>
      <path id="Path_3330" data-name="Path 3330" d="M324.165,419.805a5.681,5.681,0,0,0-3.185,2.057,5.455,5.455,0,0,0-1.314,3.5,3.22,3.22,0,0,0,1.314,2.774,3.74,3.74,0,0,0,3.185.525,5.46,5.46,0,0,0,3.068-1.969,5.252,5.252,0,0,0,1.256-3.37,3.546,3.546,0,0,0-1.256-2.907A3.386,3.386,0,0,0,324.165,419.805Z" transform="translate(-287.063 -311.395)" fill="#2bb788"/>
      <path id="Path_3331" data-name="Path 3331" d="M360.91,411.29a5.68,5.68,0,0,0-3.184,2.059,5.461,5.461,0,0,0-1.314,3.5,3.225,3.225,0,0,0,1.314,2.777,3.738,3.738,0,0,0,3.184.527,5.456,5.456,0,0,0,3.068-1.971,5.258,5.258,0,0,0,1.257-3.374,3.552,3.552,0,0,0-1.257-2.91A3.384,3.384,0,0,0,360.91,411.29Z" transform="translate(-312.239 -305.561)" fill="#2bb788"/>
      <path id="Path_3332" data-name="Path 3332" d="M405.031,297.015l7.421-1.723V255.414l-7.421,3.868Z" transform="translate(-345.551 -198.845)" fill="#2bb788"/>
      <path id="Path_3333" data-name="Path 3333" d="M222.482,218.494a5.761,5.761,0,0,1,.263-1.641,5.094,5.094,0,0,1,.789-1.59,3.366,3.366,0,0,1,1.315-1.072,3.191,3.191,0,0,1,1.841-.2q2.161.424,4.119.983t3.594,1.109q1.635.549,2.95,1a18.5,18.5,0,0,0,2.25.639,3.57,3.57,0,0,0,1.636.023q2.1-.5,4.441-5.855a13.089,13.089,0,0,0,1.344-4.186,11.515,11.515,0,0,0-.409-3.42q-.877-3.308-1.636-5.617a25.974,25.974,0,0,0-1.519-3.769q-2.572-4.891-6.427-3.969-2.63.629-5.522,4.773a67.326,67.326,0,0,0-6.048,11.387,9.479,9.479,0,0,0-3.447.674A9.768,9.768,0,0,0,219,209.615a9.153,9.153,0,0,0-2.1,2.808,7.862,7.862,0,0,0-.789,3.489v17.645l6.369-1.5Zm9.436-14.2a19.185,19.185,0,0,1,1.841-2.867,6.046,6.046,0,0,1,2.045-1.834q1.694-.4,2.834,2.574a37.77,37.77,0,0,1,1.841,8.084q-1.636-.607-4.119-1.394a47,47,0,0,0-6.048-1.4Q230.954,206.071,231.918,204.291Z" transform="translate(-216.113 -154.56)" fill="#2bb788"/>
      <path id="Path_3334" data-name="Path 3334" d="M453.328,113.643a5.51,5.51,0,0,0,3.068-2,5.319,5.319,0,0,0,1.256-3.394,3.538,3.538,0,0,0-1.256-2.908,3.362,3.362,0,0,0-3.068-.587,5.738,5.738,0,0,0-3.184,2.09,5.533,5.533,0,0,0-1.315,3.523,3.208,3.208,0,0,0,1.315,2.775A3.712,3.712,0,0,0,453.328,113.643Z" transform="translate(-375.56 -95.529)" fill="#2bb788"/>
      <path id="Path_3335" data-name="Path 3335" d="M490.074,104.814a5.508,5.508,0,0,0,3.068-2,5.328,5.328,0,0,0,1.257-3.4,3.545,3.545,0,0,0-1.257-2.912,3.359,3.359,0,0,0-3.068-.589,5.737,5.737,0,0,0-3.184,2.092,5.539,5.539,0,0,0-1.315,3.527,3.213,3.213,0,0,0,1.315,2.778A3.709,3.709,0,0,0,490.074,104.814Z" transform="translate(-400.736 -89.473)" fill="#2bb788"/>
      <path id="Path_3336" data-name="Path 3336" d="M573.4,84.794a5.5,5.5,0,0,0,3.068-2.006,5.346,5.346,0,0,0,1.256-3.405,3.561,3.561,0,0,0-1.256-2.92,3.353,3.353,0,0,0-3.068-.592,5.728,5.728,0,0,0-3.185,2.095A5.561,5.561,0,0,0,568.9,81.5a3.227,3.227,0,0,0,1.315,2.786A3.7,3.7,0,0,0,573.4,84.794Z" transform="translate(-457.825 -75.741)" fill="#2bb788"/>
      <path id="Path_3337" data-name="Path 3337" d="M647.444,195.214a5.693,5.693,0,0,0-3.184,2.085,5.552,5.552,0,0,0-1.315,3.537,3.255,3.255,0,0,0,1.315,2.8,3.706,3.706,0,0,0,3.184.523,5.468,5.468,0,0,0,3.067-2,5.346,5.346,0,0,0,1.257-3.407,3.588,3.588,0,0,0-1.257-2.933A3.355,3.355,0,0,0,647.444,195.214Z" transform="translate(-508.559 -157.513)" fill="#2bb788"/>
      <path id="Path_3338" data-name="Path 3338" d="M443.211,90.254l-7.42,3.908V111.52l-11.453,2.72-1.753.416-7.654,1.818V97.023l-7.421,3.9v17.31l-9.231,2.192-1.754.416-8.588,2.04a10.692,10.692,0,0,0,3.009-4.017,11.914,11.914,0,0,0,1.081-4.858q0-5.781-3.448-8.112t-9.524-.875a19.5,19.5,0,0,0-5.317,2.1,16.3,16.3,0,0,0-4.09,3.333,14.346,14.346,0,0,0-2.629,4.395,14.905,14.905,0,0,0-.935,5.342,8.048,8.048,0,0,0,1.169,4.311,5.779,5.779,0,0,0,3.1,2.56l-6.6,1.568-1.753.416-4.324,1.027a27.139,27.139,0,0,0-1.314-5.831,19.721,19.721,0,0,0-2.133-4.341,15.442,15.442,0,0,0-2.629-3.045,16.63,16.63,0,0,0-2.8-2,15.68,15.68,0,0,0-7.187-1.92l-1.636,6.847a13.6,13.6,0,0,1,5.492,2.24,11.317,11.317,0,0,1,4.5,6.916,15.482,15.482,0,0,1,.35,2.883L337.1,134.955a15.085,15.085,0,0,1-1.928.34,10.984,10.984,0,0,1-1.519.067q-.76-.053-1.4-.136l-.526,6.517q.642.083,1.4.137a11.014,11.014,0,0,0,1.519-.066,15.149,15.149,0,0,0,1.928-.339L362,135.455l1.753-.415,10.985-2.6,8.589-2.034,13.2-3.127,1.754-.415,24.306-5.756,1.753-.415,18.931-4.483ZM385.25,116.477a9.343,9.343,0,0,1-.935,2.61,11.763,11.763,0,0,1-1.987,2.683,11.939,11.939,0,0,1-3.33,2.353,7.245,7.245,0,0,1-3.3-.835,5.648,5.648,0,0,1-1.928-1.75,6.106,6.106,0,0,1-.906-2.14,9.917,9.917,0,0,1-.234-2,7.709,7.709,0,0,1,.2-1.638,4.746,4.746,0,0,1,.876-1.828,7.619,7.619,0,0,1,1.928-1.726,10.578,10.578,0,0,1,3.36-1.333,9.158,9.158,0,0,1,3.506-.307,4.041,4.041,0,0,1,1.957.8,2.5,2.5,0,0,1,.847,1.419,7.652,7.652,0,0,1,.175,1.55A12.18,12.18,0,0,1,385.25,116.477Z" transform="translate(-295.328 -85.685)" fill="#2bb788"/>
    </g>
    <g id="Group_2008" data-name="Group 2008" transform="translate(164.84 166.775)">
      <path id="Path_3339" data-name="Path 3339" d="M169.812,382.176l.034-.909a6.909,6.909,0,0,0-2-5.146c-1.681-2-3.011-3.712-3.011-6.093,0-2.663,1.82-5.149,5.847-5.149a9.171,9.171,0,0,1,5.006,1.4l-.84,2.2a6.233,6.233,0,0,0-3.537-1.083c-2.205.034-3.325,1.223-3.325,3.01,0,1.574.875,2.939,2.45,4.8a8.044,8.044,0,0,1,2.171,6.058l-.07.909Zm1.435,7.073a2.191,2.191,0,0,1-.036-4.376,2.191,2.191,0,0,1,.036,4.376Z" transform="translate(-164.84 -364.88)" fill="#2bb788"/>
    </g>
  </g>
</svg>
