<svg xmlns="http://www.w3.org/2000/svg" width="224.66" height="176.848" viewBox="0 0 224.66 176.848">
  <g id="Group_1753" data-name="Group 1753" transform="translate(-6388.34 -6712.209)">
    <g id="Group_1751" data-name="Group 1751">
      <g id="Group_1749" data-name="Group 1749">
        <path id="Path_3154" data-name="Path 3154" d="M6492.923,6852.4l3.733-.568v12.2l-4.266.619a31.3,31.3,0,0,1-7.018,13.961,28.585,28.585,0,0,1-18.306,10.188c-7.108.948-13.24-.74-18.3-5.143-5.064-4.375-7.553-10.067-7.553-17.265v-27.28l11.818,3.248v22.278a11.912,11.912,0,0,0,14.04,12.167,15.6,15.6,0,0,0,9.953-5.569,16.012,16.012,0,0,0,4.087-10.766v-40.55l11.817-2.027Zm-33.143-28.823,11.818-2.027v12.026l-11.818,1.946Z" fill="#2bb788"/>
        <path id="Path_3155" data-name="Path 3155" d="M6496.649,6851.835l7.909-1.2V6815.9l11.818-2.026v34.963l8.087-1.229V6860l-27.814,4.037Zm1.067,17.919,11.818-1.676v12.288l-11.818,1.595Zm13.683-1.941,11.819-1.676v12.382l-11.819,1.595Z" fill="#2bb788"/>
        <path id="Path_3156" data-name="Path 3156" d="M6524.459,6847.608l5.865-.891a22.184,22.184,0,0,1-2.133-10.038c0-12.322,9.153-26.5,24.614-29.148,13.684-2.347,25.147,6.814,25.857,20.611v23.99l-26.48,3.749c-7.2,1.045-12.617-.329-16.527-3.037v5.53l-11.2,1.625Zm42.386-6.443c0-6.864,1.243-14.5-4.089-18.787a12.315,12.315,0,0,0-9.951-2.261c-8.353,1.375-13.152,8.648-13.152,14.661,0,5.354,4,9.913,13.24,8.508Z" fill="#2bb788"/>
      </g>
      <g id="Group_1750" data-name="Group 1750">
        <path id="Path_3157" data-name="Path 3157" d="M6486.48,6806.032v-68.7l11.818-2.137v55.818l3.731-.567v13.33Z" fill="#2bb788"/>
        <path id="Path_3158" data-name="Path 3158" d="M6502.027,6790.445l7.908-1.2v-37.938l11.819-2.026v38.168l8.086-1.229v13.521l-27.813,4.037Zm7.908-57.456,11.819-2.137v13.466l-11.819,2.056Z" fill="#2bb788"/>
        <path id="Path_3159" data-name="Path 3159" d="M6529.836,6786.218l6.753-1.026,36.165-21.391-27.368-7.919v15.37l-11.818,1.871v-34.834l60.512,16.433v11.338l-55.979,32.48-8.265,1.2Z" fill="#2bb788"/>
        <path id="Path_3160" data-name="Path 3160" d="M6613,6785.955l-11.817,1.715v-73.323l11.817-2.138Z" fill="#2bb788"/>
      </g>
    </g>
    <g id="Group_1752" data-name="Group 1752">
      <path id="Path_3161" data-name="Path 3161" d="M6401.8,6868.581a14.861,14.861,0,0,0,.623-3.565c0-10.6-14.081-13.19-14.081-26.112,0-9.892,7.131-17.644,22.549-17.644a34.8,34.8,0,0,1,8.11.8l-1.873,9.8a35.423,35.423,0,0,0-7.041-.892c-6.5,0-9.266,3.388-9.266,7.131,0,8.288,13.277,12.121,13.277,24.953a18.811,18.811,0,0,1-.891,5.525Zm-.979,17.111h12.742v-11.853h-12.742Z" fill="#2bb788"/>
    </g>
  </g>
</svg>
