<svg xmlns="http://www.w3.org/2000/svg" width="112.715" height="112.738" viewBox="0 0 112.715 112.738">
  <g id="brain-white" transform="translate(-3683.476 -107.968)">
    <g id="_052---Split-Personality" data-name="052---Split-Personality">
      <path id="Shape" d="M3686.246,178.228a13.617,13.617,0,0,0,1.949,1.127c.813.417,2.175,1.112,2.269,1.6a3.243,3.243,0,0,1-.22,1.9c-.279.6-.574,1.117-.826,1.565-.69,1.215-1.842,3.25-.1,4.669.406.376,1.107.919,1.748,1.409a4.732,4.732,0,0,0-.613,2.711,2.713,2.713,0,0,0,1.114,1.849c.418.293.863.551,1.3.8,1.11.633,1.544.928,1.691,1.516a5.186,5.186,0,0,1-.188,2.255c-.109.5-.218,1.007-.28,1.5a11.193,11.193,0,0,0,.616,5.062,7.037,7.037,0,0,0,6.644,5.12,7.473,7.473,0,0,0,1.542-.164,141.812,141.812,0,0,0,15.842-4.738c4.231,2.482,6.907,10.037,7.6,12.87a1.878,1.878,0,0,0,1.824,1.426l47.161-.131a1.88,1.88,0,0,0,1.789-2.443,14.53,14.53,0,0,0-1.9-3.57,18.016,18.016,0,0,1-1.217-2.033,35.791,35.791,0,0,1-2.122-5.349,63.038,63.038,0,0,1-2.22-11.11,30.708,30.708,0,0,1-.1-5.449c.122,0,.239.019.361.019a26.3,26.3,0,0,0,14.746-48.074,52.156,52.156,0,0,0-1.44-7.212,31.3,31.3,0,0,0-11.228-16.158,54.614,54.614,0,0,0-15.653-8.895,1.529,1.529,0,0,0-.164-.041,26.1,26.1,0,0,0-10.681-2.289c-.376,0-.739.041-1.111.056-.026,0-.047-.016-.073-.016-1.535-.064-2.98-.055-4.421.018a125.107,125.107,0,0,0-18.173,2.61c-8.47,1.691-14.629,4.658-18.832,9.1a36.035,36.035,0,0,0-7.537,12.295,50.579,50.579,0,0,0-1.664,6l-.188.791a24.245,24.245,0,0,1-1.611,4.282c-.375.855-.762,1.71-1.1,2.6a6.344,6.344,0,0,0-.492,3.14,7.174,7.174,0,0,0,2.738,4.2c.919.844,1.522,1.438,1.529,1.954a3.286,3.286,0,0,1-.319.818A72.6,72.6,0,0,1,3686,169.183c-1.36,1.657-2.785,3.588-2.486,5.522A5.775,5.775,0,0,0,3686.246,178.228Zm106.212-13.889a22.573,22.573,0,0,1-22.547,22.547c-.639,0-1.267-.044-1.892-.1h-.031a22.335,22.335,0,0,1-20.249-26.324,26.046,26.046,0,0,0,7.157-1.653,5.637,5.637,0,1,0,8.234-5.073,26.322,26.322,0,0,0,7.547-11.9A22.556,22.556,0,0,1,3792.458,164.339Zm-46.973-52.61a22.547,22.547,0,1,1-22.547,22.547A22.547,22.547,0,0,1,3745.485,111.729ZM3762.4,158.7a1.879,1.879,0,1,1-1.879-1.879A1.879,1.879,0,0,1,3762.4,158.7Zm17.207-22.318c.348,1.225.641,2.533.9,3.893a26.14,26.14,0,0,0-9.019-2.164,25.532,25.532,0,0,0-3.318-17.1c.5.375,1,.751,1.5,1.142A27.266,27.266,0,0,1,3779.6,136.384Zm-90.628,35.1a75.8,75.8,0,0,0,8.6-13.966,5.583,5.583,0,0,0,.726-2.537,6.565,6.565,0,0,0-2.746-4.7c-.751-.7-1.476-1.355-1.559-1.964a3.5,3.5,0,0,1,.291-1.289c.306-.8.66-1.593,1.015-2.382a27.424,27.424,0,0,0,1.839-4.957l.188-.8a46.994,46.994,0,0,1,1.539-5.552,32.229,32.229,0,0,1,6.742-11.011c3.6-3.807,9.251-6.495,16.842-8,2.416-.492,5.051-.994,7.773-1.43a26.256,26.256,0,0,0,13.7,47.61,26.642,26.642,0,0,0-.312,3.837,26.322,26.322,0,0,0,22.152,25.944,34.339,34.339,0,0,0,.164,6.242,66.769,66.769,0,0,0,2.363,11.78,39.339,39.339,0,0,0,2.332,5.883,20.639,20.639,0,0,0,1.458,2.456c.041.062.083.124.124.188l-42.617.116a29.969,29.969,0,0,0-6.614-12l1.764-.617c1.225-.426,2.15-.751,2.631-.9,8.051-2.543,12.075-6.2,11.966-10.9a1.879,1.879,0,1,0-3.757.088c.045,1.934-1.539,4.754-9.354,7.223-.5.161-1.454.494-2.72.939-1.408.492-3.208,1.128-5.2,1.8a145.887,145.887,0,0,1-16.159,4.885,3.34,3.34,0,0,1-3.878-2.5,7.49,7.49,0,0,1-.442-3.352c.051-.395.139-.787.226-1.18a8.228,8.228,0,0,0,.161-4,6.236,6.236,0,0,0-3.476-3.841q-.2-.109-.39-.224a7.068,7.068,0,0,1,.725-1.163,1.879,1.879,0,0,0-.361-2.673c-.451-.333-1.514-1.128-2.292-1.755.09-.164.188-.344.282-.506.295-.518.633-1.127.96-1.815a7.032,7.032,0,0,0,.5-4.205c-.451-2.294-2.647-3.417-4.252-4.237a10.488,10.488,0,0,1-1.548-.9,8.024,8.024,0,0,1-1.127-.911C3687.238,173.921,3687.543,173.228,3688.974,171.479Z" fill="#fff"/>
      <path id="Shape-2" data-name="Shape" d="M3702.206,142.806a1.877,1.877,0,0,0,2.254-1.4l.188-.821a41.971,41.971,0,0,1,1.257-4.636,24.786,24.786,0,0,1,5.156-8.455,19.647,19.647,0,0,1,8.662-4.755,1.88,1.88,0,0,0-1.1-3.6,23.292,23.292,0,0,0-10.3,5.77,28.509,28.509,0,0,0-5.945,9.741,44.322,44.322,0,0,0-1.39,5.086l-.188.814A1.878,1.878,0,0,0,3702.206,142.806Z" fill="#fff"/>
      <circle id="Oval" cx="1.879" cy="1.879" r="1.879" transform="translate(3698.512 145.549)" fill="#fff"/>
      <path id="Shape-3" data-name="Shape" d="M3736.09,134.276a5.637,5.637,0,1,0-5.637-5.637A5.637,5.637,0,0,0,3736.09,134.276Zm0-7.516a1.879,1.879,0,1,1-1.879,1.879A1.879,1.879,0,0,1,3736.09,126.76Z" fill="#fff"/>
      <path id="Shape-4" data-name="Shape" d="M3754.879,134.276a5.637,5.637,0,1,0-5.636-5.637A5.637,5.637,0,0,0,3754.879,134.276Zm0-7.516a1.879,1.879,0,1,1-1.879,1.879A1.879,1.879,0,0,1,3754.879,126.76Z" fill="#fff"/>
      <path id="Shape-5" data-name="Shape" d="M3737.969,139.913a1.879,1.879,0,0,0-3.758,0,11.274,11.274,0,0,0,22.547,0,1.879,1.879,0,0,0-3.758,0,7.516,7.516,0,0,1-15.031,0Z" fill="#fff"/>
      <path id="Shape-6" data-name="Shape" d="M3779.3,164.339a5.637,5.637,0,1,0-5.637-5.637A5.637,5.637,0,0,0,3779.3,164.339Zm0-7.516a1.879,1.879,0,1,1-1.879,1.879A1.879,1.879,0,0,1,3779.3,156.823Z" fill="#fff"/>
      <path id="Shape-7" data-name="Shape" d="M3769.911,168.1a11.284,11.284,0,0,0-11.274,11.273,1.879,1.879,0,0,0,3.758,0,7.516,7.516,0,1,1,15.031,0,1.879,1.879,0,0,0,3.758,0A11.284,11.284,0,0,0,3769.911,168.1Z" fill="#fff"/>
    </g>
  </g>
</svg>
