<svg xmlns="http://www.w3.org/2000/svg" width="280.952" height="69.645" viewBox="0 0 280.952 69.645">
  <g id="Group_1726" data-name="Group 1726" transform="translate(-6272.55 -7353.439)">
    <path id="Path_3094" data-name="Path 3094" d="M6287.6,7398.252a10.625,10.625,0,0,0-.016-2.694c-1.445-7.773-12.783-7.479-14.76-16.848-1.513-7.172,3.041-14.089,15.534-16.357a30.2,30.2,0,0,1,6.661-.558q-.149,3.719-.279,7.438a29.9,29.9,0,0,0-5.748.34c-5.209.946-6.938,3.855-6.41,6.582,1.184,6.017,12.129,6.9,13.746,16.324a13.473,13.473,0,0,1,.026,4.165Q6291.978,7397.418,6287.6,7398.252Zm1.644,12.63q4.791-.919,9.592-1.766-.763-4.337-1.529-8.673-4.866.858-9.722,1.79Q6288.42,7406.556,6289.249,7410.882Z" fill="#fff"/>
    <path id="Path_3095" data-name="Path 3095" d="M6315.456,7406.406q-3.392-22.626-6.782-45.251,4.794-.719,9.6-1.37,2.484,18.308,4.968,36.614,1.436-.195,2.871-.383.573,4.366,1.146,8.732Q6321.348,7405.524,6315.456,7406.406Z" fill="#fff"/>
    <path id="Path_3096" data-name="Path 3096" d="M6326.109,7396.016q1.437-.189,2.874-.371-1.569-12.382-3.139-24.766,4.722-.6,9.451-1.131,1.89,16.779,3.781,33.559-5.915.666-11.821,1.441Q6326.682,7400.381,6326.109,7396.016Zm-1.781-37.092q4.806-.61,9.618-1.152.492,4.375.986,8.752-4.75.535-9.5,1.137Q6324.882,7363.292,6324.328,7358.924Z" fill="#fff"/>
    <path id="Path_3097" data-name="Path 3097" d="M6354.7,7395.422c.839,10.235-6.215,19.852-16.292,21.024q-.508-4.374-1.015-8.748c5.356-.621,8.764-5.879,8.216-11.418q-1.387-13.669-2.774-27.34,4.733-.478,9.47-.894Q6353.5,7381.733,6354.7,7395.422Z" fill="#fff"/>
    <path id="Path_3098" data-name="Path 3098" d="M6363.382,7401.028q-1.708-22.813-3.417-45.628,4.824-.361,9.651-.656,1.125,18.441,2.248,36.881,1.444-.087,2.886-.169l.5,8.793Q6369.313,7400.584,6363.382,7401.028Z" fill="#fff"/>
    <path id="Path_3099" data-name="Path 3099" d="M6374.752,7391.455q3.06-.173,6.12-.317l-1.179-24.936q4.748-.226,9.5-.383.417,12.476.833,24.95,3.13-.1,6.263-.179.1,4.4.21,8.8-10.627.253-21.246.854Q6375,7395.851,6374.752,7391.455Zm-1.219-37q4.828-.266,9.66-.466.183,4.4.365,8.8-4.772.2-9.539.461Q6373.776,7358.846,6373.533,7354.45Zm11.186-.528q4.831-.19,9.665-.312.113,4.4.224,8.8-4.773.122-9.544.308Q6384.892,7358.323,6384.719,7353.922Z" fill="#fff"/>
    <path id="Path_3100" data-name="Path 3100" d="M6427.469,7390.582q10.737.25,21.466.85l-.492,8.793q-11.94-.668-23.9-.9.075-3.906.149-7.811-11.07,3.694-21.884,7.757-3.159.045-6.317.12-.105-4.4-.21-8.8,2.614-.063,5.231-.1,13.927-5.289,28.285-9.981-10.655-4.255-21.571-8.169.027,4.965.056,9.932-4.635.026-9.269.116l-.441-22.642q24.7,8.063,48.175,17.846-.185,3.572-.368,7.142Q6436.838,7387.52,6427.469,7390.582Zm-6.841-37.143q4.833.06,9.667.186-.116,4.4-.23,8.8-4.772-.126-9.546-.184Q6420.575,7357.843,6420.628,7353.439Z" fill="#fff"/>
    <path id="Path_3101" data-name="Path 3101" d="M6449.553,7354.4q4.83.259,9.656.587-.3,4.394-.6,8.787-4.765-.324-9.534-.58Q6449.317,7358.792,6449.553,7354.4Zm-.614,37.037q1.444.081,2.888.168l1.5-24.919q4.745.286,9.486.639-1.251,16.839-2.5,33.678-5.931-.441-11.868-.772Zm11.794-36.345q4.826.338,9.648.742-.369,4.387-.737,8.776-4.761-.4-9.526-.733Q6460.426,7359.48,6460.733,7355.087Z" fill="#fff"/>
    <path id="Path_3102" data-name="Path 3102" d="M6511.474,7406.836q-11.109-1.715-22.259-3.044c-10.016-1.2-17.527-9.491-16.736-18.733.793-9.3,10.169-16.063,20.734-14.8q10.235,1.219,20.437,2.749-1.849,12.345-3.7,24.688,1.433.215,2.867.436Q6512.145,7402.485,6511.474,7406.836Zm-8.437-26.447q-5.429-.737-10.866-1.385c-5.413-.646-9.944,2.618-10.388,6.965s3.216,8.451,8.475,9.078c4.655.574,2.741.31,10.607,1.352Q6501.951,7388.4,6503.037,7380.389Z" fill="#fff"/>
    <path id="Path_3103" data-name="Path 3103" d="M6512.82,7398.133q3.037.468,6.068.965,2.019-12.316,4.038-24.635,4.7.771,9.4,1.607-2.19,12.29-4.38,24.578,3.1.551,6.188,1.133-.814,4.328-1.628,8.655-10.49-1.972-21.029-3.6Q6512.148,7402.484,6512.82,7398.133Zm-1.188,13.016q4.448.693,8.887,1.447-.737,4.341-1.475,8.682-4.378-.743-8.766-1.427Q6510.955,7415.5,6511.632,7411.149Zm10.289,1.687q4.438.764,8.869,1.59-.807,4.329-1.615,8.658-4.369-.816-8.748-1.569Z" fill="#fff"/>
    <path id="Path_3104" data-name="Path 3104" d="M6532.506,7410.436q.814-4.328,1.628-8.655,1.428.267,2.853.543,3.5-18.143,6.988-36.283,4.768.918,9.527,1.9l-9.279,44.806Q6538.373,7411.539,6532.506,7410.436Z" fill="#fff"/>
  </g>
</svg>
