<svg xmlns="http://www.w3.org/2000/svg" width="39.495" height="50.582" viewBox="0 0 39.495 50.582">
  <g id="Group_985" data-name="Group 985" transform="translate(-9221.715 -7011.509)">
    <g id="Group_972" data-name="Group 972">
      <g id="Group_971" data-name="Group 971">
        <path id="Path_2039" data-name="Path 2039" d="M9236.711,7027.348a.74.74,0,0,0-.741.741v.792a.741.741,0,0,0,1.482,0v-.792A.741.741,0,0,0,9236.711,7027.348Z" fill="#182445"/>
      </g>
    </g>
    <g id="Group_974" data-name="Group 974">
      <g id="Group_973" data-name="Group 973">
        <path id="Path_2040" data-name="Path 2040" d="M9246.214,7027.348a.74.74,0,0,0-.741.741v.792a.741.741,0,0,0,1.482,0v-.792A.741.741,0,0,0,9246.214,7027.348Z" fill="#182445"/>
      </g>
    </g>
    <g id="Group_976" data-name="Group 976">
      <g id="Group_975" data-name="Group 975">
        <path id="Path_2041" data-name="Path 2041" d="M9244.365,7033.112a.739.739,0,0,0-1.047-.007,3.267,3.267,0,0,1-3.711,0,.741.741,0,1,0-1.041,1.055,4.675,4.675,0,0,0,5.792,0A.74.74,0,0,0,9244.365,7033.112Z" fill="#182445"/>
      </g>
    </g>
    <g id="Group_978" data-name="Group 978">
      <g id="Group_977" data-name="Group 977">
        <path id="Path_2042" data-name="Path 2042" d="M9237.5,7024.972h-1.583a.741.741,0,1,0,0,1.482h1.584a.741.741,0,1,0,0-1.482Z" fill="#182445"/>
      </g>
    </g>
    <g id="Group_980" data-name="Group 980">
      <g id="Group_979" data-name="Group 979">
        <path id="Path_2043" data-name="Path 2043" d="M9247.006,7024.972h-1.584a.741.741,0,1,0,0,1.482h1.584a.741.741,0,1,0,0-1.482Z" fill="#182445"/>
      </g>
    </g>
    <g id="Group_982" data-name="Group 982">
      <g id="Group_981" data-name="Group 981">
        <path id="Path_2044" data-name="Path 2044" d="M9257.331,7046.8l-5.341-1.642a1.7,1.7,0,0,0-.941-1.623l-3.3-1.651v-2.355a11.052,11.052,0,0,0,4.645-7.534h.44a2.808,2.808,0,0,0,2.82-2.443,2.733,2.733,0,0,0-.689-2.1,2.7,2.7,0,0,0-.881-.646v-8.22a5.5,5.5,0,0,0-5.493-5.493h-.125a9.341,9.341,0,0,0-5.467-1.584,18.886,18.886,0,0,0-9.217,2.081,32.158,32.158,0,0,1-4.6,1.777.738.738,0,0,0-.475,1,6.664,6.664,0,0,0,1.207,1.757,6.051,6.051,0,0,0-1.067,3.9v4.822a2.7,2.7,0,0,0,1.137,5.158h.554a11.054,11.054,0,0,0,4.646,7.535v2.354l-3.3,1.651a1.7,1.7,0,0,0-.941,1.623l-5.341,1.642a5.465,5.465,0,0,0-3.878,5.25v9.3a.741.741,0,0,0,1.482,0v-9.3a3.991,3.991,0,0,1,2.832-3.834l5.555-1.708.98,1.308-1.114,1.114a2.324,2.324,0,0,0-.436,2.683l2.121,4.242h-2.02v-.843a.741.741,0,0,0-1.482,0v.843h-3.219a.741.741,0,0,0-.74.741v4.752a.741.741,0,0,0,.74.741h7.92a.741.741,0,0,0,.741-.741v-1.613l.972,1.944a.741.741,0,1,0,1.325-.663l-5.033-10.066a.843.843,0,0,1,.158-.973l1.569-1.568a.741.741,0,0,0,.068-.969l-1.679-2.238a.228.228,0,0,1,.081-.342l2.918-1.459,2.06,7.064a.742.742,0,0,0,1.424-.415l-.325-1.114a8.662,8.662,0,0,0,5.7,0l-2.848,9.765-1.6-5.483a.741.741,0,1,0-1.422.415l2.31,7.921a.741.741,0,0,0,1.423,0l5.295-18.154,2.918,1.459a.23.23,0,0,1,.081.342l-1.679,2.238a.742.742,0,0,0,.069.969l1.567,1.568a.841.841,0,0,1,.158.973l-5.033,10.067a.741.741,0,0,0,1.326.662l5.032-10.066a2.319,2.319,0,0,0-.436-2.683l-1.113-1.114.979-1.308,5.557,1.708a3.991,3.991,0,0,1,2.831,3.834v9.3a.741.741,0,0,0,1.482,0v-9.3A5.466,5.466,0,0,0,9257.331,7046.8Zm-23.737,13.807h-6.437v-3.27h2.478v.051a.741.741,0,0,0,1.482,0v-.051h2.478v3.27Zm.8-45.67a17.462,17.462,0,0,1,8.605-1.948c2.733,0,5.176,1.144,5.682,2.661a.741.741,0,1,0,1.405-.469,3.251,3.251,0,0,0-.151-.376,4.015,4.015,0,0,1,2.667,3.779v7.97h-.843a.844.844,0,0,1-.843-.843v-.792a9.444,9.444,0,0,0-2.592-6.067.743.743,0,0,0-.748-.183c-4.113,1.3-9.912,2.394-14.183.233a7.975,7.975,0,0,1-2.888-2.4A36.408,36.408,0,0,0,9234.392,7014.939Zm11.873,27.3-1.415,4.852a7.188,7.188,0,0,1-6.774,0l-1.415-4.852V7040.4a11.014,11.014,0,0,0,9.6,0Zm-4.8-2.219a9.565,9.565,0,0,1-9.554-9.554.741.741,0,0,0-1.482,0v.05h-.447a1.238,1.238,0,0,1-1.231-1.369,1.314,1.314,0,0,1,1.345-1.108h1.075a2.328,2.328,0,0,0,2.325-2.325v-2.8a.741.741,0,0,0-1.482,0v2.8a.844.844,0,0,1-.843.843h-.843v-4.539a4.994,4.994,0,0,1,.678-2.885,10.1,10.1,0,0,0,1.605,1.034,13.821,13.821,0,0,0,5.939,1.441,28.038,28.038,0,0,0,9.013-1.381,7.807,7.807,0,0,1,1.873,4.695v.792a2.327,2.327,0,0,0,2.324,2.325h1.188a1.239,1.239,0,0,1,1.232,1.369,1.314,1.314,0,0,1-1.346,1.108h-.334v-.043a.741.741,0,0,0-.741-.741h0a.741.741,0,0,0-.741.741A9.567,9.567,0,0,1,9241.462,7040.019Z" fill="#182445"/>
      </g>
    </g>
    <g id="Group_984" data-name="Group 984">
      <g id="Group_983" data-name="Group 983">
        <path id="Path_2045" data-name="Path 2045" d="M9256.509,7056.253h-1.239v-1.239a.741.741,0,0,0-1.481,0v1.239h-1.239a.741.741,0,1,0,0,1.482h1.239v1.239a.741.741,0,1,0,1.481,0v-1.239h1.239a.741.741,0,1,0,0-1.482Z" fill="#182445"/>
      </g>
    </g>
  </g>
</svg>
