<svg xmlns="http://www.w3.org/2000/svg" xmlns:xlink="http://www.w3.org/1999/xlink" width="100.077" height="40.786" viewBox="0 0 100.077 40.786">
  <defs>
    <linearGradient id="linear-gradient" x1="-7.959" y1="6.618" x2="1.048" y2="-0.17" gradientUnits="objectBoundingBox">
      <stop offset="0" stop-color="#2b3988"/>
      <stop offset="1" stop-color="#2bb788"/>
    </linearGradient>
    <linearGradient id="linear-gradient-2" x1="-13.572" y1="9.138" x2="0.899" y2="0.096" xlink:href="#linear-gradient"/>
    <linearGradient id="linear-gradient-3" x1="-8.168" y1="9.44" x2="0.407" y2="0.597" xlink:href="#linear-gradient"/>
    <linearGradient id="linear-gradient-4" x1="-5.837" y1="10.34" x2="-0.03" y2="1.332" xlink:href="#linear-gradient"/>
    <linearGradient id="linear-gradient-5" x1="-9.541" y1="10.859" x2="-0.966" y2="2.016" xlink:href="#linear-gradient"/>
    <linearGradient id="linear-gradient-6" x1="-11.255" y1="11.627" x2="-1.73" y2="2.619" xlink:href="#linear-gradient"/>
    <linearGradient id="linear-gradient-7" x1="-16.167" y1="9.4" x2="-3.281" y2="2.535" xlink:href="#linear-gradient"/>
    <linearGradient id="linear-gradient-8" x1="-11.459" y1="12.363" x2="-2.485" y2="3.519" xlink:href="#linear-gradient"/>
    <linearGradient id="linear-gradient-9" x1="-23.168" y1="9.607" x2="-6.259" y2="3.086" xlink:href="#linear-gradient"/>
    <linearGradient id="linear-gradient-10" x1="-3.998" y1="9.096" x2="-0.266" y2="1.979" xlink:href="#linear-gradient"/>
    <linearGradient id="linear-gradient-11" x1="-29.739" y1="30.739" x2="-6.099" y2="7.099" xlink:href="#linear-gradient"/>
    <linearGradient id="linear-gradient-12" x1="-2.48" y1="6.945" x2="1.205" y2="-1.155" xlink:href="#linear-gradient"/>
    <linearGradient id="linear-gradient-13" x1="0.5" y1="3.888" x2="0.5" y2="2.571" xlink:href="#linear-gradient"/>
    <linearGradient id="linear-gradient-14" x1="0.5" y1="4.65" x2="0.5" y2="2.981" xlink:href="#linear-gradient"/>
    <linearGradient id="linear-gradient-15" x1="0.5" y1="3.694" x2="0.5" y2="2.461" xlink:href="#linear-gradient"/>
    <linearGradient id="linear-gradient-16" x1="0.5" y1="3.563" x2="0.5" y2="2.394" xlink:href="#linear-gradient"/>
    <linearGradient id="linear-gradient-18" x1="0.5" y1="4.627" x2="0.5" y2="2.967" xlink:href="#linear-gradient"/>
    <linearGradient id="linear-gradient-19" x1="0.5" y1="3.997" x2="0.5" y2="2.625" xlink:href="#linear-gradient"/>
    <linearGradient id="linear-gradient-20" x1="0.5" y1="3.563" x2="0.5" y2="2.394" xlink:href="#linear-gradient"/>
    <linearGradient id="linear-gradient-21" x1="0.5" y1="4.742" x2="0.5" y2="3.036" xlink:href="#linear-gradient"/>
    <linearGradient id="linear-gradient-23" x1="0.5" y1="31.097" x2="0.5" y2="6.918" xlink:href="#linear-gradient"/>
    <linearGradient id="linear-gradient-24" x1="0.5" y1="31.097" x2="0.5" y2="6.918" xlink:href="#linear-gradient"/>
    <linearGradient id="linear-gradient-25" x1="0.5" y1="28.642" x2="0.5" y2="4.476" xlink:href="#linear-gradient"/>
    <linearGradient id="linear-gradient-26" x1="0.5" y1="49.32" x2="0.5" y2="12.219" xlink:href="#linear-gradient"/>
    <linearGradient id="linear-gradient-27" x1="0.5" y1="49.32" x2="0.5" y2="12.219" xlink:href="#linear-gradient"/>
    <linearGradient id="linear-gradient-28" x1="0.5" y1="1.71" x2="0.5" y2="0.624" xlink:href="#linear-gradient"/>
    <linearGradient id="linear-gradient-29" x1="0.5" y1="8.04" x2="0.5" y2="-2.06" xlink:href="#linear-gradient"/>
  </defs>
  <g id="Group_2350" data-name="Group 2350" transform="translate(-906.984 -12.387)">
    <g id="Group_2332" data-name="Group 2332">
      <g id="Group_2331" data-name="Group 2331">
        <path id="Path_2407" data-name="Path 2407" d="M929.563,53.031V42.944h4.3a2.956,2.956,0,0,1,1.328.3,3.4,3.4,0,0,1,1.037.781,3.736,3.736,0,0,1,.682,1.094,3.247,3.247,0,0,1,.249,1.236,3.526,3.526,0,0,1-.235,1.279,3.655,3.655,0,0,1-.653,1.094,3.094,3.094,0,0,1-1.016.767,3.039,3.039,0,0,1-1.321.284h-2.046v3.253Zm2.33-5.285h1.9a.9.9,0,0,0,.71-.355,1.574,1.574,0,0,0,.3-1.037,1.793,1.793,0,0,0-.093-.611,1.267,1.267,0,0,0-.248-.426.954.954,0,0,0-.356-.249,1.079,1.079,0,0,0-.4-.078h-1.819Z" fill="url(#linear-gradient)"/>
        <path id="Path_2408" data-name="Path 2408" d="M942.96,47.519a4.354,4.354,0,0,0-1.492.27,1.817,1.817,0,0,0-.966.767v4.475h-2.273V45.573h2.088v1.506a3.176,3.176,0,0,1,.988-1.18,2.279,2.279,0,0,1,1.286-.44h.227a.76.76,0,0,1,.142.014Z" fill="url(#linear-gradient-2)"/>
        <path id="Path_2409" data-name="Path 2409" d="M947.094,53.173a4.371,4.371,0,0,1-1.7-.312,3.684,3.684,0,0,1-1.257-.846,3.561,3.561,0,0,1-.774-1.236,4.24,4.24,0,0,1,0-2.94,3.561,3.561,0,0,1,.774-1.236,3.787,3.787,0,0,1,1.257-.853,4.281,4.281,0,0,1,1.7-.319,4.225,4.225,0,0,1,1.691.319,3.808,3.808,0,0,1,1.25.853,3.654,3.654,0,0,1,.781,1.236,4.064,4.064,0,0,1,.27,1.47,4.144,4.144,0,0,1-.263,1.47,3.561,3.561,0,0,1-.774,1.236,3.684,3.684,0,0,1-1.257.846A4.364,4.364,0,0,1,947.094,53.173Zm-1.662-3.864a2.063,2.063,0,0,0,.469,1.414,1.518,1.518,0,0,0,1.193.532,1.5,1.5,0,0,0,.654-.142,1.55,1.55,0,0,0,.518-.4,1.9,1.9,0,0,0,.348-.617,2.34,2.34,0,0,0,.128-.789,2.063,2.063,0,0,0-.469-1.414,1.5,1.5,0,0,0-1.179-.532,1.543,1.543,0,0,0-1.186.54,1.891,1.891,0,0,0-.348.618A2.355,2.355,0,0,0,945.432,49.309Z" fill="url(#linear-gradient-3)"/>
        <path id="Path_2410" data-name="Path 2410" d="M964,53.031h-2.273V48.84a1.7,1.7,0,0,0-.27-1.072.853.853,0,0,0-.7-.334,1.179,1.179,0,0,0-.462.1,1.585,1.585,0,0,0-.433.277,2.208,2.208,0,0,0-.362.419,2.269,2.269,0,0,0-.263.526v4.276h-2.273V48.84a1.7,1.7,0,0,0-.27-1.072.853.853,0,0,0-.7-.334,1.378,1.378,0,0,0-.888.362,2.066,2.066,0,0,0-.632.959v4.276h-2.273V45.573h2.045v1.25a2.709,2.709,0,0,1,1.115-1.037,3.593,3.593,0,0,1,1.641-.355,2.661,2.661,0,0,1,.817.113,1.963,1.963,0,0,1,.6.313,1.65,1.65,0,0,1,.412.461,2,2,0,0,1,.227.562,2.948,2.948,0,0,1,1.123-1.073,3.289,3.289,0,0,1,1.591-.376,2.188,2.188,0,0,1,1.143.262,1.908,1.908,0,0,1,.675.682,2.641,2.641,0,0,1,.32.917,6.221,6.221,0,0,1,.078.966Z" fill="url(#linear-gradient-4)"/>
        <path id="Path_2411" data-name="Path 2411" d="M969.058,53.173a4.421,4.421,0,0,1-1.684-.305,3.749,3.749,0,0,1-1.264-.831,3.56,3.56,0,0,1-.789-1.215,3.916,3.916,0,0,1-.27-1.442,4.3,4.3,0,0,1,.27-1.527A3.707,3.707,0,0,1,966.1,46.6a3.656,3.656,0,0,1,1.257-.853,4.364,4.364,0,0,1,1.7-.312,4.309,4.309,0,0,1,1.69.312,3.719,3.719,0,0,1,1.25.845,3.606,3.606,0,0,1,.775,1.229,4.118,4.118,0,0,1,.262,1.464c0,.132,0,.262-.014.39a2.654,2.654,0,0,1-.042.334h-5.512a1.533,1.533,0,0,0,.546,1.144,1.745,1.745,0,0,0,1.116.39,2.045,2.045,0,0,0,.959-.241,1.238,1.238,0,0,0,.618-.654l1.932.54a3.477,3.477,0,0,1-1.364,1.435A4.226,4.226,0,0,1,969.058,53.173Zm1.577-4.574a1.711,1.711,0,0,0-.512-1.123,1.543,1.543,0,0,0-1.094-.412,1.521,1.521,0,0,0-1.1.419,1.74,1.74,0,0,0-.5,1.116Z" fill="url(#linear-gradient-5)"/>
        <path id="Path_2412" data-name="Path 2412" d="M981.261,53.031h-2.273V48.84a1.67,1.67,0,0,0-.277-1.072.9.9,0,0,0-.732-.334,1.265,1.265,0,0,0-.483.1,2.021,2.021,0,0,0-.468.277,2.121,2.121,0,0,0-.405.419,1.977,1.977,0,0,0-.277.526v4.276h-2.273V45.573h2.045v1.25a2.715,2.715,0,0,1,1.165-1.03,3.945,3.945,0,0,1,1.733-.362,2.263,2.263,0,0,1,1.166.262,1.894,1.894,0,0,1,.681.682,2.641,2.641,0,0,1,.32.917,6.221,6.221,0,0,1,.078.966Z" fill="url(#linear-gradient-6)"/>
        <path id="Path_2413" data-name="Path 2413" d="M987.526,52.633a9.042,9.042,0,0,1-1.072.37,4.481,4.481,0,0,1-1.215.17,2.94,2.94,0,0,1-.8-.106,1.789,1.789,0,0,1-.66-.341,1.592,1.592,0,0,1-.448-.618,2.353,2.353,0,0,1-.163-.924V47.292h-.952V45.573h.952V43.2h2.273v2.373h1.52v1.719h-1.52V50.4a.608.608,0,0,0,.653.7,1.735,1.735,0,0,0,.526-.085,3.3,3.3,0,0,0,.469-.185Z" fill="url(#linear-gradient-7)"/>
        <path id="Path_2414" data-name="Path 2414" d="M990.524,53.173a2.932,2.932,0,0,1-1.03-.177,2.363,2.363,0,0,1-1.357-1.251,2.24,2.24,0,0,1-.2-.944,2.172,2.172,0,0,1,.235-1.009,2.312,2.312,0,0,1,.66-.781,3.27,3.27,0,0,1,1.009-.512,4.265,4.265,0,0,1,1.293-.184,5.21,5.21,0,0,1,.909.078,2.985,2.985,0,0,1,.767.234v-.341q0-1.293-1.491-1.293a3.318,3.318,0,0,0-1.165.206,5.64,5.64,0,0,0-1.165.618l-.668-1.42a5.959,5.959,0,0,1,1.534-.725,5.794,5.794,0,0,1,1.691-.241,3.888,3.888,0,0,1,2.614.8,2.91,2.91,0,0,1,.923,2.33v1.918a.793.793,0,0,0,.107.476.528.528,0,0,0,.376.163v1.918a3.819,3.819,0,0,1-.539.093c-.162.014-.308.021-.441.021a1.578,1.578,0,0,1-.966-.249,1.1,1.1,0,0,1-.412-.7l-.042-.341a3.413,3.413,0,0,1-1.187.98A3.228,3.228,0,0,1,990.524,53.173Zm.668-1.634a2.068,2.068,0,0,0,.717-.127,1.692,1.692,0,0,0,.576-.341.708.708,0,0,0,.326-.54V49.82a3.782,3.782,0,0,0-.646-.177,3.564,3.564,0,0,0-.647-.064,1.751,1.751,0,0,0-1.029.284.867.867,0,0,0-.405.739.843.843,0,0,0,.312.675A1.2,1.2,0,0,0,991.192,51.539Z" fill="url(#linear-gradient-8)"/>
        <path id="Path_2415" data-name="Path 2415" d="M996.7,42.66h2.273v7.715q0,.852.725.852a1.571,1.571,0,0,0,.376-.05,1.406,1.406,0,0,0,.377-.149l.3,1.705a4.355,4.355,0,0,1-.98.312,5.175,5.175,0,0,1-1.038.114,2.069,2.069,0,0,1-1.505-.511,1.968,1.968,0,0,1-.526-1.478Z" fill="url(#linear-gradient-9)"/>
      </g>
    </g>
    <g id="Group_2333" data-name="Group 2333">
      <path id="Path_2416" data-name="Path 2416" d="M950.666,18.809a11.388,11.388,0,0,0-7.1-.131,7.751,7.751,0,0,0-4.967,4.875c-.411,1.358-.246,3.076.942,3.852a3.128,3.128,0,0,0,3,0,13.5,13.5,0,0,0,2.536-1.827,12.28,12.28,0,0,1,4.441-2.384,7.313,7.313,0,0,1,4.476.156c.768.3,2.423,1.521,2.715.12C957.2,21.059,952.222,19.312,950.666,18.809Z" fill="url(#linear-gradient-10)"/>
      <circle id="Ellipse_108" data-name="Ellipse 108" cx="1.448" cy="1.448" r="1.448" transform="translate(957.942 23.42)" fill="url(#linear-gradient-11)"/>
    </g>
    <path id="Path_2417" data-name="Path 2417" d="M920.555,45.77a8.8,8.8,0,0,1,3.221.164,2.391,2.391,0,0,1,1.769,2.4c-.168,1.066-1.267,1.7-2.281,2.071a14.11,14.11,0,0,1-8.97.283,12.244,12.244,0,0,1-6.978-5.556c-.732-1.3-.243-2.41,1.354-2.288,1.035.08,1.686.868,2.563,1.324A19.109,19.109,0,0,0,920.555,45.77Z" fill="url(#linear-gradient-12)"/>
    <g id="Group_2334" data-name="Group 2334">
      <path id="Path_2418" data-name="Path 2418" d="M941.137,31.306l2.322,5.1,2.322-5.1h2.5v8.75h-2.022l-.013-5.543-2.034,4.669h-1.5l-2.035-4.669v5.543h-2.034v-8.75Z" fill="url(#linear-gradient-13)"/>
      <path id="Path_2419" data-name="Path 2419" d="M956.347,37.272h-4.694a1.513,1.513,0,0,0,1.536,1.186,2.235,2.235,0,0,0,1.585-.687l1.161,1.161a3.8,3.8,0,0,1-2.946,1.2,3.266,3.266,0,0,1-3.57-3.42,3.3,3.3,0,0,1,3.52-3.483C955.3,33.228,956.5,34.813,956.347,37.272ZM954.2,36.086a1.206,1.206,0,0,0-1.248-1.3,1.4,1.4,0,0,0-1.349,1.3Z" fill="url(#linear-gradient-14)"/>
      <path id="Path_2420" data-name="Path 2420" d="M964.306,30.794v9.262h-2.221v-.874a2.379,2.379,0,0,1-2,.961c-1.9,0-3.146-1.4-3.146-3.5,0-2.06,1.236-3.42,3.1-3.42a2.491,2.491,0,0,1,2.047.961V30.794Zm-2.221,5.917a1.47,1.47,0,1,0-2.909,0,1.47,1.47,0,1,0,2.909,0Z" fill="url(#linear-gradient-15)"/>
      <path id="Path_2421" data-name="Path 2421" d="M968.346,31.38a1.173,1.173,0,1,1-1.173-1.186A1.13,1.13,0,0,1,968.346,31.38Zm-.074,1.923v6.753h-2.21V33.3Z" fill="url(#linear-gradient-16)"/>
      <path id="Path_2422" data-name="Path 2422" d="M973,35.063c-.8,0-1.348.661-1.348,1.635s.549,1.635,1.348,1.635a1.389,1.389,0,0,0,1.323-.761l1.635.936a3.557,3.557,0,0,1-6.54-1.8,3.291,3.291,0,0,1,3.494-3.483,3.327,3.327,0,0,1,3.021,1.6l-1.61.936A1.547,1.547,0,0,0,973,35.063Z" fill="url(#linear-gradient-14)"/>
      <path id="Path_2423" data-name="Path 2423" d="M982.87,35.662v4.394h-2.185v-.762a2.435,2.435,0,0,1-2.034.861,2.077,2.077,0,0,1-2.31-2.109c0-1.285.912-2.022,2.584-2.047h1.76v-.075c0-.637-.436-1.011-1.286-1.011a4.952,4.952,0,0,0-2.022.536l-.611-1.5a7.442,7.442,0,0,1,3.145-.737C981.771,33.215,982.857,34.114,982.87,35.662Zm-2.185,2.109v-.586h-1.323c-.624,0-.936.224-.936.7s.337.761.911.761A1.332,1.332,0,0,0,980.685,37.771Z" fill="url(#linear-gradient-18)"/>
      <path id="Path_2424" data-name="Path 2424" d="M988.757,39.706a3.716,3.716,0,0,1-1.822.449A2.051,2.051,0,0,1,984.676,38V35.1h-.936V33.627h.936V31.755h2.209v1.872h1.748V35.1h-1.748v2.547c0,.5.225.724.612.711a2.324,2.324,0,0,0,.836-.225Z" fill="url(#linear-gradient-19)"/>
      <path id="Path_2425" data-name="Path 2425" d="M992.1,31.38a1.174,1.174,0,1,1-1.174-1.186A1.131,1.131,0,0,1,992.1,31.38Zm-.075,1.923v6.753h-2.21V33.3Z" fill="url(#linear-gradient-20)"/>
      <path id="Path_2426" data-name="Path 2426" d="M995.093,33.3,996.5,38l1.424-4.693h2.221l-2.534,6.753H995.33L992.809,33.3Z" fill="url(#linear-gradient-21)"/>
      <path id="Path_2427" data-name="Path 2427" d="M1007.048,37.272h-4.694a1.513,1.513,0,0,0,1.536,1.186,2.235,2.235,0,0,0,1.585-.687l1.161,1.161a3.8,3.8,0,0,1-2.946,1.2,3.266,3.266,0,0,1-3.57-3.42,3.305,3.305,0,0,1,3.52-3.483C1006,33.228,1007.2,34.813,1007.048,37.272Zm-2.147-1.186a1.206,1.206,0,0,0-1.248-1.3,1.4,1.4,0,0,0-1.349,1.3Z" fill="url(#linear-gradient-14)"/>
    </g>
    <g id="Group_2349" data-name="Group 2349">
      <g id="Group_2336" data-name="Group 2336">
        <g id="Group_2335" data-name="Group 2335">
          <path id="Path_2428" data-name="Path 2428" d="M920.318,20.773a.392.392,0,0,0-.392.392v.419a.392.392,0,0,0,.785,0v-.419A.392.392,0,0,0,920.318,20.773Z" fill="url(#linear-gradient-23)"/>
        </g>
      </g>
      <g id="Group_2338" data-name="Group 2338">
        <g id="Group_2337" data-name="Group 2337">
          <path id="Path_2429" data-name="Path 2429" d="M925.349,20.773a.392.392,0,0,0-.392.392v.419a.393.393,0,0,0,.785,0v-.419A.392.392,0,0,0,925.349,20.773Z" fill="url(#linear-gradient-24)"/>
        </g>
      </g>
      <g id="Group_2340" data-name="Group 2340">
        <g id="Group_2339" data-name="Group 2339">
          <path id="Path_2430" data-name="Path 2430" d="M924.371,23.824a.392.392,0,0,0-.555,0,1.729,1.729,0,0,1-1.964,0,.392.392,0,1,0-.551.558,2.475,2.475,0,0,0,3.066,0A.393.393,0,0,0,924.371,23.824Z" fill="url(#linear-gradient-25)"/>
        </g>
      </g>
      <g id="Group_2342" data-name="Group 2342">
        <g id="Group_2341" data-name="Group 2341">
          <path id="Path_2431" data-name="Path 2431" d="M920.738,19.515H919.9a.392.392,0,0,0,0,.784h.839a.392.392,0,1,0,0-.784Z" fill="url(#linear-gradient-26)"/>
        </g>
      </g>
      <g id="Group_2344" data-name="Group 2344">
        <g id="Group_2343" data-name="Group 2343">
          <path id="Path_2432" data-name="Path 2432" d="M925.769,19.515h-.839a.392.392,0,0,0,0,.784h.839a.392.392,0,1,0,0-.784Z" fill="url(#linear-gradient-27)"/>
        </g>
      </g>
      <g id="Group_2346" data-name="Group 2346">
        <g id="Group_2345" data-name="Group 2345">
          <path id="Path_2433" data-name="Path 2433" d="M931.235,31.072l-2.827-.869a.94.94,0,0,0-.022-.258.907.907,0,0,0-.476-.6l-1.749-.874V27.222a5.849,5.849,0,0,0,2.459-3.988h.233a1.486,1.486,0,0,0,1.493-1.293,1.44,1.44,0,0,0-.831-1.455V16.134a2.911,2.911,0,0,0-2.908-2.908h-.066a4.945,4.945,0,0,0-2.9-.839,10,10,0,0,0-4.879,1.1,17.017,17.017,0,0,1-2.437.941.391.391,0,0,0-.252.527,3.536,3.536,0,0,0,.64.93,3.2,3.2,0,0,0-.565,2.064V20.5a1.431,1.431,0,0,0,.6,2.731h.292a5.852,5.852,0,0,0,2.46,3.989v1.246l-1.749.874a.9.9,0,0,0-.5.86l-2.827.869a2.893,2.893,0,0,0-2.054,2.779v4.923a.392.392,0,0,0,.785,0V33.851a2.111,2.111,0,0,1,1.5-2.029l2.941-.9.519.692-.589.59a1.228,1.228,0,0,0-.231,1.42l1.123,2.246h-1.069V35.42a.392.392,0,0,0-.785,0v.446h-1.7a.392.392,0,0,0-.392.392v2.516a.391.391,0,0,0,.392.392h4.193a.392.392,0,0,0,.392-.392V37.92l.515,1.029a.392.392,0,1,0,.7-.351l-2.664-5.329a.446.446,0,0,1,.083-.515l.831-.83a.393.393,0,0,0,.036-.513l-.889-1.185a.119.119,0,0,1-.02-.1.116.116,0,0,1,.063-.081l1.545-.772,1.091,3.739a.392.392,0,1,0,.753-.219l-.172-.59a4.586,4.586,0,0,0,3.016,0l-1.508,5.17-.847-2.9a.392.392,0,0,0-.753.22l1.223,4.194a.393.393,0,0,0,.754,0l2.8-9.611,1.545.772a.12.12,0,0,1,.064.081.124.124,0,0,1-.021.1l-.889,1.185a.393.393,0,0,0,.036.513l.831.83a.446.446,0,0,1,.083.515L925,38.6a.392.392,0,1,0,.7.351l2.665-5.329a1.227,1.227,0,0,0-.231-1.42l-.589-.59.519-.692,2.941.9a2.113,2.113,0,0,1,1.5,2.029v4.923a.392.392,0,1,0,.784,0V33.851A2.892,2.892,0,0,0,931.235,31.072Zm-12.567,7.31H915.26V36.651h1.312v.027a.392.392,0,1,0,.784,0v-.027h1.312v1.731Zm.423-24.179a9.244,9.244,0,0,1,4.555-1.031c1.447,0,2.741.606,3.008,1.409a.393.393,0,0,0,.745-.248,2.132,2.132,0,0,0-.08-.2,2.128,2.128,0,0,1,1.412,2v4.219h-.447a.446.446,0,0,1-.446-.446v-.419a5,5,0,0,0-1.373-3.212.39.39,0,0,0-.4-.1c-2.178.688-5.248,1.267-7.508.124a4.21,4.21,0,0,1-1.529-1.27A19.21,19.21,0,0,0,919.091,14.2Zm6.286,14.453-.75,2.568a3.8,3.8,0,0,1-3.586,0l-.75-2.569v-.974a5.838,5.838,0,0,0,5.086,0Zm-2.543-1.175a5.064,5.064,0,0,1-5.058-5.058.392.392,0,1,0-.785,0v.027h-.236a.659.659,0,0,1-.487-.216.652.652,0,0,1-.166-.509.7.7,0,0,1,.713-.587h.569a1.232,1.232,0,0,0,1.23-1.231v-1.48a.392.392,0,1,0-.784,0v1.48a.446.446,0,0,1-.446.446h-.447v-2.4a2.646,2.646,0,0,1,.359-1.528,5.453,5.453,0,0,0,.85.548,7.317,7.317,0,0,0,3.144.762,14.827,14.827,0,0,0,4.772-.73,4.128,4.128,0,0,1,.992,2.485v.419a1.232,1.232,0,0,0,1.23,1.231h.629a.659.659,0,0,1,.487.216.652.652,0,0,1,.166.509.7.7,0,0,1-.713.587h-.177v-.023a.391.391,0,0,0-.392-.392h0a.392.392,0,0,0-.392.391A5.065,5.065,0,0,1,922.834,27.481Z" fill="url(#linear-gradient-28)"/>
        </g>
      </g>
      <g id="Group_2348" data-name="Group 2348">
        <g id="Group_2347" data-name="Group 2347">
          <path id="Path_2434" data-name="Path 2434" d="M930.8,36.076h-.656V35.42a.392.392,0,1,0-.784,0v.656H928.7a.392.392,0,1,0,0,.784h.656v.656a.392.392,0,1,0,.784,0V36.86h.656a.392.392,0,1,0,0-.784Z" fill="url(#linear-gradient-29)"/>
        </g>
      </g>
    </g>
  </g>
</svg>
