<svg xmlns="http://www.w3.org/2000/svg" width="35.992" height="27.594" viewBox="0 0 35.992 27.594">
  <g id="Group_2363" data-name="Group 2363" transform="translate(-596.004 -174.814)">
    <g id="Group_2362" data-name="Group 2362">
      <path id="Shape" d="M597.2,190.41h1.2v1.8a1.2,1.2,0,0,0,1.2,1.2h1.2v1.8a1.2,1.2,0,0,0,1.2,1.2h11.4a.6.6,0,0,0,0-1.2H602v-1.8h11.4a.6.6,0,0,0,0-1.2H599.6v-1.8H611c3.969,0,7.2-3.5,7.2-7.8a7.954,7.954,0,0,0-3.38-6.6H624.8v7.8a.6.6,0,1,0,1.2,0v-7.8a1.2,1.2,0,0,0-1.2-1.2H602.6a.6.6,0,1,0,0,1.2h4.58a8.132,8.132,0,0,0,0,13.2H597.2v-13.2h2.4a.6.6,0,1,0,0-1.2h-2.4a1.2,1.2,0,0,0-1.2,1.2v13.2a1.2,1.2,0,0,0,1.2,1.2Zm7.8-7.8c0-3.638,2.691-6.6,6-6.6s6,2.961,6,6.6-2.691,6.6-6,6.6S605,186.25,605,182.612Z" fill="#ed115a"/>
      <path id="Shape-2" data-name="Shape" d="M601.4,177.213H599a.6.6,0,0,0-.6.6v2.4a.6.6,0,0,0,1.2,0v-1.8h1.8a.6.6,0,1,0,0-1.2Z" fill="#ed115a"/>
      <path id="Shape-3" data-name="Shape" d="M623,180.812a.6.6,0,0,0,.6-.6v-2.4a.6.6,0,0,0-.6-.6h-2.4a.6.6,0,0,0,0,1.2h1.8v1.8A.6.6,0,0,0,623,180.812Z" fill="#ed115a"/>
      <path id="Shape-4" data-name="Shape" d="M599,184.412a.6.6,0,0,0-.6.6v2.4a.6.6,0,0,0,.6.6h2.4a.6.6,0,1,0,0-1.2h-1.8v-1.8A.6.6,0,0,0,599,184.412Z" fill="#ed115a"/>
      <path id="Shape-5" data-name="Shape" d="M623.6,185.611a8.4,8.4,0,1,0,8.4,8.4A8.4,8.4,0,0,0,623.6,185.611Zm0,15.6a7.2,7.2,0,1,1,7.2-7.2A7.2,7.2,0,0,1,623.6,201.208Z" fill="#ed115a"/>
      <path id="Shape-6" data-name="Shape" d="M624.2,193.761v-4.55a.6.6,0,1,0-1.2,0v4.8a.6.6,0,0,0,.176.424l2.4,2.4a.6.6,0,0,0,.849-.848Z" fill="#ed115a"/>
    </g>
  </g>
</svg>
