<svg xmlns="http://www.w3.org/2000/svg" width="23.532" height="23.256" viewBox="0 0 23.532 23.256">
  <g id="Group_1119" data-name="Group 1119" transform="translate(-6002.695 -173.671)">
    <g id="Group_1118" data-name="Group 1118">
      <g id="Group_1107" data-name="Group 1107">
        <g id="Group_1106" data-name="Group 1106">
          <path id="Path_1149" data-name="Path 1149" d="M6018.412,188.624a.884.884,0,1,1,1.011-.875.459.459,0,1,0,.919,0,1.828,1.828,0,0,0-1.47-1.742v-.239a.46.46,0,1,0-.92,0v.239a1.827,1.827,0,0,0-1.47,1.742,1.868,1.868,0,0,0,1.93,1.8.884.884,0,1,1-1.011.875.459.459,0,1,0-.919,0,1.827,1.827,0,0,0,1.47,1.742v.2a.46.46,0,0,0,.92,0v-.2a1.828,1.828,0,0,0,1.47-1.742A1.868,1.868,0,0,0,6018.412,188.624Z" fill="#0ee218"/>
        </g>
      </g>
      <g id="Group_1109" data-name="Group 1109">
        <g id="Group_1108" data-name="Group 1108">
          <path id="Path_1150" data-name="Path 1150" d="M6023.446,185.89a5.979,5.979,0,0,0-2.446-2.164.459.459,0,1,0-.4.828,5.06,5.06,0,0,1,2.279,6.931.459.459,0,1,0,.811.431,5.98,5.98,0,0,0-.246-6.026Z" fill="#0ee218"/>
        </g>
      </g>
      <g id="Group_1111" data-name="Group 1111">
        <g id="Group_1110" data-name="Group 1110">
          <path id="Path_1151" data-name="Path 1151" d="M6019.134,183.139h-.03a.459.459,0,1,0,0,.919h.028a.459.459,0,0,0,0-.919Z" fill="#0ee218"/>
        </g>
      </g>
      <g id="Group_1113" data-name="Group 1113">
        <g id="Group_1112" data-name="Group 1112">
          <path id="Path_1152" data-name="Path 1152" d="M6016.227,193.673a5.058,5.058,0,0,1-2.279-6.931.46.46,0,0,0-.812-.431,5.977,5.977,0,0,0,2.692,8.19.46.46,0,1,0,.4-.828Z" fill="#0ee218"/>
        </g>
      </g>
      <g id="Group_1115" data-name="Group 1115">
        <g id="Group_1114" data-name="Group 1114">
          <path id="Path_1153" data-name="Path 1153" d="M6017.725,194.169h-.027a.46.46,0,1,0,0,.919h.031a.459.459,0,0,0,0-.919Z" fill="#0ee218"/>
        </g>
      </g>
      <g id="Group_1117" data-name="Group 1117">
        <g id="Group_1116" data-name="Group 1116">
          <path id="Path_1154" data-name="Path 1154" d="M6020.5,181.584a2.1,2.1,0,0,0-.2-.376h1.2a2.114,2.114,0,1,0,0-4.228h-3.68a2.113,2.113,0,0,0-1.743-3.309h-11.26a2.114,2.114,0,1,0,0,4.228h3.68a2.11,2.11,0,0,0,0,2.39h-1.2a2.113,2.113,0,0,0-1.314,3.769,2.109,2.109,0,0,0,0,3.309,2.109,2.109,0,0,0,0,3.309,2.113,2.113,0,0,0,1.314,3.769h5.416a7.811,7.811,0,1,0,7.793-12.861Zm.992-3.685a1.195,1.195,0,0,1,0,2.39h-11.26a1.195,1.195,0,0,1,0-2.39Zm-16.683-.919a1.195,1.195,0,0,1,0-2.39h11.26a1.195,1.195,0,1,1,0,2.39Zm2.482,4.228h11.26a1.2,1.2,0,0,1,.521.12c-.217-.018-.437-.028-.659-.028a7.789,7.789,0,0,0-5.529,2.3h-5.593a1.2,1.2,0,0,1,0-2.39Zm0,3.309h4.808a7.8,7.8,0,0,0-1.182,2.39h-3.626a1.195,1.195,0,0,1,0-2.39Zm0,3.31h3.415a7.912,7.912,0,0,0-.106,1.286,7.817,7.817,0,0,0,.078,1.1h-3.387a1.195,1.195,0,1,1,0-2.389Zm0,5.7a1.195,1.195,0,0,1,0-2.39h3.575a7.793,7.793,0,0,0,1.1,2.39Zm11.122,2.482a6.895,6.895,0,1,1,6.894-6.895A6.9,6.9,0,0,1,6018.414,196.008Z" fill="#0ee218"/>
        </g>
      </g>
    </g>
  </g>
</svg>
