<svg xmlns="http://www.w3.org/2000/svg" width="30.07" height="11.28" viewBox="0 0 30.07 11.28">
  <g id="Group_2077" data-name="Group 2077" transform="translate(-597.31 -454.71)">
    <path id="Shape" d="M5563.95,454.71a5.64,5.64,0,1,0,5.64,5.64A5.646,5.646,0,0,0,5563.95,454.71Zm0,7.52a1.88,1.88,0,1,1,1.88-1.88A1.878,1.878,0,0,1,5563.95,462.23Z" transform="translate(-4961)" fill="#2bb788"/>
    <path id="Shape-2" data-name="Shape" d="M5582.74,454.71a5.64,5.64,0,1,0,5.64,5.64A5.646,5.646,0,0,0,5582.74,454.71Zm0,7.52a1.88,1.88,0,1,1,1.88-1.88A1.878,1.878,0,0,1,5582.74,462.23Z" transform="translate(-4961)" fill="#2bb788"/>
  </g>
</svg>
