<svg xmlns="http://www.w3.org/2000/svg" width="30.07" height="28.189" viewBox="0 0 30.07 28.189">
  <g id="Group_2075" data-name="Group 2075" transform="translate(-528.31 -461.71)">
    <path id="Shape" d="M5494.95,461.71a5.64,5.64,0,1,0,5.64,5.64A5.646,5.646,0,0,0,5494.95,461.71Zm0,7.52a1.88,1.88,0,1,1,1.88-1.88A1.878,1.878,0,0,1,5494.95,469.23Z" transform="translate(-4961)" fill="#2bb788"/>
    <path id="Shape-2" data-name="Shape" d="M5513.74,461.71a5.64,5.64,0,1,0,5.64,5.64A5.646,5.646,0,0,0,5513.74,461.71Zm0,7.52a1.88,1.88,0,1,1,1.88-1.88A1.878,1.878,0,0,1,5513.74,469.23Z" transform="translate(-4961)" fill="#2bb788"/>
    <path id="Shape-3" data-name="Shape" d="M5511.86,488.02a1.879,1.879,0,0,0,3.758,0,11.274,11.274,0,1,0-22.547,0,1.879,1.879,0,0,0,3.758,0,7.515,7.515,0,1,1,15.031,0Z" transform="translate(-4961)" fill="#2bb788"/>
  </g>
</svg>
