<svg xmlns="http://www.w3.org/2000/svg" xmlns:xlink="http://www.w3.org/1999/xlink" width="238.347" height="229.431" viewBox="0 0 238.347 229.431">
  <defs>
    <linearGradient id="linear-gradient" x1="2.183" y1="2.854" x2="-0.007" y2="1.755" gradientUnits="objectBoundingBox">
      <stop offset="0" stop-color="#f7a820"/>
      <stop offset="0.322" stop-color="#eec016"/>
      <stop offset="1" stop-color="#d9ff00"/>
    </linearGradient>
    <linearGradient id="linear-gradient-2" x1="0.5" y1="1.348" x2="0.5" y2="-0.218" gradientUnits="objectBoundingBox">
      <stop offset="0" stop-color="#2b3988"/>
      <stop offset="1" stop-color="#2bb788"/>
    </linearGradient>
    <linearGradient id="linear-gradient-3" x1="0.024" y1="1.009" x2="1.242" y2="-0.468" xlink:href="#linear-gradient-2"/>
    <linearGradient id="linear-gradient-4" x1="0.5" y1="-0.502" x2="0.5" y2="0.741" xlink:href="#linear-gradient-2"/>
  </defs>
  <g id="Group_1228" data-name="Group 1228" transform="translate(-734.982 -405.236)">
    <path id="Path_1687" data-name="Path 1687" d="M985.9,574.542l0,.012a75.414,75.414,0,0,1-10.319,26.194,76.408,76.408,0,0,1-64.617,35.568h-51.51a76.332,76.332,0,0,1-55.256-23.666q-.931-.975-1.829-1.987a77.171,77.171,0,0,1-16.877-31.3,75.91,75.91,0,0,1-2.169-11.786c-.009-.1-.019-.19-.028-.285a133.321,133.321,0,0,1-.571-20.848c.83-14.689,4.532-27.446,11.7-36.958,8.335-11.07,21.358-17.742,39.992-17.948.774-.008,1.553-.008,2.341,0,51.342.774,49.634,24.187,91.684,34.461,9.611,2.349,21.507,4.012,36.848,4.558.345.012.685.029,1.021.053C987.84,531.99,990.155,552.174,985.9,574.542Z" transform="translate(-14.333 -27.333)" fill="#fff"/>
    <g id="Group_1161" data-name="Group 1161" transform="translate(-14.333 -27.333)" opacity="0.88">
      <path id="Path_1688" data-name="Path 1688" d="M985.829,569.238l0,.013a78.3,78.3,0,0,1-10.71,27.185,79.3,79.3,0,0,1-67.059,36.912H854.6a79.22,79.22,0,0,1-57.345-24.561q-.966-1.011-1.9-2.062a80.091,80.091,0,0,1-17.514-32.485,78.661,78.661,0,0,1-2.251-12.232c-.01-.1-.02-.2-.03-.3a138.214,138.214,0,0,1-.592-21.636c.861-15.244,4.7-28.483,12.138-38.354,8.65-11.489,22.165-18.413,41.5-18.627.8-.007,1.612-.007,2.43.005,53.283.8,51.509,25.1,95.15,35.763,9.973,2.438,22.319,4.164,38.24,4.731q.537.018,1.059.054C987.846,525.079,990.249,546.026,985.829,569.238Z" fill="#fff" opacity="0.6"/>
      <path id="Path_1689" data-name="Path 1689" d="M965.491,523.648c-15.1,7.885-38.688,16.324-67.1,13.247-43.12-4.668-97.4-13.7-123.421,3.181.861-15.244,4.7-28.483,12.138-38.354,9.107-2.115,20.69-2.2,35.317,1.576,31.7,8.186,72.852,17.127,103.766,15.565,9.973,2.438,22.319,4.164,38.24,4.731Q964.969,523.612,965.491,523.648Z" fill="#fff" opacity="0.5" style="mix-blend-mode: screen;isolation: isolate"/>
      <path id="Path_1690" data-name="Path 1690" d="M985.827,569.251a78.3,78.3,0,0,1-10.71,27.185c-10.916,3.285-25.439,4.494-44.25.385-45.958-10.04-96.365-9.859-133.611,11.966q-.966-1.011-1.9-2.062a80.091,80.091,0,0,1-17.514-32.485c13.015-6.166,45.612-18.141,87.631-8.551C909.786,575.8,960.584,583.841,985.827,569.251Z" fill="#fff" opacity="0.5" style="mix-blend-mode: screen;isolation: isolate"/>
    </g>
    <g id="Group_1164" data-name="Group 1164" transform="translate(-14.333 -27.333)">
      <path id="Path_1691" data-name="Path 1691" d="M917.985,602.361c3.14,2.98,5.86,6.864,5.828,11.193-.047,6.618-6.412,12.057-6.072,18.666.225,4.352,3.337,7.991,6.624,10.851s7,5.423,9.211,9.18a12.217,12.217,0,0,1,1.5,8.621h40.516c1.172-1.691,2.321-3.4,3.341-5.181,2.895-5.064,4.711-11.283,2.588-16.717-1.653-4.231-5.506-7.489-6.41-11.941-1.84-9.064,9.318-17.405,6.6-26.247-2.232-7.274-11.905-8.852-17.109-14.4-7.458-7.955-3.676-20.951-6.844-31.385-3.1-10.206-12.513-16.973-21.338-22.965-3.118-2.118-6.4-4.3-10.144-4.729s-8.055,1.525-8.947,5.188c-1.214,4.985,4.142,9.29,4.538,14.4.263,3.4-1.743,6.594-4.2,8.96s-5.405,4.171-7.85,6.547c-8.238,8-8.918,22.52-1.464,31.259C911.169,596.957,914.845,599.381,917.985,602.361Z" fill="url(#linear-gradient)"/>
      <g id="Group_1162" data-name="Group 1162">
        <path id="Path_1692" data-name="Path 1692" d="M940.624,569.629c-1.877,3.316-3.819,6.743-3.487,10.655.275,3.23,2.058,6.028,3.782,8.733,1.94,3.043,3.773,5.917,3.344,9.128-.281,2.092-1.5,3.91-2.784,5.832a17.963,17.963,0,0,0-2.959,5.872c-.939,4.137,1.007,8.854,5.208,12.617a50.1,50.1,0,0,0,5.669,4.194,53.137,53.137,0,0,1,5.126,3.74c3.782,3.26,5.691,7.3,5.1,10.794a17.365,17.365,0,0,1-1.931,4.886c-1.184,2.314-2.409,4.707-2.107,7.42.261,2.339,1.6,4.233,2.886,6.063.3.429.608.867.9,1.309h2.078c-.471-.8-1.01-1.579-1.536-2.325-1.216-1.724-2.363-3.354-2.575-5.245-.243-2.184.81-4.241,1.926-6.418a18.949,18.949,0,0,0,2.1-5.4c.691-4.113-1.437-8.756-5.691-12.423a53.947,53.947,0,0,0-5.3-3.868,49.318,49.318,0,0,1-5.472-4.043c-3.716-3.33-5.46-7.409-4.664-10.911a16.359,16.359,0,0,1,2.7-5.282c1.344-2.006,2.731-4.08,3.066-6.581.515-3.849-1.579-7.134-3.6-10.31-1.61-2.524-3.275-5.136-3.512-7.932-.286-3.37,1.438-6.414,3.264-9.637,1.6-2.83,3.259-5.756,3.566-9.043.569-6.08-3.632-11.372-6.84-14.823a.874.874,0,0,0-1.248-.047.884.884,0,0,0-.046,1.247c2.979,3.2,6.88,8.085,6.379,13.459C943.7,564.2,942.135,566.961,940.624,569.629Z" fill="#b0a100"/>
      </g>
      <path id="Path_1693" data-name="Path 1693" d="M893.3,637.766c1.777,4.593-1.141,10.1.9,14.579,1.345,2.95,4.494,4.618,7.551,5.7a45.516,45.516,0,0,1,7.348,2.829h31.942c.61-3.009,1.489-5.978,1.927-9.019.618-4.3.174-9.1-2.781-12.278-2.3-2.476-5.859-3.677-7.7-6.51-3.753-5.77,1.688-14.594-2.608-19.971-3.534-4.424-10.66-2.87-15.78-5.289-7.337-3.466-8.274-13.494-13.32-19.848-4.936-6.216-13.3-8.324-21.048-10.058-2.737-.613-5.6-1.224-8.314-.5s-5.157,3.258-4.773,6.037c.524,3.782,5.408,5.3,7.081,8.728,1.111,2.28.6,5.04-.455,7.349s-2.6,4.365-3.642,6.678c-3.513,7.792-.013,18.024,7.536,22.034,2.845,1.511,6.052,2.184,9.04,3.387S892.141,634.762,893.3,637.766Z" fill="#d6c61a"/>
      <g id="Group_1163" data-name="Group 1163">
        <path id="Path_1694" data-name="Path 1694" d="M884.865,588.514c2.938,1.4,6.972,3.714,8.1,7.571.607,2.088.28,4.425-.035,6.685-.393,2.807-.8,5.71.5,8.327,1.074,2.16,3.073,3.609,5.006,5.009,2.175,1.576,4.229,3.064,4.811,5.4a10.663,10.663,0,0,1-.332,4.8,13.389,13.389,0,0,0-.442,4.874c.481,3.12,3.118,5.852,7.055,7.307a37.2,37.2,0,0,0,5.07,1.352,39.387,39.387,0,0,1,4.571,1.187c3.509,1.222,5.934,3.492,6.484,6.074a12.9,12.9,0,0,1,0,3.909c-.187,1.926-.38,3.917.571,5.712a9.9,9.9,0,0,0,3.656,3.406c.366.241.733.49,1.091.745h2.048a6.635,6.635,0,0,0-.633-.589c-.57-.455-1.188-.861-1.786-1.253a8.811,8.811,0,0,1-3.216-2.925c-.766-1.446-.6-3.157-.423-4.969a14.087,14.087,0,0,0-.024-4.309c-.647-3.036-3.39-5.667-7.336-7.042a40.159,40.159,0,0,0-4.725-1.228,36.7,36.7,0,0,1-4.892-1.3c-3.483-1.288-5.806-3.634-6.213-6.276a12.183,12.183,0,0,1,.427-4.394,11.778,11.778,0,0,0,.322-5.394c-.7-2.8-3.044-4.505-5.313-6.15-1.805-1.306-3.671-2.658-4.6-4.529-1.12-2.253-.759-4.831-.377-7.561.335-2.4.681-4.875-.005-7.234-1.269-4.363-5.624-6.877-8.788-8.388a.649.649,0,0,0-.876.309A.656.656,0,0,0,884.865,588.514Z" fill="#fff35c"/>
      </g>
    </g>
    <g id="Group_1168" data-name="Group 1168" transform="translate(-14.333 -27.333)">
      <g id="Group_1166" data-name="Group 1166">
        <path id="Path_1695" data-name="Path 1695" d="M840.6,520.638c4.172-1.669,6.4-6.131,10.759-5.489,2.393.352,1.4,7.3-2.223,11.076-.859.9-7.647,2.976-7.647,2.976Z" fill="#e4e5fb"/>
        <g id="Group_1165" data-name="Group 1165">
          <path id="Path_1696" data-name="Path 1696" d="M846.016,513.288s-18.373,8.177-28.4,8.177c-6.8,0-13.239-36.473-27.713-36.473-1.415,8.873.781,16.81-1.723,25.45,5.377,13.739,13.662,28.916,21.1,30.936,8.331,2.261,36.731-14.875,36.731-14.875Z" fill="#f7c90b"/>
          <path id="Path_1697" data-name="Path 1697" d="M783.491,654.577l-2.3,7.423h22.732l2.142-4.791s-1.253-31.129-5.833-63.452c5.958,5.164,28.169,20.858,31.24,23.694-2.464,6.68-15.034,32.821-20.713,44.549h18c8.714-14.175,28.261-46.507,27.994-50.87-10.12-18.4-37.343-46.345-44.78-53.364-13.828,4.117-32.374,11.829-46.836,12.045-.027,3.217-.038,6.378-.016,8.818C765.009,593.943,783.491,654.577,783.491,654.577Z" fill="url(#linear-gradient-2)"/>
          <path id="Path_1698" data-name="Path 1698" d="M803.495,531.972c-2.606.883-6.1-1.055-5.028-4.428,4.345-13.705,1.359-34.924-6.038-40.9-7.952-6.418-19.382-4.95-28.434-2.626-24.333,16.536-11.567,91.363-3.647,114.8,32.329-7.019,46.785-11.1,65.027-28.814C821.579,557.885,802.191,542.69,803.495,531.972Z" fill="#f7c90b"/>
          <path id="Path_1699" data-name="Path 1699" d="M795.788,550.319c-31.786,1.092-32.8-24.122-45.624-30.58.529,4.238-.151,27.2,10.63,43.939,4.986,7.739,56.7,6.654,64,4.824-2.094-5.171-6.652-10.824-11.022-16.408C807.817,551.889,801.9,550.108,795.788,550.319Z" fill="#f7c90b" opacity="0.47" style="mix-blend-mode: multiply;isolation: isolate"/>
          <path id="Path_1700" data-name="Path 1700" d="M778.378,474.637c-.064,4.559-.3,5.022-1.142,7.644,2.778,3.869,7.8,7.5,9.622,7.143s-.36-3.352-.362-3.686c-.018-3.977.785-5.774,1.718-9.64" fill="#e4e5fb"/>
          <path id="Path_1701" data-name="Path 1701" d="M798.038,458.669c-.135,10.2-6.353,26.479-16.821,19.107a28.085,28.085,0,0,1-11.367-19.222S788.148,433.528,798.038,458.669Z" fill="#e4e5fb"/>
          <path id="Path_1702" data-name="Path 1702" d="M827.872,552.836c4.752.307,8.738-2.513,11.5-.949s9.515,9.841-3.674,9.534-10.879.008-10.879.008Z" fill="#e4e5fb"/>
          <path id="Path_1703" data-name="Path 1703" d="M770.649,484.992c-3.16-4.106-13.067-.267-16.415,4.457-12.676,17.887,2.849,58.05,5.447,63.958,5.652,12.852,68.117,10,68.117,10l3.5-11.384s-48.3-6.214-54.065-10.442C774.99,539.936,781.826,499.52,770.649,484.992Z" fill="#f7c90b"/>
          <path id="Path_1704" data-name="Path 1704" d="M809.264,448.516a4.54,4.54,0,0,0-6.6-.371,3.675,3.675,0,0,0-5.484-4.876c.512-1.65-1.194-3.31-2.917-3.439s-3.338.766-4.834,1.63a4.151,4.151,0,0,0-7.244-1.662,2.243,2.243,0,0,0-1.843-2.178,5.227,5.227,0,0,0-3.033.459,8.915,8.915,0,0,0-4.434,3.377,4.657,4.657,0,0,0,.138,5.3,2.151,2.151,0,0,0-2.856-.391,3.513,3.513,0,0,0-1.41,2.733,10.377,10.377,0,0,0,.441,3.145,2.777,2.777,0,0,0-3.828-.657,4.224,4.224,0,0,0-1.616,3.825,9.271,9.271,0,0,0,1.526,4.031,40.551,40.551,0,0,1,2.249,3.722c-3.064,7.543,8.9,11.527,11.076,12.587,1.642-.825,1.047-6.216.849-6.508-3.933-5.805,2.8-11.114,2.679-1.929,0,0,.6,2.691,1.949-2.1,0,0,1.093-5.333,11.2-4.053.172.022.324,0,.493.008a3,3,0,0,0,1.158.538,3.224,3.224,0,0,0,2.815-.893A11.531,11.531,0,0,0,801,460.44a7.5,7.5,0,0,0,3.652.862,4.693,4.693,0,0,0,3.831-2.157,3.355,3.355,0,0,0-.61-4.168A4.54,4.54,0,0,0,809.264,448.516Z" fill="url(#linear-gradient-3)"/>
        </g>
      </g>
      <g id="Group_1167" data-name="Group 1167">
        <path id="Path_1705" data-name="Path 1705" d="M870.428,467.543c-3.751-3.81-10.115-4.2-14.888-1.792a16.754,16.754,0,0,0-3.484,2.372c-.108-10.315-2.346-20.547-7.61-29.347a15.746,15.746,0,0,0-3.838-4.658,6.807,6.807,0,0,0-5.706-1.37c-2.487.666-4.109,3.026-5.25,5.334-3.842,7.774-4.637,16.486-3.856,25.209a13.719,13.719,0,0,0-3.864-1.647,9.877,9.877,0,0,0-8.165,1.4c-3.135,2.325-4.186,6.541-4.4,10.439-.595,10.978,3.792,21.763,10.169,30.719,5.087,7.144,11.393,13.29,17.917,19.181l0,.463.137-.336q2.412,2.175,4.847,4.317l-.718-3.381c4.832-1.837,8.925-5.323,12.515-9.08a81.838,81.838,0,0,0,17.4-27.7,30.581,30.581,0,0,0,2.323-10.351A13.718,13.718,0,0,0,870.428,467.543ZM840.7,515.857l-.342,3.6q-.2-.909-.37-1.826Q840.347,516.742,840.7,515.857Z" fill="url(#linear-gradient-4)"/>
        <path id="Path_1706" data-name="Path 1706" d="M828.875,554.212H854.39l9.164-35.006H819.71Z" fill="#ffac00"/>
        <rect id="Rectangle_215" data-name="Rectangle 215" width="47.555" height="11.491" transform="translate(865.41 527.04) rotate(180)" fill="#ffc76c"/>
      </g>
    </g>
  </g>
</svg>
