<svg xmlns="http://www.w3.org/2000/svg" xmlns:xlink="http://www.w3.org/1999/xlink" width="21.272" height="43.434" viewBox="0 0 21.272 43.434">
  <defs>
    <linearGradient id="linear-gradient" x1="0.157" y1="1.176" x2="0.167" y2="0.93" gradientUnits="objectBoundingBox">
      <stop offset="0" stop-color="#2b3988"/>
      <stop offset="1" stop-color="#2bb788"/>
    </linearGradient>
  </defs>
  <g id="Group_1125" data-name="Group 1125" transform="translate(-22.818 -599.13)">
    <path id="Path_1644" data-name="Path 1644" d="M22.877,630.553c6.286-.852,10.638-5.272,10.077-10.222-.853,1.777-6.1,8.419-10.121,8.039,0-.6.033-1.819.033-1.819a17.812,17.812,0,0,0,4.1-2.659,9.518,9.518,0,0,0,2.23-3.569c-.669.446-3.123,2.008-4.249,2.66a15.278,15.278,0,0,1-2.073.831c-.025-.463-.049-.7-.049-.938,0-4.542-.027-8.638.006-13.179a10.615,10.615,0,0,1,20.522-3.771,10.432,10.432,0,0,1-1.368,10.094l-.68-2.731c-.24.34-.365.493-.464.661a7.823,7.823,0,0,1-3.505,3.266,1.359,1.359,0,0,0-.919,1.534,15.3,15.3,0,0,1-.721,6,13.48,13.48,0,0,1-5.744,7.108,1.031,1.031,0,0,0-.576,1.03c.03,1.161.037,2.325,0,3.487a6.447,6.447,0,0,1-6.5,6.179v-1.815C22.937,640.7,22.877,633.228,22.877,630.553ZM36.5,604.178a8.77,8.77,0,0,1,4.755,7.517,7.6,7.6,0,0,0-.168-5.872,8.414,8.414,0,0,0-4.665-4.134v2.261l-.752-.269a6.447,6.447,0,0,0-7.385,2.209,6.361,6.361,0,0,0,.06,7.7,6.475,6.475,0,0,0,7.341,2.135,1.047,1.047,0,0,0,.831-1.163q-.027-2.322-.022-4.646c0-1.531.005-3.063.005-4.594Z" fill="url(#linear-gradient)"/>
    <path id="Path_1645" data-name="Path 1645" d="M31.431,607.338v1.831h1.823a1.831,1.831,0,0,1-1.832,1.875,1.864,1.864,0,0,1-1.845-1.81A1.809,1.809,0,0,1,31.431,607.338Z" fill="url(#linear-gradient)"/>
  </g>
</svg>
