<svg xmlns="http://www.w3.org/2000/svg" xmlns:xlink="http://www.w3.org/1999/xlink" width="81.807" height="98.171" viewBox="0 0 81.807 98.171">
  <defs>
    <linearGradient id="linear-gradient" x1="-4.673" y1="3.665" x2="6.961" y2="-3.342" gradientUnits="objectBoundingBox">
      <stop offset="0" stop-color="#f7a820"/>
      <stop offset="0.322" stop-color="#eec016"/>
      <stop offset="1" stop-color="#d9ff00"/>
    </linearGradient>
    <linearGradient id="linear-gradient-2" x1="-2.454" y1="5.201" x2="4.547" y2="-6.467" xlink:href="#linear-gradient"/>
    <linearGradient id="linear-gradient-3" x1="-3.354" y1="6.7" x2="3.647" y2="-4.967" xlink:href="#linear-gradient"/>
    <linearGradient id="linear-gradient-4" x1="-3.281" y1="23.189" x2="2.554" y2="-11.823" xlink:href="#linear-gradient"/>
    <linearGradient id="linear-gradient-5" x1="-3.114" y1="22.189" x2="2.72" y2="-12.823" xlink:href="#linear-gradient"/>
    <linearGradient id="linear-gradient-6" x1="-10.843" y1="23.189" x2="6.661" y2="-11.823" xlink:href="#linear-gradient"/>
    <linearGradient id="linear-gradient-7" x1="-0.235" y1="1.116" x2="1.165" y2="-0.05" xlink:href="#linear-gradient"/>
  </defs>
  <g id="Group_1699" data-name="Group 1699" transform="translate(-4797.47 -5664.393)">
    <path id="Path_3015" data-name="Path 3015" d="M4835.1,5739.655a1.69,1.69,0,0,0,.4-.048l6.545-1.637a1.636,1.636,0,1,0-.793-3.174l-3.9.973,2.618-10.441a1.636,1.636,0,0,0-3.174-.8l-3.272,13.089a1.635,1.635,0,0,0,1.58,2.034Z" fill="url(#linear-gradient)"/>
    <path id="Path_3016" data-name="Path 3016" d="M4823.648,5729.838c6.116,0,8.053-7.465,8.132-7.782a1.637,1.637,0,1,0-3.175-.8c-.013.054-1.4,5.309-4.957,5.309s-4.944-5.255-4.957-5.309a1.637,1.637,0,1,0-3.175.8C4815.6,5722.373,4817.533,5729.838,4823.648,5729.838Z" fill="url(#linear-gradient-2)"/>
    <path id="Path_3017" data-name="Path 3017" d="M4853.1,5729.838c6.115,0,8.052-7.465,8.131-7.782a1.636,1.636,0,1,0-3.174-.8c-.013.054-1.4,5.309-4.957,5.309s-4.945-5.255-4.958-5.309a1.637,1.637,0,1,0-3.174.8C4845.046,5722.373,4846.983,5729.838,4853.1,5729.838Z" fill="url(#linear-gradient-3)"/>
    <path id="Path_3018" data-name="Path 3018" d="M4830.193,5687.3h16.361a1.636,1.636,0,0,0,0-3.272h-16.361a1.636,1.636,0,1,0,0,3.272Z" fill="url(#linear-gradient-4)"/>
    <path id="Path_3019" data-name="Path 3019" d="M4830.193,5693.843h16.361a1.636,1.636,0,0,0,0-3.272h-16.361a1.636,1.636,0,1,0,0,3.272Z" fill="url(#linear-gradient-5)"/>
    <path id="Path_3020" data-name="Path 3020" d="M4830.193,5680.754h3.272a1.636,1.636,0,1,0,0-3.272h-3.272a1.636,1.636,0,1,0,0,3.272Z" fill="url(#linear-gradient-6)"/>
    <path id="Path_3021" data-name="Path 3021" d="M4804.178,5731.311a34.341,34.341,0,0,0,68.4,0c3.8-.845,6.695-4.846,6.695-9.653,0-4.745-2.816-8.706-6.545-9.619v-10.015c0-3.513-6.065-5.968-18-7.312v-18.866c0-.034-.019-.066-.02-.1a1.62,1.62,0,0,0-.085-.425c-.018-.053-.031-.1-.054-.153a1.621,1.621,0,0,0-.327-.479l-9.817-9.817a1.592,1.592,0,0,0-.478-.327,1.385,1.385,0,0,0-.163-.057,1.623,1.623,0,0,0-.417-.082c-.024.005-.056-.013-.092-.013H4826.92a4.908,4.908,0,0,0-4.908,4.908v25.411c-11.932,1.344-18,3.8-18,7.312v10.015c-3.728.913-6.544,4.874-6.544,9.619C4797.47,5726.465,4800.366,5730.466,4804.178,5731.311Zm68.554-15.795a7.4,7.4,0,0,1,0,12.284Zm-27.814-45.537,4.231,4.231h-4.231Zm-19.634-.678a1.636,1.636,0,0,1,1.636-1.636h14.726v8.181a1.636,1.636,0,0,0,1.636,1.636h8.18v21.27a1.636,1.636,0,0,1-1.636,1.636H4826.92a1.637,1.637,0,0,1-1.636-1.636Zm-18,32.784c.384-.854,4.47-2.874,14.725-4.081v.748a4.909,4.909,0,0,0,4.908,4.908h22.906a4.909,4.909,0,0,0,4.909-4.908V5698c10.321,1.214,14.4,3.244,14.736,3.942-.723,1.789-11.731,4.987-31.1,4.987-19.306,0-30.311-3.179-31.086-4.815Zm0,3.8c8.359,4.253,29.956,4.317,31.086,4.317s22.728-.064,31.087-4.317V5728.2a31.086,31.086,0,1,1-62.173,0Zm-3.273,9.628V5727.8a7.4,7.4,0,0,1,0-12.284Z" fill="url(#linear-gradient-7)"/>
  </g>
</svg>
