<svg xmlns="http://www.w3.org/2000/svg" width="20.623" height="17.789" viewBox="0 0 20.623 17.789">
  <g id="Group_696" data-name="Group 696" transform="translate(-3859.265 -1278.595)">
    <g id="Group_695" data-name="Group 695">
      <path id="Path_1018" data-name="Path 1018" d="M3871.84,1278.595a6.766,6.766,0,0,1,4.878,2.008,1.044,1.044,0,0,1,.039,1.5q-1.527,1.559-3.083,3.088a1.074,1.074,0,0,1-1.545-.051c-.146-.151-.282-.312-.428-.463a1.263,1.263,0,0,0-1.906-.046c-1.031,1.011-2.047,2.039-3.069,3.06-.473.473-.948.944-1.416,1.422a1.271,1.271,0,0,0,.023,1.907c.158.153.327.3.485.449a1.049,1.049,0,0,1,.056,1.519q-1.536,1.568-3.107,3.1a1.045,1.045,0,0,1-1.5-.045,6.641,6.641,0,0,1,.058-9.567q2.964-2.962,5.928-5.926A6.52,6.52,0,0,1,3871.84,1278.595Z" fill="#fff"/>
      <path id="Path_1019" data-name="Path 1019" d="M3876.522,1290.477l.9-.517c.58-.335,1.158-.671,1.739-1,.419-.24.718-.073.719.411q.007,2.369,0,4.737c0,.482-.3.652-.722.413-.788-.451-1.574-.907-2.362-1.36-.079-.046-.161-.087-.28-.15,0,.452,0,.86,0,1.269,0,.386-.131.52-.516.521q-3.172,0-6.344,0c-.4,0-.533-.136-.534-.534q0-2.527,0-5.053c0-.4.13-.537.533-.537q3.188,0,6.373,0c.346,0,.484.143.487.491C3876.525,1289.585,3876.522,1290,3876.522,1290.477Z" fill="#fff"/>
    </g>
  </g>
</svg>
