<svg xmlns="http://www.w3.org/2000/svg" xmlns:xlink="http://www.w3.org/1999/xlink" width="77.121" height="98.774" viewBox="0 0 77.121 98.774">
  <defs>
    <linearGradient id="linear-gradient" x1="0.5" y1="38.95" x2="0.5" y2="-11.175" gradientUnits="objectBoundingBox">
      <stop offset="0" stop-color="#2b3988"/>
      <stop offset="1" stop-color="#2bb788"/>
    </linearGradient>
    <linearGradient id="linear-gradient-2" x1="0.5" y1="38.95" x2="0.5" y2="-11.175" xlink:href="#linear-gradient"/>
    <linearGradient id="linear-gradient-3" x1="0.5" y1="36.495" x2="0.5" y2="-13.606" xlink:href="#linear-gradient"/>
    <linearGradient id="linear-gradient-4" x1="0.5" y1="61.386" x2="0.5" y2="-15.548" xlink:href="#linear-gradient"/>
    <linearGradient id="linear-gradient-6" x1="0.5" y1="2.064" x2="0.5" y2="-0.189" xlink:href="#linear-gradient"/>
    <linearGradient id="linear-gradient-7" x1="0.5" y1="11.328" x2="0.5" y2="-9.619" xlink:href="#linear-gradient"/>
  </defs>
  <g id="Group_1902" data-name="Group 1902" transform="translate(-838.437 -1264.92)">
    <g id="Group_1022" data-name="Group 1022" transform="translate(838.436 1264.92)">
      <g id="Group_1009" data-name="Group 1009" transform="translate(27.837 30.929)">
        <g id="Group_1008" data-name="Group 1008">
          <path id="Path_2083" data-name="Path 2083" d="M9344.015,5851.111a1.447,1.447,0,0,0-1.447,1.447v1.548a1.447,1.447,0,0,0,2.895,0v-1.548A1.448,1.448,0,0,0,9344.015,5851.111Z" transform="translate(-9342.567 -5851.111)" fill="url(#linear-gradient)"/>
        </g>
      </g>
      <g id="Group_1011" data-name="Group 1011" transform="translate(46.393 30.929)">
        <g id="Group_1010" data-name="Group 1010">
          <path id="Path_2084" data-name="Path 2084" d="M9352.823,5851.111a1.447,1.447,0,0,0-1.447,1.447v1.548a1.447,1.447,0,0,0,2.895,0v-1.548A1.447,1.447,0,0,0,9352.823,5851.111Z" transform="translate(-9351.376 -5851.111)" fill="url(#linear-gradient-2)"/>
        </g>
      </g>
      <g id="Group_1013" data-name="Group 1013" transform="translate(32.476 41.753)">
        <g id="Group_1012" data-name="Group 1012">
          <path id="Path_2085" data-name="Path 2085" d="M9356.525,5856.683a1.444,1.444,0,0,0-2.045-.015,6.386,6.386,0,0,1-7.248,0,1.446,1.446,0,1,0-2.031,2.06,9.122,9.122,0,0,0,11.309,0A1.445,1.445,0,0,0,9356.525,5856.683Z" transform="translate(-9344.771 -5856.25)" fill="url(#linear-gradient-3)"/>
        </g>
      </g>
      <g id="Group_1015" data-name="Group 1015" transform="translate(26.29 26.291)">
        <g id="Group_1014" data-name="Group 1014">
          <path id="Path_2086" data-name="Path 2086" d="M9346.375,5848.91h-3.092a1.447,1.447,0,1,0,0,2.894h3.092a1.447,1.447,0,0,0,0-2.894Z" transform="translate(-9341.834 -5848.91)" fill="url(#linear-gradient-4)"/>
        </g>
      </g>
      <g id="Group_1017" data-name="Group 1017" transform="translate(44.846 26.291)">
        <g id="Group_1016" data-name="Group 1016">
          <path id="Path_2087" data-name="Path 2087" d="M9355.182,5848.91h-3.092a1.447,1.447,0,1,0,0,2.894h3.092a1.447,1.447,0,1,0,0-2.894Z" transform="translate(-9350.643 -5848.91)" fill="url(#linear-gradient-4)"/>
        </g>
      </g>
      <g id="Group_1019" data-name="Group 1019">
        <g id="Group_1018" data-name="Group 1018">
          <path id="Path_2088" data-name="Path 2088" d="M9398.9,5905.348l-10.43-3.206a3.4,3.4,0,0,0-.08-.949,3.327,3.327,0,0,0-1.758-2.22l-6.447-3.224v-4.6a21.583,21.583,0,0,0,9.068-14.712h.863a5.479,5.479,0,0,0,5.5-4.769,5.3,5.3,0,0,0-3.064-5.367V5850.25a10.739,10.739,0,0,0-10.727-10.727h-.244a18.245,18.245,0,0,0-10.678-3.092c-9.037,0-13.189,1.884-18,4.063a62.7,62.7,0,0,1-8.986,3.47,1.447,1.447,0,0,0-.93,1.947,13.139,13.139,0,0,0,2.359,3.428c-.721.887-2.084,3.154-2.084,7.611v9.416a5.276,5.276,0,0,0,2.221,10.071h1.08a21.572,21.572,0,0,0,9.07,14.714v4.6l-6.447,3.224a3.321,3.321,0,0,0-1.758,2.22,3.191,3.191,0,0,0-.082.949l-10.43,3.206a10.671,10.671,0,0,0-7.572,10.251v18.159a1.446,1.446,0,1,0,2.893,0V5915.6a7.793,7.793,0,0,1,5.529-7.484l10.85-3.335,1.916,2.553-2.178,2.177a4.527,4.527,0,0,0-.85,5.239l4.145,8.284h-3.947v-1.646a1.446,1.446,0,1,0-2.893,0v1.646h-6.287a1.446,1.446,0,0,0-1.445,1.447v9.278a1.447,1.447,0,0,0,1.445,1.447H9354a1.45,1.45,0,0,0,1.449-1.447v-3.15l1.9,3.8a1.447,1.447,0,0,0,2.588-1.294l-9.828-19.655a1.647,1.647,0,0,1,.309-1.9l3.063-3.063a1.447,1.447,0,0,0,.135-1.892l-3.279-4.369a.438.438,0,0,1-.074-.371.432.432,0,0,1,.232-.3l5.7-2.851,4.025,13.793a1.446,1.446,0,0,0,2.777-.81l-.637-2.174a16.954,16.954,0,0,0,11.125,0l-5.561,19.067-3.125-10.706a1.447,1.447,0,1,0-2.777.812l4.512,15.468a1.448,1.448,0,0,0,2.779,0l10.338-35.45,5.7,2.851a.444.444,0,0,1,.158.667l-3.277,4.369a1.449,1.449,0,0,0,.133,1.892l3.064,3.063a1.647,1.647,0,0,1,.309,1.9l-9.828,19.655a1.446,1.446,0,0,0,.646,1.941,1.461,1.461,0,0,0,.646.153,1.443,1.443,0,0,0,1.293-.8l9.828-19.656a4.531,4.531,0,0,0-.848-5.239l-2.178-2.177,1.916-2.553,10.848,3.335a7.791,7.791,0,0,1,5.529,7.486v18.157a1.446,1.446,0,1,0,2.893,0V5915.6A10.671,10.671,0,0,0,9398.9,5905.348Zm-46.352,26.963H9339.98v-6.386h4.84v.1a1.446,1.446,0,0,0,2.893,0v-.1h4.84v6.386Zm1.559-89.182c4.688-2.125,8.389-3.8,16.8-3.8,5.34,0,10.109,2.233,11.1,5.2a1.448,1.448,0,0,0,2.748-.915,7.515,7.515,0,0,0-.3-.735,7.846,7.846,0,0,1,5.209,7.379v15.564h-1.648a1.649,1.649,0,0,1-1.645-1.645v-1.55c0-6.705-4.855-11.64-5.064-11.847a1.453,1.453,0,0,0-1.459-.357c-8.031,2.536-19.355,4.675-27.7.457a15.6,15.6,0,0,1-5.639-4.684A71.219,71.219,0,0,0,9354.111,5843.129Zm23.184,53.308-2.764,9.474a14.039,14.039,0,0,1-13.23,0l-2.762-9.476v-3.591a21.515,21.515,0,0,0,18.756,0Zm-9.377-4.334a18.681,18.681,0,0,1-18.66-18.656,1.446,1.446,0,1,0-2.893,0v.1h-.871a2.426,2.426,0,0,1-1.795-.8,2.4,2.4,0,0,1-.611-1.877,2.565,2.565,0,0,1,2.627-2.166h2.1a4.544,4.544,0,0,0,4.539-4.537v-5.464a1.447,1.447,0,0,0-2.895,0v5.464a1.649,1.649,0,0,1-1.645,1.645h-1.648v-8.863c0-3.366.9-5.042,1.322-5.634a19.989,19.989,0,0,0,3.137,2.021,27.016,27.016,0,0,0,11.6,2.813,54.741,54.741,0,0,0,17.6-2.7c1.148,1.391,3.656,4.916,3.656,9.166v1.55a4.542,4.542,0,0,0,4.539,4.537h2.318a2.425,2.425,0,0,1,2.41,2.674,2.568,2.568,0,0,1-2.627,2.165h-.654v-.084a1.447,1.447,0,0,0-1.447-1.447h0a1.449,1.449,0,0,0-1.447,1.445A18.678,18.678,0,0,1,9367.918,5892.1Z" transform="translate(-9329.355 -5836.431)" fill="url(#linear-gradient-6)"/>
        </g>
      </g>
      <g id="Group_1021" data-name="Group 1021" transform="translate(58.766 83.509)">
        <g id="Group_1020" data-name="Group 1020">
          <path id="Path_2089" data-name="Path 2089" d="M9366.429,5879.935h-2.422v-2.418a1.446,1.446,0,1,0-2.893,0v2.418h-2.422a1.446,1.446,0,0,0,0,2.893h2.422v2.421a1.446,1.446,0,0,0,2.893,0v-2.421h2.422a1.446,1.446,0,0,0,0-2.893Z" transform="translate(-9357.249 -5876.068)" fill="url(#linear-gradient-7)"/>
        </g>
      </g>
    </g>
  </g>
</svg>
