<svg xmlns="http://www.w3.org/2000/svg" width="64.71" height="132.129" viewBox="0 0 64.71 132.129">
  <g id="Group_626" data-name="Group 626" transform="translate(-10463.215 -6841.265)">
    <path id="Path_1286" data-name="Path 1286" d="M10463.395,6936.857c19.121-2.594,32.361-16.037,30.655-31.1-2.6,5.4-18.572,25.611-30.791,24.454,0-1.822.1-5.531.1-5.531s7.85-3.62,12.484-8.089a28.963,28.963,0,0,0,6.786-10.859c-2.036,1.358-9.5,6.108-12.927,8.093a46.833,46.833,0,0,1-6.3,2.529c-.077-1.409-.151-2.133-.152-2.856,0-13.816-.079-26.275.02-40.09a32.194,32.194,0,0,1,26.338-31.618c15.57-2.757,30.545,5.464,36.093,20.147,4.063,10.753,2.51,20.934-4.163,30.707-.7-2.809-1.311-5.267-2.067-8.31-.73,1.035-1.112,1.5-1.412,2.012a23.793,23.793,0,0,1-10.661,9.934c-2.267,1.034-2.906,2.3-2.8,4.667.29,6.185-.057,12.331-2.192,18.246a41.027,41.027,0,0,1-17.476,21.625,3.139,3.139,0,0,0-1.751,3.132c.09,3.533.112,7.074,0,10.607-.345,10.457-9.783,19.48-19.762,18.8v-5.52C10463.577,6967.729,10463.395,6944.994,10463.395,6936.857Zm41.443-80.236c7.435,3.76,14.439,12.468,14.466,22.866,3.366-7.684.652-14.47-.511-17.86a25.578,25.578,0,0,0-14.192-12.576v6.876c-.922-.331-1.6-.571-2.285-.819a19.624,19.624,0,0,0-22.467,6.72,19.353,19.353,0,0,0,.184,23.413,19.7,19.7,0,0,0,22.332,6.5c1.8-.645,2.552-1.518,2.527-3.538-.057-4.711-.069-9.422-.068-14.133,0-4.66.016-9.319.015-13.978Z" fill="#dbdbdb"/>
    <path id="Path_1287" data-name="Path 1287" d="M10489.417,6866.234v5.569h5.544a5.568,5.568,0,0,1-5.574,5.7,5.668,5.668,0,0,1-5.61-5.506C10483.688,6868.786,10485.865,6866.469,10489.417,6866.234Z" fill="#dbdbdb"/>
  </g>
</svg>
