<svg xmlns="http://www.w3.org/2000/svg" width="44.685" height="25.431" viewBox="0 0 44.685 25.431">
  <g id="Group_679" data-name="Group 679" transform="translate(-10744.091 -6198.313)">
    <g id="Group_678" data-name="Group 678">
      <g id="Group_677" data-name="Group 677">
        <path id="Path_1356" data-name="Path 1356" d="M10767.456,6214.586l6.424,2.32a1.43,1.43,0,0,0,1.365-.218,6.633,6.633,0,0,0,1.257-.868l-1.426.318a2.216,2.216,0,1,1-.966-4.325l3.412-.762,2.183-3.045-1.542,4.014-3.817.852a1.131,1.131,0,0,0-.856,1.35l.009.032a1.129,1.129,0,0,0,1.341.825l4.409-.984a1.133,1.133,0,0,0,.809-.7l1.7-4.433-.45,3.282,1.687-1.253a1.4,1.4,0,0,0,.289-1.965l-1.707-2.291a1.4,1.4,0,0,0-2-.262l-8.189,6.487-3.483-1.258a1.431,1.431,0,0,0-1.033.023l-7.556,3.122a1.432,1.432,0,0,0,1.094,2.647Z" fill="#9b9b9b"/>
        <path id="Path_1357" data-name="Path 1357" d="M10781.9,6205.293a2.653,2.653,0,1,0,.18-4.114A2.655,2.655,0,0,0,10781.9,6205.293Z" fill="#9b9b9b"/>
        <path id="Path_1358" data-name="Path 1358" d="M10788.416,6210.5a1.628,1.628,0,0,0-2.288-.249l-9.977,8.021h-14.139a1.627,1.627,0,0,0,0,3.255h.636v1.128a1.088,1.088,0,1,0,2.176,0v-1.128h9.288v1.128a1.088,1.088,0,1,0,2.176,0v-1.128h.436a1.629,1.629,0,0,0,1.02-.359l10.425-8.38A1.628,1.628,0,0,0,10788.416,6210.5Z" fill="#9b9b9b"/>
        <circle id="Ellipse_52" data-name="Ellipse 52" cx="2.531" cy="2.531" r="2.531" transform="translate(10749.442 6198.313)" fill="#9b9b9b"/>
        <path id="Path_1359" data-name="Path 1359" d="M10755.855,6213.434a1.133,1.133,0,0,0,.321-.453,1.146,1.146,0,0,0-.653-1.484l-3.7-1.436-.8-3.631,1.344,2.614,1.159.449.447-2.755a1.71,1.71,0,0,0-1.412-1.962l-2.614-.425a1.771,1.771,0,0,0-2.357,1.348c-.143.919-1.2,7.788-1.248,8.38a1.376,1.376,0,0,0,.41,1.088h-1.578a1.088,1.088,0,0,0-1.088,1.088v6.4a1.088,1.088,0,1,0,2.177,0v-1.79h4.311v1.79a1.088,1.088,0,1,0,2.177,0c0-6.962.02-6.491-.045-6.709l1.309.1-.979,6.1a1.376,1.376,0,1,0,2.717.436l1.216-7.579A1.378,1.378,0,0,0,10755.855,6213.434Zm-5.277,5.98h-4.311v-2.07h4.311Zm-.781-6.45-.237-.092a1.517,1.517,0,0,1-.962-1.472l.191-4.478.929,4.232a1.148,1.148,0,0,0,.705.823l3.319,1.288Z" fill="#9b9b9b"/>
      </g>
    </g>
  </g>
</svg>
