<svg xmlns="http://www.w3.org/2000/svg" xmlns:xlink="http://www.w3.org/1999/xlink" width="274.333" height="316.461" viewBox="0 0 274.333 316.461">
  <defs>
    <linearGradient id="linear-gradient" x1="17.729" y1="0.975" x2="15.539" y2="-0.124" gradientUnits="objectBoundingBox">
      <stop offset="0" stop-color="#f7a820"/>
      <stop offset="0.322" stop-color="#eec016"/>
      <stop offset="1" stop-color="#d9ff00"/>
    </linearGradient>
  </defs>
  <g id="Group_1668" data-name="Group 1668" transform="translate(-3953.715 -5756.539)">
    <path id="Path_2909" data-name="Path 2909" d="M4106.377,5934.432c-7.437,7.057-13.878,16.256-13.8,26.507.114,15.674,15.186,28.554,14.38,44.208-.531,10.306-7.9,18.923-15.686,25.7s-16.586,12.843-21.814,21.74c-3.465,5.9-5.172,13.876-3.554,20.416h-95.954c-2.776-4-5.5-8.045-7.91-12.269-6.856-11.994-11.159-26.722-6.131-39.59,3.915-10.02,13.04-17.737,15.18-28.279,4.359-21.467-22.065-41.22-15.64-62.161,5.286-17.227,28.195-20.963,40.52-34.109,17.662-18.84,8.7-49.617,16.209-74.327,7.34-24.171,29.634-40.2,50.532-54.389,7.386-5.015,15.156-10.179,24.025-11.2s19.077,3.612,21.189,12.286c2.874,11.806-9.81,22-10.748,34.114-.623,8.05,4.127,15.618,9.941,21.22s12.8,9.878,18.592,15.5c19.51,18.957,21.12,53.334,3.467,74.031C4122.518,5921.633,4113.813,5927.375,4106.377,5934.432Z" fill="url(#linear-gradient)"/>
    <g id="Group_1666" data-name="Group 1666">
      <path id="Path_2910" data-name="Path 2910" d="M4052.761,5856.914c4.445,7.852,9.045,15.969,8.259,25.235-.652,7.648-4.875,14.274-8.958,20.68-4.594,7.206-8.934,14.013-7.918,21.619.664,4.954,3.543,9.26,6.592,13.81,2.864,4.282,5.826,8.7,7.008,13.908,2.225,9.8-2.384,20.968-12.333,29.879a118.774,118.774,0,0,1-13.425,9.933,125.321,125.321,0,0,0-12.142,8.858c-8.956,7.72-13.478,17.277-12.086,25.563.663,3.943,2.563,7.648,4.572,11.57,2.806,5.48,5.706,11.147,4.99,17.573-.617,5.54-3.777,10.025-6.834,14.358-.716,1.018-1.441,2.055-2.132,3.1h-4.92c1.115-1.906,2.392-3.739,3.638-5.5,2.879-4.084,5.595-7.943,6.1-12.421.576-5.174-1.918-10.045-4.559-15.2-2.065-4.032-4.2-8.206-4.97-12.784-1.637-9.741,3.4-20.737,13.477-29.422a127.841,127.841,0,0,1,12.548-9.161,117,117,0,0,0,12.959-9.573c8.8-7.888,12.932-17.548,11.046-25.843-1.009-4.448-3.629-8.362-6.405-12.507-3.182-4.751-6.467-9.663-7.26-15.586-1.22-9.116,3.739-16.9,8.533-24.417,3.813-5.978,7.756-12.164,8.317-18.786.678-7.979-3.405-15.188-7.73-22.821-3.793-6.7-7.718-13.632-8.446-21.416-1.347-14.4,8.6-26.933,16.2-35.106a2.068,2.068,0,0,1,2.955-.11,2.091,2.091,0,0,1,.108,2.952c-7.056,7.589-16.293,19.147-15.106,31.876C4045.483,5844.062,4049.183,5850.6,4052.761,5856.914Z" fill="#b0a100"/>
    </g>
    <path id="Path_2911" data-name="Path 2911" d="M4164.828,6018.28c-4.208,10.878,2.7,23.914-2.138,34.527-3.186,6.987-10.644,10.935-17.884,13.494-5.862,2.071-12.044,3.667-17.4,6.7h-75.646c-1.444-7.126-3.527-14.156-4.563-21.359-1.465-10.176-.414-21.546,6.584-29.076,5.45-5.864,13.876-8.709,18.241-15.419,8.887-13.665-4-34.562,6.176-47.3,8.37-10.476,25.246-6.8,37.371-12.524,17.376-8.208,19.6-31.957,31.546-47.006,11.69-14.72,31.5-19.714,49.846-23.82,6.483-1.451,13.273-2.9,19.69-1.179s12.214,7.717,11.3,14.3c-1.24,8.957-12.806,12.543-16.769,20.67-2.632,5.4-1.415,11.937,1.077,17.4s6.158,10.338,8.626,15.815c8.318,18.455.03,42.687-17.847,52.182-6.738,3.579-14.332,5.172-21.409,8.022S4167.581,6011.165,4164.828,6018.28Z" fill="#d6c61a"/>
    <g id="Group_1667" data-name="Group 1667">
      <path id="Path_2912" data-name="Path 2912" d="M4184.813,5901.639c-6.958,3.323-16.512,8.795-19.172,17.929-1.437,4.946-.663,10.48.085,15.832.929,6.649,1.892,13.524-1.186,19.722-2.543,5.114-7.278,8.545-11.855,11.862-5.15,3.731-10.015,7.255-11.393,12.8-.9,3.611-.08,7.378.786,11.361.81,3.746,1.651,7.616,1.046,11.542-1.139,7.388-7.384,13.859-16.707,17.3a88.236,88.236,0,0,1-12.008,3.2,93.35,93.35,0,0,0-10.825,2.81c-8.31,2.893-14.053,8.27-15.356,14.385-.62,2.911-.318,6,0,9.258.443,4.56.9,9.275-1.353,13.526-1.942,3.666-5.355,5.906-8.657,8.068-.866.57-1.736,1.16-2.585,1.763h-4.849a15.575,15.575,0,0,1,1.5-1.393c1.35-1.079,2.815-2.041,4.231-2.968,3.109-2.039,6.044-3.967,7.616-6.929,1.813-3.423,1.419-7.476,1-11.766-.326-3.355-.663-6.828.058-10.206,1.531-7.189,8.026-13.421,17.373-16.676a95.01,95.01,0,0,1,11.19-2.908,87.147,87.147,0,0,0,11.586-3.081c8.248-3.052,13.749-8.608,14.712-14.864.518-3.355-.224-6.78-1.011-10.407-.9-4.159-1.834-8.457-.763-12.772,1.649-6.643,7.209-10.67,12.584-14.565,4.274-3.094,8.694-6.3,10.894-10.726,2.651-5.337,1.8-11.443.891-17.908-.792-5.676-1.612-11.545.013-17.132,3-10.333,13.319-16.286,20.812-19.864a1.539,1.539,0,0,1,2.076.732A1.555,1.555,0,0,1,4184.813,5901.639Z" fill="#fff35c"/>
    </g>
  </g>
</svg>
