<svg xmlns="http://www.w3.org/2000/svg" xmlns:xlink="http://www.w3.org/1999/xlink" width="178.554" height="205.974" viewBox="0 0 178.554 205.974">
  <defs>
    <linearGradient id="linear-gradient" x1="1.518" y1="1.264" x2="-0.672" y2="0.165" gradientUnits="objectBoundingBox">
      <stop offset="0" stop-color="#f7a820"/>
      <stop offset="0.322" stop-color="#eec016"/>
      <stop offset="1" stop-color="#d9ff00"/>
    </linearGradient>
  </defs>
  <g id="Group_1804" data-name="Group 1804" transform="translate(-6559.423 -5891.042)">
    <path id="Path_3180" data-name="Path 3180" d="M6632.042,6006.828c4.841,4.592,9.032,10.579,8.983,17.252-.073,10.2-9.883,18.584-9.359,28.773.346,6.708,5.143,12.317,10.211,16.726s10.794,8.358,14.2,14.15c2.256,3.838,3.367,9.032,2.313,13.288h62.453c1.808-2.607,3.578-5.236,5.149-7.985,4.462-7.807,7.263-17.393,3.99-25.768-2.548-6.521-8.488-11.544-9.88-18.406-2.836-13.971,14.362-26.828,10.179-40.457-3.44-11.214-18.351-13.645-26.372-22.2-11.5-12.262-5.667-32.293-10.551-48.376-4.777-15.732-19.288-26.162-32.889-35.4-4.808-3.265-9.865-6.625-15.638-7.289s-12.416,2.351-13.791,8c-1.872,7.684,6.384,14.32,7,22.2.406,5.241-2.687,10.166-6.47,13.812s-8.333,6.43-12.1,10.092c-12.7,12.337-13.747,34.712-2.257,48.184C6621.536,5998.5,6627.2,6002.234,6632.042,6006.828Z" transform="translate(6.573 0)" fill="url(#linear-gradient)"/>
    <g id="Group_1758" data-name="Group 1758" transform="translate(6668.078 5920.485)">
      <path id="Path_3181" data-name="Path 3181" d="M6660.841,5952.94c-2.893,5.11-5.887,10.393-5.375,16.424.424,4.977,3.173,9.29,5.83,13.46,2.991,4.69,5.815,9.121,5.154,14.071-.433,3.225-2.306,6.027-4.29,8.989-1.864,2.787-3.792,5.665-4.562,9.052-1.447,6.376,1.552,13.647,8.027,19.448a77.364,77.364,0,0,0,8.739,6.464,81.793,81.793,0,0,1,7.9,5.765c5.829,5.025,8.772,11.245,7.866,16.638a26.763,26.763,0,0,1-2.976,7.531c-1.826,3.567-3.713,7.255-3.248,11.438.4,3.605,2.458,6.525,4.449,9.345.465.663.938,1.337,1.388,2.018h3.2c-.725-1.241-1.556-2.434-2.367-3.583-1.874-2.658-3.643-5.169-3.968-8.084-.375-3.368,1.249-6.538,2.968-9.892a29.181,29.181,0,0,0,3.234-8.321c1.066-6.339-2.215-13.5-8.771-19.15a83.223,83.223,0,0,0-8.168-5.962,76.088,76.088,0,0,1-8.433-6.23c-5.729-5.134-8.417-11.421-7.19-16.82.658-2.9,2.362-5.444,4.169-8.14,2.072-3.093,4.21-6.291,4.726-10.146.793-5.933-2.435-11-5.554-15.892-2.483-3.892-5.048-7.917-5.414-12.228-.442-5.193,2.216-9.886,5.031-14.854,2.469-4.362,5.023-8.873,5.5-13.938.876-9.371-5.6-17.53-10.544-22.849a1.345,1.345,0,0,0-1.923-.071,1.359,1.359,0,0,0-.07,1.921c4.592,4.938,10.6,12.462,9.832,20.747C6665.579,5944.575,6663.17,5948.828,6660.841,5952.94Z" transform="translate(-6655.409 -5917.052)" fill="#b0a100"/>
    </g>
    <path id="Path_3182" data-name="Path 3182" d="M6600.569,6052.445c2.739,7.081-1.756,15.565,1.393,22.472,2.074,4.549,6.928,7.118,11.64,8.783,3.814,1.348,7.839,2.387,11.326,4.36h49.236c.941-4.638,2.3-9.213,2.97-13.9.953-6.623.27-14.023-4.286-18.925-3.548-3.816-9.031-5.667-11.873-10.036-5.784-8.893,2.6-22.495-4.02-30.783-5.448-6.819-16.432-4.423-24.324-8.151-11.309-5.343-12.753-20.8-20.532-30.6-7.608-9.58-20.5-12.831-32.443-15.5-4.22-.944-8.639-1.887-12.815-.767s-7.95,5.023-7.358,9.305c.807,5.83,8.335,8.164,10.915,13.454,1.712,3.515.92,7.77-.7,11.328s-4.007,6.729-5.613,10.293c-5.415,12.011-.021,27.783,11.616,33.964,4.384,2.329,9.328,3.366,13.934,5.221S6598.779,6047.814,6600.569,6052.445Z" transform="translate(0 8.955)" fill="#d6c61a"/>
    <g id="Group_1759" data-name="Group 1759" transform="translate(6586.986 5983.555)">
      <path id="Path_3183" data-name="Path 3183" d="M6584.349,5974.7c4.528,2.162,10.747,5.723,12.478,11.668.935,3.22.431,6.822-.056,10.3-.6,4.328-1.231,8.8.772,12.837,1.655,3.329,4.736,5.562,7.716,7.72,3.353,2.428,6.519,4.722,7.416,8.329.583,2.35.052,4.8-.512,7.394a20.605,20.605,0,0,0-.68,7.512c.742,4.809,4.807,9.021,10.874,11.264a57.639,57.639,0,0,0,7.816,2.085,60.783,60.783,0,0,1,7.046,1.828c5.408,1.884,9.146,5.382,9.995,9.363a19.942,19.942,0,0,1,0,6.025c-.289,2.968-.586,6.037.879,8.8,1.265,2.385,3.486,3.843,5.635,5.251.564.371,1.13.754,1.683,1.147h3.157a10.071,10.071,0,0,0-.976-.906c-.878-.7-1.833-1.329-2.754-1.933-2.022-1.327-3.933-2.581-4.957-4.509-1.18-2.229-.924-4.866-.652-7.658a21.681,21.681,0,0,0-.038-6.643c-1-4.678-5.224-8.734-11.307-10.853a61.592,61.592,0,0,0-7.283-1.893,56.752,56.752,0,0,1-7.542-2.006c-5.368-1.987-8.948-5.6-9.576-9.674a18.766,18.766,0,0,1,.659-6.774c.587-2.707,1.193-5.5.5-8.313-1.073-4.323-4.692-6.945-8.19-9.479-2.782-2.014-5.659-4.1-7.091-6.982-1.725-3.473-1.169-7.447-.581-11.655.517-3.694,1.051-7.514-.007-11.15-1.956-6.726-8.669-10.6-13.546-12.929a1,1,0,0,0-1.351.477A1.014,1.014,0,0,0,6584.349,5974.7Z" transform="translate(-6583.772 -5972.769)" fill="#fff35c"/>
    </g>
  </g>
</svg>
