<svg xmlns="http://www.w3.org/2000/svg" width="49.906" height="101.901" viewBox="0 0 49.906 101.901">
  <g id="Group_83" data-name="Group 83" transform="translate(-5567.004 -306.223)">
    <path id="Path_263" data-name="Path 263" d="M5567.143,379.946c14.747-2,24.959-12.368,23.643-23.983-2,4.169-14.324,19.753-23.748,18.86,0-1.4.078-4.266.078-4.266s6.054-2.791,9.629-6.238a22.336,22.336,0,0,0,5.233-8.375c-1.57,1.047-7.327,4.711-9.97,6.242a36.233,36.233,0,0,1-4.862,1.95c-.06-1.087-.117-1.645-.117-2.2,0-10.655-.062-20.263.015-30.918a24.9,24.9,0,0,1,48.148-8.847c3.133,8.293,1.936,16.145-3.211,23.682-.539-2.166-1.01-4.062-1.594-6.409-.563.8-.857,1.157-1.089,1.553a18.348,18.348,0,0,1-8.222,7.66,3.191,3.191,0,0,0-2.157,3.6,35.9,35.9,0,0,1-1.692,14.072A31.634,31.634,0,0,1,5583.75,383a2.422,2.422,0,0,0-1.35,2.416c.069,2.725.086,5.456,0,8.18-.267,8.066-7.545,15.024-15.241,14.5v-4.257C5567.284,403.756,5567.143,386.222,5567.143,379.946Zm31.962-61.88c5.734,2.9,11.136,9.616,11.157,17.635,2.6-5.926.5-11.16-.394-13.774a19.722,19.722,0,0,0-10.945-9.7v5.3c-.712-.254-1.238-.439-1.763-.631a15.134,15.134,0,0,0-17.327,5.183,14.926,14.926,0,0,0,.141,18.057,15.193,15.193,0,0,0,17.224,5.009,2.456,2.456,0,0,0,1.949-2.728c-.044-3.633-.054-7.267-.053-10.9,0-3.593.012-7.187.011-10.78Z" fill="#2bb788"/>
    <path id="Path_264" data-name="Path 264" d="M5587.212,325.48v4.295h4.276a4.3,4.3,0,0,1-4.3,4.4,4.371,4.371,0,0,1-4.327-4.246C5582.794,327.448,5584.473,325.661,5587.212,325.48Z" fill="#2bb788"/>
  </g>
</svg>
