<svg xmlns="http://www.w3.org/2000/svg" width="22" height="22" viewBox="0 0 22 22">
  <g id="Group_338" data-name="Group 338" transform="translate(-4368.539 -958.59)">
    <path id="Path_522" data-name="Path 522" d="M4390.539,973.478a7.129,7.129,0,0,0-5.207-6.853,8.4,8.4,0,1,0-15.628,4.634l-1.134,4.1,4.1-1.133a8.375,8.375,0,0,0,3.905,1.156,7.115,7.115,0,0,0,10.471,4.219l3.462.957-.958-3.461A7.084,7.084,0,0,0,4390.539,973.478Zm-17.667-.646-2.454.679.679-2.453-.154-.242a7.1,7.1,0,1,1,2.171,2.172Zm15.787,5.878-1.822-.5-.242.159a5.826,5.826,0,0,1-8.688-3.031,8.415,8.415,0,0,0,7.375-7.376,5.824,5.824,0,0,1,3.03,8.688l-.158.243Z" fill="#2bb788"/>
    <path id="Path_523" data-name="Path 523" d="M4375.965,969.739h1.234v1.235h-1.234Z" transform="translate(0.351 0.526)" fill="#2bb788"/>
    <path id="Path_524" data-name="Path 524" d="M4377.816,964.761a1.222,1.222,0,0,1-.4.911L4375.965,967v1.506h1.234v-.962l1.049-.96a2.469,2.469,0,1,0-4.135-1.822h1.235a1.234,1.234,0,1,1,2.468,0Z" transform="translate(0.324 0.233)" fill="#2bb788"/>
  </g>
</svg>
