<svg xmlns="http://www.w3.org/2000/svg" xmlns:xlink="http://www.w3.org/1999/xlink" width="137.094" height="205.856" viewBox="0 0 137.094 205.856">
  <defs>
    <clipPath id="clip-path">
      <rect width="137.094" height="205.856" fill="none"/>
    </clipPath>
  </defs>
  <g id="Repeat_Grid_1" data-name="Repeat Grid 1" clip-path="url(#clip-path)">
    <g id="Group_761" data-name="Group 761" transform="translate(-3345.786 -253.477)">
      <path id="Path_1117" data-name="Path 1117" d="M3478.157,297.277c-11.75-31.11-43.48-48.52-76.46-42.68-31.96,5.66-55.57,33.8-55.8,66.98-.21,29.27-.06,55.67-.04,84.94,0,1.53.15,3.07.32,6.05,4.92-1.92,9.46-3.1,13.35-5.36,7.26-4.2,23.08-14.27,27.39-17.14-.73,1.46-4.16,13.15-14.37,23-9.82,9.47-26.46,17.14-26.46,17.14s-.21,7.86-.21,11.72c25.89,2.45,59.646-40.36,65.156-51.81,3.61,31.91-24.033,60.39-65.033,65.88v3.336h53.187c13.77-11,23.59-24.058,29.62-40.748,4.53-12.54,5.27-25.559,4.65-38.659-.23-5,1.12-7.7,5.93-9.89,9.72-4.44,17.15-11.77,22.58-21.04.64-1.09,1.45-2.079,2.99-4.269,1.61,6.45,2.9,11.66,4.38,17.61C3483.477,341.627,3486.767,320.057,3478.157,297.277Zm-13.524,37.18c-.06-22.03-14.633-40.48-30.633-48.45v7.35c0,9.87-.047,19.74-.047,29.61,0,9.98.022,19.96.142,29.94.05,4.28-1.544,6.13-5.364,7.5-17.14,6.14-36.6.58-47.312-13.76-11.26-15.07-11.411-34.7-.391-49.61a41.95,41.95,0,0,1,47.866-14.23c1.44.52,3.106,1.03,5.106,1.73v-14.57c14,5.46,23.472,14.19,29.812,26.65C3466.272,303.8,3471.763,318.177,3464.633,334.457Z" fill="#ededed"/>
      <path id="Path_1118" data-name="Path 1118" d="M3401.3,306.375v11.8h11.746c-.165,7.076-5.317,12.114-11.809,12.083a12.009,12.009,0,0,1-11.889-11.665C3389.161,311.782,3393.773,306.873,3401.3,306.375Z" fill="#ededed"/>
    </g>
  </g>
</svg>
