<svg xmlns="http://www.w3.org/2000/svg" width="22.75" height="22.75" viewBox="0 0 22.75 22.75">
  <g id="Group_1086" data-name="Group 1086" transform="translate(-1085.696 -133.792)">
    <g id="Group_1085" data-name="Group 1085">
      <g id="Group_1058" data-name="Group 1058">
        <g id="Group_1057" data-name="Group 1057">
          <path id="Path_1540" data-name="Path 1540" d="M1106.55,136.825h-.379v-1.9a1.139,1.139,0,0,0-1.138-1.137h-.758a1.138,1.138,0,0,0-1.137,1.137v1.9H1091v-1.9a1.138,1.138,0,0,0-1.137-1.137h-.759a1.138,1.138,0,0,0-1.137,1.137v1.9h-.379a1.9,1.9,0,0,0-1.9,1.9v15.925a1.9,1.9,0,0,0,1.9,1.9h18.958a1.9,1.9,0,0,0,1.9-1.9V138.721A1.9,1.9,0,0,0,1106.55,136.825Zm-2.654.379v-2.275a.379.379,0,0,1,.379-.379h.758a.38.38,0,0,1,.38.379v3.792a.38.38,0,0,1-.38.379h-.758a.379.379,0,0,1-.379-.379Zm-15.167,0v-2.275a.379.379,0,0,1,.379-.379h.759a.379.379,0,0,1,.379.379v3.792a.379.379,0,0,1-.379.379h-.759a.379.379,0,0,1-.379-.379Zm18.959,17.442a1.139,1.139,0,0,1-1.138,1.137h-18.958a1.139,1.139,0,0,1-1.138-1.137v-11h21.234Zm0-11.754h-21.234v-4.171a1.14,1.14,0,0,1,1.138-1.138h.379v1.138a1.138,1.138,0,0,0,1.137,1.137h.759a1.138,1.138,0,0,0,1.137-1.137v-1.138h12.134v1.138a1.138,1.138,0,0,0,1.137,1.137h.758a1.139,1.139,0,0,0,1.138-1.137v-1.138h.379a1.14,1.14,0,0,1,1.138,1.138Z" fill="#2bb788"/>
        </g>
      </g>
      <g id="Group_1060" data-name="Group 1060">
        <g id="Group_1059" data-name="Group 1059">
          <path id="Path_1541" data-name="Path 1541" d="M1101.242,138.721H1092.9a.378.378,0,0,0-.379.379v2.275a.378.378,0,0,0,.379.379h8.342a.379.379,0,0,0,.379-.379V139.1A.379.379,0,0,0,1101.242,138.721Zm-.379,2.275h-7.584v-1.517h7.584Z" fill="#2bb788"/>
        </g>
      </g>
      <g id="Group_1062" data-name="Group 1062">
        <g id="Group_1061" data-name="Group 1061">
          <path id="Path_1542" data-name="Path 1542" d="M1090.625,144.788h-2.275a.378.378,0,0,0-.379.379v1.9a.379.379,0,0,0,.379.379h2.275a.379.379,0,0,0,.379-.379v-1.9A.378.378,0,0,0,1090.625,144.788Zm-.379,1.9h-1.517v-1.137h1.517Z" fill="#2bb788"/>
        </g>
      </g>
      <g id="Group_1064" data-name="Group 1064">
        <g id="Group_1063" data-name="Group 1063">
          <path id="Path_1543" data-name="Path 1543" d="M1095.554,144.788h-2.275a.378.378,0,0,0-.379.379v1.9a.379.379,0,0,0,.379.379h2.275a.379.379,0,0,0,.379-.379v-1.9A.378.378,0,0,0,1095.554,144.788Zm-.379,1.9h-1.517v-1.137h1.517Z" fill="#2bb788"/>
        </g>
      </g>
      <g id="Group_1066" data-name="Group 1066">
        <g id="Group_1065" data-name="Group 1065">
          <path id="Path_1544" data-name="Path 1544" d="M1100.863,144.788h-2.275a.379.379,0,0,0-.38.379v1.9a.38.38,0,0,0,.38.379h2.275a.379.379,0,0,0,.379-.379v-1.9A.379.379,0,0,0,1100.863,144.788Zm-.38,1.9h-1.516v-1.137h1.516Z" fill="#2bb788"/>
        </g>
      </g>
      <g id="Group_1068" data-name="Group 1068">
        <g id="Group_1067" data-name="Group 1067">
          <path id="Path_1545" data-name="Path 1545" d="M1105.792,144.788h-2.275a.378.378,0,0,0-.379.379v1.9a.379.379,0,0,0,.379.379h2.275a.379.379,0,0,0,.379-.379v-1.9A.379.379,0,0,0,1105.792,144.788Zm-.379,1.9H1103.9v-1.137h1.517Z" fill="#2bb788"/>
        </g>
      </g>
      <g id="Group_1070" data-name="Group 1070">
        <g id="Group_1069" data-name="Group 1069">
          <path id="Path_1546" data-name="Path 1546" d="M1090.625,148.579h-2.275a.379.379,0,0,0-.379.379v1.9a.378.378,0,0,0,.379.379h2.275a.378.378,0,0,0,.379-.379v-1.9A.379.379,0,0,0,1090.625,148.579Zm-.379,1.9h-1.517v-1.137h1.517Z" fill="#2bb788"/>
        </g>
      </g>
      <g id="Group_1072" data-name="Group 1072">
        <g id="Group_1071" data-name="Group 1071">
          <path id="Path_1547" data-name="Path 1547" d="M1095.554,148.579h-2.275a.379.379,0,0,0-.379.379v1.9a.378.378,0,0,0,.379.379h2.275a.378.378,0,0,0,.379-.379v-1.9A.379.379,0,0,0,1095.554,148.579Zm-.379,1.9h-1.517v-1.137h1.517Z" fill="#2bb788"/>
        </g>
      </g>
      <g id="Group_1074" data-name="Group 1074">
        <g id="Group_1073" data-name="Group 1073">
          <path id="Path_1548" data-name="Path 1548" d="M1100.863,148.579h-2.275a.38.38,0,0,0-.38.379v1.9a.379.379,0,0,0,.38.379h2.275a.379.379,0,0,0,.379-.379v-1.9A.379.379,0,0,0,1100.863,148.579Zm-.38,1.9h-1.516v-1.137h1.516Z" fill="#2bb788"/>
        </g>
      </g>
      <g id="Group_1076" data-name="Group 1076">
        <g id="Group_1075" data-name="Group 1075">
          <path id="Path_1549" data-name="Path 1549" d="M1105.792,148.579h-2.275a.379.379,0,0,0-.379.379v1.9a.378.378,0,0,0,.379.379h2.275a.379.379,0,0,0,.379-.379v-1.9A.379.379,0,0,0,1105.792,148.579Zm-.379,1.9H1103.9v-1.137h1.517Z" fill="#2bb788"/>
        </g>
      </g>
      <g id="Group_1078" data-name="Group 1078">
        <g id="Group_1077" data-name="Group 1077">
          <path id="Path_1550" data-name="Path 1550" d="M1090.625,152.371h-2.275a.378.378,0,0,0-.379.379v1.9a.378.378,0,0,0,.379.379h2.275a.378.378,0,0,0,.379-.379v-1.9A.378.378,0,0,0,1090.625,152.371Zm-.379,1.9h-1.517v-1.138h1.517Z" fill="#2bb788"/>
        </g>
      </g>
      <g id="Group_1080" data-name="Group 1080">
        <g id="Group_1079" data-name="Group 1079">
          <path id="Path_1551" data-name="Path 1551" d="M1095.554,152.371h-2.275a.378.378,0,0,0-.379.379v1.9a.378.378,0,0,0,.379.379h2.275a.378.378,0,0,0,.379-.379v-1.9A.378.378,0,0,0,1095.554,152.371Zm-.379,1.9h-1.517v-1.138h1.517Z" fill="#2bb788"/>
        </g>
      </g>
      <g id="Group_1082" data-name="Group 1082">
        <g id="Group_1081" data-name="Group 1081">
          <path id="Path_1552" data-name="Path 1552" d="M1100.95,152.128l-1.63,1.956-.844-.844-.536.536,1.138,1.138a.374.374,0,0,0,.268.111h.017a.383.383,0,0,0,.274-.136l1.9-2.275Z" fill="#2bb788"/>
        </g>
      </g>
      <g id="Group_1084" data-name="Group 1084">
        <g id="Group_1083" data-name="Group 1083">
          <path id="Path_1553" data-name="Path 1553" d="M1105.5,152.128l-1.63,1.956-.844-.844-.536.536,1.138,1.138a.374.374,0,0,0,.268.111h.017a.383.383,0,0,0,.274-.136l1.9-2.275Z" fill="#2bb788"/>
        </g>
      </g>
    </g>
  </g>
</svg>
