<svg xmlns="http://www.w3.org/2000/svg" width="22.913" height="19.143" viewBox="0 0 22.913 19.143">
  <g id="Group_1055" data-name="Group 1055" transform="translate(-1085.354 -37.685)">
    <path id="Path_1532" data-name="Path 1532" d="M1106.783,41.133h-14.795a1.483,1.483,0,0,1-1.484-1.483h0a1.483,1.483,0,0,1,1.484-1.484h14.795a1.484,1.484,0,0,1,1.484,1.484h0A1.484,1.484,0,0,1,1106.783,41.133Z" fill="#fff"/>
    <path id="Path_1533" data-name="Path 1533" d="M1106.783,48.874h-14.795a1.483,1.483,0,0,1-1.484-1.483h0a1.483,1.483,0,0,1,1.484-1.484h14.795a1.484,1.484,0,0,1,1.484,1.484h0A1.484,1.484,0,0,1,1106.783,48.874Z" fill="#fff"/>
    <path id="Path_1534" data-name="Path 1534" d="M1106.783,56.588h-14.795A1.484,1.484,0,0,1,1090.5,55.1h0a1.484,1.484,0,0,1,1.484-1.484h14.795a1.485,1.485,0,0,1,1.484,1.484h0A1.485,1.485,0,0,1,1106.783,56.588Z" fill="#fff"/>
    <path id="Path_1535" data-name="Path 1535" d="M1088.8,39.409a1.724,1.724,0,1,1-1.724-1.724A1.724,1.724,0,0,1,1088.8,39.409Z" fill="#fff"/>
    <path id="Path_1536" data-name="Path 1536" d="M1088.8,47.631a1.724,1.724,0,1,1-1.724-1.724A1.724,1.724,0,0,1,1088.8,47.631Z" fill="#fff"/>
    <path id="Path_1537" data-name="Path 1537" d="M1088.8,55.1a1.724,1.724,0,1,1-1.724-1.724A1.724,1.724,0,0,1,1088.8,55.1Z" fill="#fff"/>
  </g>
</svg>
