<svg xmlns="http://www.w3.org/2000/svg" width="26.502" height="26.084" viewBox="0 0 26.502 26.084">
  <g id="Group_1637" data-name="Group 1637" transform="translate(-2157.879 -175.542)">
    <g id="Group_1623" data-name="Group 1623">
      <g id="Group_1622" data-name="Group 1622">
        <path id="Path_1675" data-name="Path 1675" d="M2183.878,185.935c-.051.01-1.248.259-2.259.562a2.549,2.549,0,0,0-2.129,2.343v4.891h-3.426a1.536,1.536,0,0,0-1.534,1.534v6.361h.837v-6.361a.7.7,0,0,1,.7-.7h4.263V188.84c0-.941.96-1.37,1.532-1.541s1.243-.334,1.685-.434v8.128a1.816,1.816,0,0,1-1.813,1.814H2177.1l-.6,4.819h.83l.511-3.983h3.9a2.653,2.653,0,0,0,2.65-2.65v-9.162Z" fill="#2bb788"/>
      </g>
    </g>
    <g id="Group_1625" data-name="Group 1625">
      <g id="Group_1624" data-name="Group 1624">
        <path id="Path_1676" data-name="Path 1676" d="M2181.954,179.4h0a2.43,2.43,0,0,0-2.425,2.336l-1.171,2.685h1.169v1.4h2.315a2.542,2.542,0,0,0,2.539-2.538v-1.451A2.43,2.43,0,0,0,2181.954,179.4Zm1.59,3.878a1.7,1.7,0,0,1-1.7,1.7h-1.478v-1.394h-.728l.728-1.671v-.087a1.591,1.591,0,0,1,1.59-1.59h0a1.591,1.591,0,0,1,1.59,1.59v1.451Z" fill="#2bb788"/>
      </g>
    </g>
    <g id="Group_1627" data-name="Group 1627">
      <g id="Group_1626" data-name="Group 1626">
        <path id="Path_1677" data-name="Path 1677" d="M2166.2,193.731h-3.426V188.84a2.55,2.55,0,0,0-2.129-2.343c-1.011-.3-2.208-.552-2.259-.562l-.5-.1v9.162a2.653,2.653,0,0,0,2.65,2.65h3.9l.511,3.983h.83l-.6-4.819h-4.633a1.816,1.816,0,0,1-1.813-1.814v-8.128c.442.1,1.1.259,1.685.434s1.532.6,1.532,1.541v5.728h4.263a.7.7,0,0,1,.7.7v6.361h.837v-6.361A1.536,1.536,0,0,0,2166.2,193.731Z" fill="#2bb788"/>
      </g>
    </g>
    <g id="Group_1629" data-name="Group 1629">
      <g id="Group_1628" data-name="Group 1628">
        <path id="Path_1678" data-name="Path 1678" d="M2162.731,181.735a2.43,2.43,0,0,0-2.425-2.336h0a2.43,2.43,0,0,0-2.427,2.427v1.451a2.542,2.542,0,0,0,2.539,2.538h2.315v-1.4h1.169Zm-.835,1.849v1.394h-1.478a1.7,1.7,0,0,1-1.7-1.7v-1.451a1.591,1.591,0,0,1,1.59-1.59h0a1.591,1.591,0,0,1,1.59,1.59v.087l.728,1.67h-.728Z" fill="#2bb788"/>
      </g>
    </g>
    <g id="Group_1631" data-name="Group 1631">
      <g id="Group_1630" data-name="Group 1630">
        <path id="Path_1679" data-name="Path 1679" d="M2164.156,189.491V192h5.872v9.625h.837V192h.837v9.625h.837V192h5.565v-2.51Zm13.111,1.673h-12.274v-.837h12.274v.837Z" fill="#2bb788"/>
      </g>
    </g>
    <g id="Group_1633" data-name="Group 1633">
      <g id="Group_1632" data-name="Group 1632">
        <path id="Path_1680" data-name="Path 1680" d="M2176.793,179.9v-2.124h-2.343v-2.232h-9.764v2.124l-2.028,2.479h2.028v1.813h1.748v-.837h-.911v-1.813h-1.1l1.1-1.343v-1.586h8.09v1.4h-6.584v6.416h9.764v-1.813h2.028Zm-.837,1.642v1.813h-8.09v-1.4h6.584v-2.81h-.837v1.973h-5.747v-2.51h8.09V180.2l1.1,1.343Z" fill="#2bb788"/>
      </g>
    </g>
    <g id="Group_1636" data-name="Group 1636">
      <g id="Group_1635" data-name="Group 1635">
        <g id="Group_1634" data-name="Group 1634">
          <rect id="Rectangle_304" data-name="Rectangle 304" width="0.837" height="0.837" transform="translate(2168.368 186.478)" fill="#2bb788"/>
          <rect id="Rectangle_305" data-name="Rectangle 305" width="0.837" height="0.837" transform="translate(2170.712 186.478)" fill="#2bb788"/>
          <rect id="Rectangle_306" data-name="Rectangle 306" width="0.837" height="0.837" transform="translate(2173.055 186.478)" fill="#2bb788"/>
        </g>
      </g>
    </g>
  </g>
</svg>
