<svg xmlns="http://www.w3.org/2000/svg" width="25.269" height="25.269" viewBox="0 0 25.269 25.269">
  <g id="Group_1831" data-name="Group 1831" transform="translate(-247.437 -343.801)">
    <g id="Group_1485" data-name="Group 1485" transform="translate(247.437 343.801)">
      <g id="Group_1472" data-name="Group 1472" transform="translate(0)">
        <g id="Group_1471" data-name="Group 1471">
          <path id="Path_2836" data-name="Path 2836" d="M7890.284,5849.8h-24.426a.421.421,0,0,0-.421.421h0v8.423h.842v-8h23.585v9.266h-14.74v.842h15.16a.422.422,0,0,0,.422-.421h0v-10.107A.422.422,0,0,0,7890.284,5849.8Z" transform="translate(-7865.438 -5849.801)" fill="#2bb788"/>
        </g>
      </g>
      <g id="Group_1474" data-name="Group 1474" transform="translate(13.898 2.106)">
        <g id="Group_1473" data-name="Group 1473">
          <rect id="Rectangle_436" data-name="Rectangle 436" width="8.423" height="0.842" fill="#2bb788"/>
        </g>
      </g>
      <g id="Group_1476" data-name="Group 1476" transform="translate(15.161 4.633)">
        <g id="Group_1475" data-name="Group 1475">
          <rect id="Rectangle_437" data-name="Rectangle 437" width="8.423" height="0.842" fill="#2bb788"/>
        </g>
      </g>
      <g id="Group_1478" data-name="Group 1478" transform="translate(13.477 7.159)">
        <g id="Group_1477" data-name="Group 1477">
          <rect id="Rectangle_438" data-name="Rectangle 438" width="8.423" height="0.842" fill="#2bb788"/>
        </g>
      </g>
      <g id="Group_1480" data-name="Group 1480" transform="translate(0 1.685)">
        <g id="Group_1479" data-name="Group 1479">
          <path id="Path_2837" data-name="Path 2837" d="M7878.88,5854.044a1.358,1.358,0,0,0-1.776-.732l-.036.015-3.414,1.771a2.1,2.1,0,1,0-3.572.369h-.018a2.892,2.892,0,0,0-2.686,1.87l-1.124,3.875a1.349,1.349,0,1,0,2.533.928l.44-1.4v6.1a2.1,2.1,0,0,0-2.732,3.178,1.939,1.939,0,0,0-1.058,1.721v3.53a.421.421,0,0,0,.421.421h4.212a.421.421,0,0,0,.421-.421h0v-3.53a1.936,1.936,0,0,0-.752-1.524h3.188a1.935,1.935,0,0,0-.751,1.524v3.53a.421.421,0,0,0,.421.421h4.212a.422.422,0,0,0,.421-.421h0v-3.53a1.939,1.939,0,0,0-1.058-1.721,2.1,2.1,0,0,0-1.891-3.567v-8.615l3.866-2.007A1.36,1.36,0,0,0,7878.88,5854.044Zm-7.126-1.1a1.264,1.264,0,1,1-1.263,1.264A1.264,1.264,0,0,1,7871.754,5852.94Zm-3.79,14.3a1.263,1.263,0,1,1-1.263,1.263A1.263,1.263,0,0,1,7867.964,5867.244Zm1.686,7.6h-3.37v-3.108a1.106,1.106,0,0,1,1.1-1.1h1.161a1.106,1.106,0,0,1,1.1,1.1Zm6.738-3.108v3.108h-3.37v-3.108a1.106,1.106,0,0,1,1.1-1.1h1.161A1.106,1.106,0,0,1,7876.388,5871.731Zm-1.686-4.488a1.263,1.263,0,1,1-1.263,1.263A1.264,1.264,0,0,1,7874.7,5867.244Zm3.407-12.5a.539.539,0,0,1-.317.312l-4.125,2.14a.42.42,0,0,0-.228.374v9.26a2.078,2.078,0,0,0-.656,2.532h-.607v-7.159h-.842v7.159h-1.451a2.088,2.088,0,0,0,.186-.842h0v-10.529a.421.421,0,0,0-.823-.126l-1.258,4a.506.506,0,0,1-.648.3.43.43,0,0,1-.054-.022.517.517,0,0,1-.235-.669l1.124-3.875a2.036,2.036,0,0,1,1.888-1.3h2.981a.429.429,0,0,0,.194-.047l4.186-2.173a.518.518,0,0,1,.662.246A.51.51,0,0,1,7878.109,5854.747Z" transform="translate(-7865.438 -5852.098)" fill="#2bb788"/>
        </g>
      </g>
      <g id="Group_1482" data-name="Group 1482" transform="translate(13.477 15.984)">
        <g id="Group_1481" data-name="Group 1481">
          <path id="Path_2838" data-name="Path 2838" d="M7887.81,5875.209a2.106,2.106,0,1,0-2.978-.039l.038.039a1.94,1.94,0,0,0-1.057,1.721v3.53a.421.421,0,0,0,.421.421h4.211a.422.422,0,0,0,.422-.421h0v-3.53A1.939,1.939,0,0,0,7887.81,5875.209Zm-1.47-2.767a1.263,1.263,0,1,1-1.263,1.263A1.263,1.263,0,0,1,7886.34,5872.442Zm1.686,7.6h-3.37v-3.108a1.106,1.106,0,0,1,1.1-1.1h1.161a1.106,1.106,0,0,1,1.1,1.1Z" transform="translate(-7883.813 -5871.595)" fill="#2bb788"/>
        </g>
      </g>
      <g id="Group_1484" data-name="Group 1484" transform="translate(20.215 15.984)">
        <g id="Group_1483" data-name="Group 1483">
          <path id="Path_2839" data-name="Path 2839" d="M7897,5875.209a2.105,2.105,0,1,0-2.978-.039l.039.039a1.941,1.941,0,0,0-1.058,1.721v3.53a.421.421,0,0,0,.421.421h4.212a.421.421,0,0,0,.421-.421h0v-3.53A1.938,1.938,0,0,0,7897,5875.209Zm-1.469-2.767a1.263,1.263,0,1,1-1.264,1.263A1.263,1.263,0,0,1,7895.528,5872.442Zm1.685,7.6h-3.369v-3.108a1.1,1.1,0,0,1,1.1-1.1h1.162a1.105,1.105,0,0,1,1.1,1.1Z" transform="translate(-7893.001 -5871.595)" fill="#2bb788"/>
        </g>
      </g>
    </g>
  </g>
</svg>
