<svg xmlns="http://www.w3.org/2000/svg" xmlns:xlink="http://www.w3.org/1999/xlink" width="34.075" height="34.075" viewBox="0 0 34.075 34.075">
  <defs>
    <clipPath id="clip-path">
      <rect width="34.075" height="34.075" fill="none"/>
    </clipPath>
  </defs>
  <g id="Repeat_Grid_1" data-name="Repeat Grid 1" clip-path="url(#clip-path)">
    <g id="Group_270" data-name="Group 270" transform="translate(-4534.097 -1704.782)">
      <path id="Path_419" data-name="Path 419" d="M4568.172,1727.843a11.039,11.039,0,0,0-8.066-10.614,13.011,13.011,0,1,0-24.2,7.178l-1.757,6.349,6.35-1.756a12.952,12.952,0,0,0,6.049,1.791,11.018,11.018,0,0,0,16.218,6.535l5.362,1.483-1.483-5.362A10.977,10.977,0,0,0,4568.172,1727.843Zm-27.362-1-3.8,1.052,1.051-3.8-.239-.375a11.012,11.012,0,1,1,3.364,3.364Zm24.451,9.105-2.821-.781-.377.246a9.021,9.021,0,0,1-13.455-4.694,13.037,13.037,0,0,0,11.425-11.424,9.023,9.023,0,0,1,4.693,13.456l-.246.376Z" fill="#bfbfbf"/>
      <path id="Path_420" data-name="Path 420" d="M4546.11,1722.818h2v2h-2Z" fill="#bfbfbf"/>
      <path id="Path_421" data-name="Path 421" d="M4549.1,1714.765a1.976,1.976,0,0,1-.65,1.474l-2.345,2.146v2.437h2v-1.557l1.7-1.553a3.993,3.993,0,1,0-6.688-2.947h2a2,2,0,0,1,3.993,0Z" fill="#bfbfbf"/>
    </g>
  </g>
</svg>
