<svg xmlns="http://www.w3.org/2000/svg" width="27.575" height="26.79" viewBox="0 0 27.575 26.79">
  <g id="Group_1179" data-name="Group 1179" transform="translate(-4368.152 -266.049)">
    <g id="Group_1177" data-name="Group 1177">
      <g id="Group_1176" data-name="Group 1176">
        <path id="Path_1218" data-name="Path 1218" d="M4388.957,283.753h-1.893a.393.393,0,0,0,0,.785h1.893a3.083,3.083,0,0,1,3.079,3.079v4.437h-3.39V290.08a.393.393,0,0,0-.785,0v1.974h-14.749V290.08a.392.392,0,0,0-.785,0v1.974h-3.39v-4.437a3.083,3.083,0,0,1,3.079-3.079h4.159a4.329,4.329,0,0,0,8.623,0h.435a.393.393,0,0,0,0-.785h-1.3a.1.1,0,0,1-.1-.1v-1.8a5.414,5.414,0,0,0,2.429-3.831l.021-.293a2.7,2.7,0,0,0,2.508-2.687v-.135a1.632,1.632,0,0,0-1.63-1.63h-.55l.044-.6a6.177,6.177,0,1,0-12.321,0l.044.6h-.55a1.632,1.632,0,0,0-1.63,1.63v.135a2.7,2.7,0,0,0,2.508,2.687,4.408,4.408,0,0,0,.526,1.995.392.392,0,0,0,.693-.368,3.5,3.5,0,0,1-.415-1.392l-.393-5.341a5.335,5.335,0,0,1,1.427-4.066,5.388,5.388,0,0,1,7.9,0,5.332,5.332,0,0,1,1.427,4.066l-.393,5.341c-.173,2.352-3.055,4.263-4.819,4.4a5.918,5.918,0,0,1-3.674-1.66.393.393,0,1,0-.534.576,7.721,7.721,0,0,0,.7.576v1.8a.1.1,0,0,1-.1.1h-5.028a3.869,3.869,0,0,0-3.864,3.864v4.83a.392.392,0,0,0,.393.392h23.883a.392.392,0,0,0,.393-.392v-4.83A3.868,3.868,0,0,0,4388.957,283.753Zm-15.982-8.712v-.135a.847.847,0,0,1,.845-.846h.608l.211,2.874A1.911,1.911,0,0,1,4372.975,275.041Zm14.178-.981a.847.847,0,0,1,.845.846v.135a1.911,1.911,0,0,1-1.664,1.893l.211-2.874Zm-9.22,9.589v-1.295a5.019,5.019,0,0,0,2.985.766,6.277,6.277,0,0,0,2.122-.767v1.3a.89.89,0,0,0,.889.889h.08a3.544,3.544,0,0,1-7.046,0h.081A.89.89,0,0,0,4377.933,283.649Z" fill="#2bb788"/>
        <path id="Path_1219" data-name="Path 1219" d="M4380.512,271.311a.339.339,0,0,1,.339.339.393.393,0,0,0,.785,0,1.124,1.124,0,1,0-2.247,0,1.854,1.854,0,0,0,3.708,0,2.585,2.585,0,0,0-5.17,0,3.32,3.32,0,0,0,4.512,3.093.392.392,0,0,0-.283-.732,2.534,2.534,0,0,1-3.444-2.361,1.8,1.8,0,1,1,3.6,0,1.069,1.069,0,0,1-2.138,0A.339.339,0,0,1,4380.512,271.311Z" fill="#2bb788"/>
        <path id="Path_1220" data-name="Path 1220" d="M4383.508,273.539a.393.393,0,0,0,.542-.122c1.467-2.327-.374-5.84-3.564-5.84a4.072,4.072,0,0,0-2.879,6.952.393.393,0,1,0,.555-.555,3.287,3.287,0,0,1,2.324-5.612,3.193,3.193,0,0,1,2.9,4.636A.392.392,0,0,0,4383.508,273.539Z" fill="#2bb788"/>
      </g>
    </g>
    <g id="Group_1178" data-name="Group 1178">
      <path id="Path_1221" data-name="Path 1221" d="M4395.727,279.825h-2.674v2.658h-.8v-2.658h-2.688v-.843h2.688v-2.673h.8v2.673h2.674Z" fill="#2bb788"/>
    </g>
  </g>
</svg>
