<svg xmlns="http://www.w3.org/2000/svg" width="24.668" height="26.791" viewBox="0 0 24.668 26.791">
  <g id="Group_1295" data-name="Group 1295" transform="translate(-3260.819 -223.382)">
    <path id="Path_1341" data-name="Path 1341" d="M3281.624,241.087h-1.893a.392.392,0,0,0,0,.785h1.893a3.082,3.082,0,0,1,3.079,3.078v4.438h-3.391v-1.975a.392.392,0,0,0-.785,0v1.975h-14.748v-1.975a.393.393,0,0,0-.785,0v1.975h-3.39V244.95a3.082,3.082,0,0,1,3.078-3.078h4.16a4.329,4.329,0,0,0,8.623,0h.435a.392.392,0,0,0,0-.785h-1.3a.105.105,0,0,1-.1-.105v-1.8a5.41,5.41,0,0,0,2.429-3.831l.022-.293a2.7,2.7,0,0,0,2.508-2.687v-.135a1.632,1.632,0,0,0-1.63-1.63h-.55l.044-.6a6.178,6.178,0,1,0-12.322,0l.044.6h-.549a1.632,1.632,0,0,0-1.631,1.63v.135a2.7,2.7,0,0,0,2.508,2.687,4.426,4.426,0,0,0,.527,1.995.392.392,0,1,0,.693-.368,3.5,3.5,0,0,1-.415-1.391l-.394-5.341a5.393,5.393,0,1,1,10.756,0l-.394,5.341c-.173,2.352-3.054,4.262-4.818,4.4a5.914,5.914,0,0,1-3.675-1.66.392.392,0,0,0-.533.576,7.59,7.59,0,0,0,.7.576v1.8a.1.1,0,0,1-.1.105h-5.028a3.867,3.867,0,0,0-3.863,3.863v4.83a.393.393,0,0,0,.392.393h23.884a.392.392,0,0,0,.392-.393v-4.83A3.868,3.868,0,0,0,3281.624,241.087Zm-15.983-8.713v-.135a.847.847,0,0,1,.846-.845h.607l.212,2.873A1.911,1.911,0,0,1,3265.641,232.374Zm14.179-.98a.846.846,0,0,1,.845.845v.135a1.911,1.911,0,0,1-1.665,1.893l.212-2.873Zm-9.22,9.588v-1.294a5.024,5.024,0,0,0,2.985.765,6.271,6.271,0,0,0,2.122-.767v1.3a.89.89,0,0,0,.889.89h.08a3.544,3.544,0,0,1-7.046,0h.08A.891.891,0,0,0,3270.6,240.982Z" fill="#2bb788"/>
    <path id="Path_1342" data-name="Path 1342" d="M3273.179,228.644a.339.339,0,0,1,.338.339.392.392,0,0,0,.785,0,1.123,1.123,0,0,0-2.246,0,1.854,1.854,0,0,0,3.708,0,2.585,2.585,0,1,0-5.17,0,3.321,3.321,0,0,0,4.511,3.094.393.393,0,0,0-.282-.733,2.535,2.535,0,0,1-3.444-2.361,1.8,1.8,0,0,1,3.6,0,1.069,1.069,0,1,1-2.138,0A.338.338,0,0,1,3273.179,228.644Z" fill="#2bb788"/>
    <path id="Path_1343" data-name="Path 1343" d="M3276.175,230.873a.393.393,0,0,0,.541-.123c1.467-2.327-.374-5.839-3.563-5.839a4.072,4.072,0,0,0-2.879,6.951.389.389,0,0,0,.277.115.393.393,0,0,0,.278-.67,3.287,3.287,0,0,1,2.324-5.612,3.193,3.193,0,0,1,2.9,4.637A.393.393,0,0,0,3276.175,230.873Z" fill="#2bb788"/>
  </g>
</svg>
