<svg xmlns="http://www.w3.org/2000/svg" width="16.614" height="21.279" viewBox="0 0 16.614 21.279">
  <g id="Group_687" data-name="Group 687" transform="translate(-2190.943 -880.916)">
    <g id="Group_674" data-name="Group 674">
      <g id="Group_673" data-name="Group 673">
        <path id="Path_952" data-name="Path 952" d="M2197.251,887.579a.312.312,0,0,0-.312.312v.333a.312.312,0,0,0,.624,0v-.333A.312.312,0,0,0,2197.251,887.579Z" fill="#2bb788"/>
      </g>
    </g>
    <g id="Group_676" data-name="Group 676">
      <g id="Group_675" data-name="Group 675">
        <path id="Path_953" data-name="Path 953" d="M2201.249,887.579a.312.312,0,0,0-.312.312v.333a.312.312,0,0,0,.624,0v-.333A.312.312,0,0,0,2201.249,887.579Z" fill="#2bb788"/>
      </g>
    </g>
    <g id="Group_678" data-name="Group 678">
      <g id="Group_677" data-name="Group 677">
        <path id="Path_954" data-name="Path 954" d="M2200.471,890a.31.31,0,0,0-.44,0,1.376,1.376,0,0,1-1.562,0,.312.312,0,0,0-.437.444,1.969,1.969,0,0,0,2.436,0A.311.311,0,0,0,2200.471,890Z" fill="#2bb788"/>
      </g>
    </g>
    <g id="Group_680" data-name="Group 680">
      <g id="Group_679" data-name="Group 679">
        <path id="Path_955" data-name="Path 955" d="M2197.584,886.579h-.666a.312.312,0,0,0,0,.624h.666a.312.312,0,0,0,0-.624Z" fill="#2bb788"/>
      </g>
    </g>
    <g id="Group_682" data-name="Group 682">
      <g id="Group_681" data-name="Group 681">
        <path id="Path_956" data-name="Path 956" d="M2201.582,886.579h-.666a.312.312,0,0,0,0,.624h.666a.312.312,0,0,0,0-.624Z" fill="#2bb788"/>
      </g>
    </g>
    <g id="Group_684" data-name="Group 684">
      <g id="Group_683" data-name="Group 683">
        <path id="Path_957" data-name="Path 957" d="M2205.926,895.763l-2.247-.691a.7.7,0,0,0-.017-.2.719.719,0,0,0-.379-.479l-1.389-.694V892.7a4.65,4.65,0,0,0,1.954-3.169h.185a1.179,1.179,0,0,0,1.186-1.028,1.146,1.146,0,0,0-.66-1.156v-3.458a2.314,2.314,0,0,0-2.311-2.311h-.052a3.933,3.933,0,0,0-2.3-.666,7.954,7.954,0,0,0-3.877.875,13.579,13.579,0,0,1-1.936.748.311.311,0,0,0-.2.419,2.82,2.82,0,0,0,.508.739,2.549,2.549,0,0,0-.449,1.639v2.029a1.137,1.137,0,0,0,.478,2.17h.233a4.644,4.644,0,0,0,1.954,3.169v.991l-1.389.694a.717.717,0,0,0-.379.479.7.7,0,0,0-.017.2l-2.247.691a2.3,2.3,0,0,0-1.631,2.208v3.912a.311.311,0,1,0,.623,0v-3.912a1.679,1.679,0,0,1,1.191-1.612l2.337-.719.413.55-.469.469a.976.976,0,0,0-.183,1.129l.892,1.784h-.849v-.354a.312.312,0,0,0-.624,0v.354h-1.354a.312.312,0,0,0-.312.312v2a.313.313,0,0,0,.312.312h3.332a.312.312,0,0,0,.311-.312V901.2l.409.818a.312.312,0,0,0,.558-.278l-2.117-4.235a.353.353,0,0,1,.066-.409l.66-.66a.312.312,0,0,0,.029-.408l-.706-.941a.093.093,0,0,1-.017-.08.1.1,0,0,1,.051-.064l1.227-.614.867,2.972a.311.311,0,1,0,.6-.175l-.136-.468a3.653,3.653,0,0,0,2.4,0l-1.2,4.108-.673-2.307a.311.311,0,1,0-.6.175l.972,3.332a.311.311,0,0,0,.6,0l2.228-7.637,1.227.614a.1.1,0,0,1,.051.064.093.093,0,0,1-.017.08l-.706.941a.312.312,0,0,0,.029.408l.66.66a.353.353,0,0,1,.066.409l-2.117,4.235a.311.311,0,0,0,.139.418.32.32,0,0,0,.14.033.312.312,0,0,0,.279-.173l2.117-4.234a.976.976,0,0,0-.183-1.129l-.469-.469.413-.55,2.337.719a1.679,1.679,0,0,1,1.191,1.612v3.912a.311.311,0,1,0,.623,0v-3.912A2.3,2.3,0,0,0,2205.926,895.763Zm-9.986,5.808h-2.708V900.2h1.042v.021a.312.312,0,0,0,.624,0V900.2h1.042v1.375Zm.336-19.212a7.339,7.339,0,0,1,3.619-.82c1.15,0,2.178.482,2.391,1.12a.312.312,0,0,0,.591-.2,1.582,1.582,0,0,0-.063-.159,1.691,1.691,0,0,1,1.122,1.59v3.353h-.355a.355.355,0,0,1-.355-.355v-.333a3.972,3.972,0,0,0-1.09-2.552.312.312,0,0,0-.315-.077c-1.73.546-4.17,1.007-5.966.1a3.372,3.372,0,0,1-1.215-1.009A15.219,15.219,0,0,0,2196.276,882.359Zm4.994,11.484-.595,2.041a3.022,3.022,0,0,1-2.85,0l-.595-2.041v-.773a4.633,4.633,0,0,0,4.04,0Zm-2.02-.934a4.024,4.024,0,0,1-4.019-4.019.312.312,0,0,0-.624,0v.022h-.188a.522.522,0,0,1-.518-.577.553.553,0,0,1,.566-.466h.452a.979.979,0,0,0,.978-.978v-1.176a.312.312,0,1,0-.623,0v1.176a.355.355,0,0,1-.355.355h-.355v-1.91a2.1,2.1,0,0,1,.285-1.213,4.283,4.283,0,0,0,.676.435,5.82,5.82,0,0,0,2.5.606,11.8,11.8,0,0,0,3.792-.581,3.283,3.283,0,0,1,.788,1.975v.333a.979.979,0,0,0,.978.978h.5a.522.522,0,0,1,.518.576.553.553,0,0,1-.566.467h-.14v-.019a.312.312,0,0,0-.312-.311h0a.312.312,0,0,0-.312.311A4.024,4.024,0,0,1,2199.25,892.909Z" fill="#2bb788"/>
      </g>
    </g>
    <g id="Group_686" data-name="Group 686">
      <g id="Group_685" data-name="Group 685">
        <path id="Path_958" data-name="Path 958" d="M2205.58,899.739h-.521v-.521a.312.312,0,0,0-.624,0v.521h-.521a.311.311,0,1,0,0,.623h.521v.521a.312.312,0,0,0,.624,0v-.521h.521a.311.311,0,1,0,0-.623Z" fill="#2bb788"/>
      </g>
    </g>
  </g>
</svg>
