<svg xmlns="http://www.w3.org/2000/svg" width="14.552" height="23.292" viewBox="0 0 14.552 23.292">
  <g id="Group_852" data-name="Group 852" transform="translate(-1112.396 -1527.265)">
    <path id="Path_1176" data-name="Path 1176" d="M1118.535,1536.38a.347.347,0,0,0-.421-.25l-1.57.4a.346.346,0,0,0,.085.682.324.324,0,0,0,.086-.011l1.57-.4A.347.347,0,0,0,1118.535,1536.38Z" fill="#2bb788"/>
    <path id="Path_1177" data-name="Path 1177" d="M1121.059,1536.8l1.57.4a.319.319,0,0,0,.086.011.346.346,0,0,0,.085-.682l-1.57-.4a.346.346,0,0,0-.171.671Z" fill="#2bb788"/>
    <path id="Path_1178" data-name="Path 1178" d="M1117.263,1537.974v.385a.347.347,0,0,0,.693,0v-.385a.347.347,0,0,0-.693,0Z" fill="#2bb788"/>
    <path id="Path_1179" data-name="Path 1179" d="M1121.734,1537.628a.346.346,0,0,0-.346.346v.385a.347.347,0,0,0,.693,0v-.385A.346.346,0,0,0,1121.734,1537.628Z" fill="#2bb788"/>
    <path id="Path_1180" data-name="Path 1180" d="M1119.672,1540.1a1.125,1.125,0,0,0,.8-.33.346.346,0,0,0-.489-.49.438.438,0,0,1-.618,0,.346.346,0,0,0-.49.49A1.129,1.129,0,0,0,1119.672,1540.1Z" fill="#2bb788"/>
    <path id="Path_1181" data-name="Path 1181" d="M1119.332,1541.537a1.622,1.622,0,0,1-1.469-.957.346.346,0,0,0-.662.2,2.279,2.279,0,0,0,2.056,1.442.234.234,0,0,0,.038,0,.346.346,0,0,0,.037-.69Z" fill="#2bb788"/>
    <path id="Path_1182" data-name="Path 1182" d="M1123.675,1542.973a5.706,5.706,0,0,0,.959-1.273,1.161,1.161,0,0,0,.326.046c1.052,0,1.988-1.318,1.988-2.357a1.938,1.938,0,0,0-.546-1.4v-4.636a5.2,5.2,0,0,0-.91-2.947.346.346,0,0,0-.572.39,4.515,4.515,0,0,1,.79,2.557v4.228a1.76,1.76,0,0,0-.376-.067v-2.276a.346.346,0,0,0-.693,0v.375c-1.352-.09-6.241-.6-8.742-3.322a.352.352,0,0,0-.1-.076.346.346,0,0,0-.417.084,5.657,5.657,0,0,0-1.372,3.694v1.521a1.716,1.716,0,0,0-.292.045v-5.688a1.155,1.155,0,0,1,1.5-1.1.346.346,0,0,0,.432-.227,3.679,3.679,0,0,1,4.849-2.322l2.331.911a4.525,4.525,0,0,1,1.184.685.346.346,0,0,0,.433-.541,5.217,5.217,0,0,0-1.365-.789l-2.331-.911a4.372,4.372,0,0,0-5.656,2.462,1.85,1.85,0,0,0-2.066,1.836v6.04a1.919,1.919,0,0,0-.629,1.482c0,1.039.936,2.357,1.988,2.357a1.147,1.147,0,0,0,.329-.047,5.691,5.691,0,0,0,3.089,2.614v1.278l-1.7.987a.346.346,0,0,0,.174.646.342.342,0,0,0,.173-.047l.35-.2.4,1.978a.347.347,0,0,0,.214.255.341.341,0,0,0,.125.023.347.347,0,0,0,.205-.067l1.588-1.165v2.213a.346.346,0,0,0,.693,0V1548l1.588,1.165a.347.347,0,0,0,.545-.211l.4-1.978,2.013,1.167.564,2.157a.346.346,0,0,0,.335.259.379.379,0,0,0,.087-.011.348.348,0,0,0,.248-.423l-.6-2.3a.346.346,0,0,0-.162-.212l-3.49-2.024v-1.275A5.64,5.64,0,0,0,1123.675,1542.973Zm2.58-3.584c0,.688-.67,1.664-1.3,1.664h-.021a5.642,5.642,0,0,0,.246-.786c.076-.271.283-.715.5-.715a.346.346,0,0,0,0-.693.884.884,0,0,0-.356.074v-.727A1.086,1.086,0,0,1,1126.255,1539.389Zm-11.871,1.664c-.626,0-1.3-.976-1.3-1.664a1.085,1.085,0,0,1,.922-1.183v.727a.871.871,0,0,0-.356-.074.346.346,0,1,0,0,.693c.238,0,.456.5.52.772l0,.008a5.808,5.808,0,0,0,.231.72Zm.319-2.084v-2.98a4.974,4.974,0,0,1,.966-2.945,11.82,11.82,0,0,0,5.71,2.783,20.621,20.621,0,0,0,3.262.477v2.666a4.969,4.969,0,0,1-9.938,0Zm2.727,7.638.455-.264a1.879,1.879,0,0,0,.98,1.134l-1.1.806Zm4.148,1.676-1.1-.806a1.88,1.88,0,0,0,.98-1.134l.455.264Zm-.728-2.514c0,.012,0,.024,0,.035a1.177,1.177,0,0,1-2.354-.014v-1.282a5.7,5.7,0,0,0,2.355,0Z" fill="#2bb788"/>
    <path id="Path_1183" data-name="Path 1183" d="M1115.079,1547.17l-.768.445a.341.341,0,0,0-.161.212l-.6,2.3a.348.348,0,0,0,.248.423.381.381,0,0,0,.088.011.347.347,0,0,0,.335-.259l.563-2.157.643-.372a.346.346,0,1,0-.347-.6Z" fill="#2bb788"/>
  </g>
</svg>
