<svg xmlns="http://www.w3.org/2000/svg" width="452.506" height="168.321" viewBox="0 0 452.506 168.321">
  <g id="Group_1682" data-name="Group 1682" transform="translate(-4611.274 -5776.457)">
    <g id="Group_1676" data-name="Group 1676">
      <g id="Group_1674" data-name="Group 1674">
        <path id="Path_2933" data-name="Path 2933" d="M4619.917,5827.641a5.6,5.6,0,0,0-1.928,5.613c.762,3.04,4.308,4.893,7.88,4.032q4.958-1.2,9.927-2.336l-1.311-5.5c-1.551-6.462,2.885-13.287,9.691-14.748a12.558,12.558,0,0,1,14.686,8.492q.678,3.254,1.355,6.508.984-.2,1.967-.392.613,3.1,1.227,6.195-4.17.825-8.335,1.692l-2.436-11.716a6.015,6.015,0,1,0-11.757,2.526q1.3,5.841,2.591,11.682-8.626,1.889-17.224,3.949c-6.465,1.177-13.055-2.709-14.629-8.777a12.263,12.263,0,0,1,6.69-13.771Zm4.943,26.02q3.114-.77,6.23-1.515-.735-3.07-1.47-6.142-3.14.751-6.274,1.526Q4624.1,5850.595,4624.86,5853.661Zm7.214-1.75q3.116-.743,6.239-1.462l-1.419-6.154q-3.144.726-6.283,1.473Q4631.343,5848.838,4632.074,5851.911Z" fill="#fff"/>
        <path id="Path_2934" data-name="Path 2934" d="M4696.741,5819.368a13.438,13.438,0,0,1,.1,3.781q1.256-.2,2.51-.392.483,3.12.967,6.24-18.5,2.867-36.907,6.511-.614-3.1-1.227-6.195,1.033-.2,2.065-.406a8.045,8.045,0,0,0,.148-3.851q-1.351-6.946-2.7-13.889,3.257-.634,6.517-1.244,1.3,6.954,2.6,13.908a15.5,15.5,0,0,1,.258,3.768q3.029-.568,6.06-1.116a8.044,8.044,0,0,0,.2-3.848q-1.25-6.962-2.5-13.926,3.264-.587,6.531-1.149,1.2,6.972,2.4,13.944a15.534,15.534,0,0,1,.2,3.772q3.037-.524,6.073-1.027a8.071,8.071,0,0,0,.258-3.845q-1.148-6.979-2.3-13.961,3.27-.538,6.543-1.053Q4695.642,5812.378,4696.741,5819.368Z" fill="#fff"/>
        <path id="Path_2935" data-name="Path 2935" d="M4728.848,5818.684l2.035-.244q.374,3.135.746,6.271-15.683,1.866-31.312,4.286l-.967-6.24q1.617-.25,3.235-.495a11.461,11.461,0,0,1-2-4.98c-.961-6.188,3.129-13.372,11.782-14.564,7.566-1.041,14.711,3.7,15.808,10.452Q4728.513,5815.927,4728.848,5818.684Zm-6.44.8c-.206-1.6-.357-3.162-.568-4.811-.479-3.767-4.488-6.27-8.609-5.7-4.464.614-6.843,4.181-6.4,7.186.614,4.179,5.179,4.718,8.466,4.272Q4718.851,5819.946,4722.408,5819.489Zm-14.44-24.836q3.311-.467,6.622-.908.417,3.129.835,6.259-3.289.439-6.576.9Q4708.408,5797.78,4707.968,5794.653Z" fill="#fff"/>
        <path id="Path_2936" data-name="Path 2936" d="M4730.882,5818.44q1.019-.122,2.035-.24-1.036-8.891-2.074-17.78,3.287-.382,6.574-.743l2.634,24.072q-4.213.461-8.423.962Q4731.256,5821.576,4730.882,5818.44Zm-1.041-26.6q3.319-.387,6.637-.75.344,3.138.686,6.277-3.3.362-6.591.745Z" fill="#fff"/>
      </g>
      <g id="Group_1675" data-name="Group 1675">
        <path id="Path_2937" data-name="Path 2937" d="M4754.5,5805.12a5.6,5.6,0,0,0-2.723,5.262c.3,3.119,3.512,5.482,7.15,5.164q5.05-.441,10.1-.826-.239-2.816-.477-5.631c-.572-6.621,4.8-12.707,11.71-13.136a12.523,12.523,0,0,1,13.2,10.586q.185,3.318.371,6.637,1-.049,2-.095.146,3.155.292,6.308-4.228.2-8.455.431-.333-5.973-.666-11.947a5.986,5.986,0,1,0-11.941.744q.412,5.969.823,11.938-8.765.579-17.519,1.332c-6.528.2-12.431-4.632-13.082-10.866a12.243,12.243,0,0,1,8.6-12.615Q4754.2,5801.763,4754.5,5805.12Zm1.02,26.465q3.173-.294,6.346-.566-.269-3.146-.538-6.292-3.2.275-6.392.57Q4755.234,5828.441,4755.525,5831.585Zm7.349-.651q3.174-.269,6.349-.514l-.486-6.3q-3.2.248-6.4.517Q4762.608,5827.788,4762.874,5830.934Z" fill="#fff"/>
        <path id="Path_2938" data-name="Path 2938" d="M4795.834,5813.081q3.48-.16,6.961-.295-.345-8.943-.689-17.887,3.3-.127,6.6-.23.379,12.1.758,24.2-6.672.21-13.341.518Q4795.98,5816.236,4795.834,5813.081Zm4.729-23.205,1.4-.055a4.045,4.045,0,0,1-.131-.8,5.691,5.691,0,0,1,5.819-5.717,6.711,6.711,0,0,1,1.412.1q.043,1.424.087,2.848a4.254,4.254,0,0,0-1.41-.193,2.938,2.938,0,0,0-3.113,2.765,1.838,1.838,0,0,0,.232.9c1.7-.059,3.045-.1,4.743-.155q.04,1.375.083,2.752c-2.987.09-5.973.195-9.009.316Q4800.618,5791.251,4800.563,5789.876Z" fill="#fff"/>
        <path id="Path_2939" data-name="Path 2939" d="M4820.056,5818.6q-.32-16.4-.64-32.8,3.335-.064,6.668-.106.162,13.247.326,26.492l2.045-.023q.033,3.157.064,6.315Q4824.288,5818.521,4820.056,5818.6Z" fill="#fff"/>
        <path id="Path_2940" data-name="Path 2940" d="M4866.2,5812.573q-.1,3.155-.2,6.312-18.735-.6-37.479-.407-.031-3.157-.064-6.315l2.046-.018q-.069-8.925-.139-17.852,3.3-.026,6.606-.027,0,1.8,0,3.608,1.854-1.806,3.723-3.6,5.314-.006,10.63.05c7.22.059,13.219,5.661,13,12.4a10.711,10.711,0,0,1-1.729,5.745Q4864.4,5812.516,4866.2,5812.573Zm-29.219-.455q7.038,0,14.075.1c3.746.056,6.678-2.534,6.753-5.667.075-3.18-2.924-5.863-6.579-5.917q-7.128-.106-14.256-.1Q4836.975,5806.324,4836.979,5812.118Z" fill="#fff"/>
        <path id="Path_2941" data-name="Path 2941" d="M4866.2,5812.573q1.852.059,3.7.126,10.038-3.275,20.227-6.324-7.386-3.282-14.873-6.442-.147,3.558-.294,7.116-3.256-.133-6.516-.245.276-8.115.553-16.229,16.774,6.7,33.076,14-.179,2.557-.362,5.115-15.783,4.4-31.216,9.349-2.247-.083-4.5-.154Q4866.1,5815.729,4866.2,5812.573Zm18.18-25.815q3.332.168,6.661.36-.182,3.153-.364,6.3-3.307-.192-6.615-.358Z" fill="#fff"/>
        <path id="Path_2942" data-name="Path 2942" d="M4907.272,5782.2l1.411.106a3.854,3.854,0,0,1-.04-.812,5.727,5.727,0,0,1,6.5-5.009,6.8,6.8,0,0,1,1.407.261q-.119,1.419-.239,2.839a4.409,4.409,0,0,0-1.4-.355,2.96,2.96,0,0,0-3.444,2.389,1.836,1.836,0,0,0,.131.915c1.711.136,3.07.247,4.781.392q-.116,1.373-.232,2.745c-3.011-.255-6.022-.5-9.085-.724Q4907.169,5783.571,4907.272,5782.2Zm4.679,39.33q-3.209-.267-6.417-.511,1.247-16.381,2.493-32.763,3.327.253,6.652.531Q4913.315,5805.156,4911.951,5821.528Z" fill="#fff"/>
        <path id="Path_2943" data-name="Path 2943" d="M4930.212,5823.238c-9.121-1.082-12.488-7.016-11.983-12.8.536-6.191,6.158-12.2,14.838-11.3,7.788.81,13.716,7.37,12.821,14.625q-.4,3.324-.8,6.648c-.9,7.306-7.431,13.012-14.51,12.266q-1.6-.168-3.194-.331.32-3.141.64-6.282,1.608.163,3.216.333c2.352.249,3.758-.647,5.615-2.447Q4933.535,5823.583,4930.212,5823.238Zm8.653-5.413c.219-1.934.512-4.53.544-4.813.437-3.821-2.815-7.153-7-7.589-4.624-.481-7.592,2.533-7.879,5.556-.39,4.11,3.958,5.725,7.157,6.064Q4935.279,5817.419,4938.865,5817.825Z" fill="#fff"/>
        <path id="Path_2944" data-name="Path 2944" d="M4966.15,5827.71c-.384-.055-.761-.159-1.1-.207a13.155,13.155,0,0,1-7.6-4.6,11.282,11.282,0,0,1-2.7-9.026,11.034,11.034,0,0,1,4.986-7.962,13.4,13.4,0,0,1,9.888-2.166l-.007.048-.9,6.2a7.015,7.015,0,0,0-4.979.97,5.291,5.291,0,0,0-2.463,3.781,5.374,5.374,0,0,0,1.327,4.355,7.028,7.028,0,0,0,4.453,2.359q10.726,1.557,21.425,3.371l2.994-17.649q3.267.554,6.533,1.133-1.562,8.813-3.121,17.626,1.011.179,2.022.361l-1.116,6.215Q4981,5829.864,4966.15,5827.71Zm7.02,4.121q3.177.487,6.352,1-.5,3.117-1,6.235-3.152-.508-6.307-.992Q4972.691,5834.952,4973.17,5831.831Z" fill="#fff"/>
        <path id="Path_2945" data-name="Path 2945" d="M4996.91,5826.3q2.142.385,4.282.778l3.246-17.6q3.261.6,6.52,1.226-1.687,8.79-3.373,17.58,2.187.42,4.371.85l-1.221,6.2q-7.46-1.47-14.941-2.812Zm-1.081,9.309q3.166.571,6.331,1.164l-1.164,6.206q-3.141-.588-6.286-1.155Zm7.329,1.351q3.163.6,6.324,1.217-.607,3.1-1.216,6.2-3.138-.615-6.279-1.208Q5002.573,5840.065,5003.158,5836.962Z" fill="#fff"/>
        <path id="Path_2946" data-name="Path 2946" d="M5011.954,5829.133q2.137.42,4.272.852l3.544-17.547q3.253.658,6.5,1.339-1.836,8.76-3.671,17.52,2.181.456,4.359.924-.661,3.086-1.325,6.175-7.442-1.6-14.9-3.067Q5011.345,5832.23,5011.954,5829.133Zm2.42,10.02q3.157.638,6.311,1.3-.647,3.09-1.295,6.181-3.13-.657-6.266-1.29Q5013.748,5842.248,5014.374,5839.153Z" fill="#fff"/>
        <path id="Path_2947" data-name="Path 2947" d="M5041.143,5808.211q-.948,4.215-1.894,8.431,7.069,1.589,14.119,3.289c7.166,1.726,11.746,8.455,10.063,14.933-1.659,6.389-8.694,10.256-15.73,8.56-8.905-2.129-13.175-3.1-22.064-5.028q.663-3.087,1.325-6.175l2.011.434q2.81-12.943,5.62-25.891Q5037.869,5807.475,5041.143,5808.211Zm-6.421,28.583q2.094-.966,4.2-1.921c5.969,1.381,4.252.977,10.262,2.412,3.476.838,7.036-.865,7.832-4.044.807-3.224-1.682-6.391-5.115-7.218q-7-1.689-14.024-3.266Z" fill="#fff"/>
      </g>
    </g>
    <g id="Group_1681" data-name="Group 1681">
      <g id="Group_1677" data-name="Group 1677">
        <path id="Path_2948" data-name="Path 2948" d="M4702.8,5889.653h-15.669c-7.074,0-12.82-5.46-12.82-12.107,0-6.695,5.793-12.109,12.82-12.109h13.675v17.9h1.994Zm-8.309-17.9h-7.36c-3.656,0-6.457,2.659-6.457,5.794s2.8,5.792,6.457,5.792h7.36Zm-10.351-14.956h6.315v6.315h-6.315Zm7.312,0h6.315v6.315h-6.315Z" fill="#fff"/>
        <path id="Path_2949" data-name="Path 2949" d="M4702.8,5889.653v-6.315h3.181a11.57,11.57,0,0,1-1.14-5.271A12.773,12.773,0,0,1,4718,5865.391c6.552,0,12.535,4.6,13.674,10.919h-6.552a7.553,7.553,0,0,0-7.122-4.6c-4.464,0-7.028,3.276-7.028,6.315,0,2.705,2.137,5.317,7.028,5.317h13.817v6.315Z" fill="#fff"/>
        <path id="Path_2950" data-name="Path 2950" d="M4742.162,5889.653v-32.809h6.315v26.494h2v6.315Z" fill="#fff"/>
        <path id="Path_2951" data-name="Path 2951" d="M4785.132,5879.587a13.8,13.8,0,0,1-.475,3.751h2.469v6.315h-36.655v-6.315h2.042a8.233,8.233,0,0,0,.854-3.751v-14.15h6.315v14.15a15.91,15.91,0,0,1-.427,3.751h5.982a8.2,8.2,0,0,0,.855-3.751v-14.15h6.315v14.15a15.91,15.91,0,0,1-.427,3.751h5.983a8.227,8.227,0,0,0,.854-3.751v-14.15h6.315Z" fill="#fff"/>
        <path id="Path_2952" data-name="Path 2952" d="M4787.126,5889.653v-6.315h1.994v-26.494h6.315v32.809Z" fill="#fff"/>
        <path id="Path_2953" data-name="Path 2953" d="M4806.307,5889.653h-6.315V5856.8h6.315Z" fill="#fff"/>
      </g>
      <g id="Group_1678" data-name="Group 1678">
        <path id="Path_2954" data-name="Path 2954" d="M4824.833,5885.143c0,7.359-5.6,13.816-12.868,13.816v-6.315c3.8,0,6.553-3.514,6.553-7.5v-19.706h6.315Z" fill="#fff"/>
        <path id="Path_2955" data-name="Path 2955" d="M4838.27,5889.653h-6.315V5856.8h6.315Z" fill="#fff"/>
        <path id="Path_2956" data-name="Path 2956" d="M4844.181,5883.338h12.44c3.465,0,6.457-2.516,6.457-5.792,0-3.325-3.134-5.794-6.457-5.794h-12.44v-6.267h12.44c6.979,0,12.772,5.412,12.772,12.061a11.34,11.34,0,0,1-1.52,5.792h3.514v6.315h-27.206Z" fill="#fff"/>
        <path id="Path_2957" data-name="Path 2957" d="M4871.386,5883.338h3.134a11.848,11.848,0,0,1-1.139-5.271,12.743,12.743,0,0,1,13.152-12.676c7.312,0,13.437,5.506,13.816,12.392v11.87l-14.148-.048a13.8,13.8,0,0,1-8.832-2.753v2.8h-5.983Zm22.648,0c0-3.419.665-7.122-2.183-9.686a7.814,7.814,0,0,0-5.318-1.946c-4.464,0-7.028,3.276-7.028,6.315,0,2.705,2.138,5.317,7.075,5.317Z" fill="#fff"/>
      </g>
      <g id="Group_1679" data-name="Group 1679">
        <path id="Path_2958" data-name="Path 2958" d="M4920.949,5872.559a5.649,5.649,0,0,0-3.087,4.987c0,3.133,2.9,5.792,6.458,5.792h9.876l-.047-5.651a12.122,12.122,0,0,1,24.215-1l.048,6.647h1.946v6.315h-8.309v-11.966a5.8,5.8,0,1,0-11.585,0v11.966l-17.236-.048a12.428,12.428,0,0,1-11.68-12.059,12.253,12.253,0,0,1,9.4-11.729Z" fill="#fff"/>
        <path id="Path_2959" data-name="Path 2959" d="M4960.358,5889.653v-6.315h1.994v-26.494h6.315v26.494h2v6.315Z" fill="#fff"/>
        <path id="Path_2960" data-name="Path 2960" d="M4970.661,5889.653v-6.315h3.181a11.576,11.576,0,0,1-1.139-5.271,12.771,12.771,0,0,1,13.152-12.676c6.552,0,12.535,4.6,13.674,10.919h-6.552a7.553,7.553,0,0,0-7.122-4.6c-4.464,0-7.028,3.276-7.028,6.315,0,2.705,2.138,5.317,7.028,5.317h13.817v6.315Z" fill="#fff"/>
      </g>
      <g id="Group_1680" data-name="Group 1680">
        <path id="Path_2961" data-name="Path 2961" d="M4878.9,5901.144v26.494h1.994v6.315h-2.279a13.841,13.841,0,0,1-27.349-2.991v-14.578l6.315,2.755v11.823a7.5,7.5,0,0,0,15,0v-29.818Z" fill="#fff"/>
        <path id="Path_2962" data-name="Path 2962" d="M4902.211,5909.785l-9.354,5.983H4916.5c5.555,0,8.357,4.51,8.357,9.02a11.14,11.14,0,0,1-.381,2.85h2.327v6.315h-45.914v-6.315H4916.5c1.471,0,2.231-1.377,2.231-2.754,0-1.424-.76-2.8-2.231-2.8h-33.617v-6.315l23.645-16.809v12.915l-4.32-2.137Z" fill="#fff"/>
        <path id="Path_2963" data-name="Path 2963" d="M4926.805,5933.953v-6.315h1.994v-26.494h6.315v32.809Z" fill="#fff"/>
        <path id="Path_2964" data-name="Path 2964" d="M4766.506,5901.143v26.494h1.993v6.315h-2.279a13.841,13.841,0,0,1-27.349-2.991v-14.577l6.315,2.754v11.823a7.5,7.5,0,0,0,15,0v-29.818Z" fill="#fff"/>
        <path id="Path_2965" data-name="Path 2965" d="M4768.5,5927.637h4.226v-17.9h6.315v17.9h4.321v6.315H4768.5Zm.57,9.354h6.315v6.315h-6.315Zm7.312,0h6.315v6.315h-6.315Z" fill="#fff"/>
        <path id="Path_2966" data-name="Path 2966" d="M4783.36,5927.637h3.134a12.038,12.038,0,0,1-1.187-5.271,12.757,12.757,0,0,1,13.2-12.676c7.312,0,13.437,5.506,13.816,12.392v5.555h1.995v6.315l-16.143-.048a13.8,13.8,0,0,1-8.832-2.753v2.8h-5.983Zm22.648,0c0-3.419.665-7.122-2.183-9.686a7.812,7.812,0,0,0-5.318-1.946c-4.464,0-7.028,3.276-7.028,6.315,0,2.705,2.138,5.317,7.075,5.317Z" fill="#fff"/>
        <path id="Path_2967" data-name="Path 2967" d="M4814.317,5933.952v-6.315h3.182a11.559,11.559,0,0,1-1.14-5.271,12.771,12.771,0,0,1,13.151-12.676c6.553,0,12.536,4.6,13.675,10.92h-6.553a7.549,7.549,0,0,0-7.122-4.6c-4.463,0-7.026,3.276-7.026,6.315,0,2.705,2.136,5.317,7.026,5.317h13.818v6.315Z" fill="#fff"/>
      </g>
    </g>
  </g>
</svg>
