<svg xmlns="http://www.w3.org/2000/svg" width="127.152" height="43.434" viewBox="0 0 127.152 43.434">
  <g id="Group_2441" data-name="Group 2441" transform="translate(-78.599 -10.604)">
    <g id="Group_2244" data-name="Group 2244">
      <path id="Path_2336" data-name="Path 2336" d="M78.659,42.027c6.285-.852,10.638-5.271,10.077-10.222-.854,1.777-6.105,8.419-10.122,8.039,0-.6.033-1.818.033-1.818a17.812,17.812,0,0,0,4.1-2.659,9.527,9.527,0,0,0,2.231-3.57c-.669.446-3.123,2.008-4.25,2.66a15.343,15.343,0,0,1-2.072.832c-.026-.464-.05-.7-.05-.939,0-4.542-.026-8.637.006-13.179A10.615,10.615,0,0,1,99.139,17.4,10.433,10.433,0,0,1,97.77,27.5l-.68-2.732c-.24.34-.365.493-.464.662a7.824,7.824,0,0,1-3.5,3.265,1.359,1.359,0,0,0-.919,1.534,15.3,15.3,0,0,1-.722,6,13.486,13.486,0,0,1-5.744,7.109,1.032,1.032,0,0,0-.576,1.029c.03,1.162.037,2.326,0,3.487a6.445,6.445,0,0,1-6.5,6.179V52.211C78.719,52.176,78.659,44.7,78.659,42.027ZM92.282,15.652a8.769,8.769,0,0,1,4.755,7.517,7.6,7.6,0,0,0-.168-5.871A8.4,8.4,0,0,0,92.2,13.164v2.26c-.3-.109-.528-.188-.751-.269a6.452,6.452,0,0,0-7.386,2.209,6.361,6.361,0,0,0,.061,7.7,6.473,6.473,0,0,0,7.341,2.135,1.047,1.047,0,0,0,.831-1.163c-.019-1.548-.023-3.1-.023-4.645,0-1.532,0-3.064,0-4.595Z" fill="#2bb788"/>
      <path id="Path_2337" data-name="Path 2337" d="M87.213,18.812v1.831h1.822A1.83,1.83,0,0,1,87.2,22.518a1.864,1.864,0,0,1-1.845-1.81A1.81,1.81,0,0,1,87.213,18.812Z" fill="#2bb788"/>
    </g>
    <g id="Group_2255" data-name="Group 2255">
      <path id="Path_2346" data-name="Path 2346" d="M103.411,47.779v-14.5H109.6a4.254,4.254,0,0,1,1.91.429A4.923,4.923,0,0,1,113,34.83a5.385,5.385,0,0,1,.98,1.573,4.685,4.685,0,0,1,.357,1.777A5.077,5.077,0,0,1,114,40.018a5.243,5.243,0,0,1-.939,1.573,4.45,4.45,0,0,1-1.46,1.1,4.367,4.367,0,0,1-1.9.408H106.76v4.677Zm3.349-7.6H109.5a1.3,1.3,0,0,0,1.021-.51,2.264,2.264,0,0,0,.429-1.491,2.579,2.579,0,0,0-.133-.878,1.783,1.783,0,0,0-.357-.613,1.372,1.372,0,0,0-.511-.357,1.549,1.549,0,0,0-.572-.113H106.76Z" fill="#fff"/>
      <path id="Path_2347" data-name="Path 2347" d="M122.67,39.855a6.251,6.251,0,0,0-2.145.388,2.615,2.615,0,0,0-1.389,1.1v6.433h-3.267V37.057h3v2.165a4.566,4.566,0,0,1,1.419-1.7,3.28,3.28,0,0,1,1.849-.633h.327a1.009,1.009,0,0,1,.2.021Z" fill="#fff"/>
      <path id="Path_2348" data-name="Path 2348" d="M128.613,47.983a6.279,6.279,0,0,1-2.441-.449,5.335,5.335,0,0,1-1.807-1.215,5.139,5.139,0,0,1-1.113-1.777,6.1,6.1,0,0,1,0-4.228,5.139,5.139,0,0,1,1.113-1.777,5.446,5.446,0,0,1,1.807-1.225,6.153,6.153,0,0,1,2.441-.46,6.079,6.079,0,0,1,2.431.46,5.474,5.474,0,0,1,1.8,1.225,5.27,5.27,0,0,1,1.123,1.777,5.844,5.844,0,0,1,.388,2.114,5.988,5.988,0,0,1-.378,2.114,5.138,5.138,0,0,1-1.113,1.777,5.325,5.325,0,0,1-1.807,1.215A6.279,6.279,0,0,1,128.613,47.983Zm-2.389-5.555a2.962,2.962,0,0,0,.674,2.032,2.291,2.291,0,0,0,2.655.562,2.26,2.26,0,0,0,.745-.572,2.749,2.749,0,0,0,.5-.889,3.4,3.4,0,0,0,.183-1.133,2.96,2.96,0,0,0-.674-2.032,2.16,2.16,0,0,0-1.695-.766,2.218,2.218,0,0,0-1.705.776,2.749,2.749,0,0,0-.5.889A3.4,3.4,0,0,0,126.224,42.428Z" fill="#fff"/>
      <path id="Path_2349" data-name="Path 2349" d="M152.917,47.779h-3.268V41.754a2.458,2.458,0,0,0-.388-1.542,1.23,1.23,0,0,0-1-.48,1.7,1.7,0,0,0-.664.143,2.265,2.265,0,0,0-.623.4,3.324,3.324,0,0,0-.9,1.358v6.148h-3.268V41.754a2.458,2.458,0,0,0-.388-1.542,1.229,1.229,0,0,0-1-.48,1.979,1.979,0,0,0-1.276.521,2.975,2.975,0,0,0-.909,1.378v6.148h-3.268V37.057h2.941v1.8a3.889,3.889,0,0,1,1.6-1.491,5.175,5.175,0,0,1,2.359-.511,3.792,3.792,0,0,1,1.175.164,2.851,2.851,0,0,1,.868.449,2.386,2.386,0,0,1,.592.664,2.864,2.864,0,0,1,.327.807,4.223,4.223,0,0,1,1.613-1.542,4.731,4.731,0,0,1,2.288-.542,3.146,3.146,0,0,1,1.644.378,2.737,2.737,0,0,1,.97.981,3.794,3.794,0,0,1,.459,1.317,8.933,8.933,0,0,1,.113,1.389Z" fill="#fff"/>
      <path id="Path_2350" data-name="Path 2350" d="M160.187,47.983a6.333,6.333,0,0,1-2.42-.439,5.382,5.382,0,0,1-1.818-1.195,5.094,5.094,0,0,1-1.133-1.746,5.624,5.624,0,0,1-.388-2.073,6.172,6.172,0,0,1,.388-2.195,5.319,5.319,0,0,1,1.123-1.808,5.239,5.239,0,0,1,1.808-1.225,6.252,6.252,0,0,1,2.44-.45,6.18,6.18,0,0,1,2.43.45,5.326,5.326,0,0,1,1.8,1.215,5.153,5.153,0,0,1,1.113,1.767,5.9,5.9,0,0,1,.378,2.1c0,.191-.007.378-.021.562a3.9,3.9,0,0,1-.061.48H157.9a2.2,2.2,0,0,0,.786,1.644,2.5,2.5,0,0,0,1.6.561,2.932,2.932,0,0,0,1.379-.347,1.771,1.771,0,0,0,.888-.939l2.778.776a5,5,0,0,1-1.961,2.063A6.08,6.08,0,0,1,160.187,47.983Zm2.267-6.576a2.456,2.456,0,0,0-.735-1.614,2.219,2.219,0,0,0-1.573-.592,2.18,2.18,0,0,0-1.582.6,2.5,2.5,0,0,0-.726,1.6Z" fill="#fff"/>
      <path id="Path_2351" data-name="Path 2351" d="M177.731,47.779h-3.268V41.754a2.409,2.409,0,0,0-.4-1.542,1.3,1.3,0,0,0-1.052-.48,1.812,1.812,0,0,0-.694.143,2.84,2.84,0,0,0-.674.4,3.03,3.03,0,0,0-.582.6,2.831,2.831,0,0,0-.4.755v6.148H167.4V37.057h2.94v1.8a3.9,3.9,0,0,1,1.675-1.481,5.685,5.685,0,0,1,2.492-.521,3.249,3.249,0,0,1,1.675.378,2.718,2.718,0,0,1,.98.981,3.794,3.794,0,0,1,.459,1.317,8.933,8.933,0,0,1,.113,1.389Z" fill="#fff"/>
      <path id="Path_2352" data-name="Path 2352" d="M186.737,47.207a12.864,12.864,0,0,1-1.542.531,6.411,6.411,0,0,1-1.746.245,4.228,4.228,0,0,1-1.154-.153,2.575,2.575,0,0,1-.949-.49,2.29,2.29,0,0,1-.644-.889,3.387,3.387,0,0,1-.234-1.327v-5.6H179.1V37.057h1.369V33.646h3.267v3.411h2.186v2.471h-2.186V44a.876.876,0,0,0,.94,1,2.521,2.521,0,0,0,.755-.122,4.6,4.6,0,0,0,.674-.266Z" fill="#fff"/>
      <path id="Path_2353" data-name="Path 2353" d="M191.047,47.983a4.208,4.208,0,0,1-1.481-.255,3.47,3.47,0,0,1-1.174-.715,3.413,3.413,0,0,1-.776-1.082,3.214,3.214,0,0,1-.286-1.359,3.113,3.113,0,0,1,.337-1.45A3.326,3.326,0,0,1,188.616,42a4.694,4.694,0,0,1,1.451-.735A6.123,6.123,0,0,1,191.925,41a7.459,7.459,0,0,1,1.307.113,4.288,4.288,0,0,1,1.1.337v-.49q0-1.858-2.144-1.859a4.775,4.775,0,0,0-1.675.3,8.064,8.064,0,0,0-1.675.889l-.96-2.043a8.577,8.577,0,0,1,2.206-1.041,8.3,8.3,0,0,1,2.43-.348A5.588,5.588,0,0,1,196.275,38a4.181,4.181,0,0,1,1.328,3.35V44.1a1.137,1.137,0,0,0,.153.684.76.76,0,0,0,.541.235v2.757a5.566,5.566,0,0,1-.776.133q-.348.03-.633.03a2.272,2.272,0,0,1-1.389-.357,1.583,1.583,0,0,1-.592-1.011l-.061-.49a4.915,4.915,0,0,1-1.706,1.409A4.654,4.654,0,0,1,191.047,47.983Zm.96-2.349a2.98,2.98,0,0,0,1.031-.183,2.4,2.4,0,0,0,.827-.491,1.014,1.014,0,0,0,.47-.776V43.163a5.276,5.276,0,0,0-.929-.255,5.2,5.2,0,0,0-.93-.092,2.518,2.518,0,0,0-1.48.408,1.247,1.247,0,0,0-.582,1.062,1.209,1.209,0,0,0,.449.971A1.715,1.715,0,0,0,192.007,45.634Z" fill="#fff"/>
      <path id="Path_2354" data-name="Path 2354" d="M199.931,32.87H203.2V43.96q0,1.226,1.042,1.225a2.3,2.3,0,0,0,.541-.071,1.993,1.993,0,0,0,.542-.215l.428,2.451a6.269,6.269,0,0,1-1.409.449,7.439,7.439,0,0,1-1.491.164,2.972,2.972,0,0,1-2.164-.736,2.829,2.829,0,0,1-.756-2.124Z" fill="#fff"/>
    </g>
  </g>
</svg>
