<svg xmlns="http://www.w3.org/2000/svg" width="164.477" height="114.367" viewBox="0 0 164.477 114.367">
  <g id="Group_2075" data-name="Group 2075" transform="translate(-91.698 -117.444)">
    <g id="Group_1746" data-name="Group 1746" transform="translate(-5477 -6378)">
      <g id="Group_1745" data-name="Group 1745">
        <path id="Path_3143" data-name="Path 3143" d="M5568.7,6609.483v-23.3h9.946a6.841,6.841,0,0,1,3.069.689,7.877,7.877,0,0,1,2.4,1.806,8.654,8.654,0,0,1,1.576,2.527,7.537,7.537,0,0,1,.574,2.856,8.17,8.17,0,0,1-.542,2.954,8.415,8.415,0,0,1-1.51,2.527,7.128,7.128,0,0,1-2.347,1.773,7,7,0,0,1-3.052.656h-4.727v7.517Zm5.383-12.211h4.4a2.083,2.083,0,0,0,1.641-.82,3.643,3.643,0,0,0,.689-2.4,4.185,4.185,0,0,0-.213-1.412,2.9,2.9,0,0,0-.575-.985,2.217,2.217,0,0,0-.82-.574,2.507,2.507,0,0,0-.919-.18h-4.2Z" fill="#2bb788"/>
        <path id="Path_3144" data-name="Path 3144" d="M5599.65,6596.747a10.055,10.055,0,0,0-3.446.624,4.2,4.2,0,0,0-2.232,1.772v10.34h-5.252V6592.25h4.825v3.48a7.326,7.326,0,0,1,2.281-2.725,5.262,5.262,0,0,1,2.971-1.017h.525a1.659,1.659,0,0,1,.328.033Z" fill="#2bb788"/>
        <path id="Path_3145" data-name="Path 3145" d="M5609.2,6609.811a10.084,10.084,0,0,1-3.923-.722,8.554,8.554,0,0,1-2.9-1.953,8.259,8.259,0,0,1-1.789-2.856,9.81,9.81,0,0,1,0-6.794,8.248,8.248,0,0,1,1.789-2.856,8.748,8.748,0,0,1,2.9-1.969,9.864,9.864,0,0,1,3.923-.739,9.739,9.739,0,0,1,3.906.739,8.794,8.794,0,0,1,2.889,1.969,8.457,8.457,0,0,1,1.8,2.856,9.412,9.412,0,0,1,.623,3.4,9.614,9.614,0,0,1-.607,3.4,8.252,8.252,0,0,1-1.789,2.856,8.549,8.549,0,0,1-2.9,1.953A10.081,10.081,0,0,1,5609.2,6609.811Zm-3.84-8.928a4.766,4.766,0,0,0,1.083,3.266,3.512,3.512,0,0,0,2.757,1.231,3.459,3.459,0,0,0,1.51-.329,3.614,3.614,0,0,0,1.2-.919,4.408,4.408,0,0,0,.8-1.427,5.434,5.434,0,0,0,.3-1.822,4.757,4.757,0,0,0-1.084-3.266,3.472,3.472,0,0,0-2.724-1.231,3.564,3.564,0,0,0-2.741,1.247,4.416,4.416,0,0,0-.8,1.428A5.429,5.429,0,0,0,5605.362,6600.883Z" fill="#2bb788"/>
        <path id="Path_3146" data-name="Path 3146" d="M5648.261,6609.483h-5.252V6599.8a3.951,3.951,0,0,0-.623-2.478,1.978,1.978,0,0,0-1.609-.772,2.719,2.719,0,0,0-1.066.23,3.637,3.637,0,0,0-1,.64,5.136,5.136,0,0,0-.837.968,5.248,5.248,0,0,0-.608,1.215v9.88h-5.251V6599.8a3.947,3.947,0,0,0-.624-2.478,1.977,1.977,0,0,0-1.608-.772,3.181,3.181,0,0,0-2.052.837,4.785,4.785,0,0,0-1.461,2.216v9.88h-5.251V6592.25h4.726v2.889a6.243,6.243,0,0,1,2.577-2.4,8.3,8.3,0,0,1,3.791-.821,6.086,6.086,0,0,1,1.887.263,4.539,4.539,0,0,1,1.4.722,3.782,3.782,0,0,1,.952,1.067,4.63,4.63,0,0,1,.526,1.3,6.787,6.787,0,0,1,2.592-2.478,7.62,7.62,0,0,1,3.677-.87,5.063,5.063,0,0,1,2.642.607,4.4,4.4,0,0,1,1.559,1.576,6.113,6.113,0,0,1,.739,2.117,14.4,14.4,0,0,1,.18,2.232Z" fill="#2bb788"/>
        <path id="Path_3147" data-name="Path 3147" d="M5659.946,6609.811a10.19,10.19,0,0,1-3.89-.706,8.652,8.652,0,0,1-2.921-1.92,8.222,8.222,0,0,1-1.822-2.807,9.062,9.062,0,0,1-.623-3.331,9.959,9.959,0,0,1,.623-3.529,8.57,8.57,0,0,1,1.806-2.9,8.436,8.436,0,0,1,2.9-1.97,10.076,10.076,0,0,1,3.922-.722,9.957,9.957,0,0,1,3.906.722,8.581,8.581,0,0,1,2.888,1.953,8.3,8.3,0,0,1,1.789,2.839,9.489,9.489,0,0,1,.608,3.381c0,.307-.012.608-.033.9a6.355,6.355,0,0,1-.1.771H5656.27a3.535,3.535,0,0,0,1.264,2.642,4.011,4.011,0,0,0,2.576.9,4.714,4.714,0,0,0,2.216-.558,2.851,2.851,0,0,0,1.428-1.51l4.464,1.247a8.028,8.028,0,0,1-3.152,3.316A9.774,9.774,0,0,1,5659.946,6609.811Zm3.644-10.569a3.953,3.953,0,0,0-1.182-2.593,3.559,3.559,0,0,0-2.527-.952,3.51,3.51,0,0,0-2.544.968,4.02,4.02,0,0,0-1.166,2.577Z" fill="#2bb788"/>
        <path id="Path_3148" data-name="Path 3148" d="M5688.141,6609.483h-5.251V6599.8a3.866,3.866,0,0,0-.641-2.478,2.091,2.091,0,0,0-1.69-.772,2.919,2.919,0,0,0-1.116.23,4.6,4.6,0,0,0-1.083.64,4.925,4.925,0,0,0-.936.968,4.6,4.6,0,0,0-.64,1.215v9.88h-5.251V6592.25h4.726v2.889a6.268,6.268,0,0,1,2.692-2.38,9.128,9.128,0,0,1,4-.837,5.231,5.231,0,0,1,2.692.607,4.367,4.367,0,0,1,1.575,1.576,6.112,6.112,0,0,1,.739,2.117,14.4,14.4,0,0,1,.18,2.232Z" fill="#2bb788"/>
        <path id="Path_3149" data-name="Path 3149" d="M5702.616,6608.564a21.127,21.127,0,0,1-2.478.853,10.3,10.3,0,0,1-2.806.394,6.784,6.784,0,0,1-1.855-.246,4.132,4.132,0,0,1-1.526-.788,3.668,3.668,0,0,1-1.034-1.428,5.43,5.43,0,0,1-.377-2.134v-8.993h-2.2v-3.972h2.2v-5.481h5.251v5.481h3.512v3.972h-3.512v7.188a1.407,1.407,0,0,0,1.51,1.609,4.032,4.032,0,0,0,1.215-.2,7.627,7.627,0,0,0,1.083-.427Z" fill="#2bb788"/>
        <path id="Path_3150" data-name="Path 3150" d="M5709.542,6609.811a6.769,6.769,0,0,1-2.38-.41,5.576,5.576,0,0,1-1.887-1.149,5.514,5.514,0,0,1-1.247-1.74,5.164,5.164,0,0,1-.46-2.183,5.011,5.011,0,0,1,.542-2.33,5.338,5.338,0,0,1,1.526-1.805,7.5,7.5,0,0,1,2.331-1.182,9.848,9.848,0,0,1,2.986-.427,12.026,12.026,0,0,1,2.1.181,6.907,6.907,0,0,1,1.772.541v-.787q0-2.987-3.446-2.987a7.664,7.664,0,0,0-2.691.476,12.939,12.939,0,0,0-2.692,1.427l-1.543-3.282a13.821,13.821,0,0,1,3.545-1.674,13.375,13.375,0,0,1,3.906-.558,8.982,8.982,0,0,1,6.04,1.838,6.718,6.718,0,0,1,2.133,5.383v4.431a1.82,1.82,0,0,0,.247,1.1,1.215,1.215,0,0,0,.869.377v4.432a8.805,8.805,0,0,1-1.247.213q-.559.05-1.018.049a3.656,3.656,0,0,1-2.232-.574,2.539,2.539,0,0,1-.951-1.625l-.1-.788a7.866,7.866,0,0,1-2.741,2.265A7.485,7.485,0,0,1,5709.542,6609.811Zm1.543-3.775a4.772,4.772,0,0,0,1.657-.295,3.887,3.887,0,0,0,1.33-.788,1.628,1.628,0,0,0,.754-1.247v-1.642a8.654,8.654,0,0,0-1.493-.41,8.382,8.382,0,0,0-1.493-.147,4.049,4.049,0,0,0-2.38.656,2,2,0,0,0-.936,1.707,1.947,1.947,0,0,0,.722,1.559A2.759,2.759,0,0,0,5711.085,6606.036Z" fill="#2bb788"/>
        <path id="Path_3151" data-name="Path 3151" d="M5723.82,6585.522h5.251v17.823q0,1.969,1.675,1.969a3.73,3.73,0,0,0,.869-.115,3.17,3.17,0,0,0,.87-.345l.69,3.939a10.13,10.13,0,0,1-2.265.722,11.985,11.985,0,0,1-2.4.263,4.785,4.785,0,0,1-3.479-1.182,4.545,4.545,0,0,1-1.215-3.413Z" fill="#2bb788"/>
      </g>
    </g>
    <g id="Group_1747" data-name="Group 1747" transform="translate(-5477 -6378)">
      <path id="Path_3152" data-name="Path 3152" d="M5636.852,6552.852c11.484-1.557,19.435-9.631,18.41-18.675-1.559,3.246-11.153,15.381-18.492,14.686,0-1.094.061-3.322.061-3.322a32.528,32.528,0,0,0,7.5-4.858,17.386,17.386,0,0,0,4.075-6.521c-1.222.815-5.706,3.668-7.764,4.86a28.026,28.026,0,0,1-3.786,1.519c-.046-.846-.091-1.281-.091-1.715,0-8.3-.048-15.78.012-24.076a19.393,19.393,0,0,1,37.493-6.889c2.44,6.457,1.507,12.572-2.5,18.441-.419-1.687-.786-3.163-1.241-4.991-.439.622-.667.9-.848,1.209a14.29,14.29,0,0,1-6.4,5.966,2.483,2.483,0,0,0-1.679,2.8,27.969,27.969,0,0,1-1.317,10.957,24.639,24.639,0,0,1-10.495,12.987,1.887,1.887,0,0,0-1.052,1.881c.055,2.122.068,4.249,0,6.37-.207,6.281-5.875,11.7-11.868,11.289v-3.315C5636.962,6571.393,5636.852,6557.739,5636.852,6552.852Zm24.889-48.186a16.02,16.02,0,0,1,8.688,13.733c2.021-4.615.391-8.69-.307-10.726a15.358,15.358,0,0,0-8.523-7.553v4.129c-.554-.2-.964-.342-1.373-.491a11.785,11.785,0,0,0-13.492,4.036,11.621,11.621,0,0,0,.11,14.061,11.828,11.828,0,0,0,13.412,3.9,1.913,1.913,0,0,0,1.518-2.124c-.035-2.829-.043-5.659-.042-8.488,0-2.8.01-5.6.009-8.394Z" fill="#182445"/>
      <path id="Path_3153" data-name="Path 3153" d="M5652.48,6510.44v3.344h3.329a3.343,3.343,0,0,1-3.347,3.425,3.4,3.4,0,0,1-3.37-3.306A3.305,3.305,0,0,1,5652.48,6510.44Z" fill="#182445"/>
    </g>
  </g>
</svg>
