<svg xmlns="http://www.w3.org/2000/svg" width="167.189" height="71.594" viewBox="0 0 167.189 71.594">
  <g id="Group_1957" data-name="Group 1957" transform="translate(-643.694 -386.815)">
    <g id="Group_1448" data-name="Group 1448" transform="translate(689.292 440.452)">
      <g id="Group_1447" data-name="Group 1447" transform="translate(0 0)">
        <path id="Path_2796" data-name="Path 2796" d="M8295.756,5759.9v-17.229h7.353a5.054,5.054,0,0,1,2.27.51,5.811,5.811,0,0,1,1.771,1.335,6.355,6.355,0,0,1,1.165,1.868,5.571,5.571,0,0,1,.424,2.11,6.047,6.047,0,0,1-.4,2.185,6.241,6.241,0,0,1-1.116,1.868,5.268,5.268,0,0,1-1.735,1.311,5.166,5.166,0,0,1-2.256.485h-3.494v5.557Zm3.98-9.027h3.251a1.537,1.537,0,0,0,1.213-.606,2.686,2.686,0,0,0,.51-1.771,3.071,3.071,0,0,0-.158-1.043,2.113,2.113,0,0,0-.424-.728,1.629,1.629,0,0,0-.607-.425,1.848,1.848,0,0,0-.679-.133h-3.105Z" transform="translate(-8295.756 -5742.188)" fill="#2b9d88"/>
        <path id="Path_2797" data-name="Path 2797" d="M8325.591,5752.506a7.455,7.455,0,0,0-2.548.46,3.111,3.111,0,0,0-1.648,1.311v7.644h-3.883v-12.739h3.566v2.572a5.418,5.418,0,0,1,1.687-2.015,3.891,3.891,0,0,1,2.2-.752h.389a1.2,1.2,0,0,1,.241.024Z" transform="translate(-8302.711 -5744.207)" fill="#2b9d88"/>
        <path id="Path_2798" data-name="Path 2798" d="M8336.563,5762.14a7.452,7.452,0,0,1-2.9-.534,6.3,6.3,0,0,1-2.146-1.444,6.062,6.062,0,0,1-1.322-2.111,7.242,7.242,0,0,1,0-5.022,6.066,6.066,0,0,1,1.322-2.112,6.45,6.45,0,0,1,2.146-1.456,7.3,7.3,0,0,1,2.9-.545,7.2,7.2,0,0,1,2.887.545,6.5,6.5,0,0,1,2.137,1.456,6.254,6.254,0,0,1,1.333,2.112,6.917,6.917,0,0,1,.461,2.511,7.078,7.078,0,0,1-.448,2.511,6.09,6.09,0,0,1-1.322,2.111,6.311,6.311,0,0,1-2.148,1.444A7.439,7.439,0,0,1,8336.563,5762.14Zm-2.84-6.6a3.526,3.526,0,0,0,.8,2.415,2.6,2.6,0,0,0,2.038.909,2.568,2.568,0,0,0,1.115-.241,2.68,2.68,0,0,0,.886-.68,3.264,3.264,0,0,0,.595-1.057,4.019,4.019,0,0,0,.22-1.346,3.527,3.527,0,0,0-.8-2.415,2.571,2.571,0,0,0-2.014-.91,2.647,2.647,0,0,0-2.027.922,3.247,3.247,0,0,0-.594,1.056A4.047,4.047,0,0,0,8333.724,5755.54Z" transform="translate(-8306.62 -5744.184)" fill="#2b9d88"/>
        <path id="Path_2799" data-name="Path 2799" d="M8372.746,5761.9h-3.882v-7.157a2.917,2.917,0,0,0-.462-1.832,1.461,1.461,0,0,0-1.189-.571,2,2,0,0,0-.788.17,2.642,2.642,0,0,0-.739.473,3.779,3.779,0,0,0-.619.716,3.872,3.872,0,0,0-.45.9v7.3h-3.881v-7.157a2.917,2.917,0,0,0-.462-1.832,1.46,1.46,0,0,0-1.188-.571,2.347,2.347,0,0,0-1.517.619,3.527,3.527,0,0,0-1.081,1.638v7.3h-3.881v-12.738h3.493v2.135a4.623,4.623,0,0,1,1.905-1.772,6.149,6.149,0,0,1,2.8-.606,4.511,4.511,0,0,1,1.395.194,3.369,3.369,0,0,1,1.031.534,2.792,2.792,0,0,1,.7.789,3.4,3.4,0,0,1,.39.958,5.013,5.013,0,0,1,1.917-1.832,5.618,5.618,0,0,1,2.717-.643,3.743,3.743,0,0,1,1.953.448,3.235,3.235,0,0,1,1.152,1.165,4.52,4.52,0,0,1,.547,1.565,10.758,10.758,0,0,1,.134,1.65Z" transform="translate(-8313.928 -5744.184)" fill="#2b9d88"/>
        <path id="Path_2800" data-name="Path 2800" d="M8391.689,5762.14a7.541,7.541,0,0,1-2.877-.521,6.394,6.394,0,0,1-2.158-1.42,6.068,6.068,0,0,1-1.347-2.075,6.686,6.686,0,0,1-.462-2.463,7.343,7.343,0,0,1,.462-2.608,6.322,6.322,0,0,1,1.335-2.148,6.223,6.223,0,0,1,2.146-1.456,7.443,7.443,0,0,1,2.9-.533,7.351,7.351,0,0,1,2.888.533,6.337,6.337,0,0,1,2.134,1.443,6.108,6.108,0,0,1,1.323,2.1,6.985,6.985,0,0,1,.449,2.5c0,.227-.009.449-.023.667a5.042,5.042,0,0,1-.073.569h-9.415a2.617,2.617,0,0,0,.935,1.954,2.974,2.974,0,0,0,1.9.667,3.492,3.492,0,0,0,1.638-.413,2.114,2.114,0,0,0,1.057-1.117l3.3.922a5.932,5.932,0,0,1-2.329,2.451A7.226,7.226,0,0,1,8391.689,5762.14Zm2.694-7.813a2.931,2.931,0,0,0-.874-1.917,2.634,2.634,0,0,0-1.868-.7,2.6,2.6,0,0,0-1.881.715,2.97,2.97,0,0,0-.862,1.905Z" transform="translate(-8324.232 -5744.184)" fill="#2b9d88"/>
        <path id="Path_2801" data-name="Path 2801" d="M8419.771,5761.9h-3.881v-7.157a2.851,2.851,0,0,0-.475-1.832,1.543,1.543,0,0,0-1.25-.571,2.147,2.147,0,0,0-.824.17,3.392,3.392,0,0,0-.8.473,3.582,3.582,0,0,0-.691.716,3.381,3.381,0,0,0-.473.9v7.3h-3.883v-12.738h3.494v2.135a4.635,4.635,0,0,1,1.99-1.76,6.747,6.747,0,0,1,2.959-.618,3.871,3.871,0,0,1,1.99.448,3.215,3.215,0,0,1,1.164,1.165,4.481,4.481,0,0,1,.547,1.565,10.754,10.754,0,0,1,.133,1.65Z" transform="translate(-8331.473 -5744.184)" fill="#2b9d88"/>
        <path id="Path_2802" data-name="Path 2802" d="M8437,5759.428a15.248,15.248,0,0,1-1.832.63,7.564,7.564,0,0,1-2.074.292,5,5,0,0,1-1.371-.182,3.055,3.055,0,0,1-1.128-.582,2.712,2.712,0,0,1-.764-1.056,3.984,3.984,0,0,1-.28-1.578V5750.3h-1.625v-2.937h1.625v-4.052h3.883v4.052h2.6v2.937h-2.6v5.314a1.039,1.039,0,0,0,1.116,1.189,2.972,2.972,0,0,0,.9-.146,5.473,5.473,0,0,0,.8-.316Z" transform="translate(-8338.006 -5742.394)" fill="#2b9d88"/>
        <path id="Path_2803" data-name="Path 2803" d="M8446.719,5762.14a5.011,5.011,0,0,1-1.759-.3,4.029,4.029,0,0,1-2.317-2.135,3.835,3.835,0,0,1-.339-1.614,3.709,3.709,0,0,1,.4-1.723,3.943,3.943,0,0,1,1.128-1.335,5.579,5.579,0,0,1,1.724-.873,7.265,7.265,0,0,1,2.207-.316,8.894,8.894,0,0,1,1.554.134,5.163,5.163,0,0,1,1.311.4v-.582q0-2.208-2.549-2.208a5.66,5.66,0,0,0-1.988.353,9.512,9.512,0,0,0-1.989,1.055l-1.144-2.426a10.213,10.213,0,0,1,2.622-1.238,9.91,9.91,0,0,1,2.888-.413,6.642,6.642,0,0,1,4.466,1.358,4.972,4.972,0,0,1,1.576,3.98v3.276a1.342,1.342,0,0,0,.183.812.9.9,0,0,0,.643.28v3.274a6.369,6.369,0,0,1-.921.158q-.415.037-.754.037a2.7,2.7,0,0,1-1.649-.425,1.881,1.881,0,0,1-.7-1.2l-.072-.583a5.82,5.82,0,0,1-2.027,1.674A5.525,5.525,0,0,1,8446.719,5762.14Zm1.142-2.79a3.551,3.551,0,0,0,1.225-.219,2.878,2.878,0,0,0,.983-.583,1.209,1.209,0,0,0,.559-.922v-1.213a6.314,6.314,0,0,0-1.1-.3,6.144,6.144,0,0,0-1.1-.109,3,3,0,0,0-1.759.484,1.483,1.483,0,0,0-.692,1.262,1.439,1.439,0,0,0,.533,1.153A2.043,2.043,0,0,0,8447.86,5759.35Z" transform="translate(-8342.6 -5744.184)" fill="#2b9d88"/>
        <path id="Path_2804" data-name="Path 2804" d="M8464.309,5741.961h3.882v13.176q0,1.456,1.238,1.456a2.706,2.706,0,0,0,.643-.086,2.332,2.332,0,0,0,.644-.255l.51,2.912a7.5,7.5,0,0,1-1.675.535,8.877,8.877,0,0,1-1.771.193,3.536,3.536,0,0,1-2.571-.873,3.365,3.365,0,0,1-.9-2.523Z" transform="translate(-8349.633 -5741.961)" fill="#2b9d88"/>
      </g>
    </g>
    <g id="Group_1465" data-name="Group 1465" transform="translate(704.371 391.138)">
      <path id="Path_2816" data-name="Path 2816" d="M8338.885,5681.57a19.433,19.433,0,0,0-12.133-.223,13.238,13.238,0,0,0-8.485,8.326c-.7,2.32-.421,5.254,1.608,6.58a5.351,5.351,0,0,0,5.121.005,23.074,23.074,0,0,0,4.329-3.12,20.994,20.994,0,0,1,7.586-4.073,12.5,12.5,0,0,1,7.646.267c1.312.505,4.138,2.6,4.637.2C8350.052,5685.413,8341.542,5682.43,8338.885,5681.57Z" transform="translate(-8317.919 -5680.478)" fill="#2b9d88"/>
      <circle id="Ellipse_160" data-name="Ellipse 160" cx="2.473" cy="2.473" r="2.473" transform="translate(33.393 8.968)" fill="#2b9d88"/>
    </g>
    <path id="Path_2817" data-name="Path 2817" d="M8262.252,5747.415a14.985,14.985,0,0,1,5.5.281c1.753.586,3.311,2.277,3.022,4.1s-2.164,2.907-3.9,3.539a24.093,24.093,0,0,1-15.32.481,20.889,20.889,0,0,1-11.918-9.488c-1.251-2.222-.416-4.117,2.312-3.907,1.769.135,2.881,1.48,4.378,2.26C8250.963,5747.1,8257.118,5747.662,8262.252,5747.415Z" transform="translate(-7588.346 -5301.651)" fill="#2b9d88"/>
    <text id="المجلة" transform="translate(807.393 433.354)" fill="#2b9d88" font-size="35" font-family="MahmoudArt-Black, MahmoudArt" font-weight="800"><tspan x="-99.19" y="0">المجلة</tspan></text>
    <g id="communications" transform="translate(643.694 386.815)">
      <path id="Path_3312" data-name="Path 3312" d="M52.84,6.117a.9.9,0,0,0-.9.9v39.28L48.156,45.28a34.456,34.456,0,0,0-20.392.9v-3.2a27.944,27.944,0,0,1,17.016-.9l4.236,1.128a.989.989,0,0,0,.233,0,.882.882,0,0,0,.9-.9V28.65a.9.9,0,0,0-1.791,0V41.188l-3.117-.833a29.772,29.772,0,0,0-17.472.743V3.574a27.944,27.944,0,0,1,17.016-.9l3.582.949v21.44a.9.9,0,1,0,1.791,0V2.982a.9.9,0,0,0-.663-.9L45.245.985A29.681,29.681,0,0,0,26.868,2.033,29.808,29.808,0,0,0,8.491.985L4.246,2.123a.9.9,0,0,0-.663.9V13.425a.9.9,0,0,0,1.791,0V3.672l3.582-.949a27.944,27.944,0,0,1,17.016.851V41.1a29.771,29.771,0,0,0-17.482-.708l-3.117.8V17.007a.9.9,0,0,0-1.791,0v25.38a.882.882,0,0,0,.9.9,1.035,1.035,0,0,0,.233,0l4.245-1.155a27.944,27.944,0,0,1,17.016.9v3.144a34.449,34.449,0,0,0-20.392-.9L1.792,46.293V7.012A.9.9,0,0,0,0,7.012V47.457a.9.9,0,0,0,1.128.869l4.917-1.317a32.519,32.519,0,0,1,20.348,1.227l.125.045a.9.9,0,0,0,.663,0l.126-.045A32.518,32.518,0,0,1,47.69,47.009l4.917,1.343a1.034,1.034,0,0,0,.233,0,.9.9,0,0,0,.9-.9V7.012a.9.9,0,0,0-.9-.9Zm0,0" transform="translate(-0.001 0)" fill="#2b9d88"/>
      <path id="Path_3313" data-name="Path 3313" d="M344.954,47.862a.9.9,0,0,0-.618-.851l-1.943-.627a11.045,11.045,0,0,0-5.687-.314.9.9,0,0,0-.708.9v8.06a.9.9,0,0,0,.358.69.959.959,0,0,0,.779.179,9.175,9.175,0,0,1,4.72.251l1.925.627a1.015,1.015,0,0,0,.278.045.948.948,0,0,0,.528-.17.9.9,0,0,0,.367-.725Zm-1.791,6.824-.752-.242a10.829,10.829,0,0,0-3.386-.537,11.441,11.441,0,0,0-1.236.072V47.71a9.248,9.248,0,0,1,4.048.367l1.325.43Zm0,0" transform="translate(-298.384 -40.706)" fill="#2b9d88"/>
      <path id="Path_3314" data-name="Path 3314" d="M93.42,192.672a23.662,23.662,0,0,0-13.022,0,.928.928,0,1,0,.484,1.791,21.889,21.889,0,0,1,12.054,0,.748.748,0,0,0,.242,0,.9.9,0,0,0,.242-1.791Zm0,0" transform="translate(-70.789 -170.292)" fill="#2b9d88"/>
      <path id="Path_3315" data-name="Path 3315" d="M93.42,232.672a23.662,23.662,0,0,0-13.022,0,.928.928,0,1,0,.484,1.791,21.889,21.889,0,0,1,12.054,0,.748.748,0,0,0,.242,0,.9.9,0,0,0,.242-1.791Zm0,0" transform="translate(-70.789 -205.814)" fill="#2b9d88"/>
      <path id="Path_3316" data-name="Path 3316" d="M93.42,272.672a23.661,23.661,0,0,0-13.022,0,.928.928,0,1,0,.484,1.791,21.889,21.889,0,0,1,12.054,0,.748.748,0,0,0,.242,0,.9.9,0,0,0,.242-1.791Zm0,0" transform="translate(-70.789 -241.336)" fill="#2b9d88"/>
      <path id="Path_3317" data-name="Path 3317" d="M263.991,58.4h.215l3.582-.9a.921.921,0,0,0-.43-1.791l-3.582.9a.9.9,0,1,0,.215,1.791Zm0,0" transform="translate(-233.542 -49.455)" fill="#2b9d88"/>
      <path id="Path_3318" data-name="Path 3318" d="M263.753,89.743a.9.9,0,0,0,1.084.654l3.582-.9a.9.9,0,1,0-.4-1.764l-3.582.9a.9.9,0,0,0-.68,1.111Zm0,0" transform="translate(-234.2 -77.895)" fill="#2b9d88"/>
      <path id="Path_3319" data-name="Path 3319" d="M263.753,129.743a.9.9,0,0,0,1.084.654l3.582-.9a.9.9,0,1,0-.4-1.764l-3.582.9a.9.9,0,0,0-.68,1.111Zm0,0" transform="translate(-234.2 -113.417)" fill="#2b9d88"/>
      <path id="Path_3320" data-name="Path 3320" d="M272.366,256.589a.948.948,0,0,0,.528.17,1.017,1.017,0,0,0,.278,0l1.925-.627a9.265,9.265,0,0,1,4.773-.268.895.895,0,0,0,1.084-.9v-8.06a.9.9,0,0,0-.708-.9,11.038,11.038,0,0,0-5.687.3l-1.943.627a.9.9,0,0,0-.618.869v8.06A.9.9,0,0,0,272.366,256.589Zm1.424-8.132,1.325-.43a9.254,9.254,0,0,1,4.048-.367v6.269a10.932,10.932,0,0,0-4.621.466l-.752.242Zm0,0" transform="translate(-241.549 -218.259)" fill="#2b9d88"/>
      <path id="Path_3321" data-name="Path 3321" d="M271.683,169.809a.9.9,0,0,0,1.1.618,21.889,21.889,0,0,1,12.054,0,.748.748,0,0,0,.278.036.9.9,0,0,0,.242-1.791,23.662,23.662,0,0,0-13.022,0,.9.9,0,0,0-.654,1.137Zm0,0" transform="translate(-241.234 -148.979)" fill="#2b9d88"/>
      <path id="Path_3322" data-name="Path 3322" d="M285.178,210.463a.9.9,0,0,0,.242-1.791,23.662,23.662,0,0,0-13.022,0,.928.928,0,0,0,.484,1.791,21.889,21.889,0,0,1,12.054,0,.748.748,0,0,0,.242,0Zm0,0" transform="translate(-241.295 -184.501)" fill="#2b9d88"/>
      <path id="Path_3323" data-name="Path 3323" d="M368.477,257.506l3.582.9a.921.921,0,1,0,.43-1.791l-3.582-.9a.921.921,0,0,0-.43,1.791Zm0,0" transform="translate(-326.601 -227.066)" fill="#2b9d88"/>
      <path id="Path_3324" data-name="Path 3324" d="M93.429,61.15a.9.9,0,0,0,.9-.9V57.568a.9.9,0,0,0-.654-.9,23.662,23.662,0,0,0-13.022,0,.9.9,0,0,0-.654.9V68.315a.893.893,0,0,0,1.137.86,21.889,21.889,0,0,1,12.054,0,.756.756,0,0,0,.242.036.9.9,0,0,0,.9-.9V63.837a.9.9,0,0,0-1.791,0v3.323a23.674,23.674,0,0,0-10.747,0v-8.9a21.83,21.83,0,0,1,10.747,0v2a.9.9,0,0,0,.9.9Zm0,0" transform="translate(-71.04 -49.517)" fill="#2b9d88"/>
    </g>
  </g>
</svg>
