<svg xmlns="http://www.w3.org/2000/svg" width="8.019" height="8.911" viewBox="0 0 8.019 8.911">
  <g id="Group_1116" data-name="Group 1116" transform="translate(-744.441 -115.547)">
    <g id="Group_1115" data-name="Group 1115">
      <g id="Group_1113" data-name="Group 1113">
        <path id="Path_1624" data-name="Path 1624" d="M747.616,124.458a.892.892,0,0,1-.712-.224c-.057-.081-.144-.205-.4-2.588a.29.29,0,0,0-.113-.2.268.268,0,0,0-.212-.054,1.484,1.484,0,0,1-1.071-.133,3.18,3.18,0,0,1-.554-2.8,1.423,1.423,0,0,1,1.618-.921,10.361,10.361,0,0,0,3.659-1.347,1.983,1.983,0,0,1,1.286-.645.691.691,0,0,1,.521.324c.4.616,1.268,5.158.527,5.779-.368.31-1.076.112-1.973-.138-.72-.2-1.705-.476-1.959-.213s.118.868.415,1.355.545.889.389,1.217c-.213.448-.9.551-1.186.574C747.787,124.454,747.7,124.458,747.616,124.458Zm-.265-.569a2.07,2.07,0,0,0,.932-.079c.206-.072.255-.148.265-.17a2.776,2.776,0,0,0-.36-.7c-.4-.647-.888-1.451-.343-2.018.478-.5,1.506-.212,2.5.065.495.138,1.328.37,1.475.246.368-.414-.22-4.433-.632-5.061a.147.147,0,0,0-.118-.08c-.243-.024-.657.293-.873.513l-.064.049a10.4,10.4,0,0,1-3.941,1.433h-.02l-.02,0c-.553-.051-.9.119-1.061.517a2.853,2.853,0,0,0,.333,2.2,1.06,1.06,0,0,0,.673.044.818.818,0,0,1,.632.159.841.841,0,0,1,.324.578C747.224,123.218,747.314,123.731,747.351,123.889Z" fill="#4f95a8"/>
      </g>
      <g id="Group_1114" data-name="Group 1114">
        <path id="Path_1625" data-name="Path 1625" d="M751.075,121.4l-.547,0a24.045,24.045,0,0,0-.791-4.907l.527-.142A24.029,24.029,0,0,1,751.075,121.4Z" fill="#4f95a8"/>
      </g>
    </g>
  </g>
</svg>
