<svg xmlns="http://www.w3.org/2000/svg" width="12.601" height="12.601" viewBox="0 0 12.601 12.601">
  <g id="Group_2441" data-name="Group 2441" transform="translate(-513.32 -169.333)">
    <circle id="Ellipse_81" data-name="Ellipse 81" cx="6.3" cy="6.3" r="6.3" transform="translate(513.32 169.333)" fill="#285e75"/>
    <g id="Group_1696" data-name="Group 1696" transform="translate(517 171.262)" opacity="0.88">
      <path id="Path_1726" data-name="Path 1726" d="M2658.43,173.272c1.379,0,2.369.677,2.369,2.018,0,2.042-2,2.03-2,3.859h-.777c0-2.079,1.867-2,1.867-3.734,0-.864-.639-1.289-1.541-1.289a1.386,1.386,0,0,0-1.568,1.389l-.788-.011A2.21,2.21,0,0,1,2658.43,173.272Zm.565,8.095a.608.608,0,1,1-.6-.639A.611.611,0,0,1,2658.995,181.367Z" transform="translate(-2655.987 -173.272)" fill="#051821"/>
    </g>
  </g>
</svg>
