<svg xmlns="http://www.w3.org/2000/svg" width="253.648" height="127.585" viewBox="0 0 253.648 127.585">
  <g id="Group_2028" data-name="Group 2028" transform="translate(-58.791 -306)">
    <g id="Group_2026" data-name="Group 2026" transform="translate(58.791 306)">
      <path id="Path_3354" data-name="Path 3354" d="M69.328,415.676a21.9,21.9,0,0,1-4.151.563,8.885,8.885,0,0,1-3.353-.469,4.426,4.426,0,0,1-2.235-1.729,5.639,5.639,0,0,1-.8-3.171,22.29,22.29,0,0,1,.558-5.268,23.705,23.705,0,0,1,1.331-4.017A24.548,24.548,0,0,1,62.3,398.5q.851-1.352,1.437-2.509l5.162-1.249q-.957,1.788-1.809,3.705a33.417,33.417,0,0,0-1.411,3.736,16.246,16.246,0,0,0-.691,3.372,5.015,5.015,0,0,0,.372,2.614,2.792,2.792,0,0,0,1.757,1.466,6.787,6.787,0,0,0,3.486-.106l22.778-5.245V388.443l6.386-3.633V408.8Zm2.821-31.124a5.109,5.109,0,0,1,1.2-3.231,5.3,5.3,0,0,1,2.9-1.943,3.025,3.025,0,0,1,2.794.512,3.23,3.23,0,0,1,1.144,2.661,4.932,4.932,0,0,1-1.144,3.123,5.05,5.05,0,0,1-2.794,1.85,3.365,3.365,0,0,1-2.9-.444A2.913,2.913,0,0,1,72.149,384.551Zm10.538-2.625a5.17,5.17,0,0,1,1.2-3.255,5.279,5.279,0,0,1,2.9-1.952,3.01,3.01,0,0,1,2.795.521,3.274,3.274,0,0,1,1.145,2.684,5.369,5.369,0,0,1-3.939,5,3.34,3.34,0,0,1-2.9-.452A2.953,2.953,0,0,1,82.686,381.927Z" transform="translate(-58.791 -319.968)" fill="#2bb788"/>
      <path id="Path_3355" data-name="Path 3355" d="M124,366.334v37.581l-6.759,1.526V370.034Z" transform="translate(-70.357 -317.938)" fill="#2bb788"/>
      <path id="Path_3356" data-name="Path 3356" d="M142.97,377.91a107.784,107.784,0,0,1,1.437,11.924q.372,5.9.373,10.56c0,.263-.019.811-.054,1.642a17.372,17.372,0,0,1-.426,2.933,19.111,19.111,0,0,1-1.25,3.647,14.89,14.89,0,0,1-2.528,3.808,17.466,17.466,0,0,1-4.231,3.355,21.89,21.89,0,0,1-6.413,2.337l-1.224-3.733a15.585,15.585,0,0,0,4.843-2.4,16.221,16.221,0,0,0,1.783-1.62,11.231,11.231,0,0,0,1.57-2.106,11.593,11.593,0,0,0,1.117-2.709,12.475,12.475,0,0,0,.426-3.367q0-5.088-.239-10.374a46.514,46.514,0,0,0-1.571-10.161Z" transform="translate(-72.615 -320.229)" fill="#2bb788"/>
      <path id="Path_3357" data-name="Path 3357" d="M156.388,360.151l6.758-3.746v32.274l5.961-1.372v6.209l-12.719,2.872Z" transform="translate(-78.103 -315.974)" fill="#2bb788"/>
      <path id="Path_3358" data-name="Path 3358" d="M170.253,383.562l8.515-1.961V364.827l6.76-3.709v18.926l6.759-1.556V361.551l6.759-3.729v19.11l6.6-1.519v-17.1l6.759-3.748v19.29l7.558-1.741v6.425l-49.708,11.222ZM186.325,353.5a5.621,5.621,0,0,1,1.2-3.438,5.167,5.167,0,0,1,2.9-2.028,2.9,2.9,0,0,1,2.795.6,3.631,3.631,0,0,1,1.145,2.867,5.426,5.426,0,0,1-1.145,3.322,4.912,4.912,0,0,1-2.795,1.931,3.2,3.2,0,0,1-2.9-.525A3.263,3.263,0,0,1,186.325,353.5Zm5.056-12.235a5.692,5.692,0,0,1,1.2-3.46,5.219,5.219,0,0,1,2.9-2.055,2.885,2.885,0,0,1,2.795.579,3.631,3.631,0,0,1,1.143,2.871,5.612,5.612,0,0,1-1.143,3.37,4.934,4.934,0,0,1-2.795,1.987,3.138,3.138,0,0,1-2.9-.536A3.337,3.337,0,0,1,191.381,341.263Zm5.482,9.61a5.682,5.682,0,0,1,1.2-3.462,5.156,5.156,0,0,1,2.9-2.037,2.89,2.89,0,0,1,2.795.606,3.681,3.681,0,0,1,1.143,2.891,5.485,5.485,0,0,1-1.143,3.345,4.913,4.913,0,0,1-2.795,1.94,3.192,3.192,0,0,1-2.9-.534A3.3,3.3,0,0,1,196.863,350.873Z" transform="translate(-80.846 -311.861)" fill="#2bb788"/>
      <path id="Path_3359" data-name="Path 3359" d="M230.231,372.613l10.006-2.3V352.936L247,349.154v19.6l8.568-1.973v6.532l-25.333,5.719Zm4.1-27.988a5.829,5.829,0,0,1,1.2-3.519,5.125,5.125,0,0,1,2.9-2.061,2.861,2.861,0,0,1,2.795.63,3.8,3.8,0,0,1,1.143,2.949,5.626,5.626,0,0,1-1.143,3.4,4.884,4.884,0,0,1-2.795,1.964,3.156,3.156,0,0,1-2.9-.557A3.408,3.408,0,0,1,234.329,344.625ZM244.867,342a5.885,5.885,0,0,1,1.2-3.542,5.114,5.114,0,0,1,2.9-2.072,2.847,2.847,0,0,1,2.794.64A3.848,3.848,0,0,1,252.9,340a5.685,5.685,0,0,1-1.145,3.423,4.865,4.865,0,0,1-2.794,1.972,3.138,3.138,0,0,1-2.9-.565A3.449,3.449,0,0,1,244.867,342Z" transform="translate(-92.714 -311.989)" fill="#2bb788"/>
      <path id="Path_3360" data-name="Path 3360" d="M259.823,367.343l8.728-2.01V347.87l6.387-4.087v20.079l7.025-1.617V344.622l6.387-4.11v20.262l6.971-1.605V341.387l6.387-4.133v27.157l-41.884,9.456Z" transform="translate(-98.569 -312.184)" fill="#2bb788"/>
      <path id="Path_3361" data-name="Path 3361" d="M319.5,316.136a34.285,34.285,0,0,0,3.166,2.266q1.836,1.184,3.779,2.592t3.886,3.083a26.031,26.031,0,0,1,3.539,3.718,10.333,10.333,0,0,0,.373-3.776v-9.931l6.545-4.159V322.6A18.927,18.927,0,0,1,337.6,332.71q4.417,6.971,4.417,13.256v6.466l-24.162,5.455v-8.341q1.968-1.94,3.805-4.008t3.432-4.029q1.6-1.961,2.9-3.732t2.208-3.047a22.729,22.729,0,0,0-3.3-3.686,37.694,37.694,0,0,0-3.672-2.893q-1.864-1.278-3.646-2.324t-3.167-2Zm17.137,30.691q-.16-.713-.453-1.678t-.718-2.022q-.427-1.055-.958-2.151a14.846,14.846,0,0,0-1.17-2q-1.119,1.575-2.13,2.9t-2.1,2.609q-1.091,1.28-2.341,2.534t-2.794,2.726Z" transform="translate(-109.767 -306.777)" fill="#2bb788"/>
      <path id="Path_3362" data-name="Path 3362" d="M361.857,306v42.9l-6.759,1.526V309.983Z" transform="translate(-117.421 -306)" fill="#2bb788"/>
    </g>
    <g id="Group_2027" data-name="Group 2027" transform="translate(135.963 355.062)">
      <path id="Path_3363" data-name="Path 3363" d="M155,443.055a10.619,10.619,0,0,1,1.3-4.89,16.768,16.768,0,0,1,4.071-4.9,35.78,35.78,0,0,1,7.105-4.6,57.781,57.781,0,0,1,10.351-3.937v17.946l7.664-1.51v6.284l-11.921,2.3a2.626,2.626,0,0,1-.984-.839,6.625,6.625,0,0,1-.665-1.127,7.855,7.855,0,0,1-.427-1.344,4.992,4.992,0,0,1-1.064,2.09,8.576,8.576,0,0,1-2,1.64,10.357,10.357,0,0,1-3.539,1.251q-5.429,1.046-7.664-1.264T155,443.055Zm4.417-22.666a5.322,5.322,0,0,1,1.2-3.345,4.979,4.979,0,0,1,2.9-1.91,2.991,2.991,0,0,1,2.795.668,3.644,3.644,0,0,1,1.144,2.852,5.142,5.142,0,0,1-1.144,3.233,4.744,4.744,0,0,1-2.795,1.817,3.237,3.237,0,0,1-4.1-3.314Zm2.022,20.358v1.813a2.7,2.7,0,0,0,.9,2.314,3.739,3.739,0,0,0,2.928.274l6.12-1.206V432.585a33.9,33.9,0,0,0-4.072,1.974,22.623,22.623,0,0,0-3.113,2.113,10.442,10.442,0,0,0-2,2.106A3.975,3.975,0,0,0,161.439,440.748Zm8.516-22.633a5.379,5.379,0,0,1,1.2-3.368,4.964,4.964,0,0,1,2.9-1.919,2.975,2.975,0,0,1,2.794.678,3.689,3.689,0,0,1,1.145,2.875,5.193,5.193,0,0,1-1.145,3.255,4.722,4.722,0,0,1-2.794,1.826,3.288,3.288,0,0,1-2.9-.61A3.322,3.322,0,0,1,169.956,418.115Z" transform="translate(-155 -376.182)" fill="#2bb788"/>
      <path id="Path_3364" data-name="Path 3364" d="M212.688,445.123a6.06,6.06,0,0,1-2.927-.049,3.885,3.885,0,0,1-2.129-1.949A6.778,6.778,0,0,1,205.5,445.9a7.616,7.616,0,0,1-2.927,1.175l-11.549,2.224v-6.277l9.792-1.929-7.185-8.507a25.521,25.521,0,0,1,6.253-8,18.092,18.092,0,0,1,7.744-3.715,13.445,13.445,0,0,1,7.744.451,14.06,14.06,0,0,1,6.306,5.479l-7.185,11.6,10.271-2.024V442.8Zm2.129-16.807a4.323,4.323,0,0,0-1.437-1.024,9.129,9.129,0,0,0-1.837-.588,9.538,9.538,0,0,0-2.022-.2,9.889,9.889,0,0,0-1.889.185,10.135,10.135,0,0,0-1.943.634,17.929,17.929,0,0,0-2.022,1.027,10.935,10.935,0,0,0-1.81,1.33,7,7,0,0,0-1.3,1.542l7.079,8.519Z" transform="translate(-162.129 -377.72)" fill="#2bb788"/>
      <path id="Path_3365" data-name="Path 3365" d="M231.1,434.917l12.029-2.37v-17.4l6.758-3.562.054,26.13-18.84,3.627Zm.8,15.875a5.5,5.5,0,0,1,1.2-3.438,4.72,4.72,0,0,1,2.9-1.875,2.984,2.984,0,0,1,2.794.8,4.022,4.022,0,0,1,1.144,3.015,5.308,5.308,0,0,1-1.144,3.322A4.493,4.493,0,0,1,236,454.405a3.284,3.284,0,0,1-2.9-.739A3.622,3.622,0,0,1,231.9,450.792Zm10.538-1.958a5.55,5.55,0,0,1,1.2-3.461,4.71,4.71,0,0,1,2.9-1.886,2.974,2.974,0,0,1,2.793.815,4.071,4.071,0,0,1,1.144,3.038,5.365,5.365,0,0,1-1.144,3.344,4.475,4.475,0,0,1-2.793,1.794,3.269,3.269,0,0,1-2.9-.748A3.667,3.667,0,0,1,242.437,448.834Z" transform="translate(-170.058 -375.954)" fill="#2bb788"/>
      <path id="Path_3366" data-name="Path 3366" d="M270.562,407.536q.851,5.071,1.251,10.061t.505,9.38l5.855-1.153v6.61l-5.855,1.127a24.517,24.517,0,0,1-.292,2.532,16.085,16.085,0,0,1-.853,3.119,20.891,20.891,0,0,1-1.623,3.321,14.578,14.578,0,0,1-2.634,3.2,16.637,16.637,0,0,1-3.938,2.649,20.96,20.96,0,0,1-5.509,1.729l-1.224-4.078a14.3,14.3,0,0,0,4.843-2.34,15.628,15.628,0,0,0,1.783-1.653,11.252,11.252,0,0,0,1.57-2.187A12.362,12.362,0,0,0,265.56,437a14.113,14.113,0,0,0,.426-3.6q0-5.472-.239-11.168a54.689,54.689,0,0,0-1.571-11.006Z" transform="translate(-175.034 -375.153)" fill="#2bb788"/>
      <path id="Path_3367" data-name="Path 3367" d="M281.591,423.622l8.515-1.677V404.093l6.76-3.617v20.136l6.759-1.332V401.267l6.759-3.637v20.319l6.6-1.3V398.474l6.759-3.656v20.5l7.558-1.489v6.825l-49.708,9.57Z" transform="translate(-180.049 -372.637)" fill="#2bb788"/>
      <path id="Path_3368" data-name="Path 3368" d="M341.569,409.377l7.079-1.394v-33.5l6.758-3.752v42.8L341.569,416.2Z" transform="translate(-191.916 -367.871)" fill="#2bb788"/>
      <path id="Path_3369" data-name="Path 3369" d="M373.342,367.165v43.16l-6.76,1.3v-40.69Z" transform="translate(-196.866 -367.165)" fill="#2bb788"/>
    </g>
  </g>
</svg>
