<?xml version="1.0" encoding="utf-8"?>
<!-- Generator: Adobe Illustrator 21.0.0, SVG Export Plug-In . SVG Version: 6.00 Build 0)  -->
<svg version="1.1" id="Layer_1" xmlns="http://www.w3.org/2000/svg" xmlns:xlink="http://www.w3.org/1999/xlink" x="0px" y="0px"
	 viewBox="0 0 867.7 614.1" style="enable-background:new 0 0 867.7 614.1;" xml:space="preserve">
<style type="text/css">
	.st0{clip-path:url(#SVGID_2_);}
	.st1{fill:#FFFFFF;}
	.st2{opacity:0.6;fill:#D1E3F1;enable-background:new    ;}
	.st3{opacity:0.5;fill:#FFFFFF;enable-background:new    ;}
</style>
<g>
	<defs>
		<rect id="SVGID_1_" x="0" y="0" width="867.7" height="614.1"/>
	</defs>
	<clipPath id="SVGID_2_">
		<use xlink:href="#SVGID_1_"  style="overflow:visible;"/>
	</clipPath>
	<g id="Repeat_Grid_1" class="st0">
		<g id="Group_1741" transform="translate(-6218.916 -6504.431)">
			<path id="Path_3126" class="st1" d="M6309.3,6669.7c1.4-0.1,2.9-0.2,4.3-0.2c64.9-2.3,115.2-9.3,155.9-19.3
				c177.9-43.5,170.6-142.5,387.8-145.8c3.3-0.1,6.6-0.1,9.9,0c78.8,0.9,133.9,29.1,169.2,75.9c30.3,40.2,46,94.2,49.5,156.3
				c1.5,29.4,0.7,58.9-2.4,88.2l-0.1,1.2c-1.7,16.8-4.8,33.5-9.2,49.9c-13.2,49.1-37.6,94.4-71.4,132.4c-2.5,2.9-5.1,5.7-7.7,8.4
				c-60.9,63.9-145.4,100.1-233.7,100.1h-217.9c-110.9,0.1-214.1-56.7-273.3-150.5c-21.4-33.9-36.2-71.5-43.7-110.8c0,0,0,0,0-0.1
				C6208.4,6761,6218.2,6675.6,6309.3,6669.7z"/>
			<g id="Group_1740">
				<path id="Path_3127" class="st2" d="M6309.3,6671.4c1.4-0.1,2.9-0.2,4.3-0.2c64.9-2.3,115.2-9.3,155.9-19.3
					c177.9-43.5,170.6-142.5,387.8-145.8c3.3-0.1,6.6-0.1,9.9,0c78.8,0.9,133.9,29.1,169.2,75.9c30.3,40.2,46,94.2,49.5,156.3
					c1.5,29.4,0.7,58.9-2.4,88.2l-0.1,1.2c-1.7,16.8-4.8,33.5-9.2,49.9c-13.2,49.1-37.6,94.4-71.4,132.4c-2.5,2.9-5.1,5.7-7.7,8.4
					c-60.9,63.9-145.4,100.1-233.7,100.1h-217.9c-110.9,0.1-214.1-56.7-273.3-150.5c-21.4-33.9-36.2-71.5-43.7-110.8c0,0,0,0,0-0.1
					C6208.4,6762.6,6218.2,6677.2,6309.3,6671.4z"/>
				<path id="Path_3128" class="st3" d="M6313.6,6671.2c64.9-2.3,115.2-9.3,155.9-19.3c126,6.4,293.7-30.1,422.9-63.4
					c59.6-15.4,106.8-15,144-6.4c30.3,40.2,46,94.2,49.5,156.3c-106.1-68.8-327.3-32-503.1-13c-115.8,12.5-211.9-21.9-273.5-54
					C6310.7,6671.3,6312.1,6671.2,6313.6,6671.2z"/>
				<path id="Path_3129" class="st3" d="M6716.9,6842.8c171.3-39.1,304.1,9.7,357.2,34.9c-13.2,49.1-37.6,94.4-71.4,132.4
					c-2.5,2.9-5.1,5.7-7.7,8.4c-151.8-89-357.3-89.7-544.6-48.8c-76.7,16.7-135.9,11.8-180.4-1.6c-21.4-33.9-36.2-71.5-43.7-110.8
					C6329.3,6916.7,6536.3,6884,6716.9,6842.8z"/>
			</g>
		</g>
	</g>
</g>
</svg>
