<svg xmlns="http://www.w3.org/2000/svg" xmlns:xlink="http://www.w3.org/1999/xlink" width="88.53" height="32.905" viewBox="0 0 88.53 32.905">
  <defs>
    <linearGradient id="linear-gradient" x1="-7.96" y1="6.618" x2="1.048" y2="-0.17" gradientUnits="objectBoundingBox">
      <stop offset="0" stop-color="#2b3988"/>
      <stop offset="1" stop-color="#2bb788"/>
    </linearGradient>
    <linearGradient id="linear-gradient-2" x1="-13.573" y1="9.138" x2="0.9" y2="0.096" xlink:href="#linear-gradient"/>
    <linearGradient id="linear-gradient-3" x1="-8.168" y1="9.439" x2="0.407" y2="0.597" xlink:href="#linear-gradient"/>
    <linearGradient id="linear-gradient-4" x1="-5.836" y1="10.34" x2="-0.03" y2="1.332" xlink:href="#linear-gradient"/>
    <linearGradient id="linear-gradient-5" x1="-9.541" y1="10.858" x2="-0.966" y2="2.016" xlink:href="#linear-gradient"/>
    <linearGradient id="linear-gradient-6" x1="-11.254" y1="11.626" x2="-1.73" y2="2.619" xlink:href="#linear-gradient"/>
    <linearGradient id="linear-gradient-7" x1="-16.165" y1="9.399" x2="-3.28" y2="2.535" xlink:href="#linear-gradient"/>
    <linearGradient id="linear-gradient-8" x1="-11.458" y1="12.361" x2="-2.485" y2="3.519" xlink:href="#linear-gradient"/>
    <linearGradient id="linear-gradient-9" x1="-23.168" y1="9.608" x2="-6.259" y2="3.086" xlink:href="#linear-gradient"/>
    <linearGradient id="linear-gradient-10" x1="-2.842" y1="8.212" x2="0.405" y2="0.72" xlink:href="#linear-gradient"/>
    <linearGradient id="linear-gradient-11" x1="-10.026" y1="105.759" x2="-0.286" y2="8.362" xlink:href="#linear-gradient"/>
    <linearGradient id="linear-gradient-12" x1="-9.951" y1="105.009" x2="-0.211" y2="7.612" xlink:href="#linear-gradient"/>
    <linearGradient id="linear-gradient-13" x1="-9.701" y1="102.509" x2="0.039" y2="5.112" xlink:href="#linear-gradient"/>
    <linearGradient id="linear-gradient-14" x1="-5.158" y1="3.823" x2="0.897" y2="0.345" xlink:href="#linear-gradient"/>
    <linearGradient id="linear-gradient-15" x1="-14.975" y1="8.998" x2="1.258" y2="0.163" xlink:href="#linear-gradient"/>
    <linearGradient id="linear-gradient-16" x1="-15.641" y1="9.361" x2="0.592" y2="0.526" xlink:href="#linear-gradient"/>
    <linearGradient id="linear-gradient-17" x1="-3.998" y1="9.096" x2="-0.266" y2="1.979" xlink:href="#linear-gradient"/>
    <linearGradient id="linear-gradient-18" x1="-29.737" y1="30.74" x2="-6.098" y2="7.099" xlink:href="#linear-gradient"/>
    <linearGradient id="linear-gradient-19" x1="-2.48" y1="6.945" x2="1.205" y2="-1.155" xlink:href="#linear-gradient"/>
    <linearGradient id="linear-gradient-20" x1="0.5" y1="2.788" x2="0.5" y2="1.66" xlink:href="#linear-gradient"/>
    <linearGradient id="linear-gradient-21" x1="0.5" y1="3.278" x2="0.5" y2="1.84" xlink:href="#linear-gradient"/>
    <linearGradient id="linear-gradient-22" x1="0.5" y1="2.739" x2="0.5" y2="1.648" xlink:href="#linear-gradient"/>
    <linearGradient id="linear-gradient-25" x1="0.5" y1="2.739" x2="0.5" y2="1.648" xlink:href="#linear-gradient"/>
    <linearGradient id="linear-gradient-26" x1="0.5" y1="3.258" x2="0.5" y2="1.831" xlink:href="#linear-gradient"/>
  </defs>
  <g id="Group_514" data-name="Group 514" transform="translate(-5234.93 -16.087)">
    <g id="Group_496" data-name="Group 496">
      <g id="Group_495" data-name="Group 495">
        <path id="Path_698" data-name="Path 698" d="M5256.156,48.858V39.376h4.046a2.8,2.8,0,0,1,1.249.28,3.2,3.2,0,0,1,.975.735,3.531,3.531,0,0,1,.641,1.028,3.069,3.069,0,0,1,.234,1.162,3.324,3.324,0,0,1-.221,1.2,3.447,3.447,0,0,1-.614,1.029,2.909,2.909,0,0,1-.955.721,2.854,2.854,0,0,1-1.242.267h-1.923v3.058Zm2.19-4.968h1.789a.846.846,0,0,0,.668-.334,1.478,1.478,0,0,0,.281-.975,1.688,1.688,0,0,0-.087-.574,1.19,1.19,0,0,0-.234-.4.89.89,0,0,0-.334-.233,1.017,1.017,0,0,0-.374-.074h-1.709Z" fill="url(#linear-gradient)"/>
        <path id="Path_699" data-name="Path 699" d="M5268.749,43.676a4.1,4.1,0,0,0-1.4.254,1.709,1.709,0,0,0-.908.721v4.207H5264.3V41.847h1.963v1.415a2.98,2.98,0,0,1,.928-1.108,2.145,2.145,0,0,1,1.209-.414h.214a.664.664,0,0,1,.133.013Z" fill="url(#linear-gradient-2)"/>
        <path id="Path_700" data-name="Path 700" d="M5272.636,48.992a4.11,4.11,0,0,1-1.6-.294,3.468,3.468,0,0,1-1.182-.8,3.355,3.355,0,0,1-.728-1.162,3.989,3.989,0,0,1,0-2.764,3.355,3.355,0,0,1,.728-1.162,3.539,3.539,0,0,1,1.182-.8,4,4,0,0,1,1.6-.3,3.957,3.957,0,0,1,1.589.3,3.557,3.557,0,0,1,1.175.8,3.438,3.438,0,0,1,.735,1.162,3.817,3.817,0,0,1,.253,1.382,3.9,3.9,0,0,1-.247,1.382,3.355,3.355,0,0,1-.728,1.162,3.473,3.473,0,0,1-1.181.8A4.116,4.116,0,0,1,5272.636,48.992Zm-1.563-3.633a1.939,1.939,0,0,0,.441,1.329,1.429,1.429,0,0,0,1.122.5,1.412,1.412,0,0,0,.614-.134,1.471,1.471,0,0,0,.487-.374,1.79,1.79,0,0,0,.328-.581,2.213,2.213,0,0,0,.12-.741,1.939,1.939,0,0,0-.441-1.329,1.413,1.413,0,0,0-1.108-.5,1.453,1.453,0,0,0-1.115.508,1.773,1.773,0,0,0-.328.581A2.213,2.213,0,0,0,5271.073,45.359Z" fill="url(#linear-gradient-3)"/>
        <path id="Path_701" data-name="Path 701" d="M5288.528,48.858h-2.137v-3.94a1.6,1.6,0,0,0-.254-1.008.8.8,0,0,0-.654-.314,1.093,1.093,0,0,0-.434.094,1.458,1.458,0,0,0-.407.26,2.119,2.119,0,0,0-.341.394,2.171,2.171,0,0,0-.247.494v4.02h-2.137v-3.94a1.6,1.6,0,0,0-.254-1.008.8.8,0,0,0-.654-.314,1.3,1.3,0,0,0-.835.341,1.95,1.95,0,0,0-.594.9v4.02h-2.137V41.847h1.923v1.175a2.545,2.545,0,0,1,1.049-.975,3.384,3.384,0,0,1,1.542-.334,2.487,2.487,0,0,1,.768.107,1.843,1.843,0,0,1,.568.294,1.56,1.56,0,0,1,.387.434,1.9,1.9,0,0,1,.214.527,2.758,2.758,0,0,1,1.055-1.008,3.091,3.091,0,0,1,1.5-.354,2.064,2.064,0,0,1,1.075.247,1.8,1.8,0,0,1,.634.641,2.49,2.49,0,0,1,.3.862,5.857,5.857,0,0,1,.074.908Z" fill="url(#linear-gradient-4)"/>
        <path id="Path_702" data-name="Path 702" d="M5293.282,48.992a4.128,4.128,0,0,1-1.582-.288,3.494,3.494,0,0,1-1.189-.781,3.337,3.337,0,0,1-.741-1.142,3.682,3.682,0,0,1-.254-1.355,4.049,4.049,0,0,1,.254-1.436,3.5,3.5,0,0,1,.734-1.182,3.448,3.448,0,0,1,1.182-.8,4.1,4.1,0,0,1,1.6-.294,4.042,4.042,0,0,1,1.589.294,3.5,3.5,0,0,1,1.176.795,3.353,3.353,0,0,1,.727,1.155,3.854,3.854,0,0,1,.248,1.375c0,.125,0,.247-.014.368a2.492,2.492,0,0,1-.04.313h-5.182a1.438,1.438,0,0,0,.515,1.075,1.63,1.63,0,0,0,1.048.368,1.921,1.921,0,0,0,.9-.227,1.158,1.158,0,0,0,.581-.615l1.817.508a3.278,3.278,0,0,1-1.282,1.349A3.983,3.983,0,0,1,5293.282,48.992Zm1.483-4.3a1.61,1.61,0,0,0-.481-1.055,1.449,1.449,0,0,0-1.028-.387,1.428,1.428,0,0,0-1.036.394,1.64,1.64,0,0,0-.474,1.048Z" fill="url(#linear-gradient-5)"/>
        <path id="Path_703" data-name="Path 703" d="M5304.754,48.858h-2.137v-3.94a1.577,1.577,0,0,0-.26-1.008.851.851,0,0,0-.688-.314,1.175,1.175,0,0,0-.454.094,1.879,1.879,0,0,0-.441.26,2.024,2.024,0,0,0-.38.394,1.863,1.863,0,0,0-.261.494v4.02H5298V41.847h1.924v1.175a2.547,2.547,0,0,1,1.1-.968,3.71,3.71,0,0,1,1.629-.341,2.128,2.128,0,0,1,1.095.247,1.77,1.77,0,0,1,.641.641,2.5,2.5,0,0,1,.3.862,5.975,5.975,0,0,1,.073.908Z" fill="url(#linear-gradient-6)"/>
        <path id="Path_704" data-name="Path 704" d="M5310.644,48.484a8.46,8.46,0,0,1-1.009.347,4.173,4.173,0,0,1-1.141.161,2.753,2.753,0,0,1-.755-.1,1.666,1.666,0,0,1-.621-.32,1.507,1.507,0,0,1-.421-.581,2.225,2.225,0,0,1-.153-.868V43.463h-.9V41.847h.9V39.616h2.136v2.231h1.43v1.616h-1.43v2.924a.573.573,0,0,0,.615.655,1.649,1.649,0,0,0,.494-.08,3.17,3.17,0,0,0,.441-.174Z" fill="url(#linear-gradient-7)"/>
        <path id="Path_705" data-name="Path 705" d="M5313.462,48.992a2.752,2.752,0,0,1-.969-.167,2.218,2.218,0,0,1-1.275-1.176,2.094,2.094,0,0,1-.187-.888,2.037,2.037,0,0,1,.22-.948,2.176,2.176,0,0,1,.621-.734,3.073,3.073,0,0,1,.949-.481,3.991,3.991,0,0,1,1.215-.174,4.882,4.882,0,0,1,.855.074,2.813,2.813,0,0,1,.721.22V44.4q0-1.216-1.4-1.216a3.129,3.129,0,0,0-1.1.194,5.28,5.28,0,0,0-1.095.581l-.627-1.336a5.623,5.623,0,0,1,1.442-.681,5.449,5.449,0,0,1,1.589-.227,3.647,3.647,0,0,1,2.457.748,2.733,2.733,0,0,1,.869,2.19v1.8a.74.74,0,0,0,.1.447.494.494,0,0,0,.354.154v1.8a3.6,3.6,0,0,1-.508.087c-.151.013-.289.02-.414.02a1.482,1.482,0,0,1-.908-.234,1.03,1.03,0,0,1-.387-.661l-.04-.32a3.213,3.213,0,0,1-1.116.921A3.043,3.043,0,0,1,5313.462,48.992Zm.627-1.536a1.951,1.951,0,0,0,.675-.12,1.589,1.589,0,0,0,.541-.321.665.665,0,0,0,.307-.507V45.84a3.476,3.476,0,0,0-.608-.167,3.382,3.382,0,0,0-.608-.06,1.645,1.645,0,0,0-.968.267.812.812,0,0,0-.38.694.791.791,0,0,0,.293.635A1.124,1.124,0,0,0,5314.089,47.456Z" fill="url(#linear-gradient-8)"/>
        <path id="Path_706" data-name="Path 706" d="M5319.271,39.109h2.137v7.252q0,.8.681.8a1.476,1.476,0,0,0,.354-.047,1.315,1.315,0,0,0,.354-.14l.28,1.6a4.172,4.172,0,0,1-.921.293,4.818,4.818,0,0,1-.975.107,1.945,1.945,0,0,1-1.416-.481,1.85,1.85,0,0,1-.494-1.389Z" fill="url(#linear-gradient-9)"/>
      </g>
    </g>
    <g id="Group_511" data-name="Group 511">
      <g id="Group_498" data-name="Group 498">
        <g id="Group_497" data-name="Group 497">
          <path id="Path_707" data-name="Path 707" d="M5259.854,16.313H5240.69a.33.33,0,0,0-.33.33h0v6.608h.661V16.974h18.5v7.269h-11.564V24.9h11.9a.331.331,0,0,0,.33-.331h0V16.644A.331.331,0,0,0,5259.854,16.313Z" fill="url(#linear-gradient-10)"/>
        </g>
      </g>
      <g id="Group_500" data-name="Group 500">
        <g id="Group_499" data-name="Group 499">
          <rect id="Rectangle_160" data-name="Rectangle 160" width="6.608" height="0.661" transform="translate(5251.263 17.965)" fill="url(#linear-gradient-11)"/>
        </g>
      </g>
      <g id="Group_502" data-name="Group 502">
        <g id="Group_501" data-name="Group 501">
          <rect id="Rectangle_161" data-name="Rectangle 161" width="6.608" height="0.661" transform="translate(5252.254 19.948)" fill="url(#linear-gradient-12)"/>
        </g>
      </g>
      <g id="Group_504" data-name="Group 504">
        <g id="Group_503" data-name="Group 503">
          <rect id="Rectangle_162" data-name="Rectangle 162" width="6.608" height="0.661" transform="translate(5250.933 21.93)" fill="url(#linear-gradient-13)"/>
        </g>
      </g>
      <g id="Group_506" data-name="Group 506">
        <g id="Group_505" data-name="Group 505">
          <path id="Path_708" data-name="Path 708" d="M5250.906,19.162a1.065,1.065,0,0,0-1.394-.575l-.027.012-2.679,1.39a1.652,1.652,0,1,0-2.8.289h-.014a2.266,2.266,0,0,0-2.106,1.467l-.882,3.04a1.058,1.058,0,1,0,1.987.728l.345-1.1v4.782a1.647,1.647,0,0,0-2.144,2.493,1.522,1.522,0,0,0-.829,1.35v2.769a.331.331,0,0,0,.33.331h3.3a.331.331,0,0,0,.331-.331h0V33.038a1.522,1.522,0,0,0-.59-1.2h2.5a1.52,1.52,0,0,0-.59,1.2v2.769a.331.331,0,0,0,.331.331h3.3a.331.331,0,0,0,.33-.331h0V33.038a1.522,1.522,0,0,0-.829-1.35,1.651,1.651,0,0,0-1.484-2.8V22.131l3.033-1.575A1.065,1.065,0,0,0,5250.906,19.162Zm-5.59-.866a.991.991,0,1,1-.991.991A.991.991,0,0,1,5245.316,18.3Zm-2.974,11.221a.992.992,0,1,1-.991.991A.991.991,0,0,1,5242.342,29.517Zm1.322,5.96h-2.643V33.038a.865.865,0,0,1,.865-.865h.912a.866.866,0,0,1,.866.865Zm5.286-2.439v2.439h-2.643V33.038a.866.866,0,0,1,.866-.865h.911A.866.866,0,0,1,5248.95,33.038Zm-1.321-3.521a.991.991,0,1,1-.992.991A.993.993,0,0,1,5247.629,29.517Zm2.673-9.8a.422.422,0,0,1-.25.245l-3.236,1.679a.33.33,0,0,0-.179.293v7.265a1.631,1.631,0,0,0-.514,1.986h-.477V25.565h-.661v5.616h-1.137a1.634,1.634,0,0,0,.145-.66h0V22.26a.33.33,0,0,0-.645-.1l-.987,3.14a.4.4,0,0,1-.509.238.379.379,0,0,1-.042-.018.406.406,0,0,1-.185-.525l.882-3.04a1.6,1.6,0,0,1,1.481-1.017h2.339a.338.338,0,0,0,.153-.037l3.283-1.7a.407.407,0,0,1,.52.193A.4.4,0,0,1,5250.3,19.713Z" fill="url(#linear-gradient-14)"/>
        </g>
      </g>
      <g id="Group_508" data-name="Group 508">
        <g id="Group_507" data-name="Group 507">
          <path id="Path_709" data-name="Path 709" d="M5254.068,31.688a1.652,1.652,0,1,0-2.336-.03l.03.03a1.521,1.521,0,0,0-.829,1.35v2.769a.331.331,0,0,0,.33.331h3.3a.331.331,0,0,0,.331-.331h0V33.038A1.522,1.522,0,0,0,5254.068,31.688Zm-1.153-2.171a.991.991,0,1,1-.991.991A.991.991,0,0,1,5252.915,29.517Zm1.322,5.96h-2.643V33.038a.864.864,0,0,1,.865-.865h.912a.866.866,0,0,1,.866.865Z" fill="url(#linear-gradient-15)"/>
        </g>
      </g>
      <g id="Group_510" data-name="Group 510">
        <g id="Group_509" data-name="Group 509">
          <path id="Path_710" data-name="Path 710" d="M5259.354,31.688a1.652,1.652,0,1,0-2.336-.03l.031.03a1.521,1.521,0,0,0-.83,1.35v2.769a.331.331,0,0,0,.33.331h3.305a.331.331,0,0,0,.33-.331h0V33.038A1.521,1.521,0,0,0,5259.354,31.688Zm-1.152-2.171a.992.992,0,1,1-.992.991A.991.991,0,0,1,5258.2,29.517Zm1.321,5.96h-2.643V33.038a.866.866,0,0,1,.866-.865h.911a.866.866,0,0,1,.866.865Z" fill="url(#linear-gradient-16)"/>
        </g>
      </g>
    </g>
    <g id="Group_512" data-name="Group 512">
      <path id="Path_711" data-name="Path 711" d="M5275.993,16.688a10.7,10.7,0,0,0-6.677-.123,7.285,7.285,0,0,0-4.67,4.583c-.387,1.276-.232,2.891.885,3.621a2.945,2.945,0,0,0,2.818,0,12.7,12.7,0,0,0,2.383-1.717,11.541,11.541,0,0,1,4.176-2.241,6.865,6.865,0,0,1,4.207.146c.722.278,2.278,1.43,2.552.112C5282.139,18.8,5277.456,17.161,5275.993,16.688Z" fill="url(#linear-gradient-17)"/>
      <circle id="Ellipse_36" data-name="Ellipse 36" cx="1.361" cy="1.361" r="1.361" transform="translate(5282.833 21.022)" fill="url(#linear-gradient-18)"/>
    </g>
    <path id="Path_712" data-name="Path 712" d="M5247.687,42.032a8.258,8.258,0,0,1,3.028.155,2.247,2.247,0,0,1,1.664,2.258c-.158,1-1.192,1.6-2.145,1.947a13.27,13.27,0,0,1-8.432.266,11.508,11.508,0,0,1-6.56-5.223c-.688-1.223-.228-2.265,1.273-2.15.973.075,1.585.815,2.409,1.244A17.973,17.973,0,0,0,5247.687,42.032Z" fill="url(#linear-gradient-19)"/>
    <g id="Group_513" data-name="Group 513">
      <path id="Path_713" data-name="Path 713" d="M5270.179,29.307c-.37,0-.612.113-.612.412,0,1.25,5.158.469,5.158,4.077,0,2.216-1.947,3.2-4.192,3.2a8.616,8.616,0,0,1-4.986-1.591l1.222-2.472a7.267,7.267,0,0,0,3.793,1.549c.483,0,.795-.157.795-.512,0-1.292-5.156-.441-5.156-3.935,0-1.989,1.676-3.239,4.262-3.239a8.481,8.481,0,0,1,4.332,1.18l-1.193,2.5A9.138,9.138,0,0,0,5270.179,29.307Z" fill="url(#linear-gradient-20)"/>
      <path id="Path_714" data-name="Path 714" d="M5279.323,31.594c-.625,0-1.023.568-1.023,1.434s.4,1.45,1.023,1.45c.454,0,.781-.256.951-.838l2.586,1.193a4.143,4.143,0,0,1-7.785-1.79,4.118,4.118,0,0,1,7.785-1.79l-2.543,1.079A1.064,1.064,0,0,0,5279.323,31.594Z" fill="url(#linear-gradient-21)"/>
      <path id="Path_715" data-name="Path 715" d="M5292.021,31.935v4.958h-3.2V32.858a.939.939,0,0,0-.924-1.065c-.625,0-1.022.5-1.022,1.25v3.85h-3.2V26.352h3.2V30.23a2.809,2.809,0,0,1,5.143,1.7Z" fill="url(#linear-gradient-22)"/>
      <path id="Path_716" data-name="Path 716" d="M5301.577,33c0,2.43-1.719,4.006-4.389,4.006S5292.8,35.43,5292.8,33s1.719-3.992,4.39-3.992S5301.577,30.571,5301.577,33Zm-5.555.043c0,.909.456,1.506,1.166,1.506s1.165-.6,1.165-1.506-.455-1.506-1.165-1.506S5296.022,32.134,5296.022,33.043Z" fill="url(#linear-gradient-21)"/>
      <path id="Path_717" data-name="Path 717" d="M5310.779,33c0,2.43-1.718,4.006-4.389,4.006S5302,35.43,5302,33s1.719-3.992,4.39-3.992S5310.779,30.571,5310.779,33Zm-5.554.043c0,.909.455,1.506,1.165,1.506s1.165-.6,1.165-1.506-.454-1.506-1.165-1.506S5305.225,32.134,5305.225,33.043Z" fill="url(#linear-gradient-21)"/>
      <path id="Path_718" data-name="Path 718" d="M5315.038,26.352V36.893h-3.2V26.352Z" fill="url(#linear-gradient-25)"/>
      <path id="Path_719" data-name="Path 719" d="M5319.781,31.082c-.27,0-.44.1-.44.256,0,.725,4.034.44,4.034,3.055,0,1.6-1.378,2.641-3.522,2.641a6.585,6.585,0,0,1-3.793-1.107l.965-1.989a5.6,5.6,0,0,0,2.87.965c.3,0,.483-.085.483-.226,0-.683-3.949-.384-3.949-3.012,0-1.634,1.349-2.686,3.424-2.686a7.3,7.3,0,0,1,3.607.981l-1.051,1.975A6.7,6.7,0,0,0,5319.781,31.082Z" fill="url(#linear-gradient-26)"/>
    </g>
  </g>
</svg>
