<svg xmlns="http://www.w3.org/2000/svg" width="238.736" height="87.875" viewBox="0 0 238.736 87.875">
  <g id="Group_1466" data-name="Group 1466" transform="translate(-8239.073 -5680.479)">
    <g id="Group_1448" data-name="Group 1448">
      <g id="Group_1447" data-name="Group 1447">
        <path id="Path_2796" data-name="Path 2796" d="M8295.757,5768v-25.322h10.807a7.434,7.434,0,0,1,3.335.749,8.547,8.547,0,0,1,2.6,1.962,9.378,9.378,0,0,1,1.712,2.746,8.17,8.17,0,0,1,.624,3.1,8.894,8.894,0,0,1-.588,3.21,9.175,9.175,0,0,1-1.641,2.746,7.745,7.745,0,0,1-2.551,1.926,7.61,7.61,0,0,1-3.316.713h-5.135V5768Zm5.85-13.267h4.778a2.259,2.259,0,0,0,1.783-.892,3.952,3.952,0,0,0,.749-2.6,4.509,4.509,0,0,0-.232-1.534,3.123,3.123,0,0,0-.624-1.07,2.4,2.4,0,0,0-.892-.624,2.732,2.732,0,0,0-1-.2h-4.564Z" fill="#fff"/>
        <path id="Path_2797" data-name="Path 2797" d="M8329.388,5754.158a10.949,10.949,0,0,0-3.745.678,4.568,4.568,0,0,0-2.425,1.926V5768h-5.706v-18.724h5.242v3.781a7.968,7.968,0,0,1,2.479-2.961,5.717,5.717,0,0,1,3.228-1.1h.571a1.874,1.874,0,0,1,.355.035Z" fill="#fff"/>
        <path id="Path_2798" data-name="Path 2798" d="M8339.767,5768.353a10.942,10.942,0,0,1-4.262-.785,9.267,9.267,0,0,1-3.156-2.122,8.948,8.948,0,0,1-1.943-3.1,10.648,10.648,0,0,1,0-7.382,8.966,8.966,0,0,1,1.943-3.1,9.5,9.5,0,0,1,3.156-2.14,10.732,10.732,0,0,1,4.262-.8,10.6,10.6,0,0,1,4.244.8,9.548,9.548,0,0,1,3.14,2.14,9.2,9.2,0,0,1,1.961,3.1,10.2,10.2,0,0,1,.678,3.691,10.438,10.438,0,0,1-.66,3.691,8.936,8.936,0,0,1-1.944,3.1,9.243,9.243,0,0,1-3.155,2.122A10.944,10.944,0,0,1,8339.767,5768.353Zm-4.173-9.7a5.18,5.18,0,0,0,1.178,3.549,4,4,0,0,0,4.637.981,3.942,3.942,0,0,0,1.3-1,4.78,4.78,0,0,0,.874-1.552,5.907,5.907,0,0,0,.321-1.979,5.177,5.177,0,0,0-1.178-3.549,3.774,3.774,0,0,0-2.96-1.337,3.88,3.88,0,0,0-2.978,1.355,4.773,4.773,0,0,0-.874,1.552A5.909,5.909,0,0,0,8335.594,5758.652Z" fill="#fff"/>
        <path id="Path_2799" data-name="Path 2799" d="M8382.208,5768H8376.5v-10.521a4.283,4.283,0,0,0-.678-2.692,2.148,2.148,0,0,0-1.748-.839,2.964,2.964,0,0,0-1.159.25,3.914,3.914,0,0,0-1.087.7,5.6,5.6,0,0,0-.91,1.053,5.742,5.742,0,0,0-.66,1.319V5768h-5.706v-10.521a4.283,4.283,0,0,0-.678-2.692,2.146,2.146,0,0,0-1.747-.839,3.45,3.45,0,0,0-2.229.91,5.186,5.186,0,0,0-1.589,2.407V5768h-5.705v-18.724h5.136v3.139a6.78,6.78,0,0,1,2.8-2.6,9.029,9.029,0,0,1,4.12-.891,6.62,6.62,0,0,1,2.05.285,4.925,4.925,0,0,1,1.516.785,4.129,4.129,0,0,1,1.034,1.159,4.988,4.988,0,0,1,.571,1.408,7.39,7.39,0,0,1,2.818-2.692,8.262,8.262,0,0,1,3.993-.945,5.5,5.5,0,0,1,2.871.659,4.769,4.769,0,0,1,1.694,1.712,6.629,6.629,0,0,1,.8,2.3,15.722,15.722,0,0,1,.2,2.425Z" fill="#fff"/>
        <path id="Path_2800" data-name="Path 2800" d="M8394.905,5768.353a11.073,11.073,0,0,1-4.228-.767,9.39,9.39,0,0,1-3.174-2.086,8.909,8.909,0,0,1-1.979-3.05,9.828,9.828,0,0,1-.679-3.62,10.79,10.79,0,0,1,.679-3.834,9.276,9.276,0,0,1,1.961-3.156,9.151,9.151,0,0,1,3.156-2.14,10.935,10.935,0,0,1,4.263-.784,10.81,10.81,0,0,1,4.244.784,9.346,9.346,0,0,1,3.138,2.122,9.029,9.029,0,0,1,1.944,3.085,10.326,10.326,0,0,1,.659,3.674q0,.5-.035.981a7.215,7.215,0,0,1-.107.838H8390.91a3.846,3.846,0,0,0,1.373,2.871,4.37,4.37,0,0,0,2.8.981,5.125,5.125,0,0,0,2.407-.607,3.1,3.1,0,0,0,1.552-1.64l4.85,1.355a8.717,8.717,0,0,1-3.424,3.6A10.614,10.614,0,0,1,8394.905,5768.353Zm3.959-11.484a4.3,4.3,0,0,0-1.285-2.818,3.867,3.867,0,0,0-2.745-1.034,3.817,3.817,0,0,0-2.765,1.052,4.368,4.368,0,0,0-1.267,2.8Z" fill="#fff"/>
        <path id="Path_2801" data-name="Path 2801" d="M8425.541,5768h-5.706v-10.521a4.2,4.2,0,0,0-.7-2.692,2.268,2.268,0,0,0-1.837-.839,3.168,3.168,0,0,0-1.212.25,4.963,4.963,0,0,0-1.177.7,5.325,5.325,0,0,0-1.017,1.053,4.954,4.954,0,0,0-.7,1.319V5768h-5.707v-18.724h5.136v3.139a6.807,6.807,0,0,1,2.925-2.586,9.923,9.923,0,0,1,4.352-.909,5.677,5.677,0,0,1,2.924.659,4.727,4.727,0,0,1,1.712,1.712,6.629,6.629,0,0,1,.8,2.3,15.722,15.722,0,0,1,.2,2.425Z" fill="#fff"/>
        <path id="Path_2802" data-name="Path 2802" d="M8441.269,5767a22.526,22.526,0,0,1-2.692.927,11.177,11.177,0,0,1-3.049.428,7.34,7.34,0,0,1-2.016-.268,4.489,4.489,0,0,1-1.658-.855,4,4,0,0,1-1.123-1.552,5.882,5.882,0,0,1-.41-2.318v-9.772h-2.39v-4.316h2.39v-5.956h5.706v5.956h3.816v4.316h-3.816v7.81a1.528,1.528,0,0,0,1.641,1.748,4.365,4.365,0,0,0,1.32-.214,8.157,8.157,0,0,0,1.177-.464Z" fill="#fff"/>
        <path id="Path_2803" data-name="Path 2803" d="M8448.794,5768.353a7.345,7.345,0,0,1-2.585-.446,6.051,6.051,0,0,1-2.051-1.248,5.982,5.982,0,0,1-1.355-1.89,5.616,5.616,0,0,1-.5-2.372,5.45,5.45,0,0,1,.588-2.532,5.82,5.82,0,0,1,1.658-1.962,8.2,8.2,0,0,1,2.533-1.284,10.691,10.691,0,0,1,3.245-.464,13.04,13.04,0,0,1,2.283.2,7.54,7.54,0,0,1,1.926.588v-.856q0-3.245-3.745-3.245a8.332,8.332,0,0,0-2.924.517,14.049,14.049,0,0,0-2.925,1.551l-1.678-3.566a14.989,14.989,0,0,1,3.853-1.819,14.557,14.557,0,0,1,4.245-.606,9.749,9.749,0,0,1,6.562,2,7.3,7.3,0,0,1,2.318,5.849v4.815a1.981,1.981,0,0,0,.268,1.194,1.329,1.329,0,0,0,.945.411V5768a9.577,9.577,0,0,1-1.355.232c-.4.036-.773.054-1.105.054a3.962,3.962,0,0,1-2.425-.625,2.761,2.761,0,0,1-1.035-1.765l-.106-.856a8.575,8.575,0,0,1-2.979,2.461A8.133,8.133,0,0,1,8448.794,5768.353Zm1.677-4.1a5.215,5.215,0,0,0,1.8-.321,4.232,4.232,0,0,0,1.443-.856,1.774,1.774,0,0,0,.821-1.356v-1.783a9.292,9.292,0,0,0-1.623-.446,8.989,8.989,0,0,0-1.623-.16,4.395,4.395,0,0,0-2.585.713,2.176,2.176,0,0,0-1.017,1.855,2.113,2.113,0,0,0,.783,1.694A3,3,0,0,0,8450.471,5764.252Z" fill="#fff"/>
        <path id="Path_2804" data-name="Path 2804" d="M8464.309,5741.961h5.706v19.366q0,2.14,1.819,2.14a4.025,4.025,0,0,0,.945-.125,3.464,3.464,0,0,0,.945-.375l.748,4.28a11.013,11.013,0,0,1-2.46.785,13.021,13.021,0,0,1-2.6.285,5.2,5.2,0,0,1-3.78-1.284,4.942,4.942,0,0,1-1.32-3.709Z" fill="#fff"/>
      </g>
    </g>
    <g id="Group_1449" data-name="Group 1449">
      <path id="Path_2805" data-name="Path 2805" d="M8359,5725.147a16.927,16.927,0,0,1-.435,3.866h6.09a8.57,8.57,0,0,0,.87-3.866v-14.356h6.429v14.356a14.464,14.464,0,0,1-4.109,10.295h-22.088a14.1,14.1,0,0,1-27.841-3.094V5717.51l6.429,2.8v12.035a7.637,7.637,0,1,0,15.273,0v-21.557h6.429v18.222h5.655a8.57,8.57,0,0,0,.87-3.866v-14.356H8359Z" fill="#fff"/>
      <path id="Path_2806" data-name="Path 2806" d="M8385.056,5730.85c0,7.492-5.7,14.065-13.1,14.065v-6.428c3.866,0,6.67-3.577,6.67-7.637v-20.059h6.428Z" fill="#fff"/>
      <path id="Path_2807" data-name="Path 2807" d="M8395.4,5735.442h-6.43v-33.448h6.43Z" fill="#fff"/>
      <path id="Path_2808" data-name="Path 2808" d="M8399.072,5729.013h12.664c3.528,0,6.573-2.562,6.573-5.9,0-3.383-3.189-5.9-6.573-5.9h-12.664v-6.38h12.664c7.1,0,13,5.51,13,12.276a11.546,11.546,0,0,1-1.547,5.9h3.576v6.429h-27.7Z" fill="#fff"/>
      <path id="Path_2809" data-name="Path 2809" d="M8426.768,5729.013h3.19a12.259,12.259,0,0,1-1.208-5.365,12.985,12.985,0,0,1,13.437-12.9c7.443,0,13.679,5.607,14.065,12.615v5.655h2.03v6.429l-16.434-.049a14.044,14.044,0,0,1-8.99-2.8v2.852h-6.091Zm23.057,0c0-3.48.676-7.25-2.225-9.86a7.952,7.952,0,0,0-5.413-1.982c-4.544,0-7.153,3.335-7.153,6.429,0,2.755,2.176,5.413,7.2,5.413Z" fill="#fff"/>
      <path id="Path_2810" data-name="Path 2810" d="M8458.282,5735.442v-6.429h2.029v-26.97h6.43v33.4Z" fill="#fff"/>
      <path id="Path_2811" data-name="Path 2811" d="M8477.81,5735.442h-6.429v-33.448h6.429Z" fill="#fff"/>
    </g>
    <g id="Group_1464" data-name="Group 1464">
      <g id="Group_1451" data-name="Group 1451">
        <g id="Group_1450" data-name="Group 1450">
          <path id="Path_2812" data-name="Path 2812" d="M8305.633,5681.084h-51.178a.882.882,0,0,0-.882.882h0v17.647h1.765v-16.764h49.412v19.412h-30.883v1.764h31.765a.883.883,0,0,0,.883-.882h0v-21.177A.882.882,0,0,0,8305.633,5681.084Z" fill="#fff"/>
        </g>
      </g>
      <g id="Group_1453" data-name="Group 1453">
        <g id="Group_1452" data-name="Group 1452">
          <rect id="Rectangle_433" data-name="Rectangle 433" width="17.647" height="1.765" transform="translate(8282.69 5685.496)" fill="#fff"/>
        </g>
      </g>
      <g id="Group_1455" data-name="Group 1455">
        <g id="Group_1454" data-name="Group 1454">
          <rect id="Rectangle_434" data-name="Rectangle 434" width="17.647" height="1.765" transform="translate(8285.338 5690.79)" fill="#fff"/>
        </g>
      </g>
      <g id="Group_1457" data-name="Group 1457">
        <g id="Group_1456" data-name="Group 1456">
          <rect id="Rectangle_435" data-name="Rectangle 435" width="17.647" height="1.765" transform="translate(8281.809 5696.084)" fill="#fff"/>
        </g>
      </g>
      <g id="Group_1459" data-name="Group 1459">
        <g id="Group_1458" data-name="Group 1458">
          <path id="Path_2813" data-name="Path 2813" d="M8281.738,5688.691a2.848,2.848,0,0,0-3.724-1.535l-.073.032-7.154,3.711a4.354,4.354,0,0,0,.433-1.874,4.412,4.412,0,1,0-7.919,2.647h-.036a6.057,6.057,0,0,0-5.625,3.917l-2.354,8.119a2.826,2.826,0,1,0,5.306,1.944l.923-2.937v12.771a4.36,4.36,0,0,0-2.646-.9,4.4,4.4,0,0,0-3.079,7.562,4.064,4.064,0,0,0-2.215,3.606v7.394a.883.883,0,0,0,.882.883h8.824a.882.882,0,0,0,.882-.882h0v-7.394a4.052,4.052,0,0,0-1.574-3.194h6.678a4.054,4.054,0,0,0-1.573,3.194v7.394a.883.883,0,0,0,.882.883h8.824a.882.882,0,0,0,.882-.882h0v-7.394a4.066,4.066,0,0,0-2.215-3.606,4.409,4.409,0,0,0-3.962-7.473v-18.05l8.1-4.206A2.848,2.848,0,0,0,8281.738,5688.691Zm-14.931-2.313a2.647,2.647,0,1,1-2.646,2.647A2.647,2.647,0,0,1,8266.808,5686.378Zm-7.94,29.968a2.647,2.647,0,1,1-2.647,2.647A2.646,2.646,0,0,1,8258.867,5716.346Zm3.529,15.915h-7.059v-6.512a2.315,2.315,0,0,1,2.313-2.312h2.434a2.316,2.316,0,0,1,2.313,2.312Zm14.117-6.512v6.512h-7.059v-6.512a2.316,2.316,0,0,1,2.313-2.312h2.435A2.315,2.315,0,0,1,8276.514,5725.749Zm-3.528-9.4a2.647,2.647,0,1,1-2.647,2.647A2.649,2.649,0,0,1,8272.985,5716.346Zm7.139-26.183a1.138,1.138,0,0,1-.667.653l-8.643,4.485a.882.882,0,0,0-.477.783v19.4a4.351,4.351,0,0,0-1.373,5.3h-1.273v-15h-1.766v15h-3.039a4.4,4.4,0,0,0,.39-1.765h0v-22.059a.883.883,0,0,0-1.725-.264l-2.635,8.384a1.061,1.061,0,0,1-1.359.635c-.037-.014-.075-.03-.112-.048a1.083,1.083,0,0,1-.493-1.4l2.355-8.119a4.263,4.263,0,0,1,3.954-2.716h6.247a.886.886,0,0,0,.407-.1l8.77-4.552a1.086,1.086,0,0,1,1.389.514A1.073,1.073,0,0,1,8280.124,5690.163Z" fill="#fff"/>
        </g>
      </g>
      <g id="Group_1461" data-name="Group 1461">
        <g id="Group_1460" data-name="Group 1460">
          <path id="Path_2814" data-name="Path 2814" d="M8290.181,5722.143a4.411,4.411,0,1,0-6.237-.081c.025.028.054.055.081.081a4.069,4.069,0,0,0-2.217,3.606v7.394a.884.884,0,0,0,.883.883h8.823a.883.883,0,0,0,.884-.882h0v-7.394A4.066,4.066,0,0,0,8290.181,5722.143Zm-3.078-5.8a2.647,2.647,0,1,1-2.646,2.647A2.646,2.646,0,0,1,8287.1,5716.346Zm3.529,15.915h-7.059v-6.512a2.316,2.316,0,0,1,2.313-2.312h2.435a2.316,2.316,0,0,1,2.312,2.312Z" fill="#fff"/>
        </g>
      </g>
      <g id="Group_1463" data-name="Group 1463">
        <g id="Group_1462" data-name="Group 1462">
          <path id="Path_2815" data-name="Path 2815" d="M8304.3,5722.143a4.412,4.412,0,1,0-6.239-.081c.027.028.055.055.082.081a4.068,4.068,0,0,0-2.216,3.606v7.394a.884.884,0,0,0,.882.883h8.824a.883.883,0,0,0,.883-.882h0v-7.394A4.067,4.067,0,0,0,8304.3,5722.143Zm-3.079-5.8a2.647,2.647,0,1,1-2.646,2.647A2.648,2.648,0,0,1,8301.22,5716.346Zm3.53,15.915h-7.059v-6.512a2.315,2.315,0,0,1,2.312-2.312h2.436a2.316,2.316,0,0,1,2.312,2.312Z" fill="#fff"/>
        </g>
      </g>
    </g>
    <g id="Group_1465" data-name="Group 1465">
      <path id="Path_2816" data-name="Path 2816" d="M8348.734,5682.084a28.572,28.572,0,0,0-17.833-.328c-5.728,1.947-10.717,6.449-12.471,12.238-1.033,3.41-.619,7.722,2.364,9.671,2.2,1.433,5.155,1.131,7.525.008s4.316-2.948,6.364-4.585a30.848,30.848,0,0,1,11.149-5.986,18.355,18.355,0,0,1,11.236.391c1.928.743,6.083,3.82,6.815.3C8365.147,5687.731,8352.64,5683.347,8348.734,5682.084Z" fill="#fff"/>
      <circle id="Ellipse_160" data-name="Ellipse 160" cx="3.635" cy="3.635" r="3.635" transform="translate(8367.001 5693.66)" fill="#fff"/>
    </g>
    <path id="Path_2817" data-name="Path 2817" d="M8273.142,5749.767c2.714-.131,5.511-.449,8.086.413s4.865,3.348,4.442,6.031-3.181,4.273-5.728,5.2a35.422,35.422,0,0,1-22.518.708,30.722,30.722,0,0,1-17.518-13.946c-1.838-3.267-.611-6.051,3.4-5.743,2.6.2,4.233,2.177,6.436,3.323C8256.55,5749.3,8265.6,5750.131,8273.142,5749.767Z" fill="#fff"/>
  </g>
</svg>
