<svg xmlns="http://www.w3.org/2000/svg" width="242.479" height="99.454" viewBox="0 0 242.479 99.454">
  <g id="Group_564" data-name="Group 564" transform="translate(-3806.54 -108.891)">
    <g id="Group_561" data-name="Group 561">
      <g id="Group_560" data-name="Group 560">
        <g id="Group_559" data-name="Group 559">
          <g id="Group_558" data-name="Group 558">
            <path id="Path_1098" data-name="Path 1098" d="M3837.258,159.351l8.445,3.05a1.88,1.88,0,0,0,1.8-.287,8.7,8.7,0,0,0,1.652-1.141l-1.875.419a2.914,2.914,0,0,1-1.27-5.687l4.487-1,2.87-4-2.028,5.277-5.018,1.121a1.487,1.487,0,0,0-1.127,1.774c0,.015.008.028.011.042a1.486,1.486,0,0,0,1.764,1.085l5.8-1.294a1.488,1.488,0,0,0,1.064-.918l2.239-5.827-.592,4.315,2.217-1.648a1.844,1.844,0,0,0,.379-2.583l-2.244-3.012a1.845,1.845,0,0,0-2.625-.344l-10.766,8.528-4.58-1.655a1.883,1.883,0,0,0-1.358.031l-9.934,4.105a1.883,1.883,0,0,0,1.438,3.48Z" fill="#fff"/>
            <path id="Path_1099" data-name="Path 1099" d="M3856.247,147.133a3.489,3.489,0,1,0,.236-5.409A3.491,3.491,0,0,0,3856.247,147.133Z" fill="#fff"/>
            <path id="Path_1100" data-name="Path 1100" d="M3864.814,153.979a2.14,2.14,0,0,0-3.008-.327L3848.689,164.2H3830.1a2.139,2.139,0,1,0,0,4.278h.834v1.484a1.431,1.431,0,0,0,2.862,0v-1.484h12.21v1.484a1.431,1.431,0,0,0,2.862,0v-1.484h.572a2.141,2.141,0,0,0,1.34-.471l13.705-11.017A2.14,2.14,0,0,0,3864.814,153.979Z" fill="#fff"/>
            <circle id="Ellipse_46" data-name="Ellipse 46" cx="3.327" cy="3.327" r="3.327" transform="translate(3813.576 137.956)" fill="#fff"/>
            <path id="Path_1101" data-name="Path 1101" d="M3822.007,157.837a1.508,1.508,0,0,0-.438-2.548l-4.86-1.887-1.048-4.773,1.766,3.435,1.523.592.59-3.623a2.248,2.248,0,0,0-1.858-2.579l-3.437-.56a2.328,2.328,0,0,0-3.1,1.774c-.188,1.207-1.582,10.238-1.641,11.016a1.809,1.809,0,0,0,.539,1.431h-2.074a1.43,1.43,0,0,0-1.431,1.43v8.413a1.431,1.431,0,0,0,2.862,0v-2.352h5.667v2.352a1.43,1.43,0,1,0,2.861,0c0-9.152.026-8.532-.059-8.819l1.721.131-1.286,8.024a1.809,1.809,0,0,0,3.572.573l1.6-9.964A1.812,1.812,0,0,0,3822.007,157.837Zm-6.938,7.861H3809.4v-2.722h5.667Zm-1.027-8.48-.311-.121a1.989,1.989,0,0,1-1.265-1.935l.25-5.887,1.222,5.563a1.505,1.505,0,0,0,.927,1.082l4.364,1.7Z" fill="#fff"/>
          </g>
        </g>
      </g>
    </g>
    <text id="جلسات" transform="translate(3870.303 173.777)" fill="#fff" font-size="50.485" font-family="MahmoudArt-Black, MahmoudArt" font-weight="800" letter-spacing="-0.02em"><tspan x="0" y="0">جلسات</tspan></text>
    <g id="Group_562" data-name="Group 562">
      <path id="Path_1102" data-name="Path 1102" d="M3870.3,207.988V182.666h10.807a7.436,7.436,0,0,1,3.335.749,8.562,8.562,0,0,1,2.6,1.962,9.371,9.371,0,0,1,1.712,2.746,8.173,8.173,0,0,1,.624,3.1,8.885,8.885,0,0,1-.588,3.21,9.184,9.184,0,0,1-1.641,2.746,7.715,7.715,0,0,1-2.55,1.926,7.607,7.607,0,0,1-3.317.713h-5.136v8.167Zm5.849-13.267h4.78a2.262,2.262,0,0,0,1.783-.891,3.959,3.959,0,0,0,.749-2.6,4.518,4.518,0,0,0-.232-1.534,3.162,3.162,0,0,0-.624-1.07,2.4,2.4,0,0,0-.892-.624,2.73,2.73,0,0,0-1-.2h-4.566Z" fill="#fff"/>
      <path id="Path_1103" data-name="Path 1103" d="M3903.934,194.15a10.942,10.942,0,0,0-3.745.678,4.567,4.567,0,0,0-2.425,1.926v11.234h-5.706V189.264h5.242v3.781a7.967,7.967,0,0,1,2.479-2.961,5.714,5.714,0,0,1,3.228-1.1h.57a1.8,1.8,0,0,1,.357.036Z" fill="#fff"/>
      <path id="Path_1104" data-name="Path 1104" d="M3914.313,208.345a10.942,10.942,0,0,1-4.262-.785,9.262,9.262,0,0,1-3.156-2.122,8.959,8.959,0,0,1-1.944-3.1,10.652,10.652,0,0,1,0-7.382,8.968,8.968,0,0,1,1.944-3.1,9.492,9.492,0,0,1,3.156-2.14,10.726,10.726,0,0,1,4.262-.8,10.594,10.594,0,0,1,4.244.8,9.541,9.541,0,0,1,3.139,2.14,9.187,9.187,0,0,1,1.961,3.1,10.208,10.208,0,0,1,.678,3.691,10.451,10.451,0,0,1-.66,3.691,8.956,8.956,0,0,1-1.944,3.1,9.262,9.262,0,0,1-3.156,2.122A10.942,10.942,0,0,1,3914.313,208.345Zm-4.173-9.7a5.175,5.175,0,0,0,1.177,3.549,3.815,3.815,0,0,0,3,1.337,3.769,3.769,0,0,0,1.641-.356,3.935,3.935,0,0,0,1.3-1,4.782,4.782,0,0,0,.874-1.551,5.909,5.909,0,0,0,.321-1.98,5.172,5.172,0,0,0-1.177-3.548,3.775,3.775,0,0,0-2.96-1.338,3.88,3.88,0,0,0-2.978,1.355,4.785,4.785,0,0,0-.874,1.552A5.909,5.909,0,0,0,3910.14,198.644Z" fill="#fff"/>
      <path id="Path_1105" data-name="Path 1105" d="M3956.754,207.988h-5.707V197.467a4.286,4.286,0,0,0-.677-2.692,2.147,2.147,0,0,0-1.748-.839,2.962,2.962,0,0,0-1.159.25,3.959,3.959,0,0,0-1.088.695,5.792,5.792,0,0,0-1.569,2.372v10.735H3939.1V197.467a4.286,4.286,0,0,0-.678-2.692,2.146,2.146,0,0,0-1.747-.839,3.459,3.459,0,0,0-2.23.91,5.2,5.2,0,0,0-1.587,2.407v10.735h-5.706V189.264h5.136V192.4a6.784,6.784,0,0,1,2.8-2.6,9.031,9.031,0,0,1,4.12-.891,6.626,6.626,0,0,1,2.05.285,4.954,4.954,0,0,1,1.516.785,4.142,4.142,0,0,1,1.034,1.159,5,5,0,0,1,.571,1.408,7.388,7.388,0,0,1,2.818-2.692,8.261,8.261,0,0,1,3.994-.945,5.5,5.5,0,0,1,2.871.659,4.779,4.779,0,0,1,1.694,1.712,6.643,6.643,0,0,1,.8,2.3,15.717,15.717,0,0,1,.2,2.425Z" fill="#fff"/>
      <path id="Path_1106" data-name="Path 1106" d="M3969.451,208.345a11.071,11.071,0,0,1-4.227-.767,9.391,9.391,0,0,1-3.174-2.086,8.938,8.938,0,0,1-1.98-3.05,9.844,9.844,0,0,1-.677-3.62,10.8,10.8,0,0,1,.677-3.833,9.3,9.3,0,0,1,1.962-3.157,9.157,9.157,0,0,1,3.157-2.14,10.96,10.96,0,0,1,4.262-.784,10.834,10.834,0,0,1,4.244.784,9.333,9.333,0,0,1,3.138,2.122,9.015,9.015,0,0,1,1.944,3.085,10.318,10.318,0,0,1,.66,3.674q0,.5-.036.981a7.069,7.069,0,0,1-.107.838h-13.838a3.849,3.849,0,0,0,1.373,2.871,4.368,4.368,0,0,0,2.8.981,5.12,5.12,0,0,0,2.407-.607,3.093,3.093,0,0,0,1.552-1.64l4.85,1.355a8.717,8.717,0,0,1-3.424,3.6A10.621,10.621,0,0,1,3969.451,208.345Zm3.959-11.484a4.3,4.3,0,0,0-1.285-2.818,3.867,3.867,0,0,0-2.746-1.034,3.814,3.814,0,0,0-2.764,1.052,4.363,4.363,0,0,0-1.266,2.8Z" fill="#fff"/>
      <path id="Path_1107" data-name="Path 1107" d="M4000.087,207.988h-5.706V197.467a4.2,4.2,0,0,0-.7-2.692,2.27,2.27,0,0,0-1.837-.839,3.174,3.174,0,0,0-1.213.25,5.033,5.033,0,0,0-1.177.695,5.378,5.378,0,0,0-1.016,1.053,5.007,5.007,0,0,0-.7,1.319v10.735h-5.706V189.264h5.136V192.4a6.808,6.808,0,0,1,2.924-2.586,9.925,9.925,0,0,1,4.351-.909,5.677,5.677,0,0,1,2.925.659,4.735,4.735,0,0,1,1.712,1.712,6.643,6.643,0,0,1,.8,2.3,15.717,15.717,0,0,1,.2,2.425Z" fill="#fff"/>
      <path id="Path_1108" data-name="Path 1108" d="M4015.815,206.99a22.626,22.626,0,0,1-2.693.927,11.184,11.184,0,0,1-3.049.428,7.381,7.381,0,0,1-2.015-.267,4.518,4.518,0,0,1-1.659-.856,4.008,4.008,0,0,1-1.123-1.552,5.89,5.89,0,0,1-.41-2.318V193.58h-2.389v-4.316h2.389v-5.956h5.706v5.956h3.817v4.316h-3.817v7.811a1.528,1.528,0,0,0,1.641,1.747,4.367,4.367,0,0,0,1.32-.214,8.164,8.164,0,0,0,1.177-.464Z" fill="#fff"/>
      <path id="Path_1109" data-name="Path 1109" d="M4023.34,208.345a7.34,7.34,0,0,1-2.585-.446,6.045,6.045,0,0,1-2.051-1.248,5.98,5.98,0,0,1-1.355-1.89,5.615,5.615,0,0,1-.5-2.372,5.446,5.446,0,0,1,.589-2.532,5.821,5.821,0,0,1,1.658-1.962,8.184,8.184,0,0,1,2.533-1.284,10.731,10.731,0,0,1,3.245-.463,13.025,13.025,0,0,1,2.283.2,7.523,7.523,0,0,1,1.925.588v-.856q0-3.245-3.744-3.245a8.339,8.339,0,0,0-2.925.517,14.114,14.114,0,0,0-2.925,1.551l-1.676-3.566a14.976,14.976,0,0,1,3.852-1.819,14.537,14.537,0,0,1,4.244-.606,9.757,9.757,0,0,1,6.563,2,7.3,7.3,0,0,1,2.318,5.849v4.815a1.977,1.977,0,0,0,.268,1.194,1.326,1.326,0,0,0,.945.411v4.814a9.451,9.451,0,0,1-1.356.232q-.606.054-1.1.054a3.976,3.976,0,0,1-2.426-.624,2.765,2.765,0,0,1-1.034-1.766l-.107-.856a8.544,8.544,0,0,1-2.978,2.461A8.13,8.13,0,0,1,4023.34,208.345Zm1.677-4.1a5.186,5.186,0,0,0,1.8-.321,4.206,4.206,0,0,0,1.444-.856,1.77,1.77,0,0,0,.82-1.356v-1.783a9.26,9.26,0,0,0-1.622-.446,9.027,9.027,0,0,0-1.623-.16,4.4,4.4,0,0,0-2.586.713,2.176,2.176,0,0,0-1.016,1.855,2.112,2.112,0,0,0,.784,1.694A3,3,0,0,0,4025.017,204.244Z" fill="#fff"/>
      <path id="Path_1110" data-name="Path 1110" d="M4038.855,181.953h5.706v19.366q0,2.141,1.819,2.14a4.018,4.018,0,0,0,.945-.125,3.5,3.5,0,0,0,.946-.374l.748,4.28a11.051,11.051,0,0,1-2.461.784,13.006,13.006,0,0,1-2.6.285,5.2,5.2,0,0,1-3.781-1.283,4.942,4.942,0,0,1-1.319-3.71Z" fill="#fff"/>
    </g>
    <g id="Group_563" data-name="Group 563">
      <path id="Path_1111" data-name="Path 1111" d="M3906.966,110.5a28.565,28.565,0,0,0-17.834-.329c-5.727,1.947-10.716,6.45-12.47,12.239-1.033,3.409-.619,7.722,2.364,9.67,2.2,1.434,5.156,1.131,7.525.009s4.317-2.948,6.365-4.586a30.84,30.84,0,0,1,11.15-5.985,18.352,18.352,0,0,1,11.235.39c1.929.743,6.084,3.82,6.816.3C3923.378,116.144,3910.871,111.76,3906.966,110.5Z" fill="#fff"/>
    </g>
    <path id="Path_1112" data-name="Path 1112" d="M3847.688,189.759c2.713-.131,5.51-.449,8.086.413s4.865,3.348,4.442,6.032-3.181,4.272-5.728,5.2a35.423,35.423,0,0,1-22.517.709,30.733,30.733,0,0,1-17.519-13.947c-1.837-3.266-.61-6.051,3.4-5.743,2.6.2,4.233,2.177,6.436,3.323C3831.1,189.292,3840.141,190.123,3847.688,189.759Z" fill="#fff"/>
  </g>
</svg>
