<svg xmlns="http://www.w3.org/2000/svg" xmlns:xlink="http://www.w3.org/1999/xlink" width="83.505" height="42.311" viewBox="0 0 83.505 42.311">
  <defs>
    <clipPath id="clip-path">
      <rect width="83.505" height="42.311" fill="none"/>
    </clipPath>
    <linearGradient id="linear-gradient" x1="5.661" y1="0.868" x2="4.678" y2="0.179" gradientUnits="objectBoundingBox">
      <stop offset="0" stop-color="#2b3988"/>
      <stop offset="1" stop-color="#2bb788"/>
    </linearGradient>
    <linearGradient id="linear-gradient-10" x1="-7.944" y1="3.862" x2="-0.511" y2="-3.358" xlink:href="#linear-gradient"/>
    <linearGradient id="linear-gradient-12" x1="-3.13" y1="3.63" x2="1.469" y2="-3.772" xlink:href="#linear-gradient"/>
    <linearGradient id="linear-gradient-13" x1="3.477" y1="2.955" x2="3.399" y2="0.628" xlink:href="#linear-gradient"/>
  </defs>
  <g id="Repeat_Grid_1" data-name="Repeat Grid 1" clip-path="url(#clip-path)">
    <g id="Group_1160" data-name="Group 1160" transform="translate(-921.318 -10.363)">
      <g id="Group_1156" data-name="Group 1156">
        <g id="Group_1155" data-name="Group 1155">
          <path id="Path_1660" data-name="Path 1660" d="M940.307,52.555V44.072h3.62a2.492,2.492,0,0,1,1.117.251,2.848,2.848,0,0,1,.872.657,3.16,3.16,0,0,1,.574.92,2.741,2.741,0,0,1,.209,1.039,2.988,2.988,0,0,1-.2,1.076,3.092,3.092,0,0,1-.55.92,2.6,2.6,0,0,1-.854.645,2.557,2.557,0,0,1-1.111.239h-1.721v2.736Zm1.959-4.445h1.6a.759.759,0,0,0,.6-.3,1.329,1.329,0,0,0,.251-.873,1.5,1.5,0,0,0-.078-.513,1.066,1.066,0,0,0-.209-.359.809.809,0,0,0-.3-.209.907.907,0,0,0-.334-.066h-1.53Z" fill="url(#linear-gradient)"/>
          <path id="Path_1661" data-name="Path 1661" d="M951.573,47.919a3.668,3.668,0,0,0-1.254.227,1.528,1.528,0,0,0-.813.645v3.764h-1.911V46.282h1.756v1.267a2.669,2.669,0,0,1,.83-.992,1.915,1.915,0,0,1,1.082-.37h.191a.6.6,0,0,1,.119.012Z" fill="url(#linear-gradient)"/>
          <path id="Path_1662" data-name="Path 1662" d="M955.05,52.674a3.676,3.676,0,0,1-1.428-.263,3.1,3.1,0,0,1-1.057-.711,2.986,2.986,0,0,1-.651-1.039,3.569,3.569,0,0,1,0-2.473,3,3,0,0,1,.651-1.04,3.189,3.189,0,0,1,1.057-.716,3.586,3.586,0,0,1,1.428-.269,3.536,3.536,0,0,1,1.422.269,3.194,3.194,0,0,1,1.051.716,3.094,3.094,0,0,1,.658,1.04,3.426,3.426,0,0,1,.227,1.236,3.487,3.487,0,0,1-.222,1.237,2.985,2.985,0,0,1-.651,1.039,3.1,3.1,0,0,1-1.057.711A3.669,3.669,0,0,1,955.05,52.674Zm-1.4-3.25a1.733,1.733,0,0,0,.4,1.189,1.341,1.341,0,0,0,1.553.329,1.324,1.324,0,0,0,.436-.335,1.613,1.613,0,0,0,.293-.519,2,2,0,0,0,.107-.664,1.731,1.731,0,0,0-.394-1.188,1.265,1.265,0,0,0-.992-.448,1.308,1.308,0,0,0-.555.119,1.288,1.288,0,0,0-.442.335,1.6,1.6,0,0,0-.293.519A1.974,1.974,0,0,0,953.652,49.424Z" fill="url(#linear-gradient)"/>
          <path id="Path_1663" data-name="Path 1663" d="M969.268,52.555h-1.912V49.03a1.437,1.437,0,0,0-.227-.9.718.718,0,0,0-.585-.281.989.989,0,0,0-.389.084,1.309,1.309,0,0,0-.364.233,1.907,1.907,0,0,0-.3.352,1.964,1.964,0,0,0-.221.442v3.6h-1.911V49.03a1.437,1.437,0,0,0-.227-.9.721.721,0,0,0-.586-.281,1.155,1.155,0,0,0-.746.305,1.731,1.731,0,0,0-.532.806v3.6h-1.912V46.282h1.721v1.052a2.273,2.273,0,0,1,.938-.873,3.023,3.023,0,0,1,1.38-.3,2.238,2.238,0,0,1,.686.1,1.661,1.661,0,0,1,.508.263,1.4,1.4,0,0,1,.347.388,1.716,1.716,0,0,1,.191.472,2.475,2.475,0,0,1,.944-.9,2.767,2.767,0,0,1,1.338-.316,1.835,1.835,0,0,1,.962.221,1.588,1.588,0,0,1,.567.573,2.212,2.212,0,0,1,.269.771,5.211,5.211,0,0,1,.066.812Z" fill="url(#linear-gradient)"/>
          <path id="Path_1664" data-name="Path 1664" d="M973.521,52.674a3.7,3.7,0,0,1-1.416-.257,3.143,3.143,0,0,1-1.063-.7,2.98,2.98,0,0,1-.663-1.021,3.3,3.3,0,0,1-.227-1.213,3.621,3.621,0,0,1,.227-1.284,3.113,3.113,0,0,1,.657-1.058,3.073,3.073,0,0,1,1.057-.716,3.658,3.658,0,0,1,1.428-.263,3.606,3.606,0,0,1,1.422.263,3.121,3.121,0,0,1,1.051.71,3.013,3.013,0,0,1,.651,1.034,3.439,3.439,0,0,1,.222,1.231c0,.111-.005.221-.012.328a2.307,2.307,0,0,1-.036.281h-4.636a1.29,1.29,0,0,0,.46.962,1.463,1.463,0,0,0,.938.328,1.709,1.709,0,0,0,.806-.2,1.036,1.036,0,0,0,.52-.549l1.625.454a2.916,2.916,0,0,1-1.147,1.206A3.555,3.555,0,0,1,973.521,52.674Zm1.326-3.847a1.438,1.438,0,0,0-.43-.944,1.294,1.294,0,0,0-.92-.346,1.278,1.278,0,0,0-.926.352,1.464,1.464,0,0,0-.424.938Z" fill="url(#linear-gradient)"/>
          <path id="Path_1665" data-name="Path 1665" d="M983.784,52.555h-1.911V49.03a1.41,1.41,0,0,0-.233-.9.763.763,0,0,0-.616-.281,1.055,1.055,0,0,0-.406.084,1.652,1.652,0,0,0-.394.233,1.808,1.808,0,0,0-.341.352,1.715,1.715,0,0,0-.233.442v3.6h-1.911V46.282h1.72v1.052a2.282,2.282,0,0,1,.98-.867,3.323,3.323,0,0,1,1.457-.3,1.892,1.892,0,0,1,.98.221,1.584,1.584,0,0,1,.574.573,2.211,2.211,0,0,1,.268.771,5.2,5.2,0,0,1,.066.812Z" fill="url(#linear-gradient)"/>
          <path id="Path_1666" data-name="Path 1666" d="M989.053,52.22a7.592,7.592,0,0,1-.9.311,3.761,3.761,0,0,1-1.021.143,2.491,2.491,0,0,1-.675-.089,1.509,1.509,0,0,1-.556-.287,1.341,1.341,0,0,1-.376-.52,1.969,1.969,0,0,1-.138-.776V47.728h-.8V46.282h.8v-2H987.3v2h1.278v1.446H987.3v2.616a.512.512,0,0,0,.549.586,1.464,1.464,0,0,0,.443-.072,2.745,2.745,0,0,0,.394-.155Z" fill="url(#linear-gradient)"/>
          <path id="Path_1667" data-name="Path 1667" d="M991.574,52.674a2.473,2.473,0,0,1-.866-.149,2.033,2.033,0,0,1-.687-.418,2,2,0,0,1-.454-.634,1.868,1.868,0,0,1-.167-.794,1.815,1.815,0,0,1,.2-.848,1.937,1.937,0,0,1,.555-.657,2.737,2.737,0,0,1,.849-.431,3.6,3.6,0,0,1,1.087-.155,4.355,4.355,0,0,1,.765.066,2.523,2.523,0,0,1,.645.2v-.287q0-1.086-1.255-1.087a2.8,2.8,0,0,0-.979.173,4.715,4.715,0,0,0-.98.52l-.562-1.195a5.012,5.012,0,0,1,1.291-.609,4.848,4.848,0,0,1,1.421-.2,3.269,3.269,0,0,1,2.2.669,2.446,2.446,0,0,1,.776,1.959V50.4a.662.662,0,0,0,.09.4.445.445,0,0,0,.317.138v1.613a3.191,3.191,0,0,1-.454.077c-.136.012-.259.018-.371.018a1.323,1.323,0,0,1-.812-.209.922.922,0,0,1-.347-.591l-.036-.287a2.849,2.849,0,0,1-1,.824A2.719,2.719,0,0,1,991.574,52.674Zm.562-1.374a1.75,1.75,0,0,0,.6-.107,1.426,1.426,0,0,0,.484-.287.594.594,0,0,0,.275-.454v-.6a3.11,3.11,0,0,0-.544-.15,3.005,3.005,0,0,0-.544-.054,1.476,1.476,0,0,0-.866.239.73.73,0,0,0-.34.622.7.7,0,0,0,.263.567A1,1,0,0,0,992.136,51.3Z" fill="url(#linear-gradient)"/>
          <path id="Path_1668" data-name="Path 1668" d="M996.771,43.833h1.912v6.488q0,.716.609.716a1.352,1.352,0,0,0,.317-.041,1.18,1.18,0,0,0,.317-.126l.25,1.434a3.728,3.728,0,0,1-.824.263,4.4,4.4,0,0,1-.872.095,1.742,1.742,0,0,1-1.267-.43,1.658,1.658,0,0,1-.442-1.242Z" fill="url(#linear-gradient)"/>
        </g>
      </g>
      <g id="Group_1157" data-name="Group 1157">
        <path id="Path_1669" data-name="Path 1669" d="M958.054,23.774a9.575,9.575,0,0,0-5.974-.11,6.516,6.516,0,0,0-4.177,4.1A2.868,2.868,0,0,0,948.7,31a2.633,2.633,0,0,0,2.52,0,11.4,11.4,0,0,0,2.133-1.536,10.331,10.331,0,0,1,3.735-2.006,6.158,6.158,0,0,1,3.764.131c.646.249,2.038,1.28,2.283.1C963.552,25.666,959.363,24.2,958.054,23.774Z" fill="url(#linear-gradient-10)"/>
        <circle id="Ellipse_67" data-name="Ellipse 67" cx="1.218" cy="1.218" r="1.218" transform="translate(964.173 27.652)" fill="url(#linear-gradient-10)"/>
      </g>
      <path id="Path_1670" data-name="Path 1670" d="M932.731,46.448a7.407,7.407,0,0,1,2.709.138,2.011,2.011,0,0,1,1.488,2.021c-.142.9-1.066,1.431-1.919,1.742a11.86,11.86,0,0,1-7.543.237,10.291,10.291,0,0,1-5.869-4.672c-.615-1.094-.2-2.027,1.139-1.924.87.067,1.418.73,2.155,1.114A16.087,16.087,0,0,0,932.731,46.448Z" fill="url(#linear-gradient-12)"/>
      <g id="Group_1158" data-name="Group 1158">
        <path id="Path_1671" data-name="Path 1671" d="M952.714,39.272a5.22,5.22,0,0,0,2.265.563c.938,0,1.433-.389,1.433-.979,0-.562-.429-.884-1.514-1.272-1.5-.522-2.478-1.353-2.478-2.666,0-1.541,1.286-2.72,3.416-2.72a5.53,5.53,0,0,1,2.3.456l-.455,1.648a4.3,4.3,0,0,0-1.889-.429c-.884,0-1.313.4-1.313.871,0,.576.509.83,1.675,1.272,1.594.59,2.344,1.42,2.344,2.693,0,1.514-1.165,2.8-3.644,2.8a5.913,5.913,0,0,1-2.559-.549Z" fill="url(#linear-gradient-13)"/>
        <path id="Path_1672" data-name="Path 1672" d="M962.028,32.949v1.875h1.461v1.5h-1.461V38.7c0,.79.188,1.152.8,1.152a3.292,3.292,0,0,0,.6-.054l.014,1.541a4,4,0,0,1-1.326.174,2.119,2.119,0,0,1-1.528-.562A2.718,2.718,0,0,1,960.032,39v-2.68h-.87v-1.5h.87V33.4Z" fill="url(#linear-gradient-13)"/>
        <path id="Path_1673" data-name="Path 1673" d="M970.846,39.272c0,.857.027,1.554.054,2.1h-1.769l-.093-.924H969a2.336,2.336,0,0,1-2.049,1.072c-1.327,0-2.3-.831-2.3-2.854V34.824h2.05v3.524c0,.951.308,1.527,1.018,1.527a1.1,1.1,0,0,0,1.019-.71,1.148,1.148,0,0,0,.067-.442v-3.9h2.049Z" fill="url(#linear-gradient-13)"/>
        <path id="Path_1674" data-name="Path 1674" d="M978.834,31.863v7.556c0,.737.027,1.514.054,1.956h-1.809l-.094-.964h-.027a2.287,2.287,0,0,1-2.049,1.112c-1.554,0-2.8-1.327-2.8-3.363-.014-2.21,1.366-3.483,2.934-3.483a2,2,0,0,1,1.728.737h.027V31.863ZM976.8,37.6a3.372,3.372,0,0,0-.027-.361,1.224,1.224,0,0,0-1.193-1.005c-.924,0-1.406.831-1.406,1.862,0,1.112.549,1.809,1.393,1.809a1.194,1.194,0,0,0,1.179-.978,1.746,1.746,0,0,0,.054-.469Z" fill="url(#linear-gradient-13)"/>
        <path id="Path_1675" data-name="Path 1675" d="M982.039,38.75c.067.844.9,1.246,1.849,1.246a5.749,5.749,0,0,0,1.809-.269l.268,1.381a6.487,6.487,0,0,1-2.371.4,3.144,3.144,0,0,1-3.5-3.335,3.282,3.282,0,0,1,3.309-3.5c2.117,0,2.92,1.647,2.92,3.269a4.823,4.823,0,0,1-.067.8Zm2.4-1.394a1.182,1.182,0,0,0-1.152-1.326,1.337,1.337,0,0,0-1.259,1.326Z" fill="url(#linear-gradient-13)"/>
        <path id="Path_1676" data-name="Path 1676" d="M987.549,36.914c0-.817-.027-1.514-.054-2.09h1.769l.094.9h.04a2.4,2.4,0,0,1,2.023-1.045c1.339,0,2.344.884,2.344,2.813v3.885h-2.036v-3.63c0-.844-.295-1.421-1.032-1.421a1.087,1.087,0,0,0-1.031.764,1.392,1.392,0,0,0-.081.509v3.778h-2.036Z" fill="url(#linear-gradient-13)"/>
        <path id="Path_1677" data-name="Path 1677" d="M997.6,32.949v1.875h1.46v1.5H997.6V38.7c0,.79.188,1.152.8,1.152a3.3,3.3,0,0,0,.6-.054l.013,1.541a4,4,0,0,1-1.326.174,2.115,2.115,0,0,1-1.527-.562A2.718,2.718,0,0,1,995.6,39v-2.68h-.871v-1.5h.871V33.4Z" fill="url(#linear-gradient-13)"/>
        <path id="Path_1678" data-name="Path 1678" d="M1000.228,39.594a3.989,3.989,0,0,0,1.755.495c.616,0,.871-.214.871-.549s-.2-.5-.965-.75c-1.353-.456-1.875-1.193-1.862-1.97,0-1.219,1.045-2.143,2.666-2.143a4.395,4.395,0,0,1,1.849.375l-.362,1.407a3.211,3.211,0,0,0-1.42-.376c-.5,0-.777.2-.777.536,0,.308.254.469,1.058.751,1.246.428,1.769,1.058,1.782,2.023,0,1.219-.964,2.116-2.84,2.116a4.638,4.638,0,0,1-2.117-.455Z" fill="url(#linear-gradient-13)"/>
      </g>
      <g id="Group_1159" data-name="Group 1159">
        <path id="Path_1679" data-name="Path 1679" d="M933.369,22.286a.453.453,0,0,0-.55-.327l-2.054.524a.453.453,0,0,0,.112.892.484.484,0,0,0,.112-.014l2.053-.524A.452.452,0,0,0,933.369,22.286Z" fill="url(#linear-gradient-10)"/>
        <path id="Path_1680" data-name="Path 1680" d="M936.671,22.837l2.054.524a.478.478,0,0,0,.112.014.453.453,0,0,0,.111-.892l-2.053-.524a.453.453,0,1,0-.224.878Z" fill="url(#linear-gradient-10)"/>
        <path id="Path_1681" data-name="Path 1681" d="M931.706,24.371v.5a.453.453,0,0,0,.906,0v-.5a.453.453,0,0,0-.906,0Z" fill="url(#linear-gradient-10)"/>
        <path id="Path_1682" data-name="Path 1682" d="M937.555,23.918a.453.453,0,0,0-.453.453v.5a.453.453,0,0,0,.906,0v-.5A.453.453,0,0,0,937.555,23.918Z" fill="url(#linear-gradient-10)"/>
        <path id="Path_1683" data-name="Path 1683" d="M934.857,27.156a1.472,1.472,0,0,0,1.044-.432.453.453,0,0,0-.64-.64.573.573,0,0,1-.808,0,.453.453,0,0,0-.641.64A1.474,1.474,0,0,0,934.857,27.156Z" fill="url(#linear-gradient-10)"/>
        <path id="Path_1684" data-name="Path 1684" d="M934.413,29.031a2.123,2.123,0,0,1-1.922-1.251.453.453,0,0,0-.866.265,2.985,2.985,0,0,0,2.689,1.887l.05,0a.453.453,0,0,0,.049-.9Z" fill="url(#linear-gradient-10)"/>
        <path id="Path_1685" data-name="Path 1685" d="M940.093,30.909a7.437,7.437,0,0,0,1.254-1.664,1.53,1.53,0,0,0,.427.06c1.376,0,2.6-1.724,2.6-3.083a2.538,2.538,0,0,0-.714-1.837V18.322a6.812,6.812,0,0,0-1.19-3.856.453.453,0,0,0-.748.511,5.917,5.917,0,0,1,1.033,3.345v5.53a2.323,2.323,0,0,0-.492-.088V20.788a.453.453,0,0,0-.906,0v.489c-1.77-.117-8.163-.782-11.435-4.345a.471.471,0,0,0-.131-.1.455.455,0,0,0-.546.11,7.4,7.4,0,0,0-1.794,4.832v1.989a2.378,2.378,0,0,0-.382.058V16.383a1.511,1.511,0,0,1,1.957-1.444.453.453,0,0,0,.566-.3,4.81,4.81,0,0,1,6.342-3.037l3.049,1.192a5.923,5.923,0,0,1,1.549.9.453.453,0,0,0,.566-.707,6.841,6.841,0,0,0-1.786-1.032l-3.048-1.192a5.717,5.717,0,0,0-7.4,3.221,2.418,2.418,0,0,0-2.7,2.4v7.9a2.506,2.506,0,0,0-.823,1.938c0,1.359,1.224,3.083,2.6,3.083a1.527,1.527,0,0,0,.431-.061,7.447,7.447,0,0,0,4.04,3.419v1.671l-2.227,1.291a.453.453,0,0,0,.228.845.458.458,0,0,0,.227-.061l.457-.265.518,2.586a.454.454,0,0,0,.281.334.457.457,0,0,0,.431-.057l2.078-1.525v2.9a.453.453,0,0,0,.906,0v-2.9l2.077,1.525a.453.453,0,0,0,.712-.277l.518-2.586,2.634,1.526.737,2.821a.453.453,0,0,0,.438.339.46.46,0,0,0,.115-.015.452.452,0,0,0,.323-.553l-.785-3a.451.451,0,0,0-.211-.278L937.3,34.335V32.666A7.358,7.358,0,0,0,940.093,30.909Zm3.375-4.687c0,.9-.876,2.177-1.694,2.177h-.027a7.453,7.453,0,0,0,.321-1.027c.1-.356.371-.936.66-.936a.453.453,0,1,0,0-.906,1.151,1.151,0,0,0-.466.1v-.951A1.418,1.418,0,0,1,943.468,26.222ZM927.94,28.4c-.818,0-1.694-1.278-1.694-2.177a1.418,1.418,0,0,1,1.205-1.547v.95a1.164,1.164,0,0,0-.466-.1.453.453,0,1,0,0,.906c.311,0,.6.658.68,1.01l0,.011a7.33,7.33,0,0,0,.3.942Zm.417-2.726v-3.9a6.5,6.5,0,0,1,1.264-3.852,15.465,15.465,0,0,0,7.469,3.64,26.993,26.993,0,0,0,4.267.624v3.486a6.5,6.5,0,0,1-13,0Zm3.567,9.991.6-.346A2.461,2.461,0,0,0,933.8,36.8l-1.438,1.055Zm5.426,2.192L935.913,36.8a2.459,2.459,0,0,0,1.281-1.483l.6.346Zm-.953-3.289a.361.361,0,0,0,0,.046,1.54,1.54,0,0,1-3.08-.018V32.917a7.468,7.468,0,0,0,3.08,0Z" fill="url(#linear-gradient-10)"/>
        <path id="Path_1686" data-name="Path 1686" d="M928.849,36.4l-1,.582a.452.452,0,0,0-.211.278l-.785,3a.452.452,0,0,0,.323.553.46.46,0,0,0,.115.015.453.453,0,0,0,.438-.339l.738-2.821.841-.487a.453.453,0,0,0-.455-.784Z" fill="url(#linear-gradient-10)"/>
      </g>
    </g>
  </g>
</svg>
