<svg xmlns="http://www.w3.org/2000/svg" width="186.293" height="114.682" viewBox="0 0 186.293 114.682">
  <g id="Group_1530" data-name="Group 1530" transform="translate(-8327.506 -6766.405)">
    <g id="Group_1514" data-name="Group 1514">
      <path id="Path_2846" data-name="Path 2846" d="M8345.827,6873.134a12.309,12.309,0,0,1-1.365-5.829,17.971,17.971,0,0,1,15.2-17.127c7.379-1.186,14.484,2.88,15.687,10.37l-7.487,1.134c-1.148-3.056-4.592-4.694-8.2-4.134-5.029.781-8.09,4.946-8.09,8.471,0,3.25,2.35,5.939,8.09,5.1l15.9-2.311v7.456l-34.436,4.818v-7.27Z" fill="#fff"/>
      <path id="Path_2847" data-name="Path 2847" d="M8386.5,6874.739v-7.515l16.451-2.391v-31.9l7.27-1.221v32.069l2.3-.334v7.656Zm10.221-13.271-7.27,1.079-2.516-26.927,7.271-1.221Z" fill="#fff"/>
      <path id="Path_2848" data-name="Path 2848" d="M8412.513,6863.443l3.607-.524a13.993,13.993,0,0,1-1.367-6.2c0-7.611,5.63-16.3,15.2-17.836a13.364,13.364,0,0,1,15.906,12.823v6.893l2.3-.334v7.849l-18.585,2.541c-4.428.62-7.762-.245-10.166-1.931v3.413l-6.888.963Zm26.072-3.789c0-4.221.767-8.91-2.513-11.573a7.622,7.622,0,0,0-6.123-1.448,9.469,9.469,0,0,0-8.089,8.963c0,3.3,2.459,6.131,8.144,5.3Z" fill="#fff"/>
      <path id="Path_2849" data-name="Path 2849" d="M8448.151,6858.264l4.482-.651a14.11,14.11,0,0,1-2.187-7.189v-14.778l31.7-5.093v15.1a17.736,17.736,0,0,1-2.186,7.987l4.481-.651v8.045l-36.295,5.078Zm19.3-2.8a10.45,10.45,0,0,0,7.487-9.623c0-2.1-.055-4.018-.055-6.122l-17.163,2.664c-.929,6.319.656,13.745,7.435,13.415Z" fill="#fff"/>
      <path id="Path_2850" data-name="Path 2850" d="M8484.446,6861.035v-8.045l2.3-.334V6818.85l7.269-1.222V6859.7Z" fill="#fff"/>
      <path id="Path_2851" data-name="Path 2851" d="M8513.8,6856.929l-7.27,1.017v-42.483l7.27-1.222Z" fill="#fff"/>
      <g id="Group_1513" data-name="Group 1513">
        <path id="Path_2852" data-name="Path 2852" d="M8399.833,6816.359a16.163,16.163,0,0,1-1.365-6.743c0-8.332,5.63-17.819,15.2-19.356,7.379-1.186,14.484,3.654,15.687,12.283l-7.487,1.133a7.288,7.288,0,0,0-8.2-4.94,9.881,9.881,0,0,0-8.09,9.561c0,3.74,2.349,6.887,8.09,6.052l15.905-2.311v8.562l-34.437,4.818v-8.376Z" fill="#fff"/>
        <path id="Path_2853" data-name="Path 2853" d="M8441.906,6817.962l-7.271,1.017V6774.1l7.271-1.222Z" fill="#fff"/>
        <path id="Path_2854" data-name="Path 2854" d="M8461.2,6809c0,10.219-6.45,20.035-14.814,21.138v-8.688c4.374-.6,7.544-5.893,7.544-11.405v-27.239l7.271-1.168Z" fill="#fff"/>
        <path id="Path_2855" data-name="Path 2855" d="M8480.439,6812.571l-7.271,1.017v-45.961l7.271-1.222Z" fill="#fff"/>
      </g>
    </g>
    <g id="Group_1529" data-name="Group 1529">
      <g id="Group_1516" data-name="Group 1516">
        <g id="Group_1515" data-name="Group 1515">
          <path id="Path_2856" data-name="Path 2856" d="M8379.566,6777.611h-51.178a.884.884,0,0,0-.883.882h0v17.648h1.766v-16.765h49.411v19.412H8347.8v1.764h31.766a.88.88,0,0,0,.882-.881h0v-21.177A.883.883,0,0,0,8379.566,6777.611Z" fill="#fff"/>
        </g>
      </g>
      <g id="Group_1518" data-name="Group 1518">
        <g id="Group_1517" data-name="Group 1517">
          <rect id="Rectangle_451" data-name="Rectangle 451" width="17.647" height="1.765" transform="translate(8356.624 6782.023)" fill="#fff"/>
        </g>
      </g>
      <g id="Group_1520" data-name="Group 1520">
        <g id="Group_1519" data-name="Group 1519">
          <rect id="Rectangle_452" data-name="Rectangle 452" width="17.647" height="1.765" transform="translate(8359.271 6787.317)" fill="#fff"/>
        </g>
      </g>
      <g id="Group_1522" data-name="Group 1522">
        <g id="Group_1521" data-name="Group 1521">
          <rect id="Rectangle_453" data-name="Rectangle 453" width="17.647" height="1.765" transform="translate(8355.742 6792.611)" fill="#fff"/>
        </g>
      </g>
      <g id="Group_1524" data-name="Group 1524">
        <g id="Group_1523" data-name="Group 1523">
          <path id="Path_2857" data-name="Path 2857" d="M8355.672,6785.219a2.847,2.847,0,0,0-3.723-1.536l-.074.032-7.155,3.712a4.411,4.411,0,1,0-7.484.772h-.037a6.054,6.054,0,0,0-5.624,3.918l-2.356,8.118a2.827,2.827,0,1,0,5.308,1.944l.923-2.936v12.77a4.4,4.4,0,0,0-5.727,6.658,4.066,4.066,0,0,0-2.216,3.6v7.394a.883.883,0,0,0,.882.883h8.824a.882.882,0,0,0,.883-.882h0v-7.394a4.058,4.058,0,0,0-1.575-3.194h6.68a4.058,4.058,0,0,0-1.575,3.194v7.394a.882.882,0,0,0,.882.883h8.824a.883.883,0,0,0,.883-.882h0v-7.394a4.066,4.066,0,0,0-2.216-3.6,4.408,4.408,0,0,0-3.961-7.474v-18.05l8.1-4.206A2.847,2.847,0,0,0,8355.672,6785.219Zm-14.93-2.314a2.647,2.647,0,1,1-2.647,2.647A2.647,2.647,0,0,1,8340.742,6782.9Zm-7.941,29.968a2.647,2.647,0,1,1-2.647,2.647A2.647,2.647,0,0,1,8332.8,6812.873Zm3.529,15.915h-7.059v-6.512a2.315,2.315,0,0,1,2.312-2.312h2.435a2.316,2.316,0,0,1,2.313,2.312Zm14.118-6.512v6.512h-7.06v-6.512a2.316,2.316,0,0,1,2.313-2.312h2.434A2.316,2.316,0,0,1,8350.448,6822.276Zm-3.53-9.4a2.647,2.647,0,1,1-2.646,2.647A2.649,2.649,0,0,1,8346.918,6812.873Zm7.139-26.182a1.132,1.132,0,0,1-.666.653l-8.644,4.484a.883.883,0,0,0-.476.783v19.4a4.352,4.352,0,0,0-1.373,5.3h-1.274v-15h-1.765v15h-3.038a4.361,4.361,0,0,0,.388-1.764h0v-22.059a.882.882,0,0,0-1.724-.265l-2.635,8.384a1.06,1.06,0,0,1-1.358.636c-.039-.014-.076-.031-.113-.049a1.084,1.084,0,0,1-.493-1.4l2.355-8.119a4.265,4.265,0,0,1,3.954-2.716h6.248a.881.881,0,0,0,.405-.1l8.771-4.552a1.086,1.086,0,0,1,1.389.514A1.074,1.074,0,0,1,8354.057,6786.691Z" fill="#fff"/>
        </g>
      </g>
      <g id="Group_1526" data-name="Group 1526">
        <g id="Group_1525" data-name="Group 1525">
          <path id="Path_2858" data-name="Path 2858" d="M8364.115,6818.671a4.412,4.412,0,1,0-6.239-.082c.027.028.054.055.082.082a4.06,4.06,0,0,0-2.216,3.6v7.394a.882.882,0,0,0,.882.883h8.824a.883.883,0,0,0,.882-.882h0v-7.394A4.063,4.063,0,0,0,8364.115,6818.671Zm-3.079-5.8a2.647,2.647,0,1,1-2.647,2.647A2.647,2.647,0,0,1,8361.036,6812.873Zm3.53,15.915h-7.06v-6.512a2.316,2.316,0,0,1,2.313-2.312h2.434a2.316,2.316,0,0,1,2.313,2.312Z" fill="#fff"/>
        </g>
      </g>
      <g id="Group_1528" data-name="Group 1528">
        <g id="Group_1527" data-name="Group 1527">
          <path id="Path_2859" data-name="Path 2859" d="M8378.233,6818.671a4.412,4.412,0,1,0-6.239-.082l.081.082a4.061,4.061,0,0,0-2.215,3.6v7.394a.882.882,0,0,0,.882.883h8.824a.883.883,0,0,0,.882-.882h0v-7.394A4.063,4.063,0,0,0,8378.233,6818.671Zm-3.079-5.8a2.647,2.647,0,1,1-2.647,2.647A2.647,2.647,0,0,1,8375.154,6812.873Zm3.528,15.915h-7.058v-6.512a2.315,2.315,0,0,1,2.312-2.312h2.435a2.314,2.314,0,0,1,2.312,2.312Z" fill="#fff"/>
        </g>
      </g>
    </g>
  </g>
</svg>
