<svg xmlns="http://www.w3.org/2000/svg" width="24.146" height="23.14" viewBox="0 0 24.146 23.14">
  <g id="Group_1897" data-name="Group 1897" transform="translate(-1511.681 -1647.153)">
    <g id="Group_1896" data-name="Group 1896">
      <path id="Path_1944" data-name="Path 1944" d="M1532.054,1664.508h-2.766a.755.755,0,0,1-.755-.754v-2.767a.755.755,0,1,1,1.509,0V1663h2.012a.755.755,0,1,1,0,1.509Z" fill="#0ee218"/>
      <path id="Path_1945" data-name="Path 1945" d="M1529.288,1670.293a6.539,6.539,0,1,1,6.539-6.539A6.547,6.547,0,0,1,1529.288,1670.293Zm0-11.57a5.031,5.031,0,1,0,5.03,5.031A5.037,5.037,0,0,0,1529.288,1658.723Z" fill="#0ee218"/>
      <path id="Path_1946" data-name="Path 1946" d="M1520.987,1661.238h-7.043a2.266,2.266,0,0,1-2.263-2.263v-9.558a2.266,2.266,0,0,1,2.263-2.264h17.607a2.266,2.266,0,0,1,2.264,2.264v6.036a.754.754,0,1,1-1.509,0v-6.036a.756.756,0,0,0-.755-.755h-17.607a.755.755,0,0,0-.754.755v9.558a.755.755,0,0,0,.754.754h7.043a.755.755,0,1,1,0,1.509Z" fill="#0ee218"/>
      <path id="Path_1947" data-name="Path 1947" d="M1522.749,1656.034a2.638,2.638,0,0,1-1.184-.279l-9.465-4.686a.754.754,0,0,1,.67-1.352l9.468,4.688a1.167,1.167,0,0,0,1.017,0l9.47-4.689a.754.754,0,1,1,.67,1.352l-9.467,4.688a2.64,2.64,0,0,1-1.179.277Z" fill="#0ee218"/>
    </g>
  </g>
</svg>
