<svg xmlns="http://www.w3.org/2000/svg" xmlns:xlink="http://www.w3.org/1999/xlink" width="104.662" height="92.652" viewBox="0 0 104.662 92.652">
  <defs>
    <clipPath id="clip-path">
      <rect width="104.662" height="92.652" fill="none"/>
    </clipPath>
  </defs>
  <g id="Group_1229" data-name="Group 1229" transform="translate(-327.174 -171.443)">
    <g id="Group_1228" data-name="Group 1228" transform="translate(-5651.667)">
      <g id="Repeat_Grid_1" data-name="Repeat Grid 1" transform="translate(5978.84 171.443)" clip-path="url(#clip-path)">
        <g transform="translate(-5978.84 -171.443)">
          <path id="Path_203" data-name="Path 203" d="M5982.166,253.277l44.2-76.561a5.545,5.545,0,0,1,9.6,0l44.2,76.561a5.545,5.545,0,0,1-4.8,8.318h-88.406A5.546,5.546,0,0,1,5982.166,253.277Z" fill="#f7c90b" stroke="#000" stroke-miterlimit="10" stroke-width="5"/>
        </g>
      </g>
      <g id="Group_130" data-name="Group 130">
        <path id="Path_204" data-name="Path 204" d="M6027.2,243.782a3.807,3.807,0,0,1,3.831-4.025,4.03,4.03,0,0,1,0,8.05A3.806,3.806,0,0,1,6027.2,243.782Zm1.624-9.284-.91-31.162h6.233l-.909,31.162Z"/>
      </g>
    </g>
  </g>
</svg>
