<svg id="appointment" xmlns="http://www.w3.org/2000/svg" width="88.648" height="88.648" viewBox="0 0 88.648 88.648">
  <g id="Group_1904" data-name="Group 1904">
    <g id="Group_1903" data-name="Group 1903">
      <path id="Path_3299" data-name="Path 3299" d="M79.991,7.618H71.738V5.194a5.194,5.194,0,1,0-10.388,0V7.618H32.262V5.194a5.194,5.194,0,0,0-10.388,0V7.682a1.728,1.728,0,0,0-.462-.064h-6.9a8.667,8.667,0,0,0-8.657,8.657V45.767a1.731,1.731,0,0,0,3.463,0V25.452H71.738a1.731,1.731,0,1,0,0-3.463H9.319V16.275a5.2,5.2,0,0,1,5.194-5.194h6.9a1.735,1.735,0,0,0,.462-.064v2.228a5.194,5.194,0,1,0,10.388,0V11.081H61.35v2.164a5.194,5.194,0,1,0,10.388,0V11.081h8.253a5.2,5.2,0,0,1,5.194,5.194V82.068a3.118,3.118,0,1,1-6.235,0V77.589a1.731,1.731,0,0,0-1.731-1.731H57.079a1.731,1.731,0,0,0,0,3.463H75.488v2.748a6.54,6.54,0,0,0,.787,3.118H6.579a3.12,3.12,0,0,1-3.117-3.117V79.32H42.216a1.731,1.731,0,0,0,0-3.463h-17.3a14.2,14.2,0,1,0-18.5,0H1.731A1.731,1.731,0,0,0,0,77.589v4.48a6.587,6.587,0,0,0,6.579,6.579H82.068a6.588,6.588,0,0,0,6.58-6.58V16.275A8.667,8.667,0,0,0,79.991,7.618ZM28.8,13.245a1.731,1.731,0,1,1-3.463,0V5.194a1.731,1.731,0,1,1,3.463,0Zm39.476,0a1.731,1.731,0,1,1-3.463,0V5.194a1.731,1.731,0,1,1,3.463,0ZM4.931,65.1A10.735,10.735,0,1,1,15.666,75.836,10.747,10.747,0,0,1,4.931,65.1Z" fill="#2ba288"/>
    </g>
  </g>
  <g id="Group_1906" data-name="Group 1906" transform="translate(78.128 21.989)">
    <g id="Group_1905" data-name="Group 1905">
      <path id="Path_3300" data-name="Path 3300" d="M454.2,127.507a1.73,1.73,0,1,0,.508,1.224A1.744,1.744,0,0,0,454.2,127.507Z" transform="translate(-451.24 -127)" fill="#2ba288"/>
    </g>
  </g>
  <g id="Group_1908" data-name="Group 1908" transform="translate(48.753 75.858)">
    <g id="Group_1907" data-name="Group 1907">
      <path id="Path_3301" data-name="Path 3301" d="M284.535,438.635a1.732,1.732,0,1,0,.508,1.224A1.742,1.742,0,0,0,284.535,438.635Z" transform="translate(-281.58 -438.13)" fill="#2ba288"/>
    </g>
  </g>
  <g id="Group_1910" data-name="Group 1910" transform="translate(32.593 52.635)">
    <g id="Group_1909" data-name="Group 1909">
      <path id="Path_3302" data-name="Path 3302" d="M194.824,304a6.579,6.579,0,1,0,6.579,6.579A6.587,6.587,0,0,0,194.824,304Zm0,9.7a3.117,3.117,0,1,1,3.117-3.117A3.12,3.12,0,0,1,194.824,313.7Z" transform="translate(-188.245 -304)" fill="#2ba288"/>
    </g>
  </g>
  <g id="Group_1912" data-name="Group 1912" transform="translate(48.753 52.635)">
    <g id="Group_1911" data-name="Group 1911">
      <path id="Path_3303" data-name="Path 3303" d="M288.157,304a6.579,6.579,0,1,0,6.579,6.579A6.587,6.587,0,0,0,288.157,304Zm0,9.7a3.117,3.117,0,1,1,3.117-3.117A3.12,3.12,0,0,1,288.157,313.7Z" transform="translate(-281.578 -304)" fill="#2ba288"/>
    </g>
  </g>
  <g id="Group_1914" data-name="Group 1914" transform="translate(64.913 52.635)">
    <g id="Group_1913" data-name="Group 1913">
      <path id="Path_3304" data-name="Path 3304" d="M381.491,304a6.579,6.579,0,1,0,6.579,6.579A6.587,6.587,0,0,0,381.491,304Zm0,9.7a3.117,3.117,0,1,1,3.117-3.117A3.12,3.12,0,0,1,381.491,313.7Z" transform="translate(-374.912 -304)" fill="#2ba288"/>
    </g>
  </g>
  <g id="Group_1916" data-name="Group 1916" transform="translate(16.433 34.628)">
    <g id="Group_1915" data-name="Group 1915">
      <path id="Path_3305" data-name="Path 3305" d="M101.491,200a6.579,6.579,0,1,0,6.579,6.579A6.587,6.587,0,0,0,101.491,200Zm0,9.7a3.117,3.117,0,1,1,3.117-3.117A3.12,3.12,0,0,1,101.491,209.7Z" transform="translate(-94.912 -200)" fill="#2ba288"/>
    </g>
  </g>
  <g id="Group_1918" data-name="Group 1918" transform="translate(48.753 34.628)">
    <g id="Group_1917" data-name="Group 1917">
      <path id="Path_3306" data-name="Path 3306" d="M288.157,200a6.579,6.579,0,1,0,6.579,6.579A6.587,6.587,0,0,0,288.157,200Zm0,9.7a3.117,3.117,0,1,1,3.117-3.117A3.12,3.12,0,0,1,288.157,209.7Z" transform="translate(-281.578 -200)" fill="#2ba288"/>
    </g>
  </g>
  <g id="Group_1920" data-name="Group 1920" transform="translate(64.913 34.628)">
    <g id="Group_1919" data-name="Group 1919">
      <path id="Path_3307" data-name="Path 3307" d="M381.491,200a6.579,6.579,0,1,0,6.579,6.579A6.587,6.587,0,0,0,381.491,200Zm0,9.7a3.117,3.117,0,1,1,3.117-3.117A3.12,3.12,0,0,1,381.491,209.7Z" transform="translate(-374.912 -200)" fill="#2ba288"/>
    </g>
  </g>
  <g id="Group_1922" data-name="Group 1922" transform="translate(32.593 34.628)">
    <g id="Group_1921" data-name="Group 1921">
      <path id="Path_3308" data-name="Path 3308" d="M194.824,200a6.579,6.579,0,1,0,6.579,6.579A6.587,6.587,0,0,0,194.824,200Zm0,9.7a3.117,3.117,0,1,1,3.117-3.117A3.12,3.12,0,0,1,194.824,209.7Z" transform="translate(-188.245 -200)" fill="#2ba288"/>
    </g>
  </g>
  <g id="Group_1924" data-name="Group 1924" transform="translate(8.864 60.374)">
    <g id="Group_1923" data-name="Group 1923">
      <path id="Path_3309" data-name="Path 3309" d="M64.164,349.207a1.732,1.732,0,0,0-2.449,0l-5.639,5.639-1.927-1.927a1.732,1.732,0,0,0-2.449,2.449l3.151,3.151a1.731,1.731,0,0,0,2.449,0l6.863-6.863A1.731,1.731,0,0,0,64.164,349.207Z" transform="translate(-51.194 -348.7)" fill="#2ba288"/>
    </g>
  </g>
</svg>
