<svg xmlns="http://www.w3.org/2000/svg" xmlns:xlink="http://www.w3.org/1999/xlink" width="199.803" height="140.795" viewBox="0 0 199.803 140.795">
  <defs>
    <linearGradient id="linear-gradient" x1="-10.725" y1="4.165" x2="-9.995" y2="4.598" gradientUnits="objectBoundingBox">
      <stop offset="0" stop-color="#4654a3"/>
      <stop offset="0.35" stop-color="#384692"/>
      <stop offset="1" stop-color="#18256b"/>
    </linearGradient>
    <linearGradient id="linear-gradient-2" x1="9.961" y1="-8.005" x2="11.702" y2="-8.005" gradientUnits="objectBoundingBox">
      <stop offset="0" stop-color="#4654a3"/>
      <stop offset="0.52" stop-color="#3a4892"/>
      <stop offset="1" stop-color="#2d3a80"/>
    </linearGradient>
    <linearGradient id="linear-gradient-3" x1="-8.259" y1="4.009" x2="-7.487" y2="4.009" gradientUnits="objectBoundingBox">
      <stop offset="0" stop-color="#f9df18"/>
      <stop offset="1" stop-color="#4dc106"/>
    </linearGradient>
    <linearGradient id="linear-gradient-4" x1="-17.778" y1="9.282" x2="-18.157" y2="8.199" xlink:href="#linear-gradient-3"/>
  </defs>
  <g id="asddwe" transform="translate(0 -90.713)">
    <path id="Path_980" data-name="Path 980" d="M2930.715,176.8a177.314,177.314,0,0,0,4.154-24.379,15.337,15.337,0,0,0-.2-5.848,11.73,11.73,0,0,0-4.4-5.755,21.519,21.519,0,0,0-7.66-3.706,2.231,2.231,0,0,0-2.078.2,1.543,1.543,0,0,0-.287,1.632,3.976,3.976,0,0,0,1.028,1.4,38.2,38.2,0,0,1,3.8,3.772,5.866,5.866,0,0,1,1.3,5,15.6,15.6,0,0,0-3.43-3.321,2.176,2.176,0,0,0-.865-.45.813.813,0,0,0-.859.335,1.208,1.208,0,0,0,.123,1.062,42.746,42.746,0,0,0,4.913,8.161,14.384,14.384,0,0,1-1.418,6.5c-.821,2-1.876,3.9-2.665,5.911a12.571,12.571,0,0,0-1,6.333,6.472,6.472,0,0,0,3.569,5.077C2926.719,179.585,2930.2,178.9,2930.715,176.8Z" transform="translate(-2802)" fill="#ffb77d"/>
    <path id="Path_981" data-name="Path 981" d="M2930.715,176.8c.794-3.264,1.471-6.555,2.078-9.859a12.5,12.5,0,0,1-5.2-1.424,18.416,18.416,0,0,1-3.5-2.456c-.659,1.416-1.367,2.811-1.937,4.265a12.571,12.571,0,0,0-1,6.333,6.474,6.474,0,0,0,3.569,5.077C2926.719,179.585,2930.2,178.9,2930.715,176.8Z" transform="translate(-2802)" fill="#f0974f"/>
    <g id="Group_509" data-name="Group 509" transform="translate(-2802)">
      <path id="Path_982" data-name="Path 982" d="M2881.854,186.239a216.028,216.028,0,0,0-24.1-52.3c-3.913-6.163-8.6-12.486-15.51-14.843-7.017-2.392-14.7-.145-21.656,2.42Q2811.132,125,2802,129.289v24.058c5.976-2.354,11.866-4.9,18.063-8.064,16.739,13.8,34.191,27.152,50.931,40.955,1.881,1.552,3.9,3.164,6.314,3.495S2882.571,188.57,2881.854,186.239Z" fill="url(#linear-gradient)"/>
    </g>
    <path id="Path_983" data-name="Path 983" d="M2899.116,209.332c-1.239-5.189-2.724-10.39-5.4-15.009s-56.354-50-60.658-52.625c-3.762-2.3-15.759-7.635-31.063-13.255v20.48c6.746,3.471,13.076,6.064,19.684,6.9,27.232,29.493,22.474,49.292,57.341,71.456,2.7,1.713,6.067,2.176,9.259,2.254a12.018,12.018,0,0,0,8.783-3.119,12.275,12.275,0,0,0,3.243-8.185A32.3,32.3,0,0,0,2899.116,209.332Z" transform="translate(-2802)" fill="url(#linear-gradient-2)"/>
    <path id="Path_985" data-name="Path 985" d="M2983.654,149.537c-5.18,6.978-5.987,19.793-8.119,28.218a22.3,22.3,0,0,1-14.04-10.427c1.283-2.806,8.3-11.282,8.652-14.346,4.3-.88.244-6.685,4.546-7.566C2977.767,144.787,2980.579,150.166,2983.654,149.537Z" transform="translate(-2802)" fill="#ffb77d"/>
    <path id="Path_986" data-name="Path 986" d="M2892.245,184.009c-3.662-1-9.09-3.123-11.551-.233-2.048,2.406-13.866,47.04,18.7,47.713,42.929.887,67.418-28.764,77.255-50.632,1.019-2.266-.714-6-1.754-6.85-18.485-15.119-35.194-1.13-40.13,2.148C2913.074,190.564,2908.619,188.477,2892.245,184.009Z" transform="translate(-2802)" fill="url(#linear-gradient-3)"/>
    <path id="Path_987" data-name="Path 987" d="M2926.553,181.292c-7.4,4.265-12.434,5.921-17.328,6.033,7.757,5.81,16.526,10.32,26.05,11.8a39.934,39.934,0,0,0,13.572-.228c3.811-.728,19.757-5.146,12.956-11.1-2.928-2.563-7.989-1.946-11.6-2.1a77.554,77.554,0,0,1-14.02-1.423C2932.907,183.523,2929.745,182.348,2926.553,181.292Z" transform="translate(-2802)" fill="#5f9e09" opacity="0.51"/>
    <g id="Group_510" data-name="Group 510" transform="translate(-2802)">
      <path id="Path_988" data-name="Path 988" d="M2959.4,171.3c-4.382-.135-8.658,1.181-12.928,2.173s-20.069,1.772-21.789-2.04c-8.77-19.433-15.967-24.529-18.724-36.7-2.852.1-4.71-.266-7.387,1.627,2.311,9.791,11.179,44.91,20.171,49.421,6.972,3.5,24.13,4.788,31.908,4.213a27.088,27.088,0,0,0,8.615-1.817,13.147,13.147,0,0,0,6.573-5.66,8.749,8.749,0,0,0,.039-8.457C2964.362,171.537,2962.348,171.4,2959.4,171.3Z" fill="#ffb77d"/>
      <path id="Path_989" data-name="Path 989" d="M2927.982,190.528c7.458,4.068,20.968,4.806,27.389,3.889a22.266,22.266,0,0,0,14.868-8.34,9.184,9.184,0,0,0,2.1-5.094c.116-2.921-1.787-6.073-4.509-8.26a21.071,21.071,0,0,0-9.535-4.07c-7.163-1.247-21.782.907-28.283,2.474C2926.482,176.842,2925.571,184.561,2927.982,190.528Z" fill="url(#linear-gradient-4)"/>
      <path id="Path_990" data-name="Path 990" d="M2909.041,126.889a14.751,14.751,0,0,0-3.511-5.1,14.519,14.519,0,0,0-6.483-4.179,2.507,2.507,0,0,0-2.187.213,1.907,1.907,0,0,0-.594,1.7,5.26,5.26,0,0,0,.632,1.759c.817,1.606,1.96,4.543,2.938,6.056-4.437,6.4-1.076,10.243-.092,11.429a4.846,4.846,0,0,0,4.633,1.458C2906.043,139.9,2910.246,130.167,2909.041,126.889Z" fill="#ffb77d"/>
    </g>
    <path id="Path_991" data-name="Path 991" d="M2965.025,161.9a4.945,4.945,0,0,0,3.431-.322,10.61,10.61,0,0,0,4.9-4.219,2.917,2.917,0,0,0,.492-1.284,1.213,1.213,0,0,0-.582-1.173c-1.006-.5-3.071.589-4.443,1.23C2967.808,157.9,2966.373,159.97,2965.025,161.9Z" transform="translate(-2802)" fill="#f0974f"/>
    <path id="Path_992" data-name="Path 992" d="M2963.453,133.709a52.4,52.4,0,0,0-4.865,11.423c-.611,1.917-1.186,3.957-.725,5.916a7.465,7.465,0,0,0,5.087,5.057,15.136,15.136,0,0,0,7.416.161,25.369,25.369,0,0,0,12.06-5.543,17.961,17.961,0,0,0,6.237-11.535,13.958,13.958,0,0,0-4.69-12.017,12.524,12.524,0,0,0-11.781-1.983C2968.473,126.417,2965.4,130.513,2963.453,133.709Z" transform="translate(-2802)" fill="#ffb77d"/>
    <path id="Path_993" data-name="Path 993" d="M2963.542,124.938c1.854,3.267,2.205,7.746,15.629,10.492-1.729,2.723-9.658,11.594,1.161,20.753,3.771-2.555,9.308-7.619,10.862-9.828a13.264,13.264,0,0,0,2.743-7.663c-.043-2.758-.787-5.259-3.338-6.309a8.371,8.371,0,0,0-7.05-9.545c-1.647-.225-3.311.119-4.965-.093C2977.086,122.553,2962.809,123.645,2963.542,124.938Z" transform="translate(-2802)" fill="#0d0b30"/>
    <path id="Path_994" data-name="Path 994" d="M2970.961,111.594a7.505,7.505,0,0,0-8.429,2.073,9.829,9.829,0,0,0-1.877,8.743,14.4,14.4,0,0,0,5.121,7.562,27.425,27.425,0,0,0,8.205,4.275c3.009,1.052,6.387,1.8,9.325.566a7.57,7.57,0,0,0,4.391-5.271c.384-1.758.258-4.354-1.294-5.561-1.413-1.1-3.555-1.211-5.162-1.946-2.247-1.028-3.684-2.944-5.036-4.934C2974.784,115.008,2973.361,112.674,2970.961,111.594Z" transform="translate(-2802)" fill="#0d0b30"/>
    <path id="Path_995" data-name="Path 995" d="M2979.428,146.378a3.611,3.611,0,1,1-.458-5.376A3.829,3.829,0,0,1,2979.428,146.378Z" transform="translate(-2802)" fill="#ffb77d"/>
    <path id="Path_996" data-name="Path 996" d="M2983.581,118.825l-1.975-9.756,8.406,4.715,1.241-18.681,10.549,4.8-9.045,18.944-6.772-4.275Z" transform="translate(-2802)" fill="#fff"/>
    <path id="Path_997" data-name="Path 997" d="M2977.77,108.785l-4.519-5.506,6.9.163-5.477-12.228,8.279-.5.631,15.01-5.715-.433Z" transform="translate(-2802)" fill="#fff"/>
  </g>
</svg>
