<svg xmlns="http://www.w3.org/2000/svg" width="57.993" height="58.152" viewBox="0 0 57.993 58.152">
  <g id="Group_1158" data-name="Group 1158" transform="translate(-9753.958 -6553.077)">
    <path id="Path_2139" data-name="Path 2139" d="M9793.954,6582.229h-7.143a3.993,3.993,0,0,0-2.857-2.858v-10.142a1,1,0,0,0-2,0v10.142a3.991,3.991,0,1,0,4.857,4.858h7.143a1,1,0,0,0,0-2Zm-11,3a2,2,0,1,1,2-2A2,2,0,0,1,9782.954,6585.229Z"/>
    <path id="Path_2140" data-name="Path 2140" d="M9804.066,6562.84l4.1,4.1a1,1,0,0,0,1.414,0,8.121,8.121,0,1,0-11.485-11.485,1,1,0,0,0,0,1.414l4.562,4.561-1.7,1.7a26.935,26.935,0,0,0-36,0l-1.7-1.7,4.562-4.561a1,1,0,0,0,0-1.414,8.121,8.121,0,0,0-11.485,11.485,1,1,0,0,0,1.414,0l4.1-4.1,1.676,1.676a26.956,26.956,0,0,0,5.757,41.978l-3.028,3.028a1,1,0,1,0,1.414,1.414l3.45-3.45a26.935,26.935,0,0,0,23.686,0l3.45,3.45a1,1,0,0,0,1.414-1.414l-3.028-3.028a26.955,26.955,0,0,0,5.756-41.978Zm4.095-5.975a6.131,6.131,0,0,1,.648,7.893l-8.541-8.542A6.13,6.13,0,0,1,9808.161,6556.865Zm-51.063,7.892a6.122,6.122,0,0,1,8.541-8.541Zm25.856,43.472a25,25,0,1,1,25-25A25.028,25.028,0,0,1,9782.954,6608.229Z"/>
    <path id="Path_2141" data-name="Path 2141" d="M9802.836,6571.686a23.156,23.156,0,0,0-8.338-8.338c-.016-.011-.026-.028-.043-.038s-.037-.01-.055-.019a22.915,22.915,0,0,0-22.891,0c-.018.009-.038.008-.055.019s-.026.027-.043.038a23.149,23.149,0,0,0-8.338,8.338c-.011.017-.028.026-.038.043s-.01.037-.019.055a22.916,22.916,0,0,0,0,22.89c.01.018.009.037.019.055s.035.043.051.066a23.169,23.169,0,0,0,8.325,8.315c.016.011.026.028.043.038s.054.021.08.033a22.918,22.918,0,0,0,22.84,0c.026-.012.054-.018.08-.033s.026-.027.043-.038a23.162,23.162,0,0,0,8.325-8.315c.016-.023.037-.041.051-.066a.519.519,0,0,0,.018-.055,22.91,22.91,0,0,0,0-22.89c-.009-.018-.008-.037-.018-.055S9802.846,6571.7,9802.836,6571.686Zm-8.539,29.189-.477-.826a1,1,0,0,0-1.732,1l.479.829a20.849,20.849,0,0,1-8.612,2.3v-.949a1,1,0,0,0-2,0v.949a20.827,20.827,0,0,1-8.612-2.3l.479-.829a1,1,0,0,0-1.732-1l-.477.826a21.131,21.131,0,0,1-6.3-6.3l.826-.477a1,1,0,0,0-1-1.732l-.829.479a20.856,20.856,0,0,1-2.3-8.612h.949a1,1,0,0,0,0-2H9762a20.848,20.848,0,0,1,2.3-8.612l.829.479a1,1,0,1,0,1-1.732l-.826-.479a21.131,21.131,0,0,1,6.3-6.3l.477.826a1,1,0,0,0,1.732-1l-.479-.829a20.842,20.842,0,0,1,8.612-2.3v.949a1,1,0,0,0,2,0v-.949a20.827,20.827,0,0,1,8.612,2.3l-.479.829a1,1,0,0,0,1.732,1l.477-.826a21.117,21.117,0,0,1,6.3,6.3l-.825.477a1,1,0,0,0,1,1.732l.828-.479a20.842,20.842,0,0,1,2.3,8.612h-.949a1,1,0,0,0,0,2h.949a20.834,20.834,0,0,1-2.3,8.612l-.828-.479a1,1,0,1,0-1,1.732l.825.477A21.083,21.083,0,0,1,9794.3,6600.875Z"/>
  </g>
</svg>
