<svg xmlns="http://www.w3.org/2000/svg" width="270.979" height="127.298" viewBox="0 0 270.979 127.298">
  <g id="Group_2012" data-name="Group 2012" transform="translate(787.877 -75.935)">
    <path id="Path_3340" data-name="Path 3340" d="M-368.968,78.252v41.314h8.173V75.935Z" transform="translate(-156.102)" fill="#2bb788"/>
    <g id="Group_2011" data-name="Group 2011" transform="translate(-787.877 81.532)">
      <path id="Path_3341" data-name="Path 3341" d="M-745.661,156.147l-4.826,2.264a5.247,5.247,0,0,1-1.351-.12,5.75,5.75,0,0,1-1.481-.519,3.468,3.468,0,0,1-1.19-.989,2.337,2.337,0,0,1-.483-1.467,3.463,3.463,0,0,1,.708-1.935,3.45,3.45,0,0,1,2.381-1.322,3.289,3.289,0,0,1,2.9.723q1.286-1.325,2.22-2.267t1.577-1.573a4.79,4.79,0,0,0-2.639-1.706,7.955,7.955,0,0,0-2.831.013,10.171,10.171,0,0,0-3.025,1.115,12.931,12.931,0,0,0-2.992,2.24,12.37,12.37,0,0,0-2.284,3.115,8.013,8.013,0,0,0-.9,3.743,4.524,4.524,0,0,0,.225,1.317,5.519,5.519,0,0,0,.611,1.347,3.5,3.5,0,0,0,.934,1,2.132,2.132,0,0,0,1.255.4l-4.247,2.028v4.068l15.444-7.26Z" transform="translate(777.901 -108.056)" fill="#2bb788"/>
      <path id="Path_3342" data-name="Path 3342" d="M-784.209,179.515a11.061,11.061,0,0,0,4.055.8,26.208,26.208,0,0,0,5.02-.394l34.556-5.819,5.083-.856,1.931-.325,20.85-3.511-.065-28.626-8.173,3.775v19.124l-12.612,2.142-1.931.328-4.568.776V129.939l-8.173,3.789v34.588l-25.354,4.307a8.255,8.255,0,0,1-4.215-.122,3.665,3.665,0,0,1-2.124-1.9,6.182,6.182,0,0,1-.45-3.178,18.79,18.79,0,0,1,.836-4.011,37.434,37.434,0,0,1,1.706-4.388q1.028-2.242,2.188-4.314l-6.242,1.085q-.709,1.348-1.737,2.91a27.073,27.073,0,0,0-1.963,3.592,26.915,26.915,0,0,0-1.609,4.75,26.429,26.429,0,0,0-.676,6.326,7.114,7.114,0,0,0,.965,3.891A5.8,5.8,0,0,0-784.209,179.515Z" transform="translate(787.877 -101.656)" fill="#2bb788"/>
      <path id="Path_3343" data-name="Path 3343" d="M-674.809,136.23a5.567,5.567,0,0,0,3.379-2,5.584,5.584,0,0,0,1.383-3.677,4.217,4.217,0,0,0-1.383-3.321,3.83,3.83,0,0,0-3.379-.872,5.806,5.806,0,0,0-3.507,2.09,5.794,5.794,0,0,0-1.448,3.814,3.825,3.825,0,0,0,1.448,3.173A4.208,4.208,0,0,0-674.809,136.23Z" transform="translate(747.59 -100.294)" fill="#2bb788"/>
      <path id="Path_3344" data-name="Path 3344" d="M-695.118,139.8a5.571,5.571,0,0,0,3.378-1.994,5.558,5.558,0,0,0,1.384-3.668,4.2,4.2,0,0,0-1.384-3.311,3.835,3.835,0,0,0-3.378-.868,5.812,5.812,0,0,0-3.508,2.087,5.776,5.776,0,0,0-1.448,3.8,3.813,3.813,0,0,0,1.448,3.164A4.221,4.221,0,0,0-695.118,139.8Z" transform="translate(755.158 -101.635)" fill="#2bb788"/>
      <path id="Path_3345" data-name="Path 3345" d="M-647.171,141.872l-7.722,3.9a54.589,54.589,0,0,1,1.9,12.03q.289,6.213.29,12.18a13.967,13.967,0,0,1-.515,3.923,12.705,12.705,0,0,1-1.352,3.111,12.383,12.383,0,0,1-1.9,2.381,18.274,18.274,0,0,1-2.156,1.8,18.114,18.114,0,0,1-5.856,2.545l1.48,4.465a25.947,25.947,0,0,0,7.755-2.4,19.759,19.759,0,0,0,5.116-3.7,16.335,16.335,0,0,0,3.056-4.315,20.975,20.975,0,0,0,1.512-4.193,19.216,19.216,0,0,0,.515-3.4q.063-1.455.064-1.915,0-5.451-.451-12.369A124.8,124.8,0,0,0-647.171,141.872Z" transform="translate(741.895 -106.103)" fill="#2bb788"/>
      <path id="Path_3346" data-name="Path 3346" d="M-564.237,116.779a5.531,5.531,0,0,0,3.378-2.018,5.7,5.7,0,0,0,1.383-3.727,4.316,4.316,0,0,0-1.383-3.372,3.794,3.794,0,0,0-3.378-.894,5.772,5.772,0,0,0-3.507,2.112,5.915,5.915,0,0,0-1.448,3.866,3.916,3.916,0,0,0,1.448,3.223A4.17,4.17,0,0,0-564.237,116.779Z" transform="translate(706.386 -92.993)" fill="#2bb788"/>
      <path id="Path_3347" data-name="Path 3347" d="M-554.492,95.026a5.5,5.5,0,0,0,3.378-2.062,5.847,5.847,0,0,0,1.383-3.768,4.314,4.314,0,0,0-1.383-3.373,3.786,3.786,0,0,0-3.378-.887A5.789,5.789,0,0,0-558,87.059a5.943,5.943,0,0,0-1.448,3.874A4.009,4.009,0,0,0-558,94.19,4.1,4.1,0,0,0-554.492,95.026Z" transform="translate(702.755 -84.856)" fill="#2bb788"/>
      <path id="Path_3348" data-name="Path 3348" d="M-548.882,109.16a3.932,3.932,0,0,0,1.447,3.232,4.167,4.167,0,0,0,3.508.814,5.527,5.527,0,0,0,3.378-2.022,5.716,5.716,0,0,0,1.383-3.736,4.335,4.335,0,0,0-1.383-3.381,3.788,3.788,0,0,0-3.378-.9,5.77,5.77,0,0,0-3.508,2.115A5.94,5.94,0,0,0-548.882,109.16Z" transform="translate(698.818 -91.651)" fill="#2bb788"/>
      <path id="Path_3349" data-name="Path 3349" d="M-494.589,104.528a5.516,5.516,0,0,0,3.378-2.031,5.772,5.772,0,0,0,1.383-3.759,4.382,4.382,0,0,0-1.383-3.4,3.777,3.777,0,0,0-3.378-.908,5.752,5.752,0,0,0-3.508,2.125,5.993,5.993,0,0,0-1.447,3.9A3.975,3.975,0,0,0-498.1,103.7,4.151,4.151,0,0,0-494.589,104.528Z" transform="translate(680.433 -88.394)" fill="#2bb788"/>
      <path id="Path_3350" data-name="Path 3350" d="M-474.279,100.955A5.51,5.51,0,0,0-470.9,98.92a5.79,5.79,0,0,0,1.383-3.767,4.4,4.4,0,0,0-1.383-3.414,3.772,3.772,0,0,0-3.378-.912,5.746,5.746,0,0,0-3.508,2.129,6.018,6.018,0,0,0-1.448,3.908,3.99,3.99,0,0,0,1.448,3.264A4.14,4.14,0,0,0-474.279,100.955Z" transform="translate(672.865 -87.053)" fill="#2bb788"/>
      <path id="Path_3351" data-name="Path 3351" d="M-478.362,120.649l-8.43,1.432V99.63l-7.722,4.183v19.581l-8.494,1.443V102.459l-7.722,4.173v19.516l-8.623,1.465-1.931.328-8.43,1.432V107.318l-8.173,3.834v19.609l-10.167,1.727-1.931.328-7.207,1.224V112.11l-8.172,3.821v19.5l-7.98,1.356V114.927l-8.173,3.813v19.434l-8.173,1.388V117.777l-8.173,3.8v19.369l-8.365,1.421-1.931.328-5.276.9V106.1l-8.173,3.82v42.23l13.449-2.265,1.931-.325,56.242-9.471,1.931-.325,26.769-4.508,1.931-.325,48.714-8.2V96.812L-478.362,101Z" transform="translate(725.918 -89.312)" fill="#2bb788"/>
      <g id="Group_2010" data-name="Group 2010" transform="translate(111.969 74.381)">
        <path id="Path_3352" data-name="Path 3352" d="M-569.181,205.554a5.848,5.848,0,0,0-1.448,3.847,3.969,3.969,0,0,0,1.448,3.241,4.206,4.206,0,0,0,3.508.854,5.449,5.449,0,0,0,3.378-1.976,5.626,5.626,0,0,0,1.383-3.709,4.37,4.37,0,0,0-1.383-3.388,3.83,3.83,0,0,0-3.378-.936A5.684,5.684,0,0,0-569.181,205.554Z" transform="translate(594.953 -203.418)" fill="#2bb788"/>
        <path id="Path_3353" data-name="Path 3353" d="M-531.5,216.3a12.175,12.175,0,0,0-5.792-3.115,32.318,32.318,0,0,0-8.784-.718q-11.519.8-16.409.062a16.6,16.6,0,0,0,.708,2.979,5.216,5.216,0,0,0,1.319,2.116,4.478,4.478,0,0,0,2.188,1.112,8.9,8.9,0,0,0,3.25-.024,6.915,6.915,0,0,0-2.8,1.816,13.094,13.094,0,0,0-2.156,3.009,16.823,16.823,0,0,0-1.383,3.515,13.006,13.006,0,0,0-.483,3.338,33.278,33.278,0,0,0,.193,3.795,2.957,2.957,0,0,0,1.48,2.4l-5.148.811-1.931.3-8.43,1.327V217.194l-8.173,3.707v19.407l-10.167,1.6-1.931.3-5.276.831V205.491l-8.173,3.722v42.3l13.449-2.1,1.931-.3,26.77-4.174,1.931-.3,38.031-5.929v-7.572a34.451,34.451,0,0,0-1-8.988A12.943,12.943,0,0,0-531.5,216.3Zm-18.212,17.333a2.651,2.651,0,0,1-2.027,1.619,2.828,2.828,0,0,1-2.188-.355,3.5,3.5,0,0,1-1.158-1.55,7.313,7.313,0,0,1-.483-2.088q-.1-1.117-.1-1.917a11.657,11.657,0,0,1,.161-1.858,8.914,8.914,0,0,1,.515-1.881,5.122,5.122,0,0,1,.9-1.51,2.178,2.178,0,0,1,1.319-.743q1.48-.237,2.607,1.617a9.885,9.885,0,0,1,1.126,5.124A8.175,8.175,0,0,1-549.716,233.635Zm6.146.333q.193-1.033.611-2.568a11.9,11.9,0,0,0,.419-3.139,16.164,16.164,0,0,0-.9-5.634,6.915,6.915,0,0,0-2.639-3.55,11.939,11.939,0,0,1,5.309.785,7.039,7.039,0,0,1,3.153,2.7,12.071,12.071,0,0,1,1.577,4.364,44.022,44.022,0,0,1,.579,5.762Z" transform="translate(609.401 -204.19)" fill="#2bb788"/>
      </g>
    </g>
  </g>
</svg>
