<svg xmlns="http://www.w3.org/2000/svg" xmlns:xlink="http://www.w3.org/1999/xlink" width="162.158" height="65.562" viewBox="0 0 162.158 65.562">
  <defs>
    <linearGradient id="linear-gradient" x1="0.5" y1="3.858" x2="0.5" y2="-2.673" gradientUnits="objectBoundingBox">
      <stop offset="0" stop-color="#2b3988"/>
      <stop offset="1" stop-color="#2bb788"/>
    </linearGradient>
    <linearGradient id="linear-gradient-2" x1="0.5" y1="3.114" x2="0.5" y2="-1.716" xlink:href="#linear-gradient"/>
    <linearGradient id="linear-gradient-3" x1="0.5" y1="2.787" x2="0.5" y2="-1.934" xlink:href="#linear-gradient"/>
    <linearGradient id="linear-gradient-6" x1="0.5" y1="3.11" x2="0.5" y2="-1.712" xlink:href="#linear-gradient"/>
    <linearGradient id="linear-gradient-7" x1="0.5" y1="2.653" x2="0.5" y2="-4.001" xlink:href="#linear-gradient"/>
    <linearGradient id="linear-gradient-8" x1="0.5" y1="3.202" x2="0.5" y2="-5.661" xlink:href="#linear-gradient"/>
    <linearGradient id="linear-gradient-9" x1="0.5" y1="3.135" x2="0.5" y2="-5.533" xlink:href="#linear-gradient"/>
    <linearGradient id="linear-gradient-10" x1="0.5" y1="3.194" x2="0.5" y2="-5.636" xlink:href="#linear-gradient"/>
    <linearGradient id="linear-gradient-13" x1="0.5" y1="2.658" x2="0.5" y2="-4.072" xlink:href="#linear-gradient"/>
    <linearGradient id="linear-gradient-14" x1="0.5" y1="3.135" x2="0.5" y2="-5.533" xlink:href="#linear-gradient"/>
    <linearGradient id="linear-gradient-15" x1="0.5" y1="2.576" x2="0.5" y2="-3.817" xlink:href="#linear-gradient"/>
    <linearGradient id="linear-gradient-16" x1="0.5" y1="5.356" x2="0.5" y2="-1.619" xlink:href="#linear-gradient"/>
    <linearGradient id="linear-gradient-17" x1="0.5" y1="15.983" x2="0.5" y2="-7.193" xlink:href="#linear-gradient"/>
    <linearGradient id="linear-gradient-18" x1="0.5" y1="3.179" x2="0.5" y2="-4.762" xlink:href="#linear-gradient"/>
    <linearGradient id="linear-gradient-19" x1="0.5" y1="38.963" x2="0.5" y2="-11.178" xlink:href="#linear-gradient"/>
    <linearGradient id="linear-gradient-20" x1="0.5" y1="38.963" x2="0.5" y2="-11.178" xlink:href="#linear-gradient"/>
    <linearGradient id="linear-gradient-21" x1="0.5" y1="36.506" x2="0.5" y2="-13.61" xlink:href="#linear-gradient"/>
    <linearGradient id="linear-gradient-22" x1="0.5" y1="61.352" x2="0.5" y2="-15.539" xlink:href="#linear-gradient"/>
    <linearGradient id="linear-gradient-23" x1="0.5" y1="61.352" x2="0.5" y2="-15.539" xlink:href="#linear-gradient"/>
    <linearGradient id="linear-gradient-24" x1="0.5" y1="2.064" x2="0.5" y2="-0.189" xlink:href="#linear-gradient"/>
    <linearGradient id="linear-gradient-25" x1="0.5" y1="11.326" x2="0.5" y2="-9.617" xlink:href="#linear-gradient"/>
  </defs>
  <g id="Group_940" data-name="Group 940" transform="translate(-9302.227 -8660.905)">
    <g id="Group_921" data-name="Group 921">
      <path id="Path_1950" data-name="Path 1950" d="M9441.989,8713.787c6.636-.9,11.23-5.565,10.639-10.792-.9,1.876-6.445,8.888-10.686,8.487,0-.634.034-1.921.034-1.921a18.784,18.784,0,0,0,4.333-2.807,10.052,10.052,0,0,0,2.355-3.768c-.707.471-3.3,2.119-4.487,2.808a16.23,16.23,0,0,1-2.187.878c-.027-.489-.052-.74-.052-.991,0-4.795-.028-9.118.006-13.913a11.207,11.207,0,0,1,21.667-3.981,11.013,11.013,0,0,1-1.445,10.657l-.718-2.885c-.253.359-.385.521-.49.7a8.256,8.256,0,0,1-3.7,3.447,1.436,1.436,0,0,0-.97,1.62,16.187,16.187,0,0,1-.761,6.332,14.242,14.242,0,0,1-6.065,7.5,1.091,1.091,0,0,0-.608,1.087c.032,1.226.039,2.455,0,3.681-.119,3.629-3.395,6.762-6.857,6.523v-1.915C9442.052,8724.5,9441.989,8716.611,9441.989,8713.787Zm14.383-27.846a9.256,9.256,0,0,1,5.02,7.936,8.024,8.024,0,0,0-.177-6.2,8.874,8.874,0,0,0-4.925-4.364v2.387c-.321-.115-.558-.2-.794-.284a6.808,6.808,0,0,0-7.8,2.332,6.715,6.715,0,0,0,.063,8.125,6.835,6.835,0,0,0,7.75,2.254,1.1,1.1,0,0,0,.878-1.227c-.02-1.636-.024-3.271-.023-4.905,0-1.617,0-3.234,0-4.852Z" fill="#2bb788"/>
      <path id="Path_1951" data-name="Path 1951" d="M9451.02,8689.278v1.933h1.925a1.933,1.933,0,0,1-1.935,1.979,1.969,1.969,0,0,1-1.948-1.911A1.911,1.911,0,0,1,9451.02,8689.278Z" fill="#2bb788"/>
    </g>
    <g id="Group_922" data-name="Group 922">
      <path id="Path_1952" data-name="Path 1952" d="M9361.381,8703.19a7.111,7.111,0,0,1-.722-3.179,7.784,7.784,0,0,1,8.031-7.742,8.3,8.3,0,0,1,8.291,6.646h-3.958a4.6,4.6,0,0,0-4.333-2.8,4.02,4.02,0,0,0-4.276,3.785c0,1.7,1.243,3.293,4.276,3.293h8.406v3.842h-18.2v-3.842Z" fill="url(#linear-gradient)"/>
      <path id="Path_1953" data-name="Path 1953" d="M9378.629,8707.032V8687.07h3.842v16.12h1.213v3.842Z" fill="url(#linear-gradient-2)"/>
      <path id="Path_1954" data-name="Path 1954" d="M9383.684,8703.19h2.571V8692.3h3.842v10.892h2.629v3.842h-9.042Zm2.571,5.69h3.842v3.842h-3.842Z" fill="url(#linear-gradient-3)"/>
      <path id="Path_1955" data-name="Path 1955" d="M9397.781,8687.07v5.258h8.378a7.363,7.363,0,1,1,0,14.7h-13.434v-3.842h1.214v-16.12Zm0,17.823,2.167-1.7h6.211a3.543,3.543,0,1,0,0-7.05h-8.378Z" fill="url(#linear-gradient-2)"/>
      <path id="Path_1956" data-name="Path 1956" d="M9427.826,8707.032h-12.538v-3.842h8.7v-16.12h3.842Zm-7.136-6.009h-3.843l-1.328-13.953h3.843Z" fill="url(#linear-gradient-2)"/>
      <path id="Path_1957" data-name="Path 1957" d="M9433.835,8707.032h-3.843v-19.991h3.843Z" fill="url(#linear-gradient-6)"/>
    </g>
    <g id="Group_923" data-name="Group 923">
      <path id="Path_1958" data-name="Path 1958" d="M9334.663,8725.271v-14.49h6.184a4.253,4.253,0,0,1,1.908.428,4.91,4.91,0,0,1,1.49,1.123,5.371,5.371,0,0,1,.979,1.572,4.684,4.684,0,0,1,.357,1.774,5.1,5.1,0,0,1-.337,1.837,5.26,5.26,0,0,1-.939,1.571,4.42,4.42,0,0,1-1.459,1.1,4.349,4.349,0,0,1-1.9.408h-2.939v4.674Zm3.347-7.593h2.735a1.292,1.292,0,0,0,1.02-.51,2.26,2.26,0,0,0,.43-1.49,2.548,2.548,0,0,0-.134-.877,1.786,1.786,0,0,0-.356-.612,1.386,1.386,0,0,0-.51-.357,1.55,1.55,0,0,0-.572-.112h-2.612Z" fill="url(#linear-gradient-7)"/>
      <path id="Path_1959" data-name="Path 1959" d="M9353.908,8717.353a6.263,6.263,0,0,0-2.144.388,2.62,2.62,0,0,0-1.388,1.1v6.43h-3.265v-10.715h3v2.163a4.544,4.544,0,0,1,1.419-1.693,3.276,3.276,0,0,1,1.847-.634h.326a1.035,1.035,0,0,1,.2.021Z" fill="url(#linear-gradient-8)"/>
      <path id="Path_1960" data-name="Path 1960" d="M9359.848,8725.475a6.265,6.265,0,0,1-2.438-.448,5.317,5.317,0,0,1-1.808-1.215,5.143,5.143,0,0,1-1.111-1.775,6.107,6.107,0,0,1,0-4.225,5.143,5.143,0,0,1,1.111-1.775,5.454,5.454,0,0,1,1.808-1.225,6.125,6.125,0,0,1,2.438-.459,6.056,6.056,0,0,1,2.429.459,5.483,5.483,0,0,1,1.8,1.225,5.276,5.276,0,0,1,1.123,1.775,5.861,5.861,0,0,1,.387,2.112,6,6,0,0,1-.377,2.112,5.131,5.131,0,0,1-1.112,1.775,5.313,5.313,0,0,1-1.807,1.215A6.268,6.268,0,0,1,9359.848,8725.475Zm-2.388-5.551a2.961,2.961,0,0,0,.673,2.031,2.186,2.186,0,0,0,1.715.765,2.147,2.147,0,0,0,.938-.2,2.252,2.252,0,0,0,.745-.57,2.734,2.734,0,0,0,.5-.889,3.366,3.366,0,0,0,.184-1.133,2.966,2.966,0,0,0-.673-2.031,2.162,2.162,0,0,0-1.694-.765,2.221,2.221,0,0,0-1.705.776,2.753,2.753,0,0,0-.5.887A3.415,3.415,0,0,0,9357.46,8719.924Z" fill="url(#linear-gradient-9)"/>
      <path id="Path_1961" data-name="Path 1961" d="M9384.134,8725.271h-3.266v-6.021a2.457,2.457,0,0,0-.387-1.541,1.229,1.229,0,0,0-1-.479,1.7,1.7,0,0,0-.664.143,2.2,2.2,0,0,0-.622.4,3.167,3.167,0,0,0-.521.6,3.251,3.251,0,0,0-.378.755v6.144h-3.265v-6.021a2.45,2.45,0,0,0-.389-1.541,1.226,1.226,0,0,0-1-.479,1.979,1.979,0,0,0-1.275.521,2.971,2.971,0,0,0-.908,1.377v6.144h-3.266v-10.715h2.938v1.8a3.885,3.885,0,0,1,1.6-1.489,5.171,5.171,0,0,1,2.357-.511,3.8,3.8,0,0,1,1.173.163,2.853,2.853,0,0,1,.868.449,2.345,2.345,0,0,1,.591.663,2.836,2.836,0,0,1,.327.806,4.236,4.236,0,0,1,1.612-1.541,4.743,4.743,0,0,1,2.286-.54,3.13,3.13,0,0,1,1.643.378,2.721,2.721,0,0,1,.969.979,3.775,3.775,0,0,1,.461,1.316,9.123,9.123,0,0,1,.111,1.388Z" fill="url(#linear-gradient-10)"/>
      <path id="Path_1962" data-name="Path 1962" d="M9391.4,8725.475a6.341,6.341,0,0,1-2.419-.437,5.381,5.381,0,0,1-1.816-1.194,5.1,5.1,0,0,1-1.133-1.745,5.622,5.622,0,0,1-.389-2.071,6.173,6.173,0,0,1,.389-2.194,5.292,5.292,0,0,1,1.122-1.806,5.217,5.217,0,0,1,1.807-1.225,6.252,6.252,0,0,1,2.439-.449,6.179,6.179,0,0,1,2.428.449,5.342,5.342,0,0,1,1.8,1.214,5.158,5.158,0,0,1,1.112,1.766,5.9,5.9,0,0,1,.378,2.1c0,.191-.007.378-.021.563a4.161,4.161,0,0,1-.062.479h-7.918a2.2,2.2,0,0,0,.785,1.644,2.5,2.5,0,0,0,1.6.561,2.933,2.933,0,0,0,1.377-.347,1.769,1.769,0,0,0,.888-.938l2.776.775a4.983,4.983,0,0,1-1.96,2.061A6.069,6.069,0,0,1,9391.4,8725.475Zm2.265-6.57a2.455,2.455,0,0,0-.735-1.613,2.215,2.215,0,0,0-1.57-.591,2.181,2.181,0,0,0-1.582.6,2.5,2.5,0,0,0-.726,1.6Z" fill="url(#linear-gradient-9)"/>
      <path id="Path_1963" data-name="Path 1963" d="M9408.931,8725.271h-3.266v-6.021a2.4,2.4,0,0,0-.4-1.541,1.3,1.3,0,0,0-1.051-.479,1.817,1.817,0,0,0-.693.143,2.828,2.828,0,0,0-.674.4,3.041,3.041,0,0,0-.582.6,2.879,2.879,0,0,0-.4.755v6.144H9398.6v-10.715h2.939v1.8a3.892,3.892,0,0,1,1.673-1.479,5.679,5.679,0,0,1,2.49-.521,3.231,3.231,0,0,1,1.674.378,2.714,2.714,0,0,1,.979.979,3.792,3.792,0,0,1,.459,1.316,9,9,0,0,1,.112,1.388Z" fill="url(#linear-gradient-10)"/>
      <path id="Path_1964" data-name="Path 1964" d="M9417.931,8724.7a12.974,12.974,0,0,1-1.541.53,6.4,6.4,0,0,1-1.745.244,4.229,4.229,0,0,1-1.152-.152,2.589,2.589,0,0,1-.949-.489,2.3,2.3,0,0,1-.643-.888,3.389,3.389,0,0,1-.234-1.327v-5.592H9410.3v-2.47h1.368v-3.408h3.265v3.408h2.185v2.47h-2.185v4.47a.875.875,0,0,0,.939,1,2.489,2.489,0,0,0,.755-.123,4.607,4.607,0,0,0,.673-.265Z" fill="url(#linear-gradient-13)"/>
      <path id="Path_1965" data-name="Path 1965" d="M9422.237,8725.475a4.2,4.2,0,0,1-1.479-.255,3.472,3.472,0,0,1-1.174-.714,3.426,3.426,0,0,1-.775-1.082,3.213,3.213,0,0,1-.285-1.356,3.1,3.1,0,0,1,.337-1.449,3.3,3.3,0,0,1,.948-1.122,4.7,4.7,0,0,1,1.449-.735,6.122,6.122,0,0,1,1.857-.266,7.422,7.422,0,0,1,1.306.113,4.285,4.285,0,0,1,1.1.336v-.489q0-1.857-2.144-1.858a4.781,4.781,0,0,0-1.673.3,8.082,8.082,0,0,0-1.674.889l-.959-2.041a8.573,8.573,0,0,1,2.2-1.041,8.311,8.311,0,0,1,2.429-.347,5.587,5.587,0,0,1,3.755,1.143,4.179,4.179,0,0,1,1.327,3.347v2.756a1.133,1.133,0,0,0,.153.684.752.752,0,0,0,.541.234v2.756a5.579,5.579,0,0,1-.776.133c-.232.02-.442.03-.633.03a2.272,2.272,0,0,1-1.389-.357,1.576,1.576,0,0,1-.591-1.01l-.061-.49a4.9,4.9,0,0,1-1.705,1.409A4.674,4.674,0,0,1,9422.237,8725.475Zm.96-2.347a2.97,2.97,0,0,0,1.029-.183,2.409,2.409,0,0,0,.827-.49,1.012,1.012,0,0,0,.47-.776v-1.02a5.2,5.2,0,0,0-.929-.255,5.057,5.057,0,0,0-.929-.093,2.526,2.526,0,0,0-1.48.408,1.246,1.246,0,0,0-.58,1.062,1.208,1.208,0,0,0,.448.97A1.714,1.714,0,0,0,9423.2,8723.128Z" fill="url(#linear-gradient-14)"/>
      <path id="Path_1966" data-name="Path 1966" d="M9431.115,8710.373h3.266v11.082q0,1.225,1.041,1.224a2.3,2.3,0,0,0,.54-.07,2.02,2.02,0,0,0,.541-.215l.429,2.449a6.369,6.369,0,0,1-1.407.449,7.482,7.482,0,0,1-1.49.163,2.975,2.975,0,0,1-2.164-.735,2.827,2.827,0,0,1-.755-2.122Z" fill="url(#linear-gradient-15)"/>
    </g>
    <g id="Group_924" data-name="Group 924">
      <path id="Path_1967" data-name="Path 1967" d="M9377.109,8676.109a16.345,16.345,0,0,0-10.205-.188,11.136,11.136,0,0,0-7.137,7c-.592,1.951-.354,4.419,1.353,5.534a4.494,4.494,0,0,0,4.307,0,19.371,19.371,0,0,0,3.643-2.624,17.645,17.645,0,0,1,6.38-3.425,10.511,10.511,0,0,1,6.43.223c1.1.425,3.481,2.187,3.9.173C9386.5,8679.34,9379.344,8676.832,9377.109,8676.109Z" fill="url(#linear-gradient-16)"/>
      <circle id="Ellipse_99" data-name="Ellipse 99" cx="2.08" cy="2.08" r="2.08" transform="translate(9387.562 8682.732)" fill="url(#linear-gradient-17)"/>
    </g>
    <path id="Path_1968" data-name="Path 1968" d="M9321.722,8714.84a12.622,12.622,0,0,1,4.627.236c1.475.493,2.784,1.916,2.542,3.452s-1.819,2.443-3.277,2.975a20.275,20.275,0,0,1-12.886.406,17.586,17.586,0,0,1-10.024-7.981c-1.051-1.869-.35-3.463,1.945-3.286,1.486.114,2.422,1.245,3.682,1.9C9312.228,8714.572,9317.4,8715.048,9321.722,8714.84Z" fill="url(#linear-gradient-18)"/>
    <g id="Group_939" data-name="Group 939">
      <g id="Group_926" data-name="Group 926">
        <g id="Group_925" data-name="Group 925">
          <path id="Path_1969" data-name="Path 1969" d="M9333.338,8674.3a.627.627,0,0,0-.627.627v.67a.627.627,0,0,0,1.254,0v-.67A.627.627,0,0,0,9333.338,8674.3Z" fill="url(#linear-gradient-19)"/>
        </g>
      </g>
      <g id="Group_928" data-name="Group 928">
        <g id="Group_927" data-name="Group 927">
          <path id="Path_1970" data-name="Path 1970" d="M9341.378,8674.3a.626.626,0,0,0-.627.627v.67a.626.626,0,0,0,1.253,0v-.67A.626.626,0,0,0,9341.378,8674.3Z" fill="url(#linear-gradient-20)"/>
        </g>
      </g>
      <g id="Group_930" data-name="Group 930">
        <g id="Group_929" data-name="Group 929">
          <path id="Path_1971" data-name="Path 1971" d="M9339.814,8679.18a.627.627,0,0,0-.887-.006,2.763,2.763,0,0,1-3.14,0,.627.627,0,0,0-.88.894,3.956,3.956,0,0,0,4.9,0A.63.63,0,0,0,9339.814,8679.18Z" fill="url(#linear-gradient-21)"/>
        </g>
      </g>
      <g id="Group_932" data-name="Group 932">
        <g id="Group_931" data-name="Group 931">
          <path id="Path_1972" data-name="Path 1972" d="M9334.008,8672.294h-1.34a.627.627,0,0,0,0,1.254h1.34a.627.627,0,0,0,0-1.254Z" fill="url(#linear-gradient-22)"/>
        </g>
      </g>
      <g id="Group_934" data-name="Group 934">
        <g id="Group_933" data-name="Group 933">
          <path id="Path_1973" data-name="Path 1973" d="M9342.048,8672.294h-1.34a.627.627,0,0,0,0,1.254h1.34a.627.627,0,0,0,0-1.254Z" fill="url(#linear-gradient-23)"/>
        </g>
      </g>
      <g id="Group_936" data-name="Group 936">
        <g id="Group_935" data-name="Group 935">
          <path id="Path_1974" data-name="Path 1974" d="M9350.783,8690.761l-4.519-1.389a1.468,1.468,0,0,0-.034-.411,1.448,1.448,0,0,0-.763-.961l-2.794-1.4v-1.992a9.347,9.347,0,0,0,3.93-6.373h.373a2.375,2.375,0,0,0,2.386-2.066,2.314,2.314,0,0,0-.583-1.779,2.283,2.283,0,0,0-.745-.546v-6.955a4.651,4.651,0,0,0-4.647-4.646h-.105a7.9,7.9,0,0,0-4.625-1.34,15.971,15.971,0,0,0-7.8,1.76,27.261,27.261,0,0,1-3.895,1.5.628.628,0,0,0-.39.332.621.621,0,0,0-.012.511,5.67,5.67,0,0,0,1.021,1.486,5.129,5.129,0,0,0-.9,3.3v4.08a2.286,2.286,0,0,0,.962,4.363h.468a9.347,9.347,0,0,0,3.93,6.374v1.991l-2.794,1.4a1.446,1.446,0,0,0-.761.962,1.469,1.469,0,0,0-.035.411l-4.519,1.389a4.626,4.626,0,0,0-3.28,4.442v7.866a.627.627,0,0,0,1.254,0V8695.2a3.375,3.375,0,0,1,2.395-3.243l4.7-1.445.83,1.106-.943.942a1.965,1.965,0,0,0-.368,2.271l1.795,3.588h-1.709v-.713a.627.627,0,1,0-1.254,0v.713h-2.723a.627.627,0,0,0-.627.627v4.021a.627.627,0,0,0,.627.627h6.7a.628.628,0,0,0,.627-.627v-1.364l.823,1.644a.626.626,0,1,0,1.121-.56l-4.259-8.516a.711.711,0,0,1,.135-.823l1.326-1.327a.629.629,0,0,0,.059-.82l-1.42-1.893a.193.193,0,0,1,.067-.289l2.47-1.235,1.742,5.977a.627.627,0,1,0,1.2-.352l-.273-.941a7.352,7.352,0,0,0,4.817,0l-2.408,8.26-1.354-4.638a.627.627,0,1,0-1.2.351l1.954,6.7a.627.627,0,0,0,1.2,0l4.479-15.358,2.469,1.235a.194.194,0,0,1,.1.128.191.191,0,0,1-.034.161l-1.42,1.893a.629.629,0,0,0,.059.82l1.327,1.327a.713.713,0,0,1,.134.823l-4.258,8.516a.626.626,0,1,0,1.121.56l4.258-8.515a1.965,1.965,0,0,0-.368-2.27l-.943-.943.83-1.106,4.7,1.445a3.376,3.376,0,0,1,2.4,3.243v7.866a.627.627,0,0,0,1.255,0V8695.2A4.627,4.627,0,0,0,9350.783,8690.761Zm-20.082,11.682h-5.446v-2.767h2.1v.043a.627.627,0,0,0,1.255,0v-.043h2.1v2.767Zm.676-38.636a14.76,14.76,0,0,1,7.279-1.648c2.312,0,4.379.968,4.807,2.252a.627.627,0,0,0,1.189-.4,2.952,2.952,0,0,0-.128-.317,3.4,3.4,0,0,1,2.256,3.2v6.743h-.713a.714.714,0,0,1-.714-.713v-.67a7.988,7.988,0,0,0-2.192-5.133.628.628,0,0,0-.632-.155c-3.48,1.1-8.387,2.025-12,.2a6.771,6.771,0,0,1-2.444-2.029A30.738,30.738,0,0,0,9331.377,8663.807Zm10.044,23.094-1.2,4.1a6.083,6.083,0,0,1-5.731,0l-1.2-4.105v-1.556a9.317,9.317,0,0,0,8.126,0Zm-4.062-1.877a8.092,8.092,0,0,1-8.083-8.082.626.626,0,1,0-1.253,0v.043h-.379a1.051,1.051,0,0,1-1.043-1.159,1.113,1.113,0,0,1,1.139-.937h.909a1.969,1.969,0,0,0,1.967-1.967v-2.366a.626.626,0,1,0-1.253,0v2.366a.714.714,0,0,1-.714.713h-.714v-3.84a4.233,4.233,0,0,1,.573-2.441,8.5,8.5,0,0,0,1.358.876,11.7,11.7,0,0,0,5.024,1.219,23.722,23.722,0,0,0,7.626-1.168,6.608,6.608,0,0,1,1.584,3.972v.67a1.97,1.97,0,0,0,1.967,1.967h1a1.05,1.05,0,0,1,1.043,1.158,1.114,1.114,0,0,1-1.139.938h-.282v-.037a.627.627,0,0,0-.627-.627h0a.627.627,0,0,0-.627.627A8.094,8.094,0,0,1,9337.358,8685.023Z" fill="url(#linear-gradient-24)"/>
        </g>
      </g>
      <g id="Group_938" data-name="Group 938">
        <g id="Group_937" data-name="Group 937">
          <path id="Path_1975" data-name="Path 1975" d="M9350.087,8698.757h-1.048v-1.048a.627.627,0,0,0-1.254,0v1.048h-1.048a.627.627,0,0,0,0,1.254h1.048v1.048a.627.627,0,0,0,1.254,0v-1.048h1.048a.627.627,0,0,0,0-1.254Z" fill="url(#linear-gradient-25)"/>
        </g>
      </g>
    </g>
  </g>
</svg>
