<svg xmlns="http://www.w3.org/2000/svg" xmlns:xlink="http://www.w3.org/1999/xlink" width="247.766" height="112.839" viewBox="0 0 247.766 112.839">
  <defs>
    <clipPath id="clip-path">
      <rect width="247.766" height="112.839" fill="none"/>
    </clipPath>
  </defs>
  <g id="Repeat_Grid_1" data-name="Repeat Grid 1" clip-path="url(#clip-path)">
    <g transform="translate(-872.265 -91.724)">
      <g id="Component_1_1" data-name="Component 1 – 1" transform="translate(872.265 91.724)">
        <g id="Group_364" data-name="Group 364" transform="translate(-11139.265 -3733.688)">
          <text id="المعالجين" transform="translate(11221.03 3809.298)" fill="#fff" font-size="40" font-family="MahmoudArt-Black, MahmoudArt" font-weight="800" letter-spacing="-0.06em"><tspan x="0" y="0">المعالجين</tspan></text>
          <g id="Group_347" data-name="Group 347">
            <path id="Path_866" data-name="Path 866" d="M11195.949,3846.17v-25.322h10.807a7.427,7.427,0,0,1,3.334.749,8.576,8.576,0,0,1,2.6,1.962,9.374,9.374,0,0,1,1.712,2.746,8.192,8.192,0,0,1,.624,3.1,8.875,8.875,0,0,1-.589,3.21,9.175,9.175,0,0,1-1.641,2.746,7.748,7.748,0,0,1-2.55,1.926,7.608,7.608,0,0,1-3.317.713h-5.136v8.167Zm5.849-13.267h4.779a2.26,2.26,0,0,0,1.783-.892,3.947,3.947,0,0,0,.75-2.6,4.509,4.509,0,0,0-.233-1.534,3.154,3.154,0,0,0-.623-1.07,2.412,2.412,0,0,0-.892-.624,2.734,2.734,0,0,0-1-.2h-4.565Z" fill="#fff"/>
            <path id="Path_867" data-name="Path 867" d="M11229.581,3832.332a10.934,10.934,0,0,0-3.745.678,4.561,4.561,0,0,0-2.425,1.926v11.234h-5.707v-18.724h5.243v3.781a7.953,7.953,0,0,1,2.479-2.961,5.714,5.714,0,0,1,3.229-1.105h.569a1.812,1.812,0,0,1,.357.036Z" fill="#fff"/>
            <path id="Path_868" data-name="Path 868" d="M11239.96,3846.527a10.947,10.947,0,0,1-4.263-.785,9.279,9.279,0,0,1-3.156-2.122,8.94,8.94,0,0,1-1.943-3.1,10.663,10.663,0,0,1,0-7.382,8.949,8.949,0,0,1,1.943-3.1,9.506,9.506,0,0,1,3.156-2.14,10.728,10.728,0,0,1,4.263-.8,10.6,10.6,0,0,1,4.244.8,9.525,9.525,0,0,1,3.138,2.14,9.187,9.187,0,0,1,1.962,3.1,10.224,10.224,0,0,1,.678,3.691,10.483,10.483,0,0,1-.659,3.691,8.972,8.972,0,0,1-1.944,3.1,9.26,9.26,0,0,1-3.156,2.122A10.949,10.949,0,0,1,11239.96,3846.527Zm-4.173-9.7a5.174,5.174,0,0,0,1.177,3.549,3.812,3.812,0,0,0,3,1.337,3.759,3.759,0,0,0,1.64-.356,3.953,3.953,0,0,0,1.3-1,4.834,4.834,0,0,0,.874-1.551,5.918,5.918,0,0,0,.32-1.98,5.171,5.171,0,0,0-1.177-3.548,3.776,3.776,0,0,0-2.96-1.338,3.874,3.874,0,0,0-2.978,1.355,4.777,4.777,0,0,0-.874,1.552A5.885,5.885,0,0,0,11235.787,3836.826Z" fill="#fff"/>
            <path id="Path_869" data-name="Path 869" d="M11282.4,3846.17h-5.707v-10.521a4.284,4.284,0,0,0-.678-2.692,2.145,2.145,0,0,0-1.748-.839,2.952,2.952,0,0,0-1.158.25,3.937,3.937,0,0,0-1.088.7,5.788,5.788,0,0,0-1.569,2.372v10.735h-5.706v-10.521a4.29,4.29,0,0,0-.678-2.692,2.146,2.146,0,0,0-1.748-.839,3.46,3.46,0,0,0-2.229.91,5.2,5.2,0,0,0-1.587,2.407v10.735h-5.706v-18.724h5.135v3.139a6.794,6.794,0,0,1,2.8-2.6,9.027,9.027,0,0,1,4.118-.891,6.638,6.638,0,0,1,2.052.285,4.958,4.958,0,0,1,1.516.785,4.156,4.156,0,0,1,1.034,1.159,5.015,5.015,0,0,1,.571,1.408,7.376,7.376,0,0,1,2.816-2.692,8.267,8.267,0,0,1,4-.945,5.5,5.5,0,0,1,2.871.659,4.794,4.794,0,0,1,1.694,1.712,6.674,6.674,0,0,1,.8,2.3,15.721,15.721,0,0,1,.2,2.425Z" fill="#fff"/>
            <path id="Path_870" data-name="Path 870" d="M11295.1,3846.527a11.067,11.067,0,0,1-4.226-.767,9.384,9.384,0,0,1-3.174-2.086,8.944,8.944,0,0,1-1.98-3.05,9.825,9.825,0,0,1-.677-3.62,10.791,10.791,0,0,1,.677-3.834,9.322,9.322,0,0,1,1.962-3.156,9.17,9.17,0,0,1,3.156-2.14,10.946,10.946,0,0,1,4.262-.784,10.8,10.8,0,0,1,4.244.784,9.329,9.329,0,0,1,3.14,2.122,9,9,0,0,1,1.942,3.085,10.307,10.307,0,0,1,.66,3.674q0,.5-.035.981a7.032,7.032,0,0,1-.106.838H11291.1a3.851,3.851,0,0,0,1.373,2.871,4.369,4.369,0,0,0,2.8.981,5.116,5.116,0,0,0,2.406-.607,3.1,3.1,0,0,0,1.552-1.64l4.851,1.355a8.725,8.725,0,0,1-3.424,3.6A10.624,10.624,0,0,1,11295.1,3846.527Zm3.959-11.484a4.293,4.293,0,0,0-1.283-2.818,3.869,3.869,0,0,0-2.746-1.034,3.816,3.816,0,0,0-2.765,1.052,4.362,4.362,0,0,0-1.266,2.8Z" fill="#fff"/>
            <path id="Path_871" data-name="Path 871" d="M11325.733,3846.17h-5.706v-10.521a4.2,4.2,0,0,0-.7-2.692,2.268,2.268,0,0,0-1.836-.839,3.166,3.166,0,0,0-1.213.25,5.012,5.012,0,0,0-1.177.7,5.325,5.325,0,0,0-1.017,1.053,4.98,4.98,0,0,0-.7,1.319v10.735h-5.706v-18.724h5.137v3.139a6.806,6.806,0,0,1,2.924-2.586,9.924,9.924,0,0,1,4.351-.909,5.684,5.684,0,0,1,2.926.659,4.76,4.76,0,0,1,1.712,1.712,6.652,6.652,0,0,1,.8,2.3,15.6,15.6,0,0,1,.2,2.425Z" fill="#fff"/>
            <path id="Path_872" data-name="Path 872" d="M11341.462,3845.172a22.8,22.8,0,0,1-2.693.927,11.187,11.187,0,0,1-3.049.428,7.37,7.37,0,0,1-2.015-.267,4.517,4.517,0,0,1-1.659-.856,4.005,4.005,0,0,1-1.123-1.552,5.9,5.9,0,0,1-.41-2.318v-9.772h-2.39v-4.316h2.39v-5.956h5.706v5.956h3.816v4.316h-3.816v7.81a1.528,1.528,0,0,0,1.642,1.748,4.354,4.354,0,0,0,1.318-.214,8.084,8.084,0,0,0,1.178-.464Z" fill="#fff"/>
            <path id="Path_873" data-name="Path 873" d="M11348.987,3846.527a7.347,7.347,0,0,1-2.586-.446,5.912,5.912,0,0,1-3.406-3.138,5.616,5.616,0,0,1-.5-2.372,5.44,5.44,0,0,1,.589-2.532,5.806,5.806,0,0,1,1.658-1.962,8.184,8.184,0,0,1,2.532-1.284,10.7,10.7,0,0,1,3.246-.463,13.027,13.027,0,0,1,2.281.2,7.527,7.527,0,0,1,1.926.588v-.856q0-3.245-3.743-3.245a8.345,8.345,0,0,0-2.926.517,14.107,14.107,0,0,0-2.925,1.551l-1.676-3.566a14.968,14.968,0,0,1,3.852-1.819,14.538,14.538,0,0,1,4.244-.606,9.758,9.758,0,0,1,6.563,2,7.3,7.3,0,0,1,2.318,5.849v4.815a1.989,1.989,0,0,0,.268,1.194,1.328,1.328,0,0,0,.945.411v4.814a9.419,9.419,0,0,1-1.355.232c-.405.036-.773.054-1.106.054a3.972,3.972,0,0,1-2.425-.624,2.768,2.768,0,0,1-1.034-1.766l-.106-.856a8.539,8.539,0,0,1-2.979,2.461A8.129,8.129,0,0,1,11348.987,3846.527Zm1.677-4.1a5.172,5.172,0,0,0,1.8-.321,4.209,4.209,0,0,0,1.445-.856,1.77,1.77,0,0,0,.819-1.356v-1.783a9.189,9.189,0,0,0-1.622-.446,9,9,0,0,0-1.622-.16,4.4,4.4,0,0,0-2.586.713,2.174,2.174,0,0,0-1.018,1.855,2.113,2.113,0,0,0,.785,1.694A3,3,0,0,0,11350.664,3842.426Z" fill="#fff"/>
            <path id="Path_874" data-name="Path 874" d="M11364.5,3820.135h5.707V3839.5q0,2.141,1.819,2.14a4.018,4.018,0,0,0,.944-.125,3.494,3.494,0,0,0,.945-.374l.749,4.279a11,11,0,0,1-2.461.785,13.007,13.007,0,0,1-2.6.285,5.2,5.2,0,0,1-3.78-1.283,4.943,4.943,0,0,1-1.32-3.71Z" fill="#fff"/>
          </g>
          <g id="Group_348" data-name="Group 348">
            <path id="Path_875" data-name="Path 875" d="M11248.927,3760.258a28.571,28.571,0,0,0-17.834-.328c-5.727,1.947-10.715,6.449-12.47,12.238-1.033,3.41-.618,7.722,2.364,9.671,2.194,1.433,5.155,1.131,7.524.009a33.917,33.917,0,0,0,6.365-4.586,30.853,30.853,0,0,1,11.15-5.986,18.354,18.354,0,0,1,11.235.391c1.929.743,6.083,3.82,6.815.3C11265.339,3765.905,11252.832,3761.522,11248.927,3760.258Z" fill="#fff"/>
            <circle id="Ellipse_38" data-name="Ellipse 38" cx="3.635" cy="3.635" r="3.635" transform="translate(11267.193 3771.834)" fill="#fff"/>
          </g>
          <path id="Path_876" data-name="Path 876" d="M11173.334,3827.941c2.713-.131,5.51-.449,8.086.413s4.866,3.348,4.443,6.032-3.183,4.272-5.729,5.2a35.414,35.414,0,0,1-22.517.708,30.728,30.728,0,0,1-17.52-13.946c-1.838-3.266-.609-6.051,3.4-5.743,2.6.2,4.233,2.177,6.435,3.323C11156.743,3827.474,11165.788,3828.3,11173.334,3827.941Z" fill="#fff"/>
          <g id="Group_363" data-name="Group 363">
            <g id="Group_350" data-name="Group 350">
              <g id="Group_349" data-name="Group 349">
                <path id="Path_877" data-name="Path 877" d="M11172.437,3757.1a1.1,1.1,0,0,0-1.095,1.095v1.171a1.1,1.1,0,0,0,2.19,0V3758.2A1.1,1.1,0,0,0,11172.437,3757.1Z" fill="#fff"/>
              </g>
            </g>
            <g id="Group_352" data-name="Group 352">
              <g id="Group_351" data-name="Group 351">
                <path id="Path_878" data-name="Path 878" d="M11186.486,3757.1a1.1,1.1,0,0,0-1.1,1.095v1.171a1.1,1.1,0,0,0,2.19,0V3758.2A1.1,1.1,0,0,0,11186.486,3757.1Z" fill="#fff"/>
              </g>
            </g>
            <g id="Group_354" data-name="Group 354">
              <g id="Group_353" data-name="Group 353">
                <path id="Path_879" data-name="Path 879" d="M11183.754,3765.625a1.1,1.1,0,0,0-1.549-.01,4.83,4.83,0,0,1-5.487,0,1.1,1.1,0,1,0-1.538,1.559,6.909,6.909,0,0,0,8.563,0A1.1,1.1,0,0,0,11183.754,3765.625Z" fill="#fff"/>
              </g>
            </g>
            <g id="Group_356" data-name="Group 356">
              <g id="Group_355" data-name="Group 355">
                <path id="Path_880" data-name="Path 880" d="M11173.608,3753.591h-2.343a1.1,1.1,0,0,0,0,2.191h2.343a1.1,1.1,0,0,0,0-2.191Z" fill="#fff"/>
              </g>
            </g>
            <g id="Group_358" data-name="Group 358">
              <g id="Group_357" data-name="Group 357">
                <path id="Path_881" data-name="Path 881" d="M11187.657,3753.591h-2.342a1.1,1.1,0,1,0,0,2.191h2.342a1.1,1.1,0,0,0,0-2.191Z" fill="#fff"/>
              </g>
            </g>
            <g id="Group_360" data-name="Group 360">
              <g id="Group_359" data-name="Group 359">
                <path id="Path_882" data-name="Path 882" d="M11202.921,3785.864l-7.895-2.428a2.515,2.515,0,0,0-1.392-2.4l-4.883-2.441v-3.481a16.343,16.343,0,0,0,6.867-11.137h.65a4.152,4.152,0,0,0,4.17-3.612,4.015,4.015,0,0,0-2.321-4.063V3744.15a8.129,8.129,0,0,0-8.12-8.12h-.185a13.807,13.807,0,0,0-8.083-2.342,27.939,27.939,0,0,0-13.627,3.076,47.315,47.315,0,0,1-6.8,2.627,1.1,1.1,0,0,0-.7,1.474,9.919,9.919,0,0,0,1.785,2.6c-.545.671-1.577,2.387-1.577,5.762v7.129a3.995,3.995,0,0,0,1.681,7.625h.817a16.335,16.335,0,0,0,6.868,11.139v3.48l-4.883,2.441a2.52,2.52,0,0,0-1.33,1.681,2.483,2.483,0,0,0-.061.718l-7.9,2.428a8.079,8.079,0,0,0-5.733,7.761v13.746a1.1,1.1,0,1,0,2.19,0v-13.746a5.9,5.9,0,0,1,4.187-5.667l8.214-2.525,1.448,1.933-1.646,1.647a3.433,3.433,0,0,0-.644,3.967l3.136,6.271h-2.986V3798a1.1,1.1,0,0,0-2.191,0v1.246h-4.758a1.1,1.1,0,0,0-1.095,1.1v7.024a1.1,1.1,0,0,0,1.095,1.1h11.708a1.094,1.094,0,0,0,1.095-1.1v-2.384l1.438,2.874a1.1,1.1,0,0,0,1.96-.98l-7.441-14.881a1.246,1.246,0,0,1,.234-1.438l2.318-2.319a1.1,1.1,0,0,0,.1-1.432l-2.48-3.309a.337.337,0,0,1,.118-.5l4.314-2.158,3.046,10.443a1.1,1.1,0,0,0,2.1-.613l-.48-1.646a12.823,12.823,0,0,0,8.421,0l-4.21,14.436-2.364-8.1a1.1,1.1,0,0,0-2.1.613l3.416,11.711a1.095,1.095,0,0,0,2.1,0l7.828-26.839,4.314,2.158a.327.327,0,0,1,.178.224.335.335,0,0,1-.058.281l-2.482,3.309a1.1,1.1,0,0,0,.1,1.432l2.319,2.319a1.246,1.246,0,0,1,.233,1.438l-7.441,14.882a1.1,1.1,0,0,0,1.96.98l7.44-14.882a3.433,3.433,0,0,0-.644-3.967l-1.646-1.647,1.449-1.933,8.213,2.525a5.9,5.9,0,0,1,4.187,5.668v13.745a1.1,1.1,0,1,0,2.19,0v-13.746A8.078,8.078,0,0,0,11202.921,3785.864Zm-35.092,20.412h-9.518v-4.834h3.663v.076a1.1,1.1,0,0,0,2.191,0v-.076h3.663v4.834Zm1.18-67.516a25.8,25.8,0,0,1,12.722-2.881c4.041,0,7.651,1.691,8.4,3.934a1.1,1.1,0,1,0,2.078-.692,5.319,5.319,0,0,0-.223-.557,5.939,5.939,0,0,1,3.942,5.586v11.783h-1.246a1.248,1.248,0,0,1-1.247-1.246v-1.171c0-5.078-3.676-8.813-3.833-8.97a1.1,1.1,0,0,0-1.1-.27c-6.081,1.92-14.655,3.539-20.967.345a11.79,11.79,0,0,1-4.271-3.545A53.933,53.933,0,0,0,11169.009,3738.76Zm17.552,40.357-2.092,7.173a10.629,10.629,0,0,1-10.015,0l-2.093-7.174V3776.4a16.289,16.289,0,0,0,14.2,0Zm-7.1-3.281a14.14,14.14,0,0,1-14.124-14.125,1.1,1.1,0,0,0-2.19,0v.076h-.661a1.831,1.831,0,0,1-1.821-2.024,1.943,1.943,0,0,1,1.989-1.639h1.589a3.44,3.44,0,0,0,3.436-3.437v-4.135a1.095,1.095,0,1,0-2.189,0v4.135a1.248,1.248,0,0,1-1.246,1.246H11163v-6.71a7.368,7.368,0,0,1,1-4.265,15.1,15.1,0,0,0,2.373,1.529,20.452,20.452,0,0,0,8.781,2.13,41.449,41.449,0,0,0,13.325-2.041,11.547,11.547,0,0,1,2.769,6.94v1.171a3.441,3.441,0,0,0,3.437,3.437h1.757a1.831,1.831,0,0,1,1.821,2.024,1.944,1.944,0,0,1-1.988,1.639h-.5v-.064a1.1,1.1,0,0,0-1.095-1.095h0a1.094,1.094,0,0,0-1.095,1.094A14.142,14.142,0,0,1,11179.461,3775.836Z" fill="#fff"/>
              </g>
            </g>
            <g id="Group_362" data-name="Group 362">
              <g id="Group_361" data-name="Group 361">
                <path id="Path_883" data-name="Path 883" d="M11201.706,3799.837h-1.831V3798a1.1,1.1,0,0,0-2.191,0v1.832h-1.832a1.1,1.1,0,0,0,0,2.191h1.832v1.831a1.1,1.1,0,0,0,2.191,0v-1.831h1.831a1.1,1.1,0,1,0,0-2.191Z" fill="#fff"/>
              </g>
            </g>
          </g>
        </g>
      </g>
    </g>
  </g>
</svg>
