<svg xmlns="http://www.w3.org/2000/svg" width="16.875" height="18" viewBox="0 0 16.875 18">
  <g id="Group_2195" data-name="Group 2195" transform="translate(-1396.292 -406.875)">
    <g id="Group_2194" data-name="Group 2194">
      <g id="Group_2191" data-name="Group 2191">
        <g id="Group_2190" data-name="Group 2190">
          <path id="Path_2309" data-name="Path 2309" d="M1409.179,415.08a.562.562,0,0,0-.512-.33h-2.25v-7.313a.563.563,0,0,0-.563-.562h-2.25a.562.562,0,0,0-.562.562v7.313h-2.25a.562.562,0,0,0-.423.933l3.937,4.5a.562.562,0,0,0,.846,0l3.938-4.5A.562.562,0,0,0,1409.179,415.08Z" fill="#2bb788"/>
        </g>
      </g>
      <g id="Group_2193" data-name="Group 2193">
        <g id="Group_2192" data-name="Group 2192">
          <path id="Path_2310" data-name="Path 2310" d="M1410.917,419.25v3.375h-12.375V419.25h-2.25v4.5a1.125,1.125,0,0,0,1.125,1.125h14.625a1.124,1.124,0,0,0,1.125-1.125v-4.5Z" fill="#2bb788"/>
        </g>
      </g>
    </g>
  </g>
</svg>
