<svg xmlns="http://www.w3.org/2000/svg" width="20.64" height="25.8" viewBox="0 0 20.64 25.8">
  <g id="Group_1104" data-name="Group 1104" transform="translate(-5857.68 -172.708)">
    <g id="Group_1103" data-name="Group 1103">
      <path id="Path_1144" data-name="Path 1144" d="M5858.54,179.588h4.3v3.262l-1.594,1.594a.429.429,0,0,0-.126.3v5.59a.439.439,0,0,0,.025.145l2.125,5.949v1.646a.43.43,0,0,0,.43.43h5.16a.43.43,0,0,0,.43-.43v-6.45a.427.427,0,0,0-.035-.169l-1.033-2.411h4.508a.43.43,0,0,0,.43-.43v-9.03h4.3v-3.44h.86v-3.44h-20.64v3.44h.86Zm9.89,18.06h-4.3v-.86h4.3Zm0-1.72H5864l-2.021-5.664v-5.338l.86-.86v4.552a.43.43,0,0,0,.43.43h1.72v1.72h.86v-4.3a.43.43,0,0,1,.43-.43h.43a.431.431,0,0,1,.43.43v2.15a.435.435,0,0,0,.035.17l1.255,2.929Zm3.87-7.74H5868v-1.72a1.291,1.291,0,0,0-1.29-1.29h-.43a1.281,1.281,0,0,0-.86.336v-.766h-.86v2.58h.43v.86h-1.29v-10.32h.86v6.02h.86v-4.182a3.426,3.426,0,0,0,5.16,0v4.182h.86v-6.02h.86Zm-6.844-10.32h5.088a2.579,2.579,0,0,1-5.088,0Zm11.144.86h-3.44v-.86h.86v-.86h-12.04v.86h.86v.86h-3.44v-2.58h17.2Zm-18.06-5.16h18.92v1.72h-18.92Z" fill="#0ee218"/>
      <path id="Path_1145" data-name="Path 1145" d="M5860.26,177.008h.86v.86h-.86Z" fill="#0ee218"/>
      <path id="Path_1146" data-name="Path 1146" d="M5874.88,177.008h.86v.86h-.86Z" fill="#0ee218"/>
      <path id="Path_1147" data-name="Path 1147" d="M5870.58,186.468h-1.72v.86h2.58v-2.58h-.86Z" fill="#0ee218"/>
      <path id="Path_1148" data-name="Path 1148" d="M5869.29,183.028a1.29,1.29,0,1,0-1.29,1.29A1.291,1.291,0,0,0,5869.29,183.028Zm-1.29.43a.43.43,0,1,1,.43-.43A.43.43,0,0,1,5868,183.458Z" fill="#0ee218"/>
    </g>
  </g>
</svg>
