<svg xmlns="http://www.w3.org/2000/svg" width="27.987" height="27.988" viewBox="0 0 27.987 27.988">
  <g id="Group_2361" data-name="Group 2361" transform="translate(-465.221 -174.533)">
    <g id="Group_2360" data-name="Group 2360">
      <g id="Group_2355" data-name="Group 2355">
        <g id="Group_2354" data-name="Group 2354">
          <path id="Path_2438" data-name="Path 2438" d="M469.87,199.4a.544.544,0,1,0,.161.387A.551.551,0,0,0,469.87,199.4Z" fill="#0ee218"/>
        </g>
      </g>
      <g id="Group_2357" data-name="Group 2357">
        <g id="Group_2356" data-name="Group 2356">
          <path id="Path_2439" data-name="Path 2439" d="M490.886,184.533a.544.544,0,1,0,.161.387A.548.548,0,0,0,490.886,184.533Z" fill="#0ee218"/>
        </g>
      </g>
      <g id="Group_2359" data-name="Group 2359">
        <g id="Group_2358" data-name="Group 2358">
          <path id="Path_2440" data-name="Path 2440" d="M493.047,174.693a.547.547,0,0,0-.386-.16H479.214a.547.547,0,0,0-.547.547v1.563l-5.181,1.388a.547.547,0,0,0-.387.67l2.686,10.022-2.323,2.323a1.641,1.641,0,0,0-1.354-.716H466.86a1.641,1.641,0,0,0-1.639,1.64v8.91a1.641,1.641,0,0,0,1.639,1.64h5.248a1.644,1.644,0,0,0,1.592-1.245l.649.566a2.754,2.754,0,0,0,1.811.679h16.5a.547.547,0,0,0,.547-.547V175.08A.552.552,0,0,0,493.047,174.693Zm-20.392,26.188a.548.548,0,0,1-.547.547H466.86a.548.548,0,0,1-.546-.547v-8.91a.548.548,0,0,1,.546-.547h2.077v6.3a.547.547,0,1,0,1.094,0v-6.3h2.077a.548.548,0,0,1,.547.547v8.91Zm1.642-21.934,4.37-1.171V179.8l-.366.1a.548.548,0,0,0-.387.67,1.472,1.472,0,0,1-1.04,1.8.549.549,0,0,0-.387.671l2.131,7.89h-1.1l-.565-2.212a.56.56,0,0,0-.092-.192Zm4.37,3.361v4.612l-1-3.691A2.553,2.553,0,0,0,478.667,182.308Zm7.854,19.12H476.16a1.659,1.659,0,0,1-1.092-.41l-1.32-1.151v-7.56l2.386-2.387.433,1.694a.547.547,0,0,0,.53.411h10.747a.765.765,0,1,1,0,1.53h-5.507a.547.547,0,0,0,0,1.094h7.218a.765.765,0,1,1,0,1.53h-7.218a.547.547,0,1,0,0,1.093h6.048a.766.766,0,0,1,0,1.531h-6.048a.547.547,0,1,0,0,1.093h4.184a.765.765,0,0,1,0,1.531Zm5.593,0h-3.9a1.848,1.848,0,0,0,0-1.531h.172a1.856,1.856,0,0,0,1.661-2.69,1.862,1.862,0,0,0,1.367-1.792,1.841,1.841,0,0,0-.367-1.107v-6.929a.546.546,0,0,0-1.093,0V193.6a1.867,1.867,0,0,0-.4-.044h-.018a1.858,1.858,0,0,0-1.693-2.623h-.879a2.616,2.616,0,1,0-2.055,0h-2.988V180.539a2.573,2.573,0,0,0,1.959-1.96h4.112a2.574,2.574,0,0,0,1.96,1.96v1.7a.546.546,0,1,0,1.093,0v-2.187a.547.547,0,0,0-.546-.547,1.473,1.473,0,0,1-1.472-1.472.546.546,0,0,0-.547-.546h-5.088a.546.546,0,0,0-.546.546,1.473,1.473,0,0,1-1.472,1.472.547.547,0,0,0-.547.547v10.881h-1.067V175.627h12.353Zm-6.177-11.378a1.523,1.523,0,1,1,1.523-1.523A1.524,1.524,0,0,1,485.937,190.05Z" fill="#0ee218"/>
        </g>
      </g>
    </g>
  </g>
</svg>
