<svg xmlns="http://www.w3.org/2000/svg" width="15.113" height="102.34" viewBox="0 0 15.113 102.34">
  <g id="Group_493" data-name="Group 493" transform="translate(-4346.783 -538.231)">
    <path id="Path_682" data-name="Path 682" d="M4361.692,640.571h-14.5v-6.188a4.252,4.252,0,0,1,.429-1.91,4.9,4.9,0,0,1,1.123-1.491,5.37,5.37,0,0,1,1.573-.98,4.681,4.681,0,0,1,1.777-.357,5.083,5.083,0,0,1,1.838.337,5.236,5.236,0,0,1,1.572.939,4.431,4.431,0,0,1,1.1,1.461,4.346,4.346,0,0,1,.409,1.9v2.941h4.677Zm-7.6-3.349v-2.737a1.3,1.3,0,0,0-.51-1.021,2.265,2.265,0,0,0-1.491-.429,2.58,2.58,0,0,0-.879.133,1.8,1.8,0,0,0-.612.357,1.358,1.358,0,0,0-.358.511,1.568,1.568,0,0,0-.112.572v2.614Z" fill="#fff"/>
    <path id="Path_683" data-name="Path 683" d="M4353.767,621.312a6.275,6.275,0,0,0,.388,2.145,2.618,2.618,0,0,0,1.1,1.389h6.434v3.267h-10.723v-3h2.165a4.565,4.565,0,0,1-1.695-1.419,3.275,3.275,0,0,1-.633-1.849v-.326a1.088,1.088,0,0,1,.02-.205Z" fill="#fff"/>
    <path id="Path_684" data-name="Path 684" d="M4361.9,615.369a6.255,6.255,0,0,1-.45,2.441,5.3,5.3,0,0,1-1.215,1.807,5.127,5.127,0,0,1-1.777,1.113,6.1,6.1,0,0,1-4.227,0,5.137,5.137,0,0,1-1.777-1.113,5.422,5.422,0,0,1-1.225-1.807,6.133,6.133,0,0,1-.46-2.441,6.054,6.054,0,0,1,.46-2.43,5.444,5.444,0,0,1,1.225-1.8,5.268,5.268,0,0,1,1.777-1.123,5.86,5.86,0,0,1,2.114-.388,5.98,5.98,0,0,1,2.113.378,5.128,5.128,0,0,1,1.777,1.113,5.291,5.291,0,0,1,1.215,1.807A6.255,6.255,0,0,1,4361.9,615.369Zm-5.555,2.39a2.967,2.967,0,0,0,2.032-.674,2.19,2.19,0,0,0,.766-1.716,2.153,2.153,0,0,0-.205-.94,2.249,2.249,0,0,0-.572-.745,2.722,2.722,0,0,0-.888-.5,3.37,3.37,0,0,0-1.133-.184,2.959,2.959,0,0,0-2.032.674,2.16,2.16,0,0,0-.766,1.7,2.215,2.215,0,0,0,.776,1.7,2.755,2.755,0,0,0,.888.5A3.4,3.4,0,0,0,4356.341,617.759Z" fill="#fff"/>
    <path id="Path_685" data-name="Path 685" d="M4361.692,591.065v3.268h-6.025a2.457,2.457,0,0,0-1.542.388,1.23,1.23,0,0,0-.48,1,1.694,1.694,0,0,0,.143.664,2.244,2.244,0,0,0,.4.623,3.188,3.188,0,0,0,.6.52,3.258,3.258,0,0,0,.756.378h6.148v3.268h-6.025a2.457,2.457,0,0,0-1.542.388,1.229,1.229,0,0,0-.48,1,1.976,1.976,0,0,0,.52,1.276,2.973,2.973,0,0,0,1.379.909h6.148v3.268h-10.723v-2.941h1.8a3.884,3.884,0,0,1-1.491-1.6,5.165,5.165,0,0,1-.511-2.359,3.8,3.8,0,0,1,.163-1.174,2.828,2.828,0,0,1,.45-.868,2.384,2.384,0,0,1,.663-.593,2.936,2.936,0,0,1,.807-.327,4.221,4.221,0,0,1-1.542-1.613,4.737,4.737,0,0,1-.541-2.287,3.148,3.148,0,0,1,.378-1.645,2.742,2.742,0,0,1,.98-.97,3.807,3.807,0,0,1,1.317-.459,8.948,8.948,0,0,1,1.389-.113Z" fill="#fff"/>
    <path id="Path_686" data-name="Path 686" d="M4361.9,583.795a6.353,6.353,0,0,1-.439,2.42,5.383,5.383,0,0,1-1.195,1.818,5.12,5.12,0,0,1-1.746,1.133,5.629,5.629,0,0,1-2.073.388,6.181,6.181,0,0,1-2.2-.388,5.316,5.316,0,0,1-1.807-1.123,5.245,5.245,0,0,1-1.226-1.808,6.273,6.273,0,0,1-.449-2.44,6.2,6.2,0,0,1,.449-2.43,5.354,5.354,0,0,1,1.216-1.8,5.146,5.146,0,0,1,1.766-1.113,5.925,5.925,0,0,1,2.1-.378q.287,0,.561.021a3.881,3.881,0,0,1,.48.061v7.924a2.2,2.2,0,0,0,1.644-.786,2.5,2.5,0,0,0,.562-1.6,2.933,2.933,0,0,0-.347-1.379,1.773,1.773,0,0,0-.94-.888l.776-2.778a5,5,0,0,1,2.063,1.961A6.083,6.083,0,0,1,4361.9,583.795Zm-6.576-2.267a2.457,2.457,0,0,0-1.614.735,2.214,2.214,0,0,0-.592,1.573,2.188,2.188,0,0,0,.6,1.583,2.5,2.5,0,0,0,1.6.725Z" fill="#fff"/>
    <path id="Path_687" data-name="Path 687" d="M4361.692,566.251v3.268h-6.025a2.409,2.409,0,0,0-1.542.4,1.3,1.3,0,0,0-.48,1.052,1.816,1.816,0,0,0,.143.7,2.873,2.873,0,0,0,.4.674,3.079,3.079,0,0,0,.6.582,2.875,2.875,0,0,0,.756.4h6.148v3.268h-10.723v-2.941h1.8a3.9,3.9,0,0,1-1.481-1.675,5.679,5.679,0,0,1-.521-2.492,3.25,3.25,0,0,1,.378-1.675,2.724,2.724,0,0,1,.98-.98,3.807,3.807,0,0,1,1.317-.459,8.941,8.941,0,0,1,1.389-.113Z" fill="#fff"/>
    <path id="Path_688" data-name="Path 688" d="M4361.12,557.245a13.07,13.07,0,0,1,.531,1.542,6.408,6.408,0,0,1,.245,1.746,4.227,4.227,0,0,1-.153,1.154,2.574,2.574,0,0,1-.491.95,2.288,2.288,0,0,1-.888.643,3.371,3.371,0,0,1-1.328.235h-5.6v1.368h-2.471v-1.368h-3.41v-3.268h3.41v-2.185h2.471v2.185h4.473a.876.876,0,0,0,1-.94,2.491,2.491,0,0,0-.123-.755,4.584,4.584,0,0,0-.265-.674Z" fill="#fff"/>
    <path id="Path_689" data-name="Path 689" d="M4361.9,552.935a4.21,4.21,0,0,1-.255,1.481,3.487,3.487,0,0,1-.715,1.175,3.444,3.444,0,0,1-1.083.776,3.221,3.221,0,0,1-1.358.285,3.113,3.113,0,0,1-1.45-.337,3.317,3.317,0,0,1-1.123-.949,4.73,4.73,0,0,1-.736-1.45,6.169,6.169,0,0,1-.265-1.859,7.584,7.584,0,0,1,.112-1.307,4.352,4.352,0,0,1,.337-1.1h-.49q-1.859,0-1.858,2.145a4.768,4.768,0,0,0,.3,1.674,8,8,0,0,0,.888,1.675l-2.042.96a8.6,8.6,0,0,1-1.042-2.206,8.335,8.335,0,0,1-.347-2.43,5.582,5.582,0,0,1,1.144-3.758,4.178,4.178,0,0,1,3.349-1.328h2.757a1.139,1.139,0,0,0,.684-.153.756.756,0,0,0,.235-.541h2.758a5.434,5.434,0,0,1,.132.776c.021.232.031.443.031.633a2.267,2.267,0,0,1-.358,1.389,1.58,1.58,0,0,1-1.01.592l-.491.062a4.892,4.892,0,0,1,1.41,1.7A4.668,4.668,0,0,1,4361.9,552.935Zm-2.349-.96a2.957,2.957,0,0,0-.184-1.031,2.4,2.4,0,0,0-.49-.827,1.014,1.014,0,0,0-.776-.47h-1.021a5.234,5.234,0,0,0-.255.93,5.089,5.089,0,0,0-.092.929,2.519,2.519,0,0,0,.408,1.48,1.248,1.248,0,0,0,1.062.583,1.209,1.209,0,0,0,.97-.45A1.716,1.716,0,0,0,4359.547,551.975Z" fill="#fff"/>
    <path id="Path_690" data-name="Path 690" d="M4346.783,544.051v-3.267h11.089q1.225,0,1.226-1.042a2.289,2.289,0,0,0-.072-.541,1.993,1.993,0,0,0-.214-.542l2.451-.428a6.369,6.369,0,0,1,.449,1.409,7.443,7.443,0,0,1,.163,1.491,2.982,2.982,0,0,1-.735,2.165,2.833,2.833,0,0,1-2.124.755Z" fill="#fff"/>
  </g>
</svg>
