<?xml version="1.0" encoding="utf-8"?>
<!-- Generator: Adobe Illustrator 21.0.0, SVG Export Plug-In . SVG Version: 6.00 Build 0)  -->
<svg version="1.1" id="Layer_1" xmlns="http://www.w3.org/2000/svg" xmlns:xlink="http://www.w3.org/1999/xlink" x="0px" y="0px"
	 viewBox="0 0 696.6 556.5" style="enable-background:new 0 0 696.6 556.5;" xml:space="preserve">
<style type="text/css">
	.st0{fill:#FFFFFF;}
	.st1{opacity:0.6;fill:#D1E3F1;enable-background:new    ;}
	.st2{opacity:0.5;fill:#FFFFFF;enable-background:new    ;}
	.st3{fill:url(#Path_2974_1_);}
	.st4{fill:url(#Ellipse_172_1_);}
	.st5{fill:url(#Path_2975_1_);}
	.st6{fill:#FFB77D;}
	.st7{fill:#F0974F;}
	.st8{fill:url(#Path_2979_1_);}
	.st9{fill:#0D0B30;}
	.st10{fill:#D4E4EB;}
	.st11{fill:url(#Path_2984_1_);}
	.st12{opacity:0.54;fill:#232563;enable-background:new    ;}
	.st13{fill:url(#Path_2987_1_);}
	.st14{opacity:0.51;fill:#5F9E09;enable-background:new    ;}
	.st15{fill:url(#Path_2993_1_);}
</style>
<g id="Group_2075" transform="translate(-0.018 -214.454)">
	<g id="Group_1684" transform="translate(-3984 -5541)">
		<path id="Path_2968" class="st0" d="M4056.6,5951.7c1.1-0.1,2.3-0.1,3.5-0.2c52.1-1.9,92.5-7.5,125.1-15.5
			c142.8-34.9,137-114.4,311.4-117c2.7,0,5.3,0,8,0c63.3,0.7,107.5,23.4,135.8,61c24.3,32.3,36.9,75.6,39.7,125.5
			c1.2,23.6,0.6,47.3-1.9,70.8c0,0.3-0.1,0.6-0.1,1c-1.4,13.5-3.9,26.9-7.4,40c-10.6,39.4-30.2,75.8-57.3,106.3
			c-2,2.3-4.1,4.5-6.2,6.7c-48.9,51.3-116.7,80.4-187.7,80.4h-174.9c-89,0-171.9-45.5-219.4-120.8c-17.2-27.2-29.1-57.4-35-89
			c0,0,0,0,0,0C3975.6,6024.9,3983.4,5956.4,4056.6,5951.7z"/>
		<g id="Group_1683">
			<path id="Path_2969" class="st1" d="M4056.6,5953c1.1-0.1,2.3-0.1,3.5-0.2c52.1-1.9,92.5-7.5,125.1-15.5
				c142.8-34.9,137-114.4,311.4-117c2.7,0,5.3,0,8,0c63.3,0.7,107.5,23.4,135.8,61c24.3,32.3,36.9,75.6,39.7,125.5
				c1.2,23.6,0.6,47.3-1.9,70.8c0,0.3-0.1,0.6-0.1,1c-1.4,13.5-3.9,26.9-7.4,40c-10.6,39.4-30.2,75.8-57.3,106.3
				c-2,2.3-4.1,4.5-6.2,6.7c-48.9,51.3-116.7,80.4-187.7,80.4h-174.9c-89,0-171.9-45.6-219.4-120.8c-17.2-27.2-29.1-57.4-35-89
				c0,0,0,0,0,0C3975.6,6026.2,3983.4,5957.7,4056.6,5953z"/>
			<path id="Path_2970" class="st2" d="M4060.1,5952.8c52.1-1.9,92.5-7.5,125.1-15.5c101.2,5.1,235.8-24.1,339.6-50.9
				c47.9-12.4,85.8-12.1,115.6-5.2c24.3,32.3,36.9,75.6,39.7,125.5c-85.1-55.2-262.8-25.7-403.9-10.4
				c-93,10.1-170.2-17.5-219.6-43.3C4057.7,5952.9,4058.9,5952.9,4060.1,5952.8z"/>
			<path id="Path_2971" class="st2" d="M4383.9,6090.6c137.5-31.4,244.2,7.8,286.8,28c-10.6,39.4-30.2,75.8-57.3,106.3
				c-2,2.3-4.1,4.5-6.2,6.7c-121.9-71.4-286.8-72-437.2-39.2c-61.6,13.4-109.1,9.5-144.8-1.3c-17.2-27.2-29.1-57.4-35-89
				C4072.7,6150,4238.9,6123.7,4383.9,6090.6z"/>
		</g>
	</g>
	<g id="Group_1687" transform="translate(-3984 -5541)">
		
			<linearGradient id="Path_2974_1_" gradientUnits="userSpaceOnUse" x1="3660.9585" y1="6432.8018" x2="3659.9595" y2="6430.7925" gradientTransform="matrix(-145.376 0 0 -72.2524 535429.9375 469519.5938)">
			<stop  offset="0" style="stop-color:#2B3988"/>
			<stop  offset="1" style="stop-color:#2BB788"/>
		</linearGradient>
		<path id="Path_2974" class="st3" d="M4326.2,5923.8c3.2,10.8,15.4,0.2,21.2-2.7c10.8-5.2,23.3-6.2,35.1-4
			c13.1,2.4,25.3,8.5,36.4,15.9c6.8,4.6,13.4,9.8,21.1,12.8s17,3.1,23.5-1.9c8.8-6.8,9.1-20.4,5-30.9c-6.9-17.7-23.7-30.5-42.1-35.2
			s-38.2-1.8-55.7,5.5C4358.8,5888.3,4320.7,5905.2,4326.2,5923.8z"/>
		
			<linearGradient id="Ellipse_172_1_" gradientUnits="userSpaceOnUse" x1="3722.9641" y1="6471.1641" x2="3716.603" y2="6464.8032" gradientTransform="matrix(-22.822 0 0 -22.822 87952.0703 152302)">
			<stop  offset="0" style="stop-color:#2B3988"/>
			<stop  offset="1" style="stop-color:#2BB788"/>
		</linearGradient>
		<circle id="Ellipse_172" class="st4" cx="4305.9" cy="5936.5" r="11.4"/>
	</g>
	
		<linearGradient id="Path_2975_1_" gradientUnits="userSpaceOnUse" x1="-332.3483" y1="875.825" x2="-331.3483" y2="875.825" gradientTransform="matrix(-204.4419 0 0 -93.0034 -67552.6953 82064.0625)">
		<stop  offset="0" style="stop-color:#2B3988"/>
		<stop  offset="1" style="stop-color:#2BB788"/>
	</linearGradient>
	<path id="Path_2975" class="st5" d="M346.5,577.5c9.6-5,16.8-13.7,28.2-14.6c17.6-1.3,22.9,10.9,14.9,25.2
		c-16.4,29.2-44.8,51.1-76.8,61.1s-67.2,8.4-98.7-3.1c-11.2-4.1-23.2-11.1-25.1-22.8c-1.9-11.8,8.2-22.7,19.5-26.4
		s23.5-2.4,35.4-1.8C277,596.7,316.6,593,346.5,577.5z"/>
	<g id="Group_1694" transform="translate(-3984 -5541)">
		<path id="Path_2976" class="st6" d="M4183.8,5969.7c4.3,0.5,8.6-1.9,11.3-5.3s3.9-7.7,4.6-12s0.7-8.7,1.2-13s1.5-9.2,4-12.7
			c5.9-2.5,11.5-5.6,16.7-9.3c0.6-0.4,1.3-1,1.3-1.7c-0.1-0.7-0.5-1.2-1.2-1.4c-0.6-0.2-1.3-0.2-2-0.1c-3.2,0.3-6.3,1.1-9.3,2.4
			c0.9-3.5,3.9-6,7.2-7.4s6.9-1.9,10.4-2.8c1.2-0.2,2.2-0.7,3.2-1.4c1-0.7,1.4-2,1.1-3.1c-0.4-1.4-2-2-3.4-2.4
			c-5.5-1.5-11.3-1.9-17-1.2c-4.9,0.6-9.8,2.2-13.4,5.6c-2.8,2.7-4.6,6.4-6.2,10c-6.8,15.1-12.5,30.7-17.1,46.6
			C4174.1,5964.5,4179.5,5969.2,4183.8,5969.7z"/>
		<path id="Path_2977" class="st7" d="M4183.8,5969.7c4.3,0.5,8.6-1.9,11.3-5.3s3.9-7.7,4.6-12c0.5-3.1,0.6-6.2,0.9-9.4
			c-2.8,0.6-5.7,0.9-8.5,0.8c-3.6-0.1-7.2-1-10.5-2.7c-2.2,6.4-4.3,12.8-6.2,19.3C4174.1,5964.5,4179.5,5969.2,4183.8,5969.7z"/>
		<g id="Group_1690">
			<path id="Path_2978" class="st6" d="M4471,6098.4l11.5,18.6l21.6-2.8l-15.4-23.5L4471,6098.4z"/>
			
				<linearGradient id="Path_2979_1_" gradientUnits="userSpaceOnUse" x1="3652.04" y1="6416.9897" x2="3652.512" y2="6416.6016" gradientTransform="matrix(-248.4692 0 0 -160.4863 911749.25 1035916.4375)">
				<stop  offset="0" style="stop-color:#4654A3"/>
				<stop  offset="0.35" style="stop-color:#384692"/>
				<stop  offset="1" style="stop-color:#18256B"/>
			</linearGradient>
			<path id="Path_2979" class="st8" d="M4255.5,6036.2c4.5,1.8,9.7,1,14.5,0.2c42.9-7.4,86.7-13.2,129.6-20.6
				c21.7,33.2,44.1,55.4,73.3,92.1c8.2-0.7,18-5.2,25.1-9.3c-18.7-45.2-44.3-87.2-75.7-124.7c-9.6-11.4-20.7-23-35.3-25.8
				c-14.4-2.8-28.9,3.6-41.8,10.4c-34.2,18.1-65.9,40.7-94.2,67.1C4247.5,6028.9,4251,6034.3,4255.5,6036.2z"/>
			<g id="Group_1689">
				<path id="Path_2980" class="st9" d="M4501.6,6109.8c-2.6-0.3-5.5,0.8-8.1,1.2l-9.8,1.7c-1.7,0.1-3.4,0.8-4.9,1.8
					c-1.9,1.6-2.3,4.3-2.6,6.8c-0.3,2.4-0.5,5,0.4,7.3c1.3,3.2,4.7,5.1,8.1,5.6s6.8-0.1,10.2-0.7c10.2-1.7,20.4-2.8,30.7-3.1
					c2.3,0,4.6-0.2,6.8-0.9c2.2-0.6,4-2.3,4.9-4.4c0.9-2.8-0.6-5.9-2.8-7.9c-3.5-3.1-8.5-3.9-13.1-4.5
					C4514.9,6111.7,4508.3,6110.5,4501.6,6109.8z"/>
				<g id="Group_1688">
					<path id="Path_2981" class="st10" d="M4476.7,6128.5c1.3,3.2,4.7,5.1,8.1,5.6s6.8-0.1,10.2-0.7c10.2-1.7,20.4-2.8,30.7-3.1
						c2.3,0,4.6-0.2,6.8-0.9c2.2-0.6,4-2.3,4.9-4.4c0.2-0.8,0.3-1.6,0.2-2.4c-20.2,3.7-40.7,5.3-61.3,4.8
						C4476.5,6127.7,4476.6,6128.1,4476.7,6128.5z"/>
					<path id="Path_2982" class="st10" d="M4521.3,6116.3c-1.3,3.8-1,7.9,0.7,11.5l15.5-3c0.8-2.7-0.7-5.8-2.9-7.6
						c-3.1-2.7-7.4-3.7-11.5-4.3C4522.3,6113.9,4521.8,6115.1,4521.3,6116.3z"/>
				</g>
			</g>
		</g>
		<path id="Path_2983" class="st6" d="M4557.7,6049.4l-25.6-6l-2.5-18.4l23.6,6.8L4557.7,6049.4z"/>
		
			<linearGradient id="Path_2984_1_" gradientUnits="userSpaceOnUse" x1="3650.9185" y1="6416.9385" x2="3651.8794" y2="6416.9385" gradientTransform="matrix(-357.8252 0 0 -103.3887 1310944 669487)">
			<stop  offset="0" style="stop-color:#4654A3"/>
			<stop  offset="0.52" style="stop-color:#3A4892"/>
			<stop  offset="1" style="stop-color:#2D3A80"/>
		</linearGradient>
		<path id="Path_2984" class="st11" d="M4222.3,6027.8c-9.3,5.4-17,13-24.4,20.8c-4.1,4.4-8.2,9-11,14.3s-4.1,11.7-2.5,17.5
			c1.7,6.2,6.6,11.2,12.2,14.2s12,5.6,18.4,5.3c82.9-3.9,94.3-43.1,171.2-67.4c36,14.9,82.7,1.6,148.4,14.8c7.1-6.3,8-14.2,5.9-21.6
			c-64.5-19.7-143.4-29.6-160.1-29.1C4370.4,5996.8,4231.6,6022.4,4222.3,6027.8z"/>
		<path id="Path_2985" class="st12" d="M4184.5,6080.4c1.7,6.2,6.6,11.2,12.2,14.2s12,5.6,18.4,5.3c9.5-0.4,32.7-5.5,40.5-21.1
			c4.6-9,7.2-18.8,7.7-28.9c0.3-7.9-0.3-23-6.6-30.8c-18.1,3.8-31.6,7.1-34.3,8.6c-9.3,5.4-17,13-24.4,20.8c-4.1,4.4-8.2,9-11,14.3
			C4184.3,6068.3,4182.9,6074.6,4184.5,6080.4z"/>
		<path id="Path_2986" class="st6" d="M4130,5861.8c6.6,5.8-6.2,11.9,0.4,17.7c-2.4,5.7,1.3,27.5,0.8,33.6
			c-10.7,6.2-22.9,7.4-34.9,4.2c4.7-16.8,16.1-40,14-57.3C4115,5864.2,4125.2,5857.7,4130,5861.8z"/>
		
			<linearGradient id="Path_2987_1_" gradientUnits="userSpaceOnUse" x1="3652.1414" y1="6417.3804" x2="3653.0806" y2="6417.3804" gradientTransform="matrix(-165.2271 0 0 -183.1011 607671.3125 1181031.25)">
			<stop  offset="0" style="stop-color:#F9DF18"/>
			<stop  offset="1" style="stop-color:#4DC106"/>
		</linearGradient>
		<path id="Path_2987" class="st13" d="M4168.9,5955.2c-5.3-10.6-20.5-51.7-67.8-43.8c-2.7,0.4-9.4,5.2-9.9,10.2
			c-4.7,47.9,8.5,124,84.2,165.3c57.4,31.3,81.4-58.3,80.2-64.5c-1.4-7.5-13-9.2-20.4-11.1C4202.2,6002.8,4192.4,6002,4168.9,5955.2
			z"/>
		<path id="Path_2988" class="st14" d="M4158.4,5967.9c-9.1-2.8-17.5-7.2-25.9-11.5c-6.4-3.3-14.7-9.5-22.3-7.9
			c-17.8,3.6,5.6,27.2,11.5,32.3c7,5.9,14.9,10.7,23.4,13.9c18.1,6.9,37.9,7.8,57.2,5.4c-8.4-5.1-15.5-13-24.2-27.8
			C4171.5,5971,4164.8,5969.9,4158.4,5967.9z"/>
		<g id="Group_1692">
			<path id="Path_2989" class="st9" d="M4548,6028.2c0,2.6,1.3,5.4,2,8l2.6,9.6c0.3,1.7,1.1,3.3,2.2,4.7c1.8,1.7,4.5,1.9,7,1.9
				c2.4,0,5,0,7.2-1.1c3-1.6,4.6-5.2,4.8-8.6c0.2-3.4-0.8-6.8-1.7-10.1c-2.7-10-4.7-20.1-6-30.3c-0.2-2.3-0.7-4.5-1.5-6.7
				c-0.8-2.2-2.6-3.8-4.9-4.5c-2.9-0.6-5.8,1.1-7.6,3.5c-2.7,3.8-3,8.8-3.3,13.5C4548.6,6014.8,4548.1,6021.5,4548,6028.2z"/>
			<g id="Group_1691">
				<path id="Path_2990" class="st10" d="M4569,6051.2c3-1.6,4.6-5.2,4.8-8.6c0.2-3.4-0.8-6.8-1.7-10.1c-2.7-10-4.7-20.1-6-30.3
					c-0.2-2.3-0.7-4.5-1.5-6.7c-0.8-2.2-2.6-3.8-4.9-4.5c-0.8-0.2-1.6-0.2-2.5,0c5.6,19.8,9.1,40,10.6,60.5
					C4568.2,6051.5,4568.6,6051.4,4569,6051.2z"/>
				<path id="Path_2991" class="st10" d="M4552.5,6007.9c3.9,0.9,7.9,0.3,11.3-1.8c-1.5-5-2.9-10.1-4.4-15.1
					c-2.8-0.5-5.7,1.2-7.3,3.6c-2.4,3.4-2.9,7.7-3.2,11.9C4550.1,6007.1,4551.3,6007.6,4552.5,6007.9z"/>
			</g>
		</g>
		<g id="Group_1693">
			<path id="Path_2992" class="st6" d="M4116.8,5920.5c-5.2,2.9-8.2,8.9-8.4,14.8s2.2,11.7,5.8,16.4s8.3,8.4,13.2,11.8
				c13,8.8,44.2,23.6,59.8,24.5c20.2,1.1,70.6-51.3,84.4-66c-2.8-6-6.4-7.2-11.3-10.2c-16.9,18.5-34.6,20.2-69.2,45.3
				c-6.8,4.9-33.6-12.2-40-18.2s-12.6-12.5-20.4-16.7C4125.6,5919.4,4121.9,5917.6,4116.8,5920.5z"/>
			
				<linearGradient id="Path_2993_1_" gradientUnits="userSpaceOnUse" x1="3655.6282" y1="6414.1689" x2="3655.2202" y2="6414.979" gradientTransform="matrix(-85.2832 0 0 -71.1426 315801.4688 462436.25)">
				<stop  offset="0" style="stop-color:#F9DF18"/>
				<stop  offset="1" style="stop-color:#4DC106"/>
			</linearGradient>
			<path id="Path_2993" class="st15" d="M4182.2,5951.2c-9.8-9.2-33.1-27.5-46.8-32.5c-6.6-2.5-13.7-3.3-20.7-2.4
				c-6.9,1.1-13.4,4.7-16.1,9.9c-1.8,3.4-1.9,7.3-1.4,11c1.4,11.1,7.6,21.6,17.6,29.4c10.3,8,34.6,20.2,51.6,20.5
				C4176.6,5979,4182.7,5964.7,4182.2,5951.2z"/>
			<path id="Path_2994" class="st6" d="M4257.7,5922.9c2.6,2.3,6.2,3.1,9.5,2.1c2.9-1.1,12.6-4.4,11.2-20c3.2-1.7,8.1-5.6,11.2-7.6
				c1.1-0.6,2.1-1.5,2.9-2.4c0.8-1,1-2.3,0.7-3.6c-0.6-1.4-2.1-2.2-3.6-2.6c-5-1.4-10.4-0.6-15.5,0.8c-4.1,1-7.9,2.8-11.2,5.4
				C4257.5,5899.5,4255.1,5920.6,4257.7,5922.9z"/>
		</g>
		<path id="Path_2995" class="st7" d="M4129.5,5886.4c-1.8-2.5-4.3-6.4-6.5-6.6c-1,0-1.8,0.6-2.2,1.5c-0.4,0.9-0.5,1.8-0.4,2.7
			c0.1,4.4,1.6,8.7,4.3,12.2c1.3,2,3.4,3.4,5.7,4C4130,5895.5,4129.5,5890.4,4129.5,5886.4z"/>
		<path id="Path_2996" class="st6" d="M4154.5,5829.1c-5.6-6.2-14.2-9.7-22.5-8.3c-8.9,1.5-16.5,8.1-20.2,16.3s-3.6,17.8-0.6,26.3
			s8.6,15.9,15.5,21.7c3.8,3.2,8.2,6.1,13.1,7.1s10.5-0.1,13.9-3.7c2.8-3,3.8-7.1,4.6-11c1.7-8.1,3.1-16.4,2.9-24.8
			C4161,5845.1,4159.8,5834.9,4154.5,5829.1z"/>
		<path id="Path_2997" class="st9" d="M4145.8,5818.4c-3.1-1.3-5.7-3.5-8.7-4.8c0,0,0,0-0.1,0c-8.7-3.3-18.4,1-21.7,9.6
			c-5.5-0.7-9.3,2.9-12.1,7.7s-3.4,10.6-2.9,16.1c0.5,5.4,5.1,19.7,9.1,28c28-5.2,23-28.5,22.7-35c26.1,8.6,31.2,1.1,37.7-2.7
			C4172.4,5835.7,4148.6,5819.6,4145.8,5818.4z"/>
		<path id="Path_2998" class="st9" d="M4155.6,5811c-4.3,2.1-8.8,4-13.7,3.6c-3.5-0.3-7.4-2.3-10.9-1.8c-3.9,0.6-6.7,5-7.8,8.4
			c-1.4,4.6-0.5,9.7,2.4,13.6c3.9,5.1,10.5,7.1,16.8,8.3c6.1,1.3,12.4,1.5,18.6,0.7c6.1-1,12.2-3.6,16.5-8.1s6.7-11,5.4-17.1
			s-6.4-11.4-12.6-12C4164.9,5806.1,4160.1,5808.7,4155.6,5811z"/>
		<path id="Path_2999" class="st6" d="M4126.9,5849.9c3.9-0.5,7.6,2.7,8.1,7.2s-2.2,8.4-6.2,8.9s-7.6-2.7-8.1-7.2
			C4120.2,5854.3,4123,5850.3,4126.9,5849.9z"/>
		<path id="Path_3000" class="st0" d="M4141,5796.8l-16.1,0.7l3.1-42l23.2,2.1l-16.5,33.8l19.4,0.2l-13.2,15L4141,5796.8z"/>
		<path id="Path_3001" class="st0" d="M4164.4,5788.7l-10.4-4.9l16.1-25.5l13.9,9.1l-21.7,15.9l12.2,6.6l-13.4,5.1L4164.4,5788.7z"
			/>
	</g>
</g>
</svg>
