<svg xmlns="http://www.w3.org/2000/svg" xmlns:xlink="http://www.w3.org/1999/xlink" width="232.647" height="543.746" viewBox="0 0 232.647 543.746">
  <defs>
    <linearGradient id="linear-gradient" x1="0.5" y1="0.899" x2="0.5" y2="-0.146" gradientUnits="objectBoundingBox">
      <stop offset="0" stop-color="#2b3988"/>
      <stop offset="1" stop-color="#2bb788"/>
    </linearGradient>
    <linearGradient id="linear-gradient-2" x1="0.024" y1="1.009" x2="1.242" y2="-0.468" xlink:href="#linear-gradient"/>
    <linearGradient id="linear-gradient-3" x1="0.5" y1="-0.502" x2="0.5" y2="0.741" xlink:href="#linear-gradient"/>
  </defs>
  <g id="Group_1710" data-name="Group 1710" transform="translate(-5547.482 -8603.149)">
    <g id="Group_1708" data-name="Group 1708">
      <path id="Path_3042" data-name="Path 3042" d="M5717.855,8767.525c7.788-3.116,11.942-11.443,20.081-10.246,4.468.656,2.613,13.624-4.148,20.673-1.6,1.673-14.274,5.556-14.274,5.556Z" fill="#e4e5fb"/>
      <g id="Group_1707" data-name="Group 1707">
        <path id="Path_3043" data-name="Path 3043" d="M5659.863,9039.965l24.724-1.966-1.561,8.48,31.227,15.237-61.229-4.334Z" fill="#11025f"/>
        <path id="Path_3044" data-name="Path 3044" d="M5580.481,9125.144l24.724-1.966-1.56,8.48,31.227,15.237-61.229-4.333Z" fill="#11025f"/>
        <path id="Path_3045" data-name="Path 3045" d="M5727.967,8753.806s-34.29,15.264-53,15.264c-12.692,0-24.71-68.075-51.726-68.075-2.641,16.56,1.459,31.374-3.216,47.5,10.036,25.642,25.5,53.97,39.393,57.739,15.549,4.222,68.554-27.764,68.554-27.764Z" fill="#f7c90b"/>
        <path id="Path_3046" data-name="Path 3046" d="M5664.439,8836.822c-25.81,7.684-60.425,22.079-87.418,22.481-.05,6-.071,11.9-.029,16.457-.22,28.584,34.277,141.753,34.277,141.753l-33.716,108.949,28.425,2.05,47.43-106.086s-2.338-58.1-10.888-118.43c11.12,9.639,52.576,38.931,58.308,44.225-5.98,16.215-43.873,93.881-43.873,93.881l31.155,1.642s60.549-96.847,59.908-107.321C5729.129,8902.076,5678.319,8849.922,5664.439,8836.822Z" fill="url(#linear-gradient)"/>
        <path id="Path_3047" data-name="Path 3047" d="M5648.606,8788.679c-4.865,1.649-11.383-1.969-9.385-8.265,8.109-25.579,2.536-65.184-11.27-76.328-14.841-11.978-36.176-9.24-53.071-4.9-45.416,30.864-21.588,170.525-6.806,214.263,60.339-13.1,87.32-20.724,121.368-53.778C5682.357,8837.043,5646.171,8808.683,5648.606,8788.679Z" fill="#f7c90b"/>
        <path id="Path_3048" data-name="Path 3048" d="M5634.22,8822.922c-59.327,2.039-61.211-45.021-85.154-57.076.986,7.91-.283,50.778,19.84,82.012,9.306,14.443,105.817,12.419,119.458,9-3.909-9.65-12.416-20.2-20.571-30.624C5656.672,8825.853,5645.636,8822.529,5634.22,8822.922Z" fill="#f7c90b" opacity="0.47" style="mix-blend-mode: multiply;isolation: isolate"/>
        <path id="Path_3049" data-name="Path 3049" d="M5601.725,8681.666c-.118,8.509-.552,9.375-2.13,14.267,5.184,7.223,14.549,14.008,17.958,13.332s-.672-6.255-.675-6.878c-.035-7.424,1.465-10.776,3.207-17.994" fill="#e4e5fb"/>
        <path id="Path_3050" data-name="Path 3050" d="M5638.421,8651.863c-.253,19.044-11.858,49.422-31.4,35.662s-21.215-35.877-21.215-35.877S5619.961,8604.939,5638.421,8651.863Z" fill="#e4e5fb"/>
        <path id="Path_3051" data-name="Path 3051" d="M5694.1,8827.621c8.87.573,16.309-4.691,21.459-1.772s17.758,18.368-6.857,17.795-20.305.017-20.305.017Z" fill="#e4e5fb"/>
        <path id="Path_3052" data-name="Path 3052" d="M5587.3,8700.994c-5.9-7.665-24.388-.5-30.637,8.317-23.66,33.386,5.318,108.348,10.167,119.374,10.549,23.988,127.137,18.67,127.137,18.67l6.538-21.249s-90.151-11.6-100.909-19.488C5595.4,8803.544,5608.161,8728.11,5587.3,8700.994Z" fill="#f7c90b"/>
        <path id="Path_3053" data-name="Path 3053" d="M5659.373,8632.913a8.476,8.476,0,0,0-12.316-.693,6.859,6.859,0,0,0-10.234-9.1c.954-3.081-2.23-6.178-5.446-6.418s-6.23,1.428-9.022,3.042a7.747,7.747,0,0,0-13.52-3.1c.172-1.93-1.549-3.638-3.44-4.063a9.749,9.749,0,0,0-5.662.855c-3.274,1.313-6.436,3.291-8.274,6.3s-2.027,7.212.257,9.9a4.014,4.014,0,0,0-5.33-.729,6.553,6.553,0,0,0-2.632,5.1,19.355,19.355,0,0,0,.823,5.869c-1.379-2.331-4.9-2.745-7.144-1.226a7.878,7.878,0,0,0-3.017,7.139,17.3,17.3,0,0,0,2.847,7.524,75.01,75.01,0,0,1,4.2,6.945c-5.718,14.079,16.607,21.516,20.673,23.492,3.065-1.539,1.955-11.6,1.584-12.145-7.339-10.835,5.22-20.744,5-3.6,0,0,1.12,5.023,3.636-3.915,0,0,2.042-9.953,20.9-7.562.321.041.606,0,.92.014a5.592,5.592,0,0,0,2.162,1,6.016,6.016,0,0,0,5.253-1.667,21.341,21.341,0,0,0,2.356-.711,13.971,13.971,0,0,0,6.817,1.609,8.759,8.759,0,0,0,7.15-4.026,6.264,6.264,0,0,0-1.138-7.779A8.475,8.475,0,0,0,5659.373,8632.913Z" fill="url(#linear-gradient-2)"/>
      </g>
    </g>
    <g id="Group_1709" data-name="Group 1709">
      <path id="Path_3054" data-name="Path 3054" d="M5773.531,8668.426c-7-7.111-18.879-7.841-27.787-3.344a31.244,31.244,0,0,0-6.5,4.427c-.2-19.254-4.378-38.35-14.2-54.773a29.4,29.4,0,0,0-7.164-8.7c-3.021-2.272-7-3.533-10.65-2.555-4.641,1.241-7.669,5.646-9.8,9.954-7.171,14.511-8.655,30.771-7.2,47.052a25.582,25.582,0,0,0-7.212-3.074c-5.169-1.273-10.964-.566-15.24,2.605-5.852,4.34-7.813,12.209-8.207,19.483-1.11,20.489,7.078,40.619,18.98,57.335,9.494,13.334,21.264,24.8,33.441,35.8l0,.864c.086-.209.172-.419.257-.628q4.5,4.061,9.046,8.058l-1.339-6.31c9.017-3.428,16.657-9.935,23.358-16.947a152.76,152.76,0,0,0,32.476-51.7c2.331-6.211,4.273-12.685,4.336-19.317S5778.185,8673.153,5773.531,8668.426Zm-55.482,90.174q-.319,3.356-.638,6.711-.378-1.7-.69-3.407Q5717.387,8760.252,5718.049,8758.6Z" fill="url(#linear-gradient-3)"/>
      <path id="Path_3055" data-name="Path 3055" d="M5695.975,8830.188H5743.6l17.1-65.337H5678.87Z" fill="#ffac00"/>
      <rect id="Rectangle_498" data-name="Rectangle 498" width="88.759" height="21.448" transform="translate(5764.165 8779.474) rotate(180)" fill="#ffc76c"/>
    </g>
  </g>
</svg>
