<svg xmlns="http://www.w3.org/2000/svg" xmlns:xlink="http://www.w3.org/1999/xlink" width="696.617" height="556.541" viewBox="0 0 696.617 556.541">
  <defs>
    <linearGradient id="linear-gradient" x1="11.794" y1="-14.234" x2="10.795" y2="-12.225" gradientUnits="objectBoundingBox">
      <stop offset="0" stop-color="#2b3988"/>
      <stop offset="1" stop-color="#2bb788"/>
    </linearGradient>
    <linearGradient id="linear-gradient-2" x1="70.161" y1="-45.461" x2="63.8" y2="-39.1" xlink:href="#linear-gradient"/>
    <linearGradient id="linear-gradient-3" x1="0" y1="0.5" x2="1" y2="0.5" xlink:href="#linear-gradient"/>
    <linearGradient id="linear-gradient-4" x1="0.104" y1="1.508" x2="0.576" y2="1.896" gradientUnits="objectBoundingBox">
      <stop offset="0" stop-color="#4654a3"/>
      <stop offset="0.35" stop-color="#384692"/>
      <stop offset="1" stop-color="#18256b"/>
    </linearGradient>
    <linearGradient id="linear-gradient-5" x1="-0.033" y1="-4.42" x2="0.928" y2="-4.42" gradientUnits="objectBoundingBox">
      <stop offset="0" stop-color="#4654a3"/>
      <stop offset="0.52" stop-color="#3a4892"/>
      <stop offset="1" stop-color="#2d3a80"/>
    </linearGradient>
    <linearGradient id="linear-gradient-6" x1="0.102" y1="1.414" x2="1.041" y2="1.414" gradientUnits="objectBoundingBox">
      <stop offset="0" stop-color="#f9df18"/>
      <stop offset="1" stop-color="#4dc106"/>
    </linearGradient>
    <linearGradient id="linear-gradient-7" x1="0.825" y1="3.247" x2="0.417" y2="2.437" xlink:href="#linear-gradient-6"/>
  </defs>
  <g id="Group_2075" data-name="Group 2075" transform="translate(-0.018 -214.454)">
    <g id="Group_1684" data-name="Group 1684" transform="translate(-3984 -5541)">
      <path id="Path_2968" data-name="Path 2968" d="M4674.636,6100.872c0,.016-.008.025-.008.041a256.162,256.162,0,0,1-35.046,88.959,259.493,259.493,0,0,1-219.443,120.79H4245.208a259.241,259.241,0,0,1-187.652-80.372q-3.162-3.309-6.21-6.747a262.088,262.088,0,0,1-57.314-106.3,257.383,257.383,0,0,1-7.366-40.028c-.032-.325-.065-.643-.1-.968a452.674,452.674,0,0,1-1.936-70.8c2.816-49.884,15.39-93.208,39.718-125.511,28.307-37.594,72.534-60.253,135.814-60.953,2.629-.024,5.274-.024,7.952.016,174.361,2.629,168.558,82.139,311.364,117.031,32.638,7.976,73.039,13.624,125.137,15.48,1.172.041,2.327.1,3.467.179C4681.237,5956.365,4689.1,6024.911,4674.636,6100.872Z" fill="#fff"/>
      <g id="Group_1683" data-name="Group 1683">
        <path id="Path_2969" data-name="Path 2969" d="M4674.636,6102.205c0,.017-.008.025-.008.041a256.162,256.162,0,0,1-35.046,88.959A259.491,259.491,0,0,1,4420.139,6312H4245.208a259.241,259.241,0,0,1-187.652-80.372q-3.162-3.309-6.21-6.747a262.076,262.076,0,0,1-57.314-106.3,257.362,257.362,0,0,1-7.366-40.028c-.033-.325-.065-.642-.1-.968a452.674,452.674,0,0,1-1.936-70.8c2.816-49.884,15.39-93.207,39.718-125.511,28.307-37.594,72.534-60.252,135.814-60.953,2.629-.024,5.274-.024,7.952.017,174.361,2.629,168.558,82.138,311.364,117.03,32.638,7.976,73.039,13.625,125.137,15.48,1.172.041,2.327.1,3.467.179C4681.237,5957.7,4689.1,6026.244,4674.636,6102.205Z" fill="#d1e3f1" opacity="0.6"/>
        <path id="Path_2970" data-name="Path 2970" d="M4608.084,5953.018c-49.412,25.8-126.6,53.416-219.573,43.348-141.105-15.277-318.73-44.837-403.879,10.41,2.816-49.884,15.39-93.207,39.718-125.511,29.8-6.918,67.707-7.2,115.572,5.16,103.724,26.786,238.4,56.045,339.558,50.934,32.638,7.976,73.039,13.625,125.137,15.48C4605.789,5952.88,4606.944,5952.937,4608.084,5953.018Z" fill="#fff" opacity="0.5" style="mix-blend-mode: screen;isolation: isolate"/>
        <path id="Path_2971" data-name="Path 2971" d="M4674.628,6102.246a256.162,256.162,0,0,1-35.046,88.959c-35.722,10.751-83.246,14.707-144.8,1.262-150.391-32.857-315.343-32.263-437.225,39.156q-3.162-3.309-6.21-6.747a262.076,262.076,0,0,1-57.314-106.3c42.591-20.177,149.26-59.366,286.76-27.982C4425.8,6123.684,4592.026,6149.989,4674.628,6102.246Z" fill="#fff" opacity="0.5" style="mix-blend-mode: screen;isolation: isolate"/>
      </g>
    </g>
    <g id="Group_1687" data-name="Group 1687" transform="translate(-3984 -5541)">
      <path id="Path_2974" data-name="Path 2974" d="M4294.014,5883.367c-17.541-7.267-37.312-10.155-55.719-5.5s-35.146,17.495-42.087,35.169c-4.088,10.409-3.872,24.007,4.973,30.851,6.508,5.036,15.849,4.832,23.544,1.914s14.248-8.142,21.065-12.753c11.047-7.472,23.266-13.546,36.387-15.934,11.716-2.132,24.242-1.156,35.06,4.039,5.847,2.808,18.077,13.478,21.25,2.651C4343.953,5905.151,4305.918,5888.3,4294.014,5883.367Z" fill="url(#linear-gradient)"/>
      <circle id="Ellipse_172" data-name="Ellipse 172" cx="11.411" cy="11.411" r="11.411" transform="translate(4347.319 5925.041)" fill="url(#linear-gradient-2)"/>
    </g>
    <path id="Path_2975" data-name="Path 2975" d="M4436.768,6136.1c11.892-.573,24.149-1.967,35.439,1.81s21.324,14.674,19.469,26.434c-1.85,11.732-13.943,18.725-25.1,22.791-31.479,11.47-66.713,13.121-98.684,3.1s-60.351-31.926-76.78-61.124c-8.054-14.314-2.675-26.519,14.893-25.17,11.392.875,18.552,9.542,28.2,14.566C4364.055,6134.049,4403.7,6137.692,4436.768,6136.1Z" transform="translate(-3984 -5541)" fill="url(#linear-gradient-3)"/>
    <g id="Group_1694" data-name="Group 1694" transform="translate(-3984 -5541)">
      <path id="Path_2976" data-name="Path 2976" d="M4489.348,5960.367a356.086,356.086,0,0,0-17.069-46.636c-1.61-3.6-3.343-7.259-6.188-9.987-3.561-3.413-8.515-5.005-13.4-5.647a43.219,43.219,0,0,0-17.047,1.179c-1.408.388-2.988,1.03-3.42,2.426a3.093,3.093,0,0,0,1.128,3.13,7.972,7.972,0,0,0,3.192,1.424c3.468.915,7.074,1.4,10.38,2.79s6.389,3.938,7.248,7.421a31.3,31.3,0,0,0-9.289-2.368,4.337,4.337,0,0,0-1.956.079,1.632,1.632,0,0,0-1.164,1.439c.008.744.668,1.3,1.273,1.729a86.049,86.049,0,0,0,16.7,9.327c2.513,3.54,3.45,8.443,4.013,12.748s.618,8.666,1.248,12.961,1.894,8.619,4.571,12.037,6.971,5.789,11.284,5.29S4490.552,5964.538,4489.348,5960.367Z" fill="#ffb77d"/>
      <path id="Path_2977" data-name="Path 2977" d="M4489.348,5960.367c-1.871-6.481-3.974-12.892-6.21-19.256a25.094,25.094,0,0,1-10.475,2.7,36.9,36.9,0,0,1-8.546-.793c.263,3.126.421,6.263.876,9.366.63,4.295,1.894,8.619,4.571,12.037s6.971,5.789,11.284,5.29S4490.552,5964.538,4489.348,5960.367Z" fill="#f0974f"/>
      <g id="Group_1690" data-name="Group 1690">
        <path id="Path_2978" data-name="Path 2978" d="M4175.926,6090.716l-15.419,23.453,21.61,2.8,11.529-18.6Z" fill="#ffb77d"/>
        <path id="Path_2979" data-name="Path 2979" d="M4413.594,6025.544a433.832,433.832,0,0,0-94.157-67.129c-12.967-6.841-27.441-13.19-41.836-10.407-14.615,2.827-25.768,14.405-35.334,25.811a481.2,481.2,0,0,0-75.665,124.67c7.136,4.122,16.923,8.624,25.132,9.335,29.26-36.684,51.582-58.825,73.317-92.053,42.94,7.367,86.671,13.234,129.612,20.6,4.827.828,9.95,1.629,14.492-.2S4417.167,6028.894,4413.594,6025.544Z" fill="url(#linear-gradient-4)"/>
        <g id="Group_1689" data-name="Group 1689">
          <path id="Path_2980" data-name="Path 2980" d="M4143.2,6112.62c-4.656.651-9.6,1.429-13.138,4.523-2.219,1.94-3.726,5.056-2.806,7.856a7.49,7.49,0,0,0,4.9,4.424,23.652,23.652,0,0,0,6.766.855,230.645,230.645,0,0,1,30.739,3.118c3.378.574,6.818,1.224,10.208.722s6.789-2.4,8.088-5.574c.928-2.267.676-4.821.408-7.256-.272-2.47-.672-5.19-2.569-6.795a9.9,9.9,0,0,0-4.855-1.755l-9.757-1.673c-2.582-.443-5.529-1.488-8.125-1.222C4156.421,6110.524,4149.8,6111.7,4143.2,6112.62Z" fill="#0d0b30"/>
          <g id="Group_1688" data-name="Group 1688">
            <path id="Path_2981" data-name="Path 2981" d="M4188.294,6127.327a304.525,304.525,0,0,1-61.257-4.776,5.668,5.668,0,0,0,.215,2.448,7.49,7.49,0,0,0,4.9,4.424,23.652,23.652,0,0,0,6.766.855,230.645,230.645,0,0,1,30.739,3.118c3.378.574,6.819,1.224,10.208.722s6.789-2.4,8.088-5.574A7.835,7.835,0,0,0,4188.294,6127.327Z" fill="#d4e4eb"/>
            <path id="Path_2982" data-name="Path 2982" d="M4141.608,6112.85c-4.168.628-8.411,1.548-11.55,4.293-2.163,1.891-3.632,4.9-2.854,7.641l15.46,2.953a15.2,15.2,0,0,0,.674-11.452A14.84,14.84,0,0,0,4141.608,6112.85Z" fill="#d4e4eb"/>
          </g>
        </g>
      </g>
      <path id="Path_2983" data-name="Path 2983" d="M4111.474,6031.827l23.626-6.841-2.484,18.407-25.6,6.021Z" fill="#ffb77d"/>
      <path id="Path_2984" data-name="Path 2984" d="M4284.135,5996.558c-16.741-.479-95.685,9.452-160.137,29.129-2.035,7.4-1.2,15.33,5.943,21.622,65.742-13.207,112.463.156,148.447-14.778,76.875,24.254,88.325,63.509,171.2,67.375,6.406.3,12.744-2.257,18.386-5.3s10.5-8.01,12.2-14.2c1.6-5.816.247-12.134-2.509-17.5s-6.826-9.927-10.954-14.324c-7.334-7.81-15.109-15.393-24.37-20.781S4294.259,5996.848,4284.135,5996.558Z" fill="url(#linear-gradient-5)"/>
      <path id="Path_2985" data-name="Path 2985" d="M4477.664,6062.908c-2.756-5.365-6.826-9.927-10.954-14.324-7.335-7.81-15.109-15.393-24.371-20.781-2.679-1.559-16.213-4.808-34.326-8.644-6.253,7.833-6.847,22.871-6.555,30.8a70.942,70.942,0,0,0,7.661,28.887c7.772,15.6,30.995,20.617,40.469,21.059,6.406.3,12.744-2.257,18.386-5.3s10.5-8.01,12.2-14.2C4481.768,6074.59,4480.42,6068.272,4477.664,6062.908Z" fill="#232563" opacity="0.54"/>
      <path id="Path_2986" data-name="Path 2986" d="M4554.439,5860.064c-2.069,17.328,9.3,40.47,13.987,57.28-11.921,3.256-24.195,2.051-34.87-4.176-.562-6.168,3.213-27.937.775-33.631,6.621-5.824-6.241-11.9.38-17.72C4539.443,5857.655,4549.708,5864.226,4554.439,5860.064Z" fill="#ffb77d"/>
      <path id="Path_2987" data-name="Path 2987" d="M4429.483,6011.3c-7.38,1.91-18.959,3.621-20.367,11.112-1.171,6.235,22.736,95.817,80.18,64.513,75.712-41.259,88.832-117.36,84.172-165.285-.482-4.968-7.227-9.746-9.887-10.191-47.3-7.922-62.472,33.123-67.807,43.758C4472.324,6001.953,4462.479,6002.758,4429.483,6011.3Z" fill="url(#linear-gradient-6)"/>
      <path id="Path_2988" data-name="Path 2988" d="M4486.575,5972.351c-8.642,14.81-15.771,22.719-24.189,27.794,19.315,2.393,39.1,1.51,57.17-5.413a80.2,80.2,0,0,0,23.429-13.929c5.917-5.07,29.306-28.672,11.512-32.27-7.66-1.549-15.865,4.574-22.315,7.91-8.379,4.334-16.8,8.741-25.856,11.5C4499.873,5969.9,4493.191,5971.01,4486.575,5972.351Z" fill="#5f9e09" opacity="0.51"/>
      <g id="Group_1692" data-name="Group 1692">
        <path id="Path_2989" data-name="Path 2989" d="M4115.79,6008.132c-.206-4.7-.509-9.691-3.253-13.509-1.72-2.393-4.679-4.19-7.554-3.54a7.5,7.5,0,0,0-4.87,4.455,23.7,23.7,0,0,0-1.494,6.654,230.77,230.77,0,0,1-6.027,30.3c-.893,3.309-1.867,6.671-1.69,10.093s1.747,6.987,4.78,8.582c2.168,1.14,4.735,1.131,7.184,1.1,2.484-.036,5.231-.176,7.009-1.911a9.9,9.9,0,0,0,2.208-4.667l2.594-9.553c.686-2.528,2.007-5.363,1.988-7.972C4116.619,6021.5,4116.081,6014.794,4115.79,6008.132Z" fill="#0d0b30"/>
        <g id="Group_1691" data-name="Group 1691">
          <path id="Path_2990" data-name="Path 2990" d="M4096.861,6051.627a304.517,304.517,0,0,1,10.58-60.525,5.692,5.692,0,0,0-2.458-.019,7.5,7.5,0,0,0-4.87,4.455,23.713,23.713,0,0,0-1.494,6.654,230.77,230.77,0,0,1-6.027,30.3c-.893,3.308-1.868,6.671-1.69,10.093s1.748,6.987,4.78,8.582A7.9,7.9,0,0,0,4096.861,6051.627Z" fill="#d4e4eb"/>
          <path id="Path_2991" data-name="Path 2991" d="M4115.712,6006.529c-.229-4.209-.741-8.519-3.175-11.906-1.676-2.332-4.529-4.08-7.335-3.567q-2.205,7.553-4.41,15.109a15.2,15.2,0,0,0,11.336,1.76A14.832,14.832,0,0,0,4115.712,6006.529Z" fill="#d4e4eb"/>
        </g>
      </g>
      <g id="Group_1693" data-name="Group 1693">
        <path id="Path_2992" data-name="Path 2992" d="M4533.872,5922.189c-7.772,4.134-13.912,10.692-20.366,16.679s-33.215,23.1-40.015,18.17c-34.662-25.129-52.289-26.834-69.231-45.3-4.869,3.022-8.476,4.233-11.254,10.2,13.791,14.762,64.267,67.134,84.438,66.03,15.639-.856,46.833-15.715,59.819-24.472,4.908-3.31,9.619-7.045,13.2-11.757s5.985-10.5,5.813-16.421-3.2-11.888-8.363-14.78S4539.1,5919.408,4533.872,5922.189Z" fill="#ffb77d"/>
        <path id="Path_2993" data-name="Path 2993" d="M4498.273,5987.026c17.057-.347,41.341-12.532,51.619-20.533,10.006-7.789,16.2-18.284,17.6-29.361.468-3.7.371-7.554-1.41-10.979-2.71-5.208-9.169-8.8-16.1-9.9a42.326,42.326,0,0,0-20.678,2.415c-13.729,4.969-37.063,23.3-46.832,32.514C4482.014,5964.666,4488.121,5979.028,4498.273,5987.026Z" fill="url(#linear-gradient-7)"/>
        <path id="Path_2994" data-name="Path 2994" d="M4401.8,5894.987a29.572,29.572,0,0,0-11.2-5.38c-5.033-1.415-10.425-2.2-15.467-.82-1.472.4-3.041,1.13-3.6,2.551a3.83,3.83,0,0,0,.658,3.556,10.555,10.555,0,0,0,2.856,2.435c3.025,1.985,7.945,5.965,11.16,7.626-1.356,15.575,8.338,18.928,11.236,20.013a9.734,9.734,0,0,0,9.529-2.076C4409.548,5920.649,4407.172,5899.5,4401.8,5894.987Z" fill="#ffb77d"/>
      </g>
      <path id="Path_2995" data-name="Path 2995" d="M4534.3,5900.193a9.938,9.938,0,0,0,5.66-3.983,21.308,21.308,0,0,0,4.326-12.237,5.847,5.847,0,0,0-.422-2.727,2.435,2.435,0,0,0-2.184-1.465c-2.256.126-4.766,4.09-6.519,6.575C4535.154,5890.434,4534.721,5895.48,4534.3,5900.193Z" fill="#f0974f"/>
      <path id="Path_2996" data-name="Path 2996" d="M4503.447,5852.618c-.225,8.328,1.165,16.616,2.91,24.762.846,3.951,1.878,8.079,4.635,11.034,3.424,3.668,8.994,4.763,13.908,3.742s9.259-3.87,13.088-7.114c6.86-5.811,12.535-13.2,15.494-21.686s3.043-18.119-.63-26.326-11.3-14.746-20.158-16.269c-8.316-1.43-16.922,2.07-22.512,8.29C4504.924,5834.9,4503.649,5845.107,4503.447,5852.618Z" fill="#ffb77d"/>
      <path id="Path_2997" data-name="Path 2997" d="M4494.855,5837.24c6.49,3.847,11.567,11.3,37.7,2.706-.3,6.468-5.273,29.838,22.718,35.015,4.025-8.213,8.625-22.562,9.133-27.962.519-5.516-.034-11.327-2.86-16.092s-6.616-8.383-12.11-7.669a16.809,16.809,0,0,0-21.806-9.606c-3.095,1.249-5.652,3.507-8.746,4.787C4516.085,5819.578,4492.288,5835.719,4494.855,5837.24Z" fill="#0d0b30"/>
      <path id="Path_2998" data-name="Path 2998" d="M4494.481,5806.585c-6.194.6-11.391,5.918-12.625,12.018s1.144,12.613,5.446,17.11,10.32,7.106,16.467,8.075a55.11,55.11,0,0,0,18.565-.731c6.294-1.166,12.931-3.224,16.817-8.31a15.2,15.2,0,0,0,2.4-13.567c-1.083-3.448-3.893-7.846-7.8-8.4-3.56-.506-7.4,1.434-10.939,1.755-4.94.45-9.357-1.457-13.7-3.578C4504.549,5808.724,4499.741,5806.073,4494.481,5806.585Z" fill="#0d0b30"/>
      <path id="Path_2999" data-name="Path 2999" d="M4543.923,5858.771c-.546,4.436-4.188,7.64-8.135,7.154s-6.705-4.476-6.159-8.913,4.188-7.64,8.135-7.155S4544.469,5854.334,4543.923,5858.771Z" fill="#ffb77d"/>
      <path id="Path_3000" data-name="Path 3000" d="M4523.688,5806.6l-13.17-15.036,19.354-.164-16.464-33.8,23.174-2.15,3.123,42.039-16.067-.7Z" fill="#fff"/>
      <path id="Path_3001" data-name="Path 3001" d="M4503.548,5794.9l-13.367-5.092,12.182-6.591-21.74-15.852,13.932-9.128,16.066,25.533-10.393,4.944Z" fill="#fff"/>
    </g>
  </g>
</svg>
