<svg xmlns="http://www.w3.org/2000/svg" width="140.68" height="142.999" viewBox="0 0 140.68 142.999">
  <g id="Group_141" data-name="Group 141" transform="translate(-516.774 -2007.324)">
    <g id="Layer_2" data-name="Layer 2">
      <g id="Group_140" data-name="Group 140">
        <path id="Path_410" data-name="Path 410" d="M652.875,2055.092a5.654,5.654,0,0,0-10.575,4,59,59,0,0,1-78.433,75.107,59.5,59.5,0,0,1-11.715-6.678A59,59,0,0,1,608.491,2025l-4.006,6.767c-1.1,1.859-.255,3.1,1.876,2.754l19.035-3.072a3.164,3.164,0,0,0,2.564-4.329l-6.457-18.17c-.723-2.035-2.216-2.181-3.315-.321l-3.864,6.524a70.322,70.322,0,0,0-68.874,121.484,70.874,70.874,0,0,0,13.96,7.956,70.307,70.307,0,0,0,93.465-89.5Z" fill="#c0c2e6"/>
        <path id="Path_411" data-name="Path 411" d="M584.634,2034.832a4.578,4.578,0,0,0-4.577,4.578v45.61l41.716,21.565a4.577,4.577,0,1,0,4.2-8.134l-36.76-19V2039.41A4.578,4.578,0,0,0,584.634,2034.832Z" fill="#c0c2e6"/>
      </g>
    </g>
  </g>
</svg>
