<svg xmlns="http://www.w3.org/2000/svg" width="17.438" height="35.605" viewBox="0 0 17.438 35.605">
  <g id="Group_325" data-name="Group 325" transform="translate(-11390.98 -3637.124)">
    <path id="Path_837" data-name="Path 837" d="M11391.029,3662.883c5.152-.7,8.721-4.322,8.26-8.38-.7,1.457-5,6.9-8.3,6.59,0-.492.027-1.491.027-1.491a14.571,14.571,0,0,0,3.363-2.18,7.8,7.8,0,0,0,1.83-2.925c-.549.365-2.561,1.645-3.484,2.18a12.471,12.471,0,0,1-1.7.681c-.02-.38-.039-.574-.039-.77,0-3.722-.023-7.08,0-10.8a8.7,8.7,0,0,1,16.822-3.092,8.549,8.549,0,0,1-1.121,8.275l-.557-2.239c-.2.278-.3.4-.381.542a6.419,6.419,0,0,1-2.873,2.677,1.116,1.116,0,0,0-.754,1.258,12.5,12.5,0,0,1-.59,4.917,11.063,11.063,0,0,1-4.709,5.827.846.846,0,0,0-.473.844c.023.952.029,1.907,0,2.858a5.281,5.281,0,0,1-5.324,5.065v-1.488C11391.078,3671.2,11391.029,3665.075,11391.029,3662.883Zm11.168-21.622a7.193,7.193,0,0,1,3.9,6.162,6.235,6.235,0,0,0-.139-4.813,6.89,6.89,0,0,0-3.824-3.389v1.854l-.615-.22a5.287,5.287,0,0,0-6.055,1.81,5.214,5.214,0,0,0,.049,6.31,5.312,5.312,0,0,0,6.02,1.75.858.858,0,0,0,.68-.954q-.023-1.9-.018-3.809c0-1.255,0-2.51,0-3.766Z" fill="#2bb788"/>
    <path id="Path_838" data-name="Path 838" d="M11398.936,3644.939v1.5h1.5a1.5,1.5,0,0,1-1.5,1.538,1.529,1.529,0,0,1-1.512-1.484A1.483,1.483,0,0,1,11398.936,3644.939Z" transform="translate(-0.894 -1.087)" fill="#2bb788"/>
  </g>
</svg>
