<svg xmlns="http://www.w3.org/2000/svg" width="27.654" height="15.739" viewBox="0 0 27.654 15.739">
  <g id="Group_247" data-name="Group 247" transform="translate(-1951.293 -1014.595)">
    <g id="Group_246" data-name="Group 246" transform="translate(1951.293 1014.595)">
      <g id="Group_245" data-name="Group 245">
        <path id="Path_617" data-name="Path 617" d="M1967.712,1025.74l3.976,1.436a.884.884,0,0,0,.844-.135,4.061,4.061,0,0,0,.778-.537l-.883.2a1.372,1.372,0,1,1-.6-2.677l2.112-.472,1.351-1.884-.954,2.484-2.363.528a.7.7,0,0,0-.53.836l0,.02a.7.7,0,0,0,.831.511l2.728-.609a.7.7,0,0,0,.5-.432l1.054-2.743-.279,2.032,1.043-.776a.869.869,0,0,0,.179-1.216l-1.057-1.418a.868.868,0,0,0-1.235-.161l-5.068,4.014-2.156-.778a.88.88,0,0,0-.639.014l-4.676,1.932a.886.886,0,0,0,.677,1.638Z" transform="translate(-1953.252 -1015.668)" fill="#2bb788"/>
        <path id="Path_618" data-name="Path 618" d="M1979.735,1019.234a1.642,1.642,0,1,0,.111-2.546A1.642,1.642,0,0,0,1979.735,1019.234Z" transform="translate(-1956.336 -1014.915)" fill="#2bb788"/>
        <path id="Path_619" data-name="Path 619" d="M1980.951,1023.719a1.008,1.008,0,0,0-1.417-.154l-6.174,4.964h-8.75a1.007,1.007,0,0,0,0,2.015H1965v.7a.674.674,0,0,0,1.348,0v-.7h5.747v.7a.674.674,0,0,0,1.347,0v-.7h.269a1.006,1.006,0,0,0,.631-.223l6.451-5.185A1.009,1.009,0,0,0,1980.951,1023.719Z" transform="translate(-1953.519 -1016.177)" fill="#2bb788"/>
        <circle id="Ellipse_24" data-name="Ellipse 24" cx="1.566" cy="1.566" r="1.566" transform="translate(3.312)" fill="#2bb788"/>
        <path id="Path_620" data-name="Path 620" d="M1958.574,1024.766a.709.709,0,0,0-.206-1.2l-2.288-.888-.494-2.247.831,1.617.718.278.277-1.705a1.057,1.057,0,0,0-.874-1.214l-1.618-.263a1.1,1.1,0,0,0-1.458.835c-.089.568-.745,4.819-.772,5.185a.848.848,0,0,0,.253.673h-.976a.674.674,0,0,0-.674.673v3.961a.674.674,0,0,0,1.347,0v-1.108h2.667v1.108a.674.674,0,0,0,1.348,0,35.867,35.867,0,0,0-.029-4.152l.811.061-.606,3.777a.852.852,0,1,0,1.682.269l.752-4.69A.852.852,0,0,0,1958.574,1024.766Zm-3.266,3.7h-2.667v-1.28h2.667Zm-.483-3.992-.147-.057a.937.937,0,0,1-.6-.911l.118-2.771.575,2.619a.714.714,0,0,0,.437.51l2.054.8Z" transform="translate(-1951.293 -1015.407)" fill="#2bb788"/>
      </g>
    </g>
  </g>
</svg>
