<svg xmlns="http://www.w3.org/2000/svg" width="19.414" height="31.075" viewBox="0 0 19.414 31.075">
  <g id="Group_1830" data-name="Group 1830" transform="translate(-361.007 -424.729)">
    <path id="Path_1243" data-name="Path 1243" d="M12634.405,5855.476a.46.46,0,0,0-.561-.333l-2.095.534a.462.462,0,0,0,.113.91.449.449,0,0,0,.115-.014l2.094-.534A.46.46,0,0,0,12634.405,5855.476Z" transform="translate(-12265.208 -5418.586)" fill="#2bb788"/>
    <path id="Path_1244" data-name="Path 1244" d="M12642.662,5856.038l2.095.534a.436.436,0,0,0,.114.014.462.462,0,0,0,.114-.91l-2.095-.534a.462.462,0,1,0-.229.9Z" transform="translate(-12270.096 -5418.586)" fill="#2bb788"/>
    <path id="Path_1245" data-name="Path 1245" d="M12633.771,5859.235v.513a.462.462,0,0,0,.924,0v-.513a.462.462,0,0,0-.924,0Z" transform="translate(-12266.271 -5420.22)" fill="#2bb788"/>
    <path id="Path_1246" data-name="Path 1246" d="M12644.2,5858.773a.462.462,0,0,0-.461.462v.513a.461.461,0,1,0,.923,0v-.513A.462.462,0,0,0,12644.2,5858.773Z" transform="translate(-12270.736 -5420.22)" fill="#2bb788"/>
    <path id="Path_1247" data-name="Path 1247" d="M12638.617,5863.759a1.5,1.5,0,0,0,1.066-.44.462.462,0,0,0-.654-.654.58.58,0,0,1-.822,0,.462.462,0,0,0-.654.654A1.5,1.5,0,0,0,12638.617,5863.759Z" transform="translate(-12267.903 -5421.902)" fill="#2bb788"/>
    <path id="Path_1248" data-name="Path 1248" d="M12636.448,5866.922a2.16,2.16,0,0,1-1.96-1.276.462.462,0,0,0-.884.27,3.042,3.042,0,0,0,2.743,1.924.361.361,0,0,0,.05,0,.462.462,0,0,0,.051-.921Z" transform="translate(-12266.187 -5423.153)" fill="#2bb788"/>
    <path id="Path_1249" data-name="Path 1249" d="M12637.056,5854.685a7.571,7.571,0,0,0,1.279-1.7,1.565,1.565,0,0,0,.435.061c1.4,0,2.652-1.758,2.652-3.144a2.6,2.6,0,0,0-.727-1.874v-6.185a6.953,6.953,0,0,0-1.215-3.933.462.462,0,0,0-.764.521,6.024,6.024,0,0,1,1.053,3.412v5.641a2.369,2.369,0,0,0-.5-.09v-3.036a.463.463,0,0,0-.926,0v.5c-1.8-.12-8.325-.8-11.662-4.432a.474.474,0,0,0-.134-.1.464.464,0,0,0-.558.111,7.552,7.552,0,0,0-1.829,4.929v2.028a2.361,2.361,0,0,0-.391.06v-7.587a1.542,1.542,0,0,1,2-1.473.462.462,0,0,0,.577-.3,4.908,4.908,0,0,1,6.469-3.1l3.108,1.216a6.055,6.055,0,0,1,1.582.913.461.461,0,1,0,.576-.721,6.94,6.94,0,0,0-1.82-1.053l-3.11-1.217a5.833,5.833,0,0,0-7.547,3.286,2.467,2.467,0,0,0-2.756,2.45v8.059a2.557,2.557,0,0,0-.839,1.977c0,1.386,1.248,3.144,2.651,3.144a1.554,1.554,0,0,0,.44-.062,7.587,7.587,0,0,0,4.121,3.488v1.7l-2.271,1.316a.462.462,0,1,0,.464.8l.466-.271.528,2.639a.462.462,0,0,0,.727.281l2.119-1.555v2.953a.461.461,0,1,0,.923,0v-2.953l2.119,1.555a.461.461,0,0,0,.727-.281l.529-2.639,2.686,1.557.752,2.877a.463.463,0,0,0,.446.346.447.447,0,0,0,.118-.016.463.463,0,0,0,.33-.563l-.8-3.064a.46.46,0,0,0-.215-.282l-4.656-2.7v-1.7A7.507,7.507,0,0,0,12637.056,5854.685Zm3.442-4.781c0,.917-.894,2.22-1.729,2.22h-.027a7.348,7.348,0,0,0,.327-1.048c.1-.362.378-.955.674-.955a.462.462,0,1,0,0-.923,1.172,1.172,0,0,0-.475.1v-.97A1.449,1.449,0,0,1,12640.5,5849.9Zm-15.839,2.22c-.834,0-1.728-1.3-1.728-2.22a1.448,1.448,0,0,1,1.229-1.579v.97a1.166,1.166,0,0,0-.476-.1.462.462,0,1,0,0,.923c.317,0,.609.672.693,1.031l0,.011a7.439,7.439,0,0,0,.309.96Zm.427-2.78v-3.976a6.63,6.63,0,0,1,1.289-3.93,15.758,15.758,0,0,0,7.618,3.713,27.393,27.393,0,0,0,4.351.637v3.556a6.629,6.629,0,1,1-13.258,0Zm3.638,10.19.608-.353a2.507,2.507,0,0,0,1.3,1.513l-1.466,1.076Zm5.534,2.236-1.466-1.076a2.507,2.507,0,0,0,1.307-1.513l.607.352Zm-.972-3.354a.184.184,0,0,0,0,.046,1.571,1.571,0,0,1-3.142-.019v-1.711a7.6,7.6,0,0,0,3.142,0Z" transform="translate(-12261 -5409)" fill="#2bb788"/>
    <path id="Path_1250" data-name="Path 1250" d="M12626.824,5881.783l-1.024.594a.465.465,0,0,0-.216.282l-.8,3.064a.462.462,0,0,0,.329.564.473.473,0,0,0,.118.015.461.461,0,0,0,.446-.346l.753-2.877.857-.5a.462.462,0,1,0-.464-.8Z" transform="translate(-12262.238 -5430.499)" fill="#2bb788"/>
  </g>
</svg>
