<svg xmlns="http://www.w3.org/2000/svg" width="27.818" height="26.429" viewBox="0 0 27.818 26.429">
  <g id="Group_842" data-name="Group 842" transform="translate(-2164.432 -180.293)">
    <path id="Path_1214" data-name="Path 1214" d="M2185.247,192.295a5.407,5.407,0,0,1-4.623-7.564h-7.075v-.007h-4.957a.467.467,0,0,0-.446.466l-.1,15.629h-3.152a.438.438,0,0,0-.457.424v1.983a3.5,3.5,0,0,0,3.341,3.486v.01h13.755v-.013c.112,0,.158.013.228.013h.01a3.5,3.5,0,0,0,3.494-3.5V198.21h-.013Zm-17.307,13.536a2.62,2.62,0,0,1-2.617-2.609V201.71h12.92v1.506a3.494,3.494,0,0,0,1.031,2.476c.047.047.1.083.154.139Zm16.429-2.609a2.609,2.609,0,0,1-2.6,2.609h-.008a2.628,2.628,0,0,1-2.623-2.615v-1.973a.411.411,0,0,0-.425-.424h-9.777l.1-15.2H2179.4a6.663,6.663,0,0,0-.122,1.237,6.268,6.268,0,0,0,.538,2.55h-4.208a.446.446,0,1,0,0,.891h4.691a6.288,6.288,0,0,0,4.068,2.79Z" fill="#2bb788"/>
    <path id="Path_1215" data-name="Path 1215" d="M2172.75,192.367a1.382,1.382,0,1,0,1.426,1.381A1.4,1.4,0,0,0,2172.75,192.367Zm0,1.871a.492.492,0,1,1,.535-.49A.515.515,0,0,1,2172.75,194.238Z" fill="#2bb788"/>
    <path id="Path_1216" data-name="Path 1216" d="M2175.164,193.746a.445.445,0,0,0,.446.445h5.939a.445.445,0,1,0,0-.891h-5.939A.446.446,0,0,0,2175.164,193.746Z" fill="#2bb788"/>
    <path id="Path_1217" data-name="Path 1217" d="M2172.75,188.494a1.382,1.382,0,1,0,1.426,1.381A1.405,1.405,0,0,0,2172.75,188.494Zm0,1.871a.492.492,0,1,1,.535-.49.515.515,0,0,1-.535.49Z" fill="#2bb788"/>
    <path id="Path_1218" data-name="Path 1218" d="M2172.75,196.24a1.381,1.381,0,1,0,1.426,1.38A1.4,1.4,0,0,0,2172.75,196.24Zm0,1.87a.491.491,0,1,1,.535-.49A.515.515,0,0,1,2172.75,198.11Z" fill="#2bb788"/>
    <path id="Path_1219" data-name="Path 1219" d="M2181.549,197.2h-5.939a.445.445,0,1,0,0,.891h5.939a.445.445,0,1,0,0-.891Z" fill="#2bb788"/>
    <path id="Path_1220" data-name="Path 1220" d="M2185.75,180.293a6.5,6.5,0,1,0,6.5,6.5A6.5,6.5,0,0,0,2185.75,180.293Zm.02,10.82h-.02a.738.738,0,0,1-.75-.78.75.75,0,1,1,1.5,0A.734.734,0,0,1,2185.77,191.113Zm1.08-6.98c-.16,0-.69-.75-1.52-.75-.47,0-.74.24-.74.66,0,.48.79.98,1.3,1.34.83.6,1.11.99,1.11,1.45,0,.78-.95,1.47-1.47,1.66l-.23-.3a1.282,1.282,0,0,0,.56-.98c0-.59-1.02-1.15-1.44-1.47a1.515,1.515,0,0,1-.64-1.26,2.285,2.285,0,0,1,2.13-2.15h.01a2.754,2.754,0,0,1,1.24.58.677.677,0,0,1-.31,1.22Z" fill="#2bb788"/>
  </g>
</svg>
