<svg xmlns="http://www.w3.org/2000/svg" width="25.255" height="32.345" viewBox="0 0 25.255 32.345">
  <g id="Group_1832" data-name="Group 1832" transform="translate(-230.355 -319.431)">
    <g id="Group_1022" data-name="Group 1022" transform="translate(230.355 319.431)">
      <g id="Group_1009" data-name="Group 1009" transform="translate(9.116 10.128)">
        <g id="Group_1008" data-name="Group 1008">
          <path id="Path_2083" data-name="Path 2083" d="M9343.042,5851.112a.473.473,0,0,0-.474.474v.507a.474.474,0,0,0,.947,0v-.507A.474.474,0,0,0,9343.042,5851.112Z" transform="translate(-9342.568 -5851.112)" fill="#2bb788"/>
        </g>
      </g>
      <g id="Group_1011" data-name="Group 1011" transform="translate(15.192 10.128)">
        <g id="Group_1010" data-name="Group 1010">
          <path id="Path_2084" data-name="Path 2084" d="M9351.851,5851.112a.474.474,0,0,0-.475.474v.507a.474.474,0,0,0,.948,0v-.507A.474.474,0,0,0,9351.851,5851.112Z" transform="translate(-9351.376 -5851.112)" fill="#2bb788"/>
        </g>
      </g>
      <g id="Group_1013" data-name="Group 1013" transform="translate(10.635 13.673)">
        <g id="Group_1012" data-name="Group 1012">
          <path id="Path_2085" data-name="Path 2085" d="M9348.619,5856.391a.473.473,0,0,0-.67,0,2.09,2.09,0,0,1-2.372,0,.474.474,0,1,0-.666.674,2.985,2.985,0,0,0,3.7,0A.472.472,0,0,0,9348.619,5856.391Z" transform="translate(-9344.771 -5856.25)" fill="#2bb788"/>
        </g>
      </g>
      <g id="Group_1015" data-name="Group 1015" transform="translate(8.609 8.609)">
        <g id="Group_1014" data-name="Group 1014">
          <path id="Path_2086" data-name="Path 2086" d="M9343.32,5848.91h-1.013a.474.474,0,0,0,0,.947h1.013a.474.474,0,0,0,0-.947Z" transform="translate(-9341.834 -5848.91)" fill="#2bb788"/>
        </g>
      </g>
      <g id="Group_1017" data-name="Group 1017" transform="translate(14.685 8.609)">
        <g id="Group_1016" data-name="Group 1016">
          <path id="Path_2087" data-name="Path 2087" d="M9352.129,5848.91h-1.014a.474.474,0,0,0,0,.947h1.014a.474.474,0,0,0,0-.947Z" transform="translate(-9350.642 -5848.91)" fill="#2bb788"/>
        </g>
      </g>
      <g id="Group_1019" data-name="Group 1019">
        <g id="Group_1018" data-name="Group 1018">
          <path id="Path_2088" data-name="Path 2088" d="M9352.13,5859l-3.415-1.05a1.086,1.086,0,0,0-.6-1.038l-2.111-1.056v-1.506a7.068,7.068,0,0,0,2.97-4.817h.282a1.794,1.794,0,0,0,1.8-1.562,1.734,1.734,0,0,0-1-1.757v-5.257a3.516,3.516,0,0,0-3.513-3.512h-.079a5.976,5.976,0,0,0-3.5-1.013,12.079,12.079,0,0,0-5.894,1.331,20.6,20.6,0,0,1-2.943,1.136.474.474,0,0,0-.3.638,4.319,4.319,0,0,0,.773,1.123,3.871,3.871,0,0,0-.683,2.492v3.083a1.728,1.728,0,0,0,.727,3.3h.354a7.068,7.068,0,0,0,2.971,4.818v1.506l-2.111,1.056a1.086,1.086,0,0,0-.575.727,1.05,1.05,0,0,0-.027.311l-3.415,1.05a3.494,3.494,0,0,0-2.479,3.357v5.946a.474.474,0,1,0,.947,0v-5.946a2.552,2.552,0,0,1,1.811-2.451l3.553-1.092.627.836-.713.713a1.484,1.484,0,0,0-.278,1.715l1.357,2.713h-1.292v-.539a.474.474,0,0,0-.947,0v.539h-2.06a.473.473,0,0,0-.473.474v3.038a.474.474,0,0,0,.473.474h5.064a.475.475,0,0,0,.475-.474v-1.031l.621,1.243a.474.474,0,1,0,.848-.424l-3.219-6.437a.54.54,0,0,1,.1-.623l1-1a.473.473,0,0,0,.045-.62l-1.074-1.431a.146.146,0,0,1-.024-.122.143.143,0,0,1,.076-.1l1.866-.934,1.318,4.517a.474.474,0,0,0,.909-.265l-.208-.712a5.545,5.545,0,0,0,3.643,0l-1.82,6.244-1.023-3.506a.474.474,0,1,0-.909.266l1.478,5.065a.474.474,0,0,0,.909,0l3.386-11.609,1.866.934a.142.142,0,0,1,.077.1.143.143,0,0,1-.025.122l-1.073,1.431a.475.475,0,0,0,.044.62l1,1a.538.538,0,0,1,.1.623l-3.219,6.437a.473.473,0,1,0,.847.424l3.219-6.437a1.484,1.484,0,0,0-.277-1.715l-.713-.713.627-.836,3.552,1.092a2.551,2.551,0,0,1,1.812,2.452v5.946a.474.474,0,1,0,.947,0v-5.946A3.5,3.5,0,0,0,9352.13,5859Zm-15.179,8.829h-4.116v-2.091h1.585v.033a.474.474,0,0,0,.947,0v-.033h1.584v2.091Zm.511-29.2a11.162,11.162,0,0,1,5.5-1.246c1.748,0,3.311.731,3.634,1.7a.474.474,0,1,0,.9-.3,2.492,2.492,0,0,0-.1-.241,2.57,2.57,0,0,1,1.706,2.417v5.1h-.539a.54.54,0,0,1-.539-.539v-.507a6.039,6.039,0,0,0-1.658-3.879.477.477,0,0,0-.478-.117c-2.631.831-6.339,1.531-9.069.15a5.1,5.1,0,0,1-1.847-1.534A23.429,23.429,0,0,0,9337.462,5838.625Zm7.592,17.456-.9,3.1a4.6,4.6,0,0,1-4.333,0l-.9-3.1v-1.175a7.048,7.048,0,0,0,6.142,0Zm-3.07-1.419a6.117,6.117,0,0,1-6.11-6.109.474.474,0,1,0-.947,0v.033h-.286a.793.793,0,0,1-.587-.261.786.786,0,0,1-.2-.615.84.84,0,0,1,.86-.709h.688a1.487,1.487,0,0,0,1.485-1.486v-1.789a.474.474,0,0,0-.947,0v1.789a.54.54,0,0,1-.538.539h-.54v-2.9a3.194,3.194,0,0,1,.433-1.845,6.564,6.564,0,0,0,1.027.662,8.847,8.847,0,0,0,3.8.921,17.921,17.921,0,0,0,5.763-.883,4.988,4.988,0,0,1,1.2,3v.507a1.487,1.487,0,0,0,1.486,1.486h.759a.795.795,0,0,1,.789.875.841.841,0,0,1-.86.709h-.214v-.028a.474.474,0,0,0-.474-.474h0a.475.475,0,0,0-.475.474A6.116,6.116,0,0,1,9341.983,5854.662Z" transform="translate(-9329.355 -5836.431)" fill="#2bb788"/>
        </g>
      </g>
      <g id="Group_1021" data-name="Group 1021" transform="translate(19.244 27.346)">
        <g id="Group_1020" data-name="Group 1020">
          <path id="Path_2089" data-name="Path 2089" d="M9360.255,5877.335h-.793v-.792a.474.474,0,1,0-.947,0v.792h-.793a.474.474,0,0,0,0,.947h.793v.792a.474.474,0,0,0,.947,0v-.792h.793a.474.474,0,0,0,0-.947Z" transform="translate(-9357.249 -5876.069)" fill="#2bb788"/>
        </g>
      </g>
    </g>
  </g>
</svg>
