<svg xmlns="http://www.w3.org/2000/svg" width="86.745" height="49.368" viewBox="0 0 86.745 49.368">
  <g id="Group_1161" data-name="Group 1161" transform="translate(-9743.31 -6790.131)">
    <g id="Group_1160" data-name="Group 1160">
      <g id="Group_1159" data-name="Group 1159">
        <path id="Path_2142" data-name="Path 2142" d="M9788.668,6821.722l12.47,4.5a2.775,2.775,0,0,0,2.65-.423,12.919,12.919,0,0,0,2.439-1.685l-2.768.618a4.3,4.3,0,1,1-1.876-8.4l6.625-1.479,4.238-5.912-2.994,7.793-7.41,1.654a2.2,2.2,0,0,0-1.663,2.621c0,.021.011.041.017.062a2.191,2.191,0,0,0,2.6,1.6l8.558-1.91a2.2,2.2,0,0,0,1.571-1.355l3.306-8.6-.873,6.372,3.274-2.434a2.724,2.724,0,0,0,.559-3.814l-3.312-4.448a2.727,2.727,0,0,0-3.877-.508l-15.9,12.593-6.763-2.443a2.782,2.782,0,0,0-2,.045l-14.668,6.061a2.78,2.78,0,0,0,2.124,5.139Z"/>
        <path id="Path_2143" data-name="Path 2143" d="M9816.708,6803.682a5.151,5.151,0,1,0,.348-7.987A5.156,5.156,0,0,0,9816.708,6803.682Z"/>
        <path id="Path_2144" data-name="Path 2144" d="M9829.357,6813.79a3.159,3.159,0,0,0-4.441-.483l-19.369,15.571H9778.1a3.159,3.159,0,0,0,0,6.318h1.231v2.19a2.113,2.113,0,1,0,4.226,0v-2.19h18.029v2.19a2.113,2.113,0,0,0,4.227,0v-2.19h.845a3.155,3.155,0,0,0,1.979-.7l20.237-16.267A3.159,3.159,0,0,0,9829.357,6813.79Z"/>
        <circle id="Ellipse_107" data-name="Ellipse 107" cx="4.913" cy="4.913" r="4.913" transform="translate(9753.699 6790.131)"/>
        <path id="Path_2145" data-name="Path 2145" d="M9766.148,6819.486a2.223,2.223,0,0,0-.646-3.761l-7.177-2.786-1.547-7.049,2.607,5.073,2.249.873.87-5.349a3.32,3.32,0,0,0-2.743-3.809l-5.075-.825a3.436,3.436,0,0,0-4.573,2.618c-.279,1.784-2.336,15.119-2.423,16.268a2.661,2.661,0,0,0,.795,2.111h-3.062a2.113,2.113,0,0,0-2.113,2.113v12.423a2.113,2.113,0,0,0,4.227,0v-3.474h8.367v3.474a2.113,2.113,0,0,0,4.226,0c0-13.515.038-12.6-.088-13.024l2.542.2-1.9,11.847a2.671,2.671,0,1,0,5.275.846l2.359-14.711A2.677,2.677,0,0,0,9766.148,6819.486ZM9755.9,6831.1h-8.368v-4.019h8.368Zm-1.518-12.522-.459-.179a2.937,2.937,0,0,1-1.868-2.857l.37-8.692,1.8,8.214a2.225,2.225,0,0,0,1.367,1.6l6.444,2.5Z"/>
      </g>
    </g>
  </g>
</svg>
