<svg xmlns="http://www.w3.org/2000/svg" xmlns:xlink="http://www.w3.org/1999/xlink" width="313.906" height="202.961" viewBox="0 0 313.906 202.961">
  <defs>
    <linearGradient id="linear-gradient" x1="0.5" y1="3.015" x2="0.5" y2="-8.398" gradientUnits="objectBoundingBox">
      <stop offset="0" stop-color="#2b3988"/>
      <stop offset="1" stop-color="#2bb788"/>
    </linearGradient>
    <linearGradient id="linear-gradient-2" x1="0.5" y1="3.684" x2="0.5" y2="-11.519" xlink:href="#linear-gradient"/>
    <linearGradient id="linear-gradient-3" x1="0.5" y1="3.607" x2="0.5" y2="-11.262" xlink:href="#linear-gradient"/>
    <linearGradient id="linear-gradient-4" x1="0.5" y1="3.674" x2="0.5" y2="-11.472" xlink:href="#linear-gradient"/>
    <linearGradient id="linear-gradient-7" x1="0.5" y1="3.024" x2="0.5" y2="-8.52" xlink:href="#linear-gradient"/>
    <linearGradient id="linear-gradient-9" x1="0.5" y1="2.924" x2="0.5" y2="-8.042" xlink:href="#linear-gradient"/>
    <linearGradient id="linear-gradient-10" x1="0.5" y1="1.004" x2="0.5" y2="-1.082" xlink:href="#linear-gradient"/>
    <linearGradient id="linear-gradient-11" x1="0.5" y1="9.552" x2="0.5" y2="-14.902" xlink:href="#linear-gradient"/>
  </defs>
  <g id="Group_2075" data-name="Group 2075" transform="translate(-310.112 -1538.555)">
    <g id="Group_1705" data-name="Group 1705" transform="translate(-5477 -7202)">
      <path id="Path_3030" data-name="Path 3030" d="M5787.112,8942.89v-44.478h18.981a13.048,13.048,0,0,1,5.858,1.315,15.055,15.055,0,0,1,4.573,3.445,16.5,16.5,0,0,1,3.007,4.824,14.386,14.386,0,0,1,1.1,5.45,15.586,15.586,0,0,1-1.034,5.638,16.1,16.1,0,0,1-2.882,4.824,13.583,13.583,0,0,1-4.479,3.382,13.361,13.361,0,0,1-5.826,1.253h-9.02v14.346Zm10.274-23.3h8.394a3.97,3.97,0,0,0,3.132-1.566,6.938,6.938,0,0,0,1.316-4.572,7.93,7.93,0,0,0-.408-2.693,5.494,5.494,0,0,0-1.1-1.88,4.206,4.206,0,0,0-1.565-1.1,4.787,4.787,0,0,0-1.755-.346h-8.018Z" fill="url(#linear-gradient)"/>
      <path id="Path_3031" data-name="Path 3031" d="M5846.185,8918.584a19.206,19.206,0,0,0-6.578,1.19,8.015,8.015,0,0,0-4.26,3.383v19.732h-10.023V8910h9.208v6.64a13.978,13.978,0,0,1,4.354-5.2,10.044,10.044,0,0,1,5.67-1.942h1a3.259,3.259,0,0,1,.627.063Z" fill="url(#linear-gradient-2)"/>
      <path id="Path_3032" data-name="Path 3032" d="M5864.414,8943.516a19.234,19.234,0,0,1-7.486-1.378,16.3,16.3,0,0,1-5.544-3.728,15.715,15.715,0,0,1-3.413-5.45,18.711,18.711,0,0,1,0-12.967,15.733,15.733,0,0,1,3.413-5.45,16.67,16.67,0,0,1,5.544-3.758,18.83,18.83,0,0,1,7.486-1.41,18.607,18.607,0,0,1,7.455,1.41,16.746,16.746,0,0,1,5.513,3.758,16.147,16.147,0,0,1,3.445,5.45,17.95,17.95,0,0,1,1.19,6.483,18.38,18.38,0,0,1-1.159,6.483,15.712,15.712,0,0,1-3.414,5.45,16.29,16.29,0,0,1-5.544,3.728A19.23,19.23,0,0,1,5864.414,8943.516Zm-7.329-17.039a9.092,9.092,0,0,0,2.067,6.233,6.7,6.7,0,0,0,5.262,2.349,6.626,6.626,0,0,0,2.882-.626,6.9,6.9,0,0,0,2.286-1.755,8.431,8.431,0,0,0,1.536-2.724,10.4,10.4,0,0,0,.563-3.478,9.089,9.089,0,0,0-2.067-6.232,6.633,6.633,0,0,0-5.2-2.35,6.808,6.808,0,0,0-5.23,2.381,8.4,8.4,0,0,0-1.535,2.725A10.376,10.376,0,0,0,5857.085,8926.477Z" fill="url(#linear-gradient-3)"/>
      <path id="Path_3033" data-name="Path 3033" d="M5938.96,8942.89h-10.024V8924.41a7.532,7.532,0,0,0-1.19-4.73,3.772,3.772,0,0,0-3.07-1.472,5.189,5.189,0,0,0-2.035.439,6.868,6.868,0,0,0-1.911,1.221,9.838,9.838,0,0,0-1.6,1.848,10,10,0,0,0-1.159,2.318v18.855h-10.023V8924.41a7.538,7.538,0,0,0-1.19-4.73,3.775,3.775,0,0,0-3.07-1.472,6.07,6.07,0,0,0-3.915,1.6,9.133,9.133,0,0,0-2.788,4.229v18.855h-10.023V8910h9.021v5.512a11.922,11.922,0,0,1,4.917-4.572,15.869,15.869,0,0,1,7.236-1.566,11.661,11.661,0,0,1,3.6.5,8.692,8.692,0,0,1,2.663,1.379,7.293,7.293,0,0,1,1.816,2.035,8.817,8.817,0,0,1,1,2.475,12.952,12.952,0,0,1,4.949-4.729,14.516,14.516,0,0,1,7.016-1.66,9.65,9.65,0,0,1,5.043,1.159,8.391,8.391,0,0,1,2.975,3.007,11.657,11.657,0,0,1,1.41,4.04,27.53,27.53,0,0,1,.345,4.26Z" fill="url(#linear-gradient-4)"/>
      <path id="Path_3034" data-name="Path 3034" d="M5961.261,8943.516a19.424,19.424,0,0,1-7.424-1.347,16.476,16.476,0,0,1-5.575-3.664,15.683,15.683,0,0,1-3.477-5.356,17.266,17.266,0,0,1-1.19-6.358,18.959,18.959,0,0,1,1.19-6.734,16.342,16.342,0,0,1,3.445-5.544,16.08,16.08,0,0,1,5.544-3.758,19.218,19.218,0,0,1,7.487-1.379,18.985,18.985,0,0,1,7.454,1.379,16.366,16.366,0,0,1,5.512,3.727,15.808,15.808,0,0,1,3.414,5.419,18.105,18.105,0,0,1,1.159,6.452q0,.877-.062,1.723a12.334,12.334,0,0,1-.188,1.472h-24.306a6.756,6.756,0,0,0,2.412,5.043,7.665,7.665,0,0,0,4.918,1.723,9,9,0,0,0,4.228-1.064,5.439,5.439,0,0,0,2.725-2.882l8.52,2.381a15.333,15.333,0,0,1-6.014,6.327A18.665,18.665,0,0,1,5961.261,8943.516Zm6.953-20.171a7.539,7.539,0,0,0-2.256-4.948,6.788,6.788,0,0,0-4.823-1.817,6.7,6.7,0,0,0-4.855,1.848,7.668,7.668,0,0,0-2.224,4.918Z" fill="url(#linear-gradient-3)"/>
      <path id="Path_3035" data-name="Path 3035" d="M6015.071,8942.89h-10.023V8924.41a7.381,7.381,0,0,0-1.222-4.73,3.987,3.987,0,0,0-3.226-1.472,5.564,5.564,0,0,0-2.13.439,8.728,8.728,0,0,0-2.067,1.221,9.365,9.365,0,0,0-1.785,1.848,8.768,8.768,0,0,0-1.222,2.318v18.855h-10.023V8910h9.021v5.512a11.973,11.973,0,0,1,5.136-4.541,17.423,17.423,0,0,1,7.643-1.6,9.958,9.958,0,0,1,5.137,1.159,8.317,8.317,0,0,1,3.007,3.007,11.626,11.626,0,0,1,1.409,4.04,27.53,27.53,0,0,1,.345,4.26Z" fill="url(#linear-gradient-4)"/>
      <path id="Path_3036" data-name="Path 3036" d="M6042.7,8941.136a39.885,39.885,0,0,1-4.73,1.628,19.637,19.637,0,0,1-5.356.752,12.929,12.929,0,0,1-3.539-.47,7.873,7.873,0,0,1-2.913-1.5,7.018,7.018,0,0,1-1.973-2.725,10.357,10.357,0,0,1-.721-4.072v-17.165h-4.2V8910h4.2V8899.54h10.023V8910h6.7v7.579h-6.7v13.72a2.685,2.685,0,0,0,2.882,3.069,7.666,7.666,0,0,0,2.318-.376,14.28,14.28,0,0,0,2.067-.814Z" fill="url(#linear-gradient-7)"/>
      <path id="Path_3037" data-name="Path 3037" d="M6055.914,8943.516a12.9,12.9,0,0,1-4.541-.782,10.623,10.623,0,0,1-3.6-2.193,10.508,10.508,0,0,1-2.381-3.32,9.869,9.869,0,0,1-.876-4.165,9.56,9.56,0,0,1,1.033-4.447,10.223,10.223,0,0,1,2.913-3.446,14.384,14.384,0,0,1,4.448-2.255,18.818,18.818,0,0,1,5.7-.814,23.031,23.031,0,0,1,4.009.344,13.218,13.218,0,0,1,3.382,1.034v-1.5q0-5.7-6.577-5.7a14.662,14.662,0,0,0-5.137.908,24.769,24.769,0,0,0-5.137,2.726l-2.944-6.265a26.326,26.326,0,0,1,6.765-3.194,25.532,25.532,0,0,1,7.455-1.065q7.454,0,11.526,3.508t4.073,10.274v8.457a3.48,3.48,0,0,0,.47,2.1,2.327,2.327,0,0,0,1.659.721v8.457a16.847,16.847,0,0,1-2.38.407q-1.066.094-1.942.094a6.96,6.96,0,0,1-4.26-1.1,4.846,4.846,0,0,1-1.817-3.1l-.187-1.5a15.023,15.023,0,0,1-5.231,4.321A14.289,14.289,0,0,1,6055.914,8943.516Zm2.945-7.2a9.107,9.107,0,0,0,3.164-.563,7.388,7.388,0,0,0,2.537-1.5,3.111,3.111,0,0,0,1.44-2.381v-3.132a16.208,16.208,0,0,0-2.85-.783,15.8,15.8,0,0,0-2.85-.282,7.725,7.725,0,0,0-4.542,1.253,3.819,3.819,0,0,0-1.785,3.257,3.712,3.712,0,0,0,1.378,2.977A5.262,5.262,0,0,0,6058.859,8936.312Z" fill="url(#linear-gradient-3)"/>
      <path id="Path_3038" data-name="Path 3038" d="M6083.165,8897.16h10.022v34.015q0,3.759,3.2,3.759a7.1,7.1,0,0,0,1.659-.219,6.142,6.142,0,0,0,1.661-.658l1.315,7.518a19.382,19.382,0,0,1-4.322,1.378,22.839,22.839,0,0,1-4.573.5q-4.323,0-6.64-2.255t-2.318-6.516Z" fill="url(#linear-gradient-9)"/>
    </g>
    <g id="Group_1712" data-name="Group 1712" transform="translate(-5477 -7202)">
      <path id="Path_3060" data-name="Path 3060" d="M5787.4,8836.146c19.121-2.594,32.361-16.037,30.655-31.1-2.6,5.405-18.572,25.612-30.791,24.455,0-1.823.1-5.532.1-5.532s7.85-3.62,12.485-8.089a28.953,28.953,0,0,0,6.786-10.857c-2.036,1.356-9.5,6.107-12.927,8.092a46.917,46.917,0,0,1-6.305,2.529c-.077-1.409-.151-2.133-.152-2.856,0-13.816-.079-26.275.02-40.09a32.193,32.193,0,0,1,26.338-31.617c15.57-2.757,30.544,5.463,36.092,20.146,4.063,10.754,2.51,20.936-4.163,30.707-.7-2.809-1.31-5.267-2.067-8.31-.731,1.035-1.112,1.5-1.412,2.013a23.81,23.81,0,0,1-10.661,9.934c-2.267,1.035-2.907,2.3-2.8,4.668.29,6.185-.057,12.331-2.193,18.246a41.033,41.033,0,0,1-17.475,21.624,3.139,3.139,0,0,0-1.751,3.132c.09,3.534.112,7.074,0,10.606-.345,10.458-9.783,19.481-19.762,18.8v-5.521C5787.577,8867.019,5787.4,8844.283,5787.4,8836.146Zm41.443-80.236c7.434,3.761,14.439,12.468,14.466,22.867,3.366-7.685.652-14.472-.511-17.861a25.578,25.578,0,0,0-14.192-12.576v6.876c-.922-.33-1.6-.571-2.286-.818a19.62,19.62,0,0,0-22.466,6.721,19.352,19.352,0,0,0,.183,23.413,19.7,19.7,0,0,0,22.332,6.5c1.8-.646,2.552-1.519,2.528-3.538-.057-4.711-.07-9.422-.069-14.133,0-4.659.016-9.318.015-13.979Z" fill="url(#linear-gradient-10)"/>
      <path id="Path_3061" data-name="Path 3061" d="M5813.417,8765.524v5.568h5.544a5.569,5.569,0,0,1-5.574,5.7,5.667,5.667,0,0,1-5.611-5.506C5807.688,8768.076,5809.865,8765.759,5813.417,8765.524Z" fill="url(#linear-gradient-11)"/>
    </g>
  </g>
</svg>
