<svg xmlns="http://www.w3.org/2000/svg" width="339.54" height="81.301" viewBox="0 0 339.54 81.301">
  <g id="Group_2075" data-name="Group 2075" transform="translate(-125.578 -884.512)">
    <g id="Group_1716" data-name="Group 1716" transform="translate(190.033 918.797)">
      <g id="Group_1715" data-name="Group 1715">
        <path id="Path_3071" data-name="Path 3071" d="M5701.489,8125.258V8086.28h16.634a11.443,11.443,0,0,1,5.132,1.153,13.151,13.151,0,0,1,4.007,3.02,14.452,14.452,0,0,1,2.636,4.228,12.6,12.6,0,0,1,.959,4.775,13.661,13.661,0,0,1-.906,4.94,14.082,14.082,0,0,1-2.525,4.228,11.908,11.908,0,0,1-3.925,2.965,11.723,11.723,0,0,1-5.105,1.1h-7.9v12.571Zm9-20.422h7.356a3.478,3.478,0,0,0,2.744-1.372,6.083,6.083,0,0,0,1.153-4.008,6.955,6.955,0,0,0-.357-2.36,4.833,4.833,0,0,0-.96-1.647,3.7,3.7,0,0,0-1.372-.96,4.187,4.187,0,0,0-1.537-.3h-7.027Z" transform="translate(-5701.489 -8085.183)" fill="#2bb788"/>
        <path id="Path_3072" data-name="Path 3072" d="M5760.246,8105.986a16.838,16.838,0,0,0-5.764,1.043,7.028,7.028,0,0,0-3.734,2.964v17.292h-8.783v-28.821h8.07v5.819a12.262,12.262,0,0,1,3.815-4.557,8.8,8.8,0,0,1,4.969-1.7h.878a2.828,2.828,0,0,1,.549.055Z" transform="translate(-5708.479 -8087.212)" fill="#2bb788"/>
        <path id="Path_3073" data-name="Path 3073" d="M5780.152,8127.812a16.849,16.849,0,0,1-6.561-1.208,14.285,14.285,0,0,1-4.858-3.266,13.788,13.788,0,0,1-2.991-4.776,16.394,16.394,0,0,1,0-11.364,13.783,13.783,0,0,1,2.991-4.776,14.618,14.618,0,0,1,4.858-3.293,16.507,16.507,0,0,1,6.561-1.235,16.306,16.306,0,0,1,6.532,1.235,14.681,14.681,0,0,1,4.832,3.293,14.148,14.148,0,0,1,3.02,4.776,15.743,15.743,0,0,1,1.042,5.682,16.1,16.1,0,0,1-1.016,5.682,13.8,13.8,0,0,1-2.992,4.776,14.271,14.271,0,0,1-4.857,3.266A16.856,16.856,0,0,1,5780.152,8127.812Zm-6.423-14.932a7.965,7.965,0,0,0,1.812,5.462,5.87,5.87,0,0,0,4.611,2.059,5.8,5.8,0,0,0,2.525-.548,6.054,6.054,0,0,0,2-1.538,7.365,7.365,0,0,0,1.345-2.388,9.1,9.1,0,0,0,.494-3.047,7.965,7.965,0,0,0-1.811-5.461,5.814,5.814,0,0,0-4.557-2.059,5.967,5.967,0,0,0-4.584,2.086,7.379,7.379,0,0,0-1.345,2.389A9.1,9.1,0,0,0,5773.729,8112.88Z" transform="translate(-5712.411 -8087.188)" fill="#2bb788"/>
        <path id="Path_3074" data-name="Path 3074" d="M5852.824,8127.263h-8.784v-16.195a6.6,6.6,0,0,0-1.042-4.144,3.3,3.3,0,0,0-2.69-1.291,4.534,4.534,0,0,0-1.784.385,6.032,6.032,0,0,0-1.674,1.069,8.618,8.618,0,0,0-1.4,1.62,8.792,8.792,0,0,0-1.016,2.031v16.524h-8.783v-16.195a6.6,6.6,0,0,0-1.043-4.144,3.3,3.3,0,0,0-2.689-1.291,5.322,5.322,0,0,0-3.432,1.4,8,8,0,0,0-2.443,3.705v16.524h-8.784v-28.821h7.906v4.831a10.442,10.442,0,0,1,4.31-4.007,13.879,13.879,0,0,1,6.34-1.373,10.183,10.183,0,0,1,3.156.439,7.608,7.608,0,0,1,2.333,1.208,6.392,6.392,0,0,1,1.592,1.784,7.754,7.754,0,0,1,.878,2.168,11.361,11.361,0,0,1,4.337-4.145,12.73,12.73,0,0,1,6.148-1.455,8.465,8.465,0,0,1,4.419,1.015,7.365,7.365,0,0,1,2.607,2.636,10.239,10.239,0,0,1,1.235,3.54,24.245,24.245,0,0,1,.3,3.734Z" transform="translate(-5719.756 -8087.188)" fill="#2bb788"/>
        <path id="Path_3075" data-name="Path 3075" d="M5882.728,8127.812a17.042,17.042,0,0,1-6.505-1.18,14.445,14.445,0,0,1-4.886-3.211,13.768,13.768,0,0,1-3.047-4.694,15.156,15.156,0,0,1-1.042-5.572,16.635,16.635,0,0,1,1.042-5.9,14.332,14.332,0,0,1,3.02-4.859,14.1,14.1,0,0,1,4.858-3.293,16.844,16.844,0,0,1,6.561-1.208,16.638,16.638,0,0,1,6.532,1.208,14.342,14.342,0,0,1,4.831,3.266,13.869,13.869,0,0,1,2.992,4.749,15.877,15.877,0,0,1,1.015,5.654q0,.77-.054,1.51a10.788,10.788,0,0,1-.165,1.291h-21.3a5.917,5.917,0,0,0,2.113,4.418,6.717,6.717,0,0,0,4.309,1.51,7.886,7.886,0,0,0,3.706-.933,4.77,4.77,0,0,0,2.389-2.525l7.466,2.086a13.441,13.441,0,0,1-5.271,5.545A16.351,16.351,0,0,1,5882.728,8127.812Zm6.093-17.676a6.607,6.607,0,0,0-1.977-4.337,5.953,5.953,0,0,0-4.227-1.592,5.873,5.873,0,0,0-4.255,1.619,6.718,6.718,0,0,0-1.949,4.31Z" transform="translate(-5730.117 -8087.188)" fill="#2bb788"/>
        <path id="Path_3076" data-name="Path 3076" d="M5937.161,8127.263h-8.784v-16.195a6.466,6.466,0,0,0-1.07-4.144,3.494,3.494,0,0,0-2.827-1.291,4.857,4.857,0,0,0-1.866.385,7.7,7.7,0,0,0-1.812,1.069,8.255,8.255,0,0,0-1.563,1.62,7.683,7.683,0,0,0-1.071,2.031v16.524h-8.783v-28.821h7.9v4.831a10.5,10.5,0,0,1,4.5-3.98,15.266,15.266,0,0,1,6.7-1.4,8.733,8.733,0,0,1,4.5,1.015,7.3,7.3,0,0,1,2.636,2.636,10.2,10.2,0,0,1,1.235,3.54,24.306,24.306,0,0,1,.3,3.734Z" transform="translate(-5737.395 -8087.188)" fill="#2bb788"/>
        <path id="Path_3077" data-name="Path 3077" d="M5967.938,8123.927a34.974,34.974,0,0,1-4.146,1.427,17.189,17.189,0,0,1-4.693.659,11.335,11.335,0,0,1-3.1-.411,6.914,6.914,0,0,1-2.553-1.318,6.141,6.141,0,0,1-1.729-2.388,9.068,9.068,0,0,1-.631-3.568v-15.042h-3.678v-6.642h3.678v-9.168h8.784v9.168h5.874v6.642h-5.874v12.023a2.351,2.351,0,0,0,2.524,2.69,6.748,6.748,0,0,0,2.032-.33,12.6,12.6,0,0,0,1.812-.713Z" transform="translate(-5743.961 -8085.39)" fill="#2bb788"/>
        <path id="Path_3078" data-name="Path 3078" d="M5984.139,8127.812a11.291,11.291,0,0,1-3.98-.686A9.3,9.3,0,0,1,5977,8125.2a9.188,9.188,0,0,1-2.086-2.909,8.641,8.641,0,0,1-.769-3.65,8.373,8.373,0,0,1,.906-3.9,8.932,8.932,0,0,1,2.552-3.02,12.577,12.577,0,0,1,3.9-1.977,16.453,16.453,0,0,1,5-.714,20.135,20.135,0,0,1,3.514.3,11.573,11.573,0,0,1,2.964.906v-1.317q0-5-5.764-5a12.851,12.851,0,0,0-4.5.8,21.641,21.641,0,0,0-4.5,2.389l-2.581-5.49a23.049,23.049,0,0,1,5.929-2.8,22.379,22.379,0,0,1,6.533-.933q6.532,0,10.1,3.074t3.569,9v7.411a3.054,3.054,0,0,0,.411,1.839,2.046,2.046,0,0,0,1.456.632v7.411a14.727,14.727,0,0,1-2.087.357q-.935.083-1.7.083a6.1,6.1,0,0,1-3.733-.961,4.249,4.249,0,0,1-1.592-2.717l-.164-1.318a13.171,13.171,0,0,1-4.584,3.788A12.522,12.522,0,0,1,5984.139,8127.812Zm2.581-6.313a7.99,7.99,0,0,0,2.772-.494,6.452,6.452,0,0,0,2.223-1.318,2.725,2.725,0,0,0,1.263-2.086v-2.745a14.229,14.229,0,0,0-2.5-.686,13.866,13.866,0,0,0-2.5-.247,6.767,6.767,0,0,0-3.98,1.1,3.348,3.348,0,0,0-1.565,2.855,3.254,3.254,0,0,0,1.208,2.608A4.611,4.611,0,0,0,5986.72,8121.5Z" transform="translate(-5748.58 -8087.188)" fill="#2bb788"/>
        <path id="Path_3079" data-name="Path 3079" d="M6015.089,8084.954h8.784v29.809q0,3.294,2.8,3.293a6.181,6.181,0,0,0,1.455-.192,5.344,5.344,0,0,0,1.455-.576l1.152,6.587a16.973,16.973,0,0,1-3.788,1.208,19.986,19.986,0,0,1-4.007.439,8,8,0,0,1-5.819-1.977,7.6,7.6,0,0,1-2.031-5.709Z" transform="translate(-5755.65 -8084.954)" fill="#2bb788"/>
      </g>
    </g>
    <g id="Group_1717" data-name="Group 1717" transform="translate(125.578 884.512)">
      <path id="Path_3080" data-name="Path 3080" d="M5623.688,8102.331c11.766-1.6,19.913-9.868,18.863-19.135-1.6,3.326-11.428,15.76-18.947,15.048,0-1.122.062-3.4.062-3.4a33.293,33.293,0,0,0,7.682-4.977,17.83,17.83,0,0,0,4.176-6.682c-1.253.835-5.847,3.759-7.956,4.979a28.82,28.82,0,0,1-3.879,1.557c-.048-.867-.093-1.312-.093-1.757,0-8.5-.049-16.169.012-24.669a19.869,19.869,0,0,1,38.414-7.058c2.5,6.616,1.545,12.88-2.562,18.894-.429-1.728-.806-3.24-1.271-5.113-.449.637-.684.924-.869,1.238a14.638,14.638,0,0,1-6.561,6.112,2.546,2.546,0,0,0-1.721,2.872,28.655,28.655,0,0,1-1.349,11.228,25.248,25.248,0,0,1-10.752,13.306,1.932,1.932,0,0,0-1.078,1.927c.056,2.175.07,4.354,0,6.526-.212,6.436-6.019,11.987-12.159,11.566v-3.4C5623.8,8121.327,5623.688,8107.338,5623.688,8102.331Zm25.5-49.371c4.575,2.315,8.884,7.673,8.9,14.07,2.071-4.728.4-8.9-.314-10.989a15.736,15.736,0,0,0-8.732-7.738v4.23c-.567-.2-.988-.351-1.406-.5a12.075,12.075,0,0,0-13.824,4.136,11.906,11.906,0,0,0,.112,14.406,12.12,12.12,0,0,0,13.741,4,1.961,1.961,0,0,0,1.556-2.178c-.035-2.9-.043-5.8-.042-8.7,0-2.868.01-5.734.01-8.6Z" transform="translate(-5623.578 -8043.512)" fill="#182445"/>
      <path id="Path_3081" data-name="Path 3081" d="M5642.341,8062.084v3.427h3.412a3.426,3.426,0,0,1-3.43,3.509,3.487,3.487,0,0,1-3.453-3.387A3.387,3.387,0,0,1,5642.341,8062.084Z" transform="translate(-5626.218 -8046.719)" fill="#182445"/>
    </g>
  </g>
</svg>
