<svg xmlns="http://www.w3.org/2000/svg" width="110.518" height="88.836" viewBox="0 0 110.518 88.836">
  <g id="Group_2069" data-name="Group 2069" transform="translate(0 -50.223)">
    <path id="Path_3370" data-name="Path 3370" d="M77.406,144.366a20.442,20.442,0,0,1,.332-3.645H13.246v9.493l42.48,35.715L85.69,160.736A20.288,20.288,0,0,1,77.406,144.366Z" transform="translate(-10.387 -70.964)" fill="#f4b2b0"/>
    <g id="Group_2068" data-name="Group 2068" transform="translate(0 50.223)">
      <path id="Path_3371" data-name="Path 3371" d="M75.517,93.329A23.174,23.174,0,1,0,65.1,66.9H2.859A2.859,2.859,0,0,0,0,69.757V136.2a2.859,2.859,0,0,0,2.859,2.859H87.819a2.859,2.859,0,0,0,2.859-2.859V106.681a2.859,2.859,0,0,0-5.718,0v22.6l-26.1-21.944ZM87.339,55.942a17.46,17.46,0,1,1-11.6,30.492c-.054-.048-.109-.1-.163-.144-.142-.13-.281-.264-.419-.4-.093-.091-.186-.182-.277-.275q-.169-.172-.332-.348-.194-.21-.381-.426c-.07-.08-.141-.16-.209-.241a17.59,17.59,0,0,1-3.8-8.114l-.005-.031c-.054-.3-.1-.6-.136-.9-.006-.049-.013-.1-.019-.147-.032-.27-.055-.542-.073-.815,0-.066-.011-.132-.015-.2-.019-.328-.03-.657-.03-.987,0-.274.008-.545.021-.815.009-.187.024-.374.039-.562.006-.073.01-.146.017-.219q.033-.351.08-.7c0-.023.005-.045.009-.068q.05-.366.116-.732A17.486,17.486,0,0,1,87.339,55.942ZM64.159,73.4q0,.579.029,1.154a23.048,23.048,0,0,0,4.5,12.593l0,.006c.16.216.326.427.493.637.08.1.157.2.238.3s.164.191.245.287c.393.465.8.92,1.231,1.354L45.339,111.229,5.719,77.918v-5.3H64.173Q64.16,73.01,64.159,73.4ZM5.719,85.39l26.1,21.944-26.1,21.943ZM80.907,133.34H9.771l26.49-22.272,7.237,6.085a2.859,2.859,0,0,0,3.68,0l7.237-6.085Z" transform="translate(0 -50.223)" fill="#b3404a"/>
      <path id="Path_3372" data-name="Path 3372" d="M372.62,128.744a2.859,2.859,0,0,1-1.771-5.106l7.437-5.857-7.437-5.857a2.859,2.859,0,1,1,3.538-4.493l10.29,8.1a2.859,2.859,0,0,1,0,4.492l-10.29,8.1A2.844,2.844,0,0,1,372.62,128.744Z" transform="translate(-289.945 -94.603)" fill="#b3404a"/>
    </g>
  </g>
</svg>
