<svg xmlns="http://www.w3.org/2000/svg" width="20.431" height="22.703" viewBox="0 0 20.431 22.703">
  <g id="Group_1110" data-name="Group 1110" transform="translate(-809.476 -22.639)">
    <g id="Group_1108" data-name="Group 1108">
      <path id="Path_1618" data-name="Path 1618" d="M817.564,45.342a2.282,2.282,0,0,1-1.814-.57c-.145-.208-.365-.523-1.006-6.6a.729.729,0,0,0-.288-.512.694.694,0,0,0-.541-.138,3.767,3.767,0,0,1-2.727-.339c-1.115-.763-2.274-4.72-1.411-7.12.352-.976,1.366-2.579,4.121-2.345.413-.039,3.8-.433,9.321-3.433.438-.431,1.925-1.767,3.278-1.643a1.759,1.759,0,0,1,1.328.826c1.029,1.567,3.231,13.14,1.342,14.723-.937.788-2.742.285-5.026-.352-1.835-.512-4.345-1.213-4.991-.544s.3,2.213,1.058,3.452c.774,1.265,1.386,2.265.989,3.1-.542,1.14-2.293,1.4-3.02,1.462C818,45.33,817.787,45.342,817.564,45.342Zm-.674-1.45a5.248,5.248,0,0,0,2.375-.2c.523-.184.648-.378.675-.433a7.114,7.114,0,0,0-.919-1.779c-1.007-1.647-2.261-3.7-.874-5.141,1.218-1.269,3.837-.538,6.368.166,1.262.352,3.382.944,3.757.626.938-1.054-.56-11.292-1.61-12.892a.376.376,0,0,0-.3-.2c-.619-.06-1.675.747-2.225,1.308l-.162.124c-6.234,3.407-9.89,3.643-10.042,3.651l-.05,0-.051,0c-1.409-.131-2.292.3-2.7,1.317-.81,1.995.4,5.25.851,5.613a2.693,2.693,0,0,0,1.714.11,2.086,2.086,0,0,1,1.609.406,2.144,2.144,0,0,1,.826,1.472C816.565,42.183,816.8,43.488,816.89,43.892Z" fill="#dbdbdb"/>
    </g>
    <g id="Group_1109" data-name="Group 1109">
      <path id="Path_1619" data-name="Path 1619" d="M826.376,37.541l-1.391-.006c.017-4.9-1.995-12.425-2.016-12.5l1.343-.363C824.4,24.987,826.394,32.449,826.376,37.541Z" fill="#dbdbdb"/>
    </g>
  </g>
</svg>
