<svg xmlns="http://www.w3.org/2000/svg" xmlns:xlink="http://www.w3.org/1999/xlink" width="188.584" height="188.624" viewBox="0 0 188.584 188.624">
  <defs>
    <linearGradient id="linear-gradient" x1="0.129" y1="0.919" x2="0.917" y2="0.131" gradientUnits="objectBoundingBox">
      <stop offset="0" stop-color="#f7a820"/>
      <stop offset="0.322" stop-color="#eec016"/>
      <stop offset="1" stop-color="#d9ff00"/>
    </linearGradient>
    <linearGradient id="linear-gradient-2" x1="-1.857" y1="2.421" x2="2.521" y2="-1.313" xlink:href="#linear-gradient"/>
    <linearGradient id="linear-gradient-3" x1="-8.358" y1="9.358" x2="15.29" y2="-14.29" xlink:href="#linear-gradient"/>
    <linearGradient id="linear-gradient-4" x1="-4.869" y1="5.869" x2="3.013" y2="-2.013" xlink:href="#linear-gradient"/>
    <linearGradient id="linear-gradient-5" x1="-5.703" y1="6.702" x2="2.18" y2="-1.18" xlink:href="#linear-gradient"/>
    <linearGradient id="linear-gradient-6" x1="-2.1" y1="4.748" x2="1.841" y2="-2.009" xlink:href="#linear-gradient"/>
    <linearGradient id="linear-gradient-7" x1="-5.453" y1="6.453" x2="2.43" y2="-1.43" xlink:href="#linear-gradient"/>
    <linearGradient id="linear-gradient-8" x1="-1.853" y1="4.743" x2="2.089" y2="-2.014" xlink:href="#linear-gradient"/>
  </defs>
  <g id="Page-1" transform="translate(-4994.081 -5867.977)">
    <g id="_052---Split-Personality" data-name="052---Split-Personality">
      <path id="Shape" d="M4998.715,5985.529a22.917,22.917,0,0,0,3.26,1.886c1.362.7,3.641,1.861,3.8,2.675a5.428,5.428,0,0,1-.368,3.178c-.468,1.006-.962,1.871-1.383,2.619-1.154,2.034-3.081,5.438-.173,7.812.679.629,1.852,1.537,2.924,2.358a7.9,7.9,0,0,0-1.025,4.536,4.531,4.531,0,0,0,1.864,3.093c.7.491,1.443.921,2.178,1.336,1.858,1.06,2.585,1.553,2.83,2.537a8.66,8.66,0,0,1-.315,3.773c-.182.842-.364,1.685-.468,2.514a18.712,18.712,0,0,0,1.031,8.469,11.769,11.769,0,0,0,11.116,8.567,12.436,12.436,0,0,0,2.581-.274,237.324,237.324,0,0,0,26.5-7.928c7.079,4.153,11.556,16.793,12.722,21.534a3.144,3.144,0,0,0,3.053,2.386l78.9-.22a3.144,3.144,0,0,0,2.993-4.087,24.265,24.265,0,0,0-3.185-5.973,30.2,30.2,0,0,1-2.037-3.4,59.911,59.911,0,0,1-3.549-8.95,105.538,105.538,0,0,1-3.716-18.588,51.552,51.552,0,0,1-.173-9.117c.205,0,.4.032.6.032a44.012,44.012,0,0,0,24.671-80.434,87.4,87.4,0,0,0-2.408-12.065,52.382,52.382,0,0,0-18.786-27.035,91.386,91.386,0,0,0-26.19-14.882,2.69,2.69,0,0,0-.273-.069,43.693,43.693,0,0,0-17.872-3.829c-.629,0-1.235.069-1.858.094-.044,0-.078-.028-.122-.028-2.569-.107-4.986-.091-7.4.031a209.274,209.274,0,0,0-30.406,4.367c-14.171,2.829-24.476,7.793-31.508,15.227a60.268,60.268,0,0,0-12.609,20.572,84.524,84.524,0,0,0-2.786,10.035l-.314,1.323a40.528,40.528,0,0,1-2.694,7.165c-.629,1.43-1.277,2.86-1.846,4.351a10.6,10.6,0,0,0-.823,5.253,12.017,12.017,0,0,0,4.58,7.026c1.537,1.411,2.546,2.405,2.559,3.269a5.487,5.487,0,0,1-.534,1.367,121.5,121.5,0,0,1-13.763,22.361c-2.276,2.773-4.659,6-4.159,9.239A9.658,9.658,0,0,0,4998.715,5985.529Zm177.7-23.238a37.765,37.765,0,0,1-37.724,37.724c-1.068,0-2.118-.073-3.165-.161h-.051a37.369,37.369,0,0,1-33.879-44.042,43.562,43.562,0,0,0,11.975-2.767,9.43,9.43,0,1,0,13.775-8.487,44.027,44.027,0,0,0,12.628-19.915A37.738,37.738,0,0,1,5176.419,5962.291Zm-78.591-88.022a37.723,37.723,0,1,1-37.724,37.724A37.724,37.724,0,0,1,5097.828,5874.269Zm28.293,78.591a3.144,3.144,0,1,1-3.144-3.144A3.144,3.144,0,0,1,5126.121,5952.86Zm28.789-37.34c.582,2.049,1.072,4.237,1.5,6.513a43.729,43.729,0,0,0-15.09-3.621,42.719,42.719,0,0,0-5.551-28.607c.839.629,1.682,1.257,2.515,1.911A45.613,45.613,0,0,1,5154.91,5915.52Zm-151.63,58.717a126.8,126.8,0,0,0,14.385-23.367,9.317,9.317,0,0,0,1.214-4.244,10.98,10.98,0,0,0-4.593-7.859c-1.258-1.166-2.471-2.267-2.609-3.285a5.867,5.867,0,0,1,.487-2.157c.512-1.345,1.1-2.665,1.7-3.986a45.884,45.884,0,0,0,3.078-8.293l.314-1.336a78.755,78.755,0,0,1,2.575-9.289,53.922,53.922,0,0,1,11.28-18.422c6.016-6.369,15.479-10.867,28.179-13.392,4.043-.823,8.45-1.663,13-2.392a43.93,43.93,0,0,0,22.914,79.657,44.772,44.772,0,0,0-.522,6.419,44.04,44.04,0,0,0,37.064,43.407,57.45,57.45,0,0,0,.273,10.443,111.688,111.688,0,0,0,3.955,19.711,65.623,65.623,0,0,0,3.9,9.843,34.743,34.743,0,0,0,2.44,4.109c.069.1.138.207.207.314l-71.3.195a50.123,50.123,0,0,0-11.065-20.076l2.952-1.031c2.049-.713,3.6-1.257,4.4-1.512,13.47-4.253,20.2-10.374,20.022-18.233a3.145,3.145,0,0,0-6.288.148c.076,3.235-2.574,7.953-15.649,12.084-.839.27-2.433.827-4.552,1.572-2.354.824-5.366,1.886-8.7,3.008a244.14,244.14,0,0,1-27.036,8.174,5.59,5.59,0,0,1-6.488-4.191,12.542,12.542,0,0,1-.739-5.608c.085-.66.233-1.317.377-1.974a13.755,13.755,0,0,0,.271-6.69,10.43,10.43,0,0,0-5.816-6.425c-.22-.123-.437-.249-.654-.374a11.736,11.736,0,0,1,1.214-1.946,3.143,3.143,0,0,0-.6-4.474c-.754-.556-2.534-1.886-3.835-2.936.151-.273.314-.575.471-.846.494-.867,1.06-1.886,1.607-3.036a11.766,11.766,0,0,0,.839-7.036c-.754-3.838-4.429-5.718-7.114-7.089a17.555,17.555,0,0,1-2.59-1.5,13.324,13.324,0,0,1-1.886-1.525C5000.375,5978.323,5000.885,5977.163,5003.28,5974.237Z" fill="url(#linear-gradient)"/>
      <path id="Shape-2" data-name="Shape" d="M5025.418,5926.265a3.144,3.144,0,0,0,3.772-2.345l.314-1.374a70.418,70.418,0,0,1,2.1-7.755,41.457,41.457,0,0,1,8.626-14.147,32.878,32.878,0,0,1,14.493-7.956,3.145,3.145,0,0,0-1.836-6.017,38.96,38.96,0,0,0-17.227,9.654,47.688,47.688,0,0,0-9.947,16.3,74.355,74.355,0,0,0-2.326,8.51l-.314,1.361A3.143,3.143,0,0,0,5025.418,5926.265Z" fill="url(#linear-gradient-2)"/>
      <circle id="Oval" cx="3.144" cy="3.144" r="3.144" transform="translate(5019.237 5930.854)" fill="url(#linear-gradient-3)"/>
      <path id="Shape-3" data-name="Shape" d="M5082.11,5911.993a9.431,9.431,0,1,0-9.431-9.431A9.432,9.432,0,0,0,5082.11,5911.993Zm0-12.575a3.144,3.144,0,1,1-3.144,3.144A3.144,3.144,0,0,1,5082.11,5899.418Z" fill="url(#linear-gradient-4)"/>
      <path id="Shape-4" data-name="Shape" d="M5113.546,5911.993a9.431,9.431,0,1,0-9.431-9.431A9.431,9.431,0,0,0,5113.546,5911.993Zm0-12.575a3.144,3.144,0,1,1-3.143,3.144A3.144,3.144,0,0,1,5113.546,5899.418Z" fill="url(#linear-gradient-5)"/>
      <path id="Shape-5" data-name="Shape" d="M5085.254,5921.424a3.144,3.144,0,0,0-6.288,0,18.862,18.862,0,0,0,37.724,0,3.144,3.144,0,1,0-6.287,0,12.574,12.574,0,0,1-25.149,0Z" fill="url(#linear-gradient-6)"/>
      <path id="Shape-6" data-name="Shape" d="M5154.414,5962.291a9.431,9.431,0,1,0-9.431-9.431A9.431,9.431,0,0,0,5154.414,5962.291Zm0-12.575a3.144,3.144,0,1,1-3.144,3.144A3.144,3.144,0,0,1,5154.414,5949.716Z" fill="url(#linear-gradient-7)"/>
      <path id="Shape-7" data-name="Shape" d="M5138.695,5968.578a18.881,18.881,0,0,0-18.861,18.862,3.144,3.144,0,1,0,6.287,0,12.574,12.574,0,1,1,25.149,0,3.144,3.144,0,1,0,6.287,0A18.881,18.881,0,0,0,5138.695,5968.578Z" fill="url(#linear-gradient-8)"/>
    </g>
  </g>
</svg>
