<svg xmlns="http://www.w3.org/2000/svg" width="34.455" height="34.455" viewBox="0 0 34.455 34.455">
  <g id="Group_1506" data-name="Group 1506" transform="translate(-7773.526 -6438.015)">
    <g id="Group_1505" data-name="Group 1505">
      <g id="Group_1492" data-name="Group 1492">
        <g id="Group_1491" data-name="Group 1491">
          <path id="Path_2842" data-name="Path 2842" d="M7807.407,6438.015H7774.1a.574.574,0,0,0-.574.574h0v11.485h1.148v-10.911h32.158V6451.8h-20.1v1.149h20.673a.575.575,0,0,0,.575-.574h0V6438.59A.574.574,0,0,0,7807.407,6438.015Z" fill="#182445"/>
        </g>
      </g>
      <g id="Group_1494" data-name="Group 1494">
        <g id="Group_1493" data-name="Group 1493">
          <rect id="Rectangle_444" data-name="Rectangle 444" width="11.485" height="1.149" transform="translate(7792.476 6440.887)" fill="#182445"/>
        </g>
      </g>
      <g id="Group_1496" data-name="Group 1496">
        <g id="Group_1495" data-name="Group 1495">
          <rect id="Rectangle_445" data-name="Rectangle 445" width="11.485" height="1.149" transform="translate(7794.199 6444.332)" fill="#182445"/>
        </g>
      </g>
      <g id="Group_1498" data-name="Group 1498">
        <g id="Group_1497" data-name="Group 1497">
          <rect id="Rectangle_446" data-name="Rectangle 446" width="11.485" height="1.149" transform="translate(7791.901 6447.777)" fill="#182445"/>
        </g>
      </g>
      <g id="Group_1500" data-name="Group 1500">
        <g id="Group_1499" data-name="Group 1499">
          <path id="Path_2843" data-name="Path 2843" d="M7791.856,6442.966a1.854,1.854,0,0,0-2.423-1l-.048.021-4.657,2.415a2.871,2.871,0,1,0-4.871.5h-.024a3.942,3.942,0,0,0-3.66,2.55l-1.533,5.283a1.839,1.839,0,1,0,3.453,1.266l.6-1.912v8.311a2.863,2.863,0,0,0-3.727,4.333,2.646,2.646,0,0,0-1.441,2.347v4.812a.573.573,0,0,0,.573.574h5.743a.576.576,0,0,0,.575-.574h0v-4.812a2.64,2.64,0,0,0-1.025-2.079h4.346a2.638,2.638,0,0,0-1.024,2.079v4.812a.575.575,0,0,0,.574.574h5.742a.575.575,0,0,0,.575-.574h0v-4.812a2.649,2.649,0,0,0-1.442-2.347,2.869,2.869,0,0,0-2.578-4.863v-11.748l5.272-2.737A1.855,1.855,0,0,0,7791.856,6442.966Zm-9.717-1.5a1.722,1.722,0,1,1-1.722,1.723A1.722,1.722,0,0,1,7782.139,6441.461Zm-5.168,19.5a1.723,1.723,0,1,1-1.723,1.723A1.723,1.723,0,0,1,7776.971,6460.964Zm2.3,10.358h-4.594v-4.238a1.507,1.507,0,0,1,1.505-1.5h1.584a1.506,1.506,0,0,1,1.5,1.5Zm9.188-4.238v4.238h-4.594v-4.238a1.507,1.507,0,0,1,1.505-1.5h1.584A1.506,1.506,0,0,1,7788.456,6467.084Zm-2.3-6.12a1.723,1.723,0,1,1-1.723,1.723A1.725,1.725,0,0,1,7786.159,6460.964Zm4.646-17.04a.739.739,0,0,1-.434.425l-5.625,2.919a.575.575,0,0,0-.31.51V6460.4a2.834,2.834,0,0,0-.893,3.453h-.829v-9.763h-1.149v9.763h-1.978a2.828,2.828,0,0,0,.253-1.149h0v-14.356a.574.574,0,0,0-1.122-.172l-1.715,5.456a.688.688,0,0,1-.957.382.7.7,0,0,1-.321-.912l1.533-5.284a2.775,2.775,0,0,1,2.573-1.767h4.066a.571.571,0,0,0,.265-.065l5.707-2.962a.705.705,0,0,1,.934.9Z" fill="#182445"/>
        </g>
      </g>
      <g id="Group_1502" data-name="Group 1502">
        <g id="Group_1501" data-name="Group 1501">
          <path id="Path_2844" data-name="Path 2844" d="M7797.351,6464.737a2.871,2.871,0,1,0-4.061-.053l.053.053a2.646,2.646,0,0,0-1.441,2.347v4.812a.573.573,0,0,0,.574.574h5.742a.576.576,0,0,0,.575-.574h0v-4.812A2.649,2.649,0,0,0,7797.351,6464.737Zm-2-3.773a1.723,1.723,0,1,1-1.723,1.723A1.722,1.722,0,0,1,7795.347,6460.964Zm2.3,10.358h-4.594v-4.238a1.507,1.507,0,0,1,1.505-1.5h1.584a1.506,1.506,0,0,1,1.5,1.5Z" fill="#182445"/>
        </g>
      </g>
      <g id="Group_1504" data-name="Group 1504">
        <g id="Group_1503" data-name="Group 1503">
          <path id="Path_2845" data-name="Path 2845" d="M7806.539,6464.737a2.871,2.871,0,1,0-4.061-.053l.053.053a2.646,2.646,0,0,0-1.441,2.347v4.812a.573.573,0,0,0,.574.574h5.742a.576.576,0,0,0,.575-.574h0v-4.812A2.649,2.649,0,0,0,7806.539,6464.737Zm-2-3.773a1.723,1.723,0,1,1-1.723,1.723A1.722,1.722,0,0,1,7804.535,6460.964Zm2.3,10.358h-4.594v-4.238a1.507,1.507,0,0,1,1.505-1.5h1.584a1.506,1.506,0,0,1,1.5,1.5Z" fill="#182445"/>
        </g>
      </g>
    </g>
  </g>
</svg>
