<svg xmlns="http://www.w3.org/2000/svg" width="169.45" height="15.396" viewBox="0 0 169.45 15.396">
  <path id="Path_3106" data-name="Path 3106" d="M6367.641,7592.945a7.651,7.651,0,0,0-4.5,1.46l-.014.072a73.411,73.411,0,0,1-18.567,2.523H6236.508a73.015,73.015,0,0,1-18.394-2.5,7.663,7.663,0,1,0-4.5,13.84,7.871,7.871,0,0,0,4.852-1.958c4.39-1.563,18.047-2.383,18.047-2.383h108.055s14.437.732,18.437,2.34v.16a6.9,6.9,0,0,0,4.708,1.749,7.652,7.652,0,1,0-.067-15.3Z" transform="translate(-6205.917 -7592.945)" fill="#e4e5fb"/>
</svg>
