<svg xmlns="http://www.w3.org/2000/svg" xmlns:xlink="http://www.w3.org/1999/xlink" width="867.679" height="614.102" viewBox="0 0 867.679 614.102">
  <defs>
    <clipPath id="clip-path">
      <rect width="867.679" height="614.102" fill="none"/>
    </clipPath>
  </defs>
  <g id="Repeat_Grid_1" data-name="Repeat Grid 1" clip-path="url(#clip-path)">
    <g id="Group_1741" data-name="Group 1741" transform="translate(-6218.916 -6504.431)">
      <path id="Path_3126" data-name="Path 3126" d="M7079.123,6855.566c0,.02-.011.031-.011.051a319.036,319.036,0,0,1-43.652,110.8,323.213,323.213,0,0,1-273.328,150.452H6544.245a322.9,322.9,0,0,1-233.732-100.109q-3.937-4.121-7.735-8.4a326.4,326.4,0,0,1-71.388-132.406,320.56,320.56,0,0,1-9.175-49.857l-.122-1.206a563.739,563.739,0,0,1-2.412-88.187c3.507-62.133,19.17-116.1,49.471-156.331,35.258-46.826,90.346-75.048,169.165-75.921,3.275-.03,6.569-.03,9.905.021,217.177,3.274,209.948,102.308,387.822,145.768,40.652,9.935,90.975,16.97,155.865,19.281,1.46.051,2.9.122,4.319.223C7087.344,6675.574,7097.137,6760.952,7079.123,6855.566Z" fill="#fff"/>
      <g id="Group_1740" data-name="Group 1740">
        <path id="Path_3127" data-name="Path 3127" d="M7079.123,6857.226c0,.021-.011.031-.011.051a319.032,319.032,0,0,1-43.652,110.8,323.212,323.212,0,0,1-273.328,150.451H6544.245a322.9,322.9,0,0,1-233.732-100.108q-3.939-4.121-7.735-8.4a326.426,326.426,0,0,1-71.389-132.407,320.639,320.639,0,0,1-9.174-49.856l-.122-1.207a563.72,563.72,0,0,1-2.412-88.186c3.507-62.133,19.17-116.095,49.471-156.331,35.258-46.826,90.346-75.049,169.165-75.921,3.275-.03,6.569-.03,9.905.021,217.177,3.274,209.948,102.308,387.822,145.768,40.652,9.934,90.974,16.97,155.865,19.281,1.46.051,2.9.122,4.319.223C7087.344,6677.234,7097.137,6762.613,7079.123,6857.226Z" fill="#d1e3f1" opacity="0.6"/>
        <path id="Path_3128" data-name="Path 3128" d="M6996.228,6671.4c-61.545,32.136-157.69,66.533-273.492,53.993-175.754-19.028-397-55.848-503.055,12.966,3.507-62.133,19.17-116.095,49.471-156.331,37.123-8.617,84.334-8.972,143.953,6.427,129.193,33.362,296.939,69.807,422.939,63.441,40.652,9.934,90.974,16.97,155.865,19.281C6993.369,6671.233,6994.808,6671.3,6996.228,6671.4Z" fill="#fff" opacity="0.5" style="mix-blend-mode: screen;isolation: isolate"/>
        <path id="Path_3129" data-name="Path 3129" d="M7079.112,6857.277a319.032,319.032,0,0,1-43.652,110.8c-44.494,13.392-103.687,18.319-180.357,1.571-187.322-40.925-392.78-40.185-544.59,48.772q-3.939-4.121-7.735-8.4a326.426,326.426,0,0,1-71.389-132.407c53.05-25.131,185.913-73.943,357.177-34.853C6769.177,6883.979,6976.226,6916.744,7079.112,6857.277Z" fill="#fff" opacity="0.5" style="mix-blend-mode: screen;isolation: isolate"/>
      </g>
    </g>
  </g>
</svg>
