<svg xmlns="http://www.w3.org/2000/svg" xmlns:xlink="http://www.w3.org/1999/xlink" width="158.151" height="49.482" viewBox="0 0 158.151 49.482">
  <defs>
    <linearGradient id="linear-gradient" x1="0.5" y1="5.145" x2="0.5" y2="-4.926" gradientUnits="objectBoundingBox">
      <stop offset="0" stop-color="#2b3988"/>
      <stop offset="1" stop-color="#2bb788"/>
    </linearGradient>
    <linearGradient id="linear-gradient-2" x1="0.5" y1="6.521" x2="0.5" y2="-6.895" xlink:href="#linear-gradient"/>
    <linearGradient id="linear-gradient-3" x1="0.5" y1="6.38" x2="0.5" y2="-6.738" xlink:href="#linear-gradient"/>
    <linearGradient id="linear-gradient-4" x1="0.5" y1="6.5" x2="0.5" y2="-6.865" xlink:href="#linear-gradient"/>
    <linearGradient id="linear-gradient-7" x1="0.5" y1="5.177" x2="0.5" y2="-5.008" xlink:href="#linear-gradient"/>
    <linearGradient id="linear-gradient-9" x1="0.5" y1="4.97" x2="0.5" y2="-4.706" xlink:href="#linear-gradient"/>
    <linearGradient id="linear-gradient-10" x1="0.5" y1="4.552" x2="0.5" y2="-2.607" xlink:href="#linear-gradient"/>
    <linearGradient id="linear-gradient-11" x1="0.5" y1="4.752" x2="0.5" y2="-2.722" xlink:href="#linear-gradient"/>
    <linearGradient id="linear-gradient-12" x1="0.5" y1="5.111" x2="0.5" y2="-2.513" xlink:href="#linear-gradient"/>
    <linearGradient id="linear-gradient-13" x1="0.5" y1="6.589" x2="0.5" y2="-3.777" xlink:href="#linear-gradient"/>
    <linearGradient id="linear-gradient-14" x1="0.5" y1="6.567" x2="0.5" y2="-3.758" xlink:href="#linear-gradient"/>
    <linearGradient id="linear-gradient-15" x1="0.5" y1="5.117" x2="0.5" y2="-2.519" xlink:href="#linear-gradient"/>
    <linearGradient id="linear-gradient-17" x1="0.5" y1="8.363" x2="0.5" y2="-2.753" xlink:href="#linear-gradient"/>
    <linearGradient id="linear-gradient-18" x1="0.5" y1="106.255" x2="0.5" y2="-38.303" xlink:href="#linear-gradient"/>
    <linearGradient id="linear-gradient-19" x1="0.5" y1="103.254" x2="0.5" y2="-41.304" xlink:href="#linear-gradient"/>
    <linearGradient id="linear-gradient-20" x1="0.5" y1="100.253" x2="0.5" y2="-44.305" xlink:href="#linear-gradient"/>
    <linearGradient id="linear-gradient-21" x1="0.5" y1="3.811" x2="0.5" y2="-1.35" xlink:href="#linear-gradient"/>
    <linearGradient id="linear-gradient-22" x1="0.5" y1="8.141" x2="0.5" y2="-4.968" xlink:href="#linear-gradient"/>
    <linearGradient id="linear-gradient-23" x1="0.5" y1="8.141" x2="0.5" y2="-4.968" xlink:href="#linear-gradient"/>
    <linearGradient id="linear-gradient-24" x1="0.5" y1="7.968" x2="0.5" y2="-2.59" xlink:href="#linear-gradient"/>
    <linearGradient id="linear-gradient-25" x1="0.5" y1="24.659" x2="0.5" y2="-10.417" xlink:href="#linear-gradient"/>
    <linearGradient id="linear-gradient-26" x1="0.5" y1="6.152" x2="0.5" y2="-5.866" xlink:href="#linear-gradient"/>
  </defs>
  <g id="Group_1401" data-name="Group 1401" transform="translate(-7856.639 -8679.636)">
    <g id="Group_1380" data-name="Group 1380">
      <path id="Path_2709" data-name="Path 2709" d="M7994.149,8717.431c6.117-.83,10.352-5.13,9.806-9.946-.831,1.729-5.941,8.191-9.849,7.821,0-.583.032-1.769.032-1.769a17.313,17.313,0,0,0,3.993-2.588,9.271,9.271,0,0,0,2.171-3.474c-.651.435-3.039,1.954-4.135,2.59a15.021,15.021,0,0,1-2.017.809c-.024-.451-.048-.683-.048-.914,0-4.419-.026-8.4.006-12.823a10.329,10.329,0,0,1,19.969-3.67,10.154,10.154,0,0,1-1.331,9.823l-.661-2.659c-.234.331-.356.48-.452.645a7.611,7.611,0,0,1-3.41,3.178,1.324,1.324,0,0,0-.9,1.493,14.9,14.9,0,0,1-.7,5.836,13.126,13.126,0,0,1-5.59,6.917,1,1,0,0,0-.56,1c.029,1.13.036,2.262,0,3.392a6.273,6.273,0,0,1-6.321,6.014v-1.767C7994.208,8727.306,7994.149,8720.034,7994.149,8717.431Zm13.257-25.665a8.534,8.534,0,0,1,4.627,7.314,7.4,7.4,0,0,0-.164-5.713,8.178,8.178,0,0,0-4.539-4.022v2.2c-.295-.105-.514-.182-.731-.262a6.277,6.277,0,0,0-7.187,2.149,6.192,6.192,0,0,0,.059,7.489,6.3,6.3,0,0,0,7.143,2.077,1.018,1.018,0,0,0,.809-1.131q-.027-2.26-.022-4.521c0-1.489,0-2.98,0-4.471Z" fill="#2bb788"/>
      <path id="Path_2710" data-name="Path 2710" d="M8002.473,8694.841v1.781h1.773a1.782,1.782,0,0,1-1.783,1.825,1.815,1.815,0,0,1-1.795-1.762A1.761,1.761,0,0,1,8002.473,8694.841Z" fill="#2bb788"/>
    </g>
    <g id="Group_1400" data-name="Group 1400">
      <g id="Group_1382" data-name="Group 1382">
        <g id="Group_1381" data-name="Group 1381">
          <path id="Path_2711" data-name="Path 2711" d="M7887.672,8727.55v-13.863h5.916a4.081,4.081,0,0,1,1.826.41,4.668,4.668,0,0,1,1.425,1.074,5.158,5.158,0,0,1,.938,1.5,4.489,4.489,0,0,1,.341,1.7,4.852,4.852,0,0,1-.322,1.758,5,5,0,0,1-.9,1.5,4.243,4.243,0,0,1-1.4,1.056,4.177,4.177,0,0,1-1.816.39h-2.812v4.471Zm3.2-7.263h2.617a1.238,1.238,0,0,0,.976-.488,2.166,2.166,0,0,0,.41-1.426,2.462,2.462,0,0,0-.127-.839,1.7,1.7,0,0,0-.342-.586,1.3,1.3,0,0,0-.488-.342,1.488,1.488,0,0,0-.546-.107h-2.5Z" fill="url(#linear-gradient)"/>
          <path id="Path_2712" data-name="Path 2712" d="M7906.085,8719.974a6.028,6.028,0,0,0-2.051.371,2.5,2.5,0,0,0-1.327,1.056v6.149h-3.124V8717.3h2.87v2.07a4.339,4.339,0,0,1,1.357-1.621,3.138,3.138,0,0,1,1.767-.605h.312a1.017,1.017,0,0,1,.2.021Z" fill="url(#linear-gradient-2)"/>
          <path id="Path_2713" data-name="Path 2713" d="M7911.767,8727.746a6.01,6.01,0,0,1-2.333-.43,5.076,5.076,0,0,1-1.728-1.162,4.9,4.9,0,0,1-1.065-1.7,5.833,5.833,0,0,1,0-4.042,4.889,4.889,0,0,1,1.065-1.7,5.184,5.184,0,0,1,1.728-1.172,5.869,5.869,0,0,1,2.333-.439,5.8,5.8,0,0,1,2.324.439,5.236,5.236,0,0,1,1.718,1.172,5.028,5.028,0,0,1,1.074,1.7,5.6,5.6,0,0,1,.371,2.021,5.756,5.756,0,0,1-.361,2.021,4.932,4.932,0,0,1-1.065,1.7,5.081,5.081,0,0,1-1.728,1.162A6.01,6.01,0,0,1,7911.767,8727.746Zm-2.285-5.312a2.83,2.83,0,0,0,.645,1.942,2.085,2.085,0,0,0,1.64.733,2.053,2.053,0,0,0,.9-.2,2.159,2.159,0,0,0,.713-.546,2.633,2.633,0,0,0,.478-.851,3.23,3.23,0,0,0,.176-1.083,2.838,2.838,0,0,0-.644-1.942,2.069,2.069,0,0,0-1.621-.732,2.134,2.134,0,0,0-.908.2,2.1,2.1,0,0,0-.722.547,2.606,2.606,0,0,0-.479.849A3.236,3.236,0,0,0,7909.482,8722.435Z" fill="url(#linear-gradient-3)"/>
          <path id="Path_2714" data-name="Path 2714" d="M7935,8727.55h-3.124v-5.76a2.345,2.345,0,0,0-.371-1.474,1.175,1.175,0,0,0-.957-.459,1.62,1.62,0,0,0-.635.137,2.135,2.135,0,0,0-.6.381,3.009,3.009,0,0,0-.5.576,3.1,3.1,0,0,0-.361.722v5.877h-3.125v-5.76a2.345,2.345,0,0,0-.371-1.474,1.171,1.171,0,0,0-.956-.459,1.892,1.892,0,0,0-1.221.5,2.838,2.838,0,0,0-.869,1.317v5.877H7918.8V8717.3h2.812v1.719a3.716,3.716,0,0,1,1.533-1.426,4.942,4.942,0,0,1,2.255-.488,3.643,3.643,0,0,1,1.123.156,2.738,2.738,0,0,1,.829.431,2.262,2.262,0,0,1,.567.634,2.747,2.747,0,0,1,.312.771,4.041,4.041,0,0,1,1.543-1.475,4.54,4.54,0,0,1,2.187-.518,3.015,3.015,0,0,1,1.572.361,2.626,2.626,0,0,1,.927.938,3.614,3.614,0,0,1,.439,1.259,8.528,8.528,0,0,1,.108,1.328Z" fill="url(#linear-gradient-4)"/>
          <path id="Path_2715" data-name="Path 2715" d="M7941.954,8727.746a6.051,6.051,0,0,1-2.314-.42,5.159,5.159,0,0,1-1.738-1.143,4.893,4.893,0,0,1-1.084-1.67,5.387,5.387,0,0,1-.37-1.981,5.922,5.922,0,0,1,.37-2.1,5.12,5.12,0,0,1,1.074-1.728,5.014,5.014,0,0,1,1.729-1.171,5.974,5.974,0,0,1,2.333-.431,5.9,5.9,0,0,1,2.323.431A5.1,5.1,0,0,1,7946,8718.7a4.953,4.953,0,0,1,1.064,1.688,5.659,5.659,0,0,1,.361,2.013c0,.182-.006.36-.019.536a3.644,3.644,0,0,1-.059.458h-7.576a2.1,2.1,0,0,0,.752,1.572,2.389,2.389,0,0,0,1.533.537,2.81,2.81,0,0,0,1.318-.332,1.691,1.691,0,0,0,.849-.9l2.656.742a4.785,4.785,0,0,1-1.875,1.973A5.813,5.813,0,0,1,7941.954,8727.746Zm2.167-6.288a2.344,2.344,0,0,0-.7-1.542,2.113,2.113,0,0,0-1.5-.566,2.092,2.092,0,0,0-1.513.575,2.391,2.391,0,0,0-.694,1.533Z" fill="url(#linear-gradient-3)"/>
          <path id="Path_2716" data-name="Path 2716" d="M7958.727,8727.55H7955.6v-5.76a2.3,2.3,0,0,0-.381-1.474,1.242,1.242,0,0,0-1.006-.459,1.74,1.74,0,0,0-.664.137,2.726,2.726,0,0,0-.644.381,2.86,2.86,0,0,0-.556.576,2.69,2.69,0,0,0-.381.722v5.877h-3.124V8717.3h2.811v1.719a3.737,3.737,0,0,1,1.6-1.416,5.437,5.437,0,0,1,2.383-.5,3.11,3.11,0,0,1,1.6.361,2.592,2.592,0,0,1,.937.938,3.624,3.624,0,0,1,.439,1.259,8.528,8.528,0,0,1,.108,1.328Z" fill="url(#linear-gradient-4)"/>
          <path id="Path_2717" data-name="Path 2717" d="M7967.338,8727a12.42,12.42,0,0,1-1.474.507,6.084,6.084,0,0,1-1.67.235,4,4,0,0,1-1.1-.147,2.455,2.455,0,0,1-.908-.468,2.173,2.173,0,0,1-.615-.85,3.228,3.228,0,0,1-.225-1.27v-5.35h-1.308V8717.3h1.308v-3.261h3.124v3.261h2.09v2.363h-2.09v4.276a.837.837,0,0,0,.9.956,2.386,2.386,0,0,0,.722-.116,4.536,4.536,0,0,0,.645-.254Z" fill="url(#linear-gradient-7)"/>
          <path id="Path_2718" data-name="Path 2718" d="M7971.458,8727.746a4.033,4.033,0,0,1-1.416-.244,3.241,3.241,0,0,1-1.865-1.719,3.082,3.082,0,0,1-.273-1.3,2.976,2.976,0,0,1,.322-1.387,3.178,3.178,0,0,1,.908-1.073,4.453,4.453,0,0,1,1.387-.7,5.859,5.859,0,0,1,1.776-.254,7.165,7.165,0,0,1,1.25.106,4.1,4.1,0,0,1,1.054.322v-.468q0-1.778-2.05-1.777a4.562,4.562,0,0,0-1.6.283,7.7,7.7,0,0,0-1.6.849l-.918-1.952a8.212,8.212,0,0,1,2.109-1,7.98,7.98,0,0,1,2.324-.332,5.34,5.34,0,0,1,3.592,1.094,4,4,0,0,1,1.27,3.2v2.636a1.088,1.088,0,0,0,.146.654.729.729,0,0,0,.518.224v2.636a5.054,5.054,0,0,1-.742.127q-.333.031-.606.03a2.175,2.175,0,0,1-1.328-.342,1.516,1.516,0,0,1-.566-.967l-.058-.469a4.691,4.691,0,0,1-1.631,1.348A4.45,4.45,0,0,1,7971.458,8727.746Zm.918-2.246a2.841,2.841,0,0,0,.986-.175,2.318,2.318,0,0,0,.79-.469.969.969,0,0,0,.449-.742v-.977a5.18,5.18,0,0,0-.888-.245,5.016,5.016,0,0,0-.888-.087,2.4,2.4,0,0,0-1.416.391,1.191,1.191,0,0,0-.557,1.015,1.157,1.157,0,0,0,.43.928A1.638,1.638,0,0,0,7972.376,8725.5Z" fill="url(#linear-gradient-3)"/>
          <path id="Path_2719" data-name="Path 2719" d="M7979.952,8713.3h3.124v10.6q0,1.17,1,1.172a2.206,2.206,0,0,0,.517-.069,1.907,1.907,0,0,0,.518-.205l.409,2.343a6.005,6.005,0,0,1-1.347.431,7.149,7.149,0,0,1-1.425.155,2.847,2.847,0,0,1-2.07-.7,2.7,2.7,0,0,1-.722-2.031Z" fill="url(#linear-gradient-9)"/>
        </g>
      </g>
      <g id="Group_1383" data-name="Group 1383">
        <path id="Path_2720" data-name="Path 2720" d="M7922.3,8704.091a9.251,9.251,0,0,1-.238,2.117h3.334a4.688,4.688,0,0,0,.476-2.117v-7.858h3.52v7.858a7.92,7.92,0,0,1-2.249,5.636h-12.094a7.717,7.717,0,0,1-15.242-1.692v-8.124l3.52,1.535v6.589a4.181,4.181,0,0,0,8.362,0v-11.8h3.519v9.976h3.1a4.689,4.689,0,0,0,.477-2.117v-7.858h3.519Z" fill="url(#linear-gradient-10)"/>
        <path id="Path_2721" data-name="Path 2721" d="M7936.562,8707.214c0,4.1-3.123,7.7-7.171,7.7v-3.521a3.93,3.93,0,0,0,3.652-4.18v-10.981h3.519Z" fill="url(#linear-gradient-11)"/>
        <path id="Path_2722" data-name="Path 2722" d="M7942.225,8709.727h-3.52v-18.312h3.52Z" fill="url(#linear-gradient-12)"/>
        <path id="Path_2723" data-name="Path 2723" d="M7944.236,8706.208h6.933a3.248,3.248,0,1,0,0-6.457h-6.933v-3.493h6.933a6.96,6.96,0,0,1,7.118,6.721,6.319,6.319,0,0,1-.847,3.229h1.959v3.519h-15.163Z" fill="url(#linear-gradient-13)"/>
        <path id="Path_2724" data-name="Path 2724" d="M7959.4,8706.208h1.746a6.7,6.7,0,0,1-.661-2.938,7.11,7.11,0,0,1,7.356-7.064,7.579,7.579,0,0,1,7.7,6.907v3.1h1.111v3.519l-9-.025a7.693,7.693,0,0,1-4.922-1.535v1.561H7959.4Zm12.622,0c0-1.905.371-3.969-1.217-5.4a4.356,4.356,0,0,0-2.964-1.085,3.687,3.687,0,0,0-3.916,3.52c0,1.508,1.191,2.964,3.943,2.964Z" fill="url(#linear-gradient-14)"/>
        <path id="Path_2725" data-name="Path 2725" d="M7976.652,8709.727v-3.519h1.112v-14.766h3.519v18.284Z" fill="url(#linear-gradient-15)"/>
        <path id="Path_2726" data-name="Path 2726" d="M7987.343,8709.727h-3.519v-18.312h3.519Z" fill="url(#linear-gradient-12)"/>
      </g>
      <g id="Group_1398" data-name="Group 1398">
        <g id="Group_1385" data-name="Group 1385">
          <g id="Group_1384" data-name="Group 1384">
            <path id="Path_2727" data-name="Path 2727" d="M7893.079,8679.967H7865.06a.483.483,0,0,0-.483.483h0v9.662h.966v-9.18H7892.6v10.628h-16.908v.967h17.391a.484.484,0,0,0,.483-.483h0V8680.45A.483.483,0,0,0,7893.079,8679.967Z" fill="url(#linear-gradient-17)"/>
          </g>
        </g>
        <g id="Group_1387" data-name="Group 1387">
          <g id="Group_1386" data-name="Group 1386">
            <rect id="Rectangle_406" data-name="Rectangle 406" width="9.662" height="0.966" transform="translate(7880.519 8682.383)" fill="url(#linear-gradient-18)"/>
          </g>
        </g>
        <g id="Group_1389" data-name="Group 1389">
          <g id="Group_1388" data-name="Group 1388">
            <rect id="Rectangle_407" data-name="Rectangle 407" width="9.662" height="0.966" transform="translate(7881.968 8685.281)" fill="url(#linear-gradient-19)"/>
          </g>
        </g>
        <g id="Group_1391" data-name="Group 1391">
          <g id="Group_1390" data-name="Group 1390">
            <rect id="Rectangle_408" data-name="Rectangle 408" width="9.662" height="0.966" transform="translate(7880.036 8688.18)" fill="url(#linear-gradient-20)"/>
          </g>
        </g>
        <g id="Group_1393" data-name="Group 1393">
          <g id="Group_1392" data-name="Group 1392">
            <path id="Path_2728" data-name="Path 2728" d="M7880,8684.132a1.558,1.558,0,0,0-2.038-.84l-.041.017-3.917,2.032a2.384,2.384,0,0,0,.238-1.025,2.415,2.415,0,1,0-4.336,1.448h-.02a3.316,3.316,0,0,0-3.079,2.146l-1.29,4.444a1.547,1.547,0,1,0,2.906,1.064l.5-1.608v6.992a2.408,2.408,0,0,0-3.135,3.646,2.224,2.224,0,0,0-1.213,1.974v4.048a.483.483,0,0,0,.483.483h4.831a.483.483,0,0,0,.483-.483h0v-4.048a2.219,2.219,0,0,0-.862-1.749h3.656a2.224,2.224,0,0,0-.862,1.749v4.048a.483.483,0,0,0,.483.483h4.831a.483.483,0,0,0,.483-.483h0v-4.048a2.225,2.225,0,0,0-1.213-1.974,2.413,2.413,0,0,0-2.168-4.092v-9.883l4.435-2.3A1.559,1.559,0,0,0,7880,8684.132Zm-8.174-1.266a1.449,1.449,0,1,1-1.449,1.449A1.449,1.449,0,0,1,7871.823,8682.866Zm-4.347,16.406a1.449,1.449,0,1,1-1.45,1.449A1.449,1.449,0,0,1,7867.476,8699.272Zm1.932,8.714h-3.865v-3.565a1.267,1.267,0,0,1,1.266-1.266h1.333a1.267,1.267,0,0,1,1.266,1.266Zm7.729-3.565v3.565h-3.864v-3.565a1.266,1.266,0,0,1,1.265-1.266h1.333A1.267,1.267,0,0,1,7877.137,8704.421Zm-1.932-5.148a1.449,1.449,0,1,1-1.449,1.449A1.451,1.451,0,0,1,7875.205,8699.272Zm3.908-14.334a.623.623,0,0,1-.365.357l-4.732,2.455a.482.482,0,0,0-.26.429V8698.8a2.383,2.383,0,0,0-.752,2.9h-.7v-8.213h-.966v8.213h-1.664a2.382,2.382,0,0,0,.213-.966h0v-12.077a.483.483,0,0,0-.944-.146l-1.442,4.591a.581.581,0,0,1-.744.348.5.5,0,0,1-.062-.027.591.591,0,0,1-.27-.767l1.289-4.445a2.336,2.336,0,0,1,2.165-1.486h3.421a.477.477,0,0,0,.222-.055l4.8-2.492a.6.6,0,0,1,.761.282A.588.588,0,0,1,7879.113,8684.938Z" fill="url(#linear-gradient-21)"/>
          </g>
        </g>
        <g id="Group_1395" data-name="Group 1395">
          <g id="Group_1394" data-name="Group 1394">
            <path id="Path_2729" data-name="Path 2729" d="M7884.62,8702.447a2.415,2.415,0,1,0-3.416-.045l.045.045a2.224,2.224,0,0,0-1.213,1.974v4.048a.482.482,0,0,0,.482.483h4.832a.483.483,0,0,0,.483-.483h0v-4.048A2.225,2.225,0,0,0,7884.62,8702.447Zm-1.686-3.175a1.449,1.449,0,1,1-1.449,1.449A1.448,1.448,0,0,1,7882.934,8699.272Zm1.932,8.714H7881v-3.565a1.267,1.267,0,0,1,1.266-1.266h1.332a1.267,1.267,0,0,1,1.266,1.266Z" fill="url(#linear-gradient-22)"/>
          </g>
        </g>
        <g id="Group_1397" data-name="Group 1397">
          <g id="Group_1396" data-name="Group 1396">
            <path id="Path_2730" data-name="Path 2730" d="M7892.349,8702.447a2.415,2.415,0,1,0-3.416-.045l.045.045a2.224,2.224,0,0,0-1.213,1.974v4.048a.483.483,0,0,0,.483.483h4.831a.483.483,0,0,0,.483-.483h0v-4.048A2.225,2.225,0,0,0,7892.349,8702.447Zm-1.686-3.175a1.449,1.449,0,1,1-1.449,1.449A1.449,1.449,0,0,1,7890.663,8699.272Zm1.933,8.714h-3.865v-3.565a1.267,1.267,0,0,1,1.266-1.266h1.333a1.268,1.268,0,0,1,1.266,1.266Z" fill="url(#linear-gradient-23)"/>
          </g>
        </g>
      </g>
      <g id="Group_1399" data-name="Group 1399">
        <path id="Path_2731" data-name="Path 2731" d="M7916.676,8680.515a15.638,15.638,0,0,0-9.763-.18,10.65,10.65,0,0,0-6.827,6.7c-.566,1.867-.339,4.228,1.294,5.295a4.3,4.3,0,0,0,4.12,0,18.636,18.636,0,0,0,3.484-2.511,16.891,16.891,0,0,1,6.1-3.277,10.045,10.045,0,0,1,6.151.214c1.056.407,3.331,2.091,3.731.165C7925.662,8683.607,7918.815,8681.207,7916.676,8680.515Z" fill="url(#linear-gradient-24)"/>
        <circle id="Ellipse_138" data-name="Ellipse 138" cx="1.99" cy="1.99" r="1.99" transform="translate(7926.677 8686.853)" fill="url(#linear-gradient-25)"/>
      </g>
      <path id="Path_2732" data-name="Path 2732" d="M7875.291,8717.57a12.1,12.1,0,0,1,4.427.226c1.41.472,2.663,1.833,2.432,3.3s-1.742,2.341-3.136,2.849a19.4,19.4,0,0,1-12.328.387,16.821,16.821,0,0,1-9.591-7.635c-1.006-1.788-.334-3.313,1.86-3.145,1.423.109,2.318,1.192,3.524,1.819C7866.207,8717.314,7871.159,8717.769,7875.291,8717.57Z" fill="url(#linear-gradient-26)"/>
    </g>
  </g>
</svg>
