<svg xmlns="http://www.w3.org/2000/svg" width="235.401" height="113.167" viewBox="0 0 235.401 113.167">
  <g id="Group_609" data-name="Group 609" transform="translate(-12587.006 -5665.096)">
    <text id="الطلاب" transform="translate(12643.69 5743.694)" fill="#fff" font-size="50.485" font-family="MahmoudArt-Black, MahmoudArt" font-weight="800" letter-spacing="-0.06em"><tspan x="0" y="0">الطلاب</tspan></text>
    <g id="Group_607" data-name="Group 607">
      <path id="Path_1208" data-name="Path 1208" d="M12643.69,5777.906v-25.322h10.806a7.428,7.428,0,0,1,3.335.749,8.552,8.552,0,0,1,2.6,1.961,9.4,9.4,0,0,1,1.713,2.747,8.2,8.2,0,0,1,.624,3.1,8.854,8.854,0,0,1-.59,3.21,9.157,9.157,0,0,1-1.64,2.747,7.754,7.754,0,0,1-2.551,1.926,7.617,7.617,0,0,1-3.316.713h-5.136v8.167Zm5.849-13.267h4.779a2.259,2.259,0,0,0,1.782-.892,3.949,3.949,0,0,0,.749-2.6,4.507,4.507,0,0,0-.231-1.533,3.131,3.131,0,0,0-.624-1.07,2.4,2.4,0,0,0-.892-.624,2.717,2.717,0,0,0-1-.2h-4.564Z" fill="#fff"/>
      <path id="Path_1209" data-name="Path 1209" d="M12677.322,5764.068a10.929,10.929,0,0,0-3.745.678,4.566,4.566,0,0,0-2.426,1.926v11.234h-5.706v-18.724h5.243v3.78a7.959,7.959,0,0,1,2.478-2.96,5.727,5.727,0,0,1,3.228-1.106h.571a1.9,1.9,0,0,1,.357.036Z" fill="#fff"/>
      <path id="Path_1210" data-name="Path 1210" d="M12687.7,5778.263a10.942,10.942,0,0,1-4.262-.785,9.271,9.271,0,0,1-3.156-2.122,8.964,8.964,0,0,1-1.944-3.1,10.666,10.666,0,0,1,0-7.383,8.964,8.964,0,0,1,1.944-3.1,9.5,9.5,0,0,1,3.156-2.139,10.723,10.723,0,0,1,4.262-.8,10.6,10.6,0,0,1,4.245.8,9.562,9.562,0,0,1,3.138,2.139,9.185,9.185,0,0,1,1.962,3.1,10.226,10.226,0,0,1,.677,3.692,10.442,10.442,0,0,1-.66,3.691,8.959,8.959,0,0,1-1.942,3.1,9.281,9.281,0,0,1-3.156,2.122A10.951,10.951,0,0,1,12687.7,5778.263Zm-4.172-9.7a5.17,5.17,0,0,0,1.177,3.548,3.813,3.813,0,0,0,3,1.338,3.761,3.761,0,0,0,1.641-.357,3.917,3.917,0,0,0,1.3-1,4.8,4.8,0,0,0,.874-1.552,5.885,5.885,0,0,0,.321-1.979,5.179,5.179,0,0,0-1.177-3.549,3.778,3.778,0,0,0-2.961-1.337,3.872,3.872,0,0,0-2.978,1.355,4.8,4.8,0,0,0-.874,1.551A5.9,5.9,0,0,0,12683.528,5768.562Z" fill="#fff"/>
      <path id="Path_1211" data-name="Path 1211" d="M12730.142,5777.906h-5.707v-10.521a4.29,4.29,0,0,0-.677-2.693,2.15,2.15,0,0,0-1.748-.838,2.943,2.943,0,0,0-1.159.25,3.914,3.914,0,0,0-1.088.695,5.736,5.736,0,0,0-1.568,2.372v10.735h-5.707v-10.521a4.29,4.29,0,0,0-.678-2.693,2.148,2.148,0,0,0-1.748-.838,3.456,3.456,0,0,0-2.229.909,5.2,5.2,0,0,0-1.587,2.408v10.735h-5.707v-18.724h5.136v3.138a6.793,6.793,0,0,1,2.8-2.6,9.037,9.037,0,0,1,4.119-.892,6.63,6.63,0,0,1,2.051.286,4.941,4.941,0,0,1,1.517.784,4.188,4.188,0,0,1,1.034,1.159,5.018,5.018,0,0,1,.57,1.409,7.378,7.378,0,0,1,2.817-2.693,8.278,8.278,0,0,1,4-.945,5.5,5.5,0,0,1,2.871.66,4.778,4.778,0,0,1,1.693,1.712,6.623,6.623,0,0,1,.8,2.3,15.622,15.622,0,0,1,.2,2.426Z" fill="#fff"/>
      <path id="Path_1212" data-name="Path 1212" d="M12742.838,5778.263a11.069,11.069,0,0,1-4.226-.767,9.393,9.393,0,0,1-3.174-2.086,8.945,8.945,0,0,1-1.98-3.05,9.822,9.822,0,0,1-.677-3.62,10.792,10.792,0,0,1,.677-3.834,9.321,9.321,0,0,1,1.962-3.156,9.157,9.157,0,0,1,3.156-2.14,10.942,10.942,0,0,1,4.262-.785,10.812,10.812,0,0,1,4.244.785,9.31,9.31,0,0,1,3.139,2.122,9,9,0,0,1,1.943,3.085,10.321,10.321,0,0,1,.66,3.673c0,.334-.013.66-.035.981a6.978,6.978,0,0,1-.108.838h-13.837a3.848,3.848,0,0,0,1.373,2.871,4.364,4.364,0,0,0,2.8.981,5.121,5.121,0,0,0,2.407-.606,3.1,3.1,0,0,0,1.551-1.641l4.852,1.355a8.734,8.734,0,0,1-3.424,3.6A10.626,10.626,0,0,1,12742.838,5778.263Zm3.959-11.484a4.29,4.29,0,0,0-1.284-2.818,3.867,3.867,0,0,0-2.746-1.034,3.813,3.813,0,0,0-2.764,1.052,4.365,4.365,0,0,0-1.267,2.8Z" fill="#fff"/>
      <path id="Path_1213" data-name="Path 1213" d="M12773.474,5777.906h-5.706v-10.521a4.2,4.2,0,0,0-.7-2.693,2.27,2.27,0,0,0-1.837-.838,3.147,3.147,0,0,0-1.212.25,4.983,4.983,0,0,0-1.178.695,5.344,5.344,0,0,0-1.016,1.052,5,5,0,0,0-.7,1.32v10.735h-5.706v-18.724h5.136v3.138a6.814,6.814,0,0,1,2.925-2.585,9.911,9.911,0,0,1,4.351-.91,5.668,5.668,0,0,1,2.925.66,4.728,4.728,0,0,1,1.711,1.712,6.6,6.6,0,0,1,.8,2.3,15.738,15.738,0,0,1,.2,2.426Z" fill="#fff"/>
      <path id="Path_1214" data-name="Path 1214" d="M12789.2,5776.907a22.808,22.808,0,0,1-2.693.928,11.183,11.183,0,0,1-3.049.428,7.342,7.342,0,0,1-2.015-.268,4.5,4.5,0,0,1-1.659-.856,3.974,3.974,0,0,1-1.123-1.551,5.887,5.887,0,0,1-.41-2.319V5763.5h-2.39v-4.315h2.39v-5.956h5.706v5.956h3.816v4.315h-3.816v7.811a1.528,1.528,0,0,0,1.64,1.748,4.359,4.359,0,0,0,1.32-.215,8.062,8.062,0,0,0,1.177-.463Z" fill="#fff"/>
      <path id="Path_1215" data-name="Path 1215" d="M12796.728,5778.263a7.351,7.351,0,0,1-2.586-.446,5.912,5.912,0,0,1-3.405-3.139,5.611,5.611,0,0,1-.5-2.371,5.444,5.444,0,0,1,.588-2.533,5.806,5.806,0,0,1,1.659-1.961,8.179,8.179,0,0,1,2.531-1.284,10.722,10.722,0,0,1,3.246-.464,13.085,13.085,0,0,1,2.282.2,7.469,7.469,0,0,1,1.926.589v-.856q0-3.245-3.745-3.246a8.333,8.333,0,0,0-2.924.517,14.123,14.123,0,0,0-2.925,1.552l-1.676-3.567a14.969,14.969,0,0,1,3.852-1.819,14.529,14.529,0,0,1,4.244-.606,9.761,9.761,0,0,1,6.563,2,7.3,7.3,0,0,1,2.318,5.85v4.814a1.985,1.985,0,0,0,.268,1.2,1.322,1.322,0,0,0,.944.41v4.815a9.548,9.548,0,0,1-1.354.232c-.405.036-.773.053-1.106.053a3.966,3.966,0,0,1-2.425-.624,2.758,2.758,0,0,1-1.034-1.765l-.106-.856a8.562,8.562,0,0,1-2.979,2.461A8.149,8.149,0,0,1,12796.728,5778.263Zm1.677-4.1a5.176,5.176,0,0,0,1.8-.321,4.2,4.2,0,0,0,1.445-.856,1.771,1.771,0,0,0,.819-1.355v-1.783a9.2,9.2,0,0,0-1.623-.446,9.029,9.029,0,0,0-1.622-.161,4.393,4.393,0,0,0-2.586.714,2.175,2.175,0,0,0-1.017,1.854,2.11,2.11,0,0,0,.785,1.694A2.99,2.99,0,0,0,12798.4,5774.161Z" fill="#fff"/>
      <path id="Path_1216" data-name="Path 1216" d="M12812.242,5751.87h5.706v19.367q0,2.139,1.819,2.14a4.071,4.071,0,0,0,.945-.125,3.476,3.476,0,0,0,.945-.375l.749,4.28a11.08,11.08,0,0,1-2.461.785,13.018,13.018,0,0,1-2.6.285,5.2,5.2,0,0,1-3.78-1.284,4.94,4.94,0,0,1-1.319-3.709Z" fill="#fff"/>
    </g>
    <g id="Group_608" data-name="Group 608">
      <path id="Path_1217" data-name="Path 1217" d="M12694.477,5686.4a28.564,28.564,0,0,0-17.834-.329c-5.727,1.947-10.716,6.45-12.47,12.239-1.033,3.409-.619,7.722,2.364,9.67,2.2,1.434,5.156,1.131,7.524.009a33.983,33.983,0,0,0,6.365-4.586,30.853,30.853,0,0,1,11.149-5.985,18.352,18.352,0,0,1,11.235.39c1.929.743,6.085,3.82,6.816.3C12710.889,5692.05,12698.382,5687.666,12694.477,5686.4Z" fill="#fff"/>
    </g>
    <path id="Path_1218" data-name="Path 1218" d="M12621.075,5759.677c2.713-.131,5.51-.449,8.086.413s4.866,3.348,4.441,6.031-3.181,4.273-5.727,5.2a35.419,35.419,0,0,1-22.517.708,30.725,30.725,0,0,1-17.52-13.947c-1.838-3.266-.611-6.051,3.4-5.743,2.6.2,4.232,2.177,6.435,3.324C12604.484,5759.209,12613.529,5760.04,12621.075,5759.677Z" fill="#fff"/>
    <path id="Path_1219" data-name="Path 1219" d="M12615.766,5695.84a1.167,1.167,0,0,0-1.419-.844l-5.3,1.35a1.168,1.168,0,0,0,.288,2.3,1.208,1.208,0,0,0,.289-.036l5.295-1.35A1.166,1.166,0,0,0,12615.766,5695.84Z" fill="#fff"/>
    <path id="Path_1220" data-name="Path 1220" d="M12624.28,5697.26l5.295,1.35a1.157,1.157,0,0,0,.29.036,1.167,1.167,0,0,0,.287-2.3l-5.295-1.35a1.168,1.168,0,1,0-.577,2.263Z" fill="#fff"/>
    <path id="Path_1221" data-name="Path 1221" d="M12611.477,5701.216v1.3a1.168,1.168,0,0,0,2.337,0v-1.3a1.168,1.168,0,0,0-2.337,0Z" fill="#fff"/>
    <path id="Path_1222" data-name="Path 1222" d="M12626.558,5700.048a1.168,1.168,0,0,0-1.168,1.168v1.3a1.168,1.168,0,0,0,2.336,0v-1.3A1.168,1.168,0,0,0,12626.558,5700.048Z" fill="#fff"/>
    <path id="Path_1223" data-name="Path 1223" d="M12619.6,5708.4a3.8,3.8,0,0,0,2.693-1.114,1.168,1.168,0,0,0-1.652-1.652,1.472,1.472,0,0,1-2.082,0,1.168,1.168,0,0,0-1.651,1.652A3.8,3.8,0,0,0,12619.6,5708.4Z" fill="#fff"/>
    <path id="Path_1224" data-name="Path 1224" d="M12618.457,5713.232c-3.985-.438-4.911-3.089-4.956-3.226a1.168,1.168,0,0,0-2.234.683c.053.174,1.342,4.251,6.936,4.865a1.14,1.14,0,0,0,.129.007,1.168,1.168,0,0,0,.126-2.329Z" fill="#fff"/>
    <path id="Path_1225" data-name="Path 1225" d="M12633.1,5718.075a19.155,19.155,0,0,0,3.233-4.292,3.95,3.95,0,0,0,1.1.154c3.547,0,6.7-4.444,6.7-7.948a6.553,6.553,0,0,0-1.839-4.738v-15.634a17.57,17.57,0,0,0-3.069-9.942,1.169,1.169,0,0,0-1.931,1.318,15.227,15.227,0,0,1,2.664,8.624v14.259a6.067,6.067,0,0,0-1.269-.226v-7.674a1.168,1.168,0,1,0-2.336,0v1.262c-4.562-.3-21.049-2.018-29.485-11.2a1.187,1.187,0,0,0-.338-.255,1.17,1.17,0,0,0-1.408.282,19.1,19.1,0,0,0-4.625,12.461v5.128a6.121,6.121,0,0,0-.987.151v-19.183a3.9,3.9,0,0,1,5.048-3.724,1.168,1.168,0,0,0,1.459-.765,12.407,12.407,0,0,1,16.354-7.832l7.861,3.074a15.264,15.264,0,0,1,4,2.308,1.168,1.168,0,0,0,1.46-1.823,17.608,17.608,0,0,0-4.6-2.661l-7.862-3.074a14.746,14.746,0,0,0-19.078,8.3,6.238,6.238,0,0,0-6.968,6.192v20.373a6.468,6.468,0,0,0-2.122,5c0,3.5,3.157,7.948,6.705,7.948a3.931,3.931,0,0,0,1.111-.157,19.2,19.2,0,0,0,10.418,8.817v4.308l-5.742,3.329a1.169,1.169,0,0,0,.587,2.179,1.151,1.151,0,0,0,.585-.158l1.18-.683,1.337,6.67a1.166,1.166,0,0,0,1.835.712l5.356-3.93v7.464a1.168,1.168,0,0,0,2.336,0v-7.464l5.356,3.93a1.168,1.168,0,0,0,1.837-.712l1.336-6.67,6.79,3.937,1.9,7.274a1.167,1.167,0,0,0,1.129.873,1.18,1.18,0,0,0,.3-.039,1.168,1.168,0,0,0,.834-1.425l-2.025-7.745a1.162,1.162,0,0,0-.544-.715l-11.771-6.825v-4.3A19,19,0,0,0,12633.1,5718.075Zm8.7-12.086c0,2.318-2.26,5.613-4.369,5.613l-.068,0a18.929,18.929,0,0,0,.827-2.649c.257-.916.957-2.413,1.7-2.413a1.168,1.168,0,0,0,0-2.336,2.96,2.96,0,0,0-1.2.25V5702C12640.268,5702.2,12641.806,5703.466,12641.806,5705.989Zm-40.04,5.613c-2.108,0-4.368-3.295-4.368-5.613,0-2.523,1.537-3.791,3.108-3.991v2.452a2.96,2.96,0,0,0-1.2-.249,1.168,1.168,0,1,0,0,2.336c.8,0,1.538,1.7,1.753,2.606,0,.009.008.018.01.027a19.128,19.128,0,0,0,.778,2.429C12601.819,5711.6,12601.793,5711.6,12601.766,5711.6Zm1.076-7.029v-10.051a16.765,16.765,0,0,1,3.26-9.933c4.42,4.311,10.89,7.465,19.259,9.386a69.469,69.469,0,0,0,11,1.608v8.991a16.76,16.76,0,0,1-33.521,0Zm9.2,25.761,1.537-.892a6.337,6.337,0,0,0,3.3,3.825l-3.708,2.721Zm13.992,5.654-3.706-2.72a6.338,6.338,0,0,0,3.3-3.824l1.535.89Zm-2.457-8.48a.953.953,0,0,0,0,.118,3.971,3.971,0,0,1-7.941-.048v-4.326a19.087,19.087,0,0,0,3.969.416,19.28,19.28,0,0,0,3.974-.413Z" fill="#fff"/>
    <path id="Path_1226" data-name="Path 1226" d="M12604.111,5732.231l-2.59,1.5a1.176,1.176,0,0,0-.546.715l-2.023,7.745a1.168,1.168,0,1,0,2.26.591l1.9-7.274,2.168-1.258a1.167,1.167,0,1,0-1.171-2.02Z" fill="#fff"/>
  </g>
</svg>
