<svg xmlns="http://www.w3.org/2000/svg" xmlns:xlink="http://www.w3.org/1999/xlink" width="175.82" height="84.524" viewBox="0 0 175.82 84.524">
  <defs>
    <linearGradient id="linear-gradient" x1="-2.226" y1="3.73" x2="2.628" y2="-2.078" gradientUnits="objectBoundingBox">
      <stop offset="0" stop-color="#2b3988"/>
      <stop offset="1" stop-color="#2bb788"/>
    </linearGradient>
    <linearGradient id="linear-gradient-2" x1="-5.237" y1="4.458" x2="3.39" y2="-1.485" xlink:href="#linear-gradient"/>
    <linearGradient id="linear-gradient-3" x1="-3.407" y1="4.923" x2="1.878" y2="-1.02" xlink:href="#linear-gradient"/>
    <linearGradient id="linear-gradient-4" x1="-18.204" y1="5.267" x2="5.26" y2="-0.675" xlink:href="#linear-gradient"/>
    <linearGradient id="linear-gradient-5" x1="-24.953" y1="5.393" x2="5.92" y2="-0.542" xlink:href="#linear-gradient"/>
    <linearGradient id="linear-gradient-6" x1="-4.589" y1="4.078" x2="6.278" y2="-4.111" xlink:href="#linear-gradient"/>
    <linearGradient id="linear-gradient-7" x1="-8.156" y1="5.754" x2="9.301" y2="-5.153" xlink:href="#linear-gradient"/>
    <linearGradient id="linear-gradient-8" x1="-4.959" y1="6.13" x2="5.386" y2="-4.537" xlink:href="#linear-gradient"/>
    <linearGradient id="linear-gradient-9" x1="-3.663" y1="6.969" x2="3.341" y2="-3.898" xlink:href="#linear-gradient"/>
    <linearGradient id="linear-gradient-10" x1="-6.333" y1="7.55" x2="4.013" y2="-3.118" xlink:href="#linear-gradient"/>
    <linearGradient id="linear-gradient-11" x1="-7.69" y1="8.255" x2="3.799" y2="-2.611" xlink:href="#linear-gradient"/>
    <linearGradient id="linear-gradient-12" x1="-11.343" y1="6.831" x2="4.2" y2="-1.451" xlink:href="#linear-gradient"/>
    <linearGradient id="linear-gradient-13" x1="-8.102" y1="9.053" x2="2.725" y2="-1.615" xlink:href="#linear-gradient"/>
    <linearGradient id="linear-gradient-14" x1="-16.841" y1="7.167" x2="3.559" y2="-0.7" xlink:href="#linear-gradient"/>
    <linearGradient id="linear-gradient-15" x1="-2.638" y1="6.503" x2="1.864" y2="-2.082" xlink:href="#linear-gradient"/>
    <linearGradient id="linear-gradient-16" x1="-1.101" y1="3.914" x2="3.344" y2="-5.858" xlink:href="#linear-gradient"/>
    <linearGradient id="linear-gradient-17" x1="-13.581" y1="29.651" x2="13.592" y2="-26.604" xlink:href="#linear-gradient"/>
    <linearGradient id="linear-gradient-18" x1="-14.576" y1="31.716" x2="12.592" y2="-24.538" xlink:href="#linear-gradient"/>
    <linearGradient id="linear-gradient-19" x1="-44.58" y1="29.46" x2="44.235" y2="-27.596" xlink:href="#linear-gradient"/>
    <linearGradient id="linear-gradient-20" x1="-47.532" y1="31.374" x2="41.231" y2="-25.682" xlink:href="#linear-gradient"/>
    <linearGradient id="linear-gradient-21" x1="-17.033" y1="34.633" x2="17.126" y2="-32.11" xlink:href="#linear-gradient"/>
    <linearGradient id="linear-gradient-22" x1="-11.743" y1="16.391" x2="13.305" y2="-16.121" xlink:href="#linear-gradient"/>
    <linearGradient id="linear-gradient-23" x1="-1.636" y1="1.901" x2="2.589" y2="-0.738" xlink:href="#linear-gradient"/>
    <linearGradient id="linear-gradient-24" x1="-11.353" y1="7.565" x2="18.478" y2="-10.335" xlink:href="#linear-gradient"/>
  </defs>
  <g id="Group_49" data-name="Group 49" transform="translate(-12616.235 -7854.729)">
    <path id="Path_116" data-name="Path 116" d="M12690.748,7911.829h-21.76l-.867-.036a10.144,10.144,0,0,1-6.336-2.791,9.344,9.344,0,0,1,0-13.615,10.111,10.111,0,0,1,7.2-2.791v5.017a5.106,5.106,0,0,0-3.621,1.319,4.279,4.279,0,0,0,0,6.524,5.135,5.135,0,0,0,3.621,1.357h16.742V7892.6h5.018Zm-15.877,2.414h5.016v5.017h-5.016Z" transform="translate(1.805 1.605)" fill="url(#linear-gradient)"/>
    <path id="Path_117" data-name="Path 117" d="M12690.387,7912.106v-5.016h11.35v-21.044h5.018v21.044h1.584v5.016Zm7.051-7.844h-5.016l-1.736-18.216h5.018Z" transform="translate(3.14 1.327)" fill="url(#linear-gradient-2)"/>
    <path id="Path_118" data-name="Path 118" d="M12736.906,7907.09v5.016h-29.3v-5.016h1.582v-21.044h5.016v6.864h10.938c5.545,0,10.146,4.261,10.146,9.579a9,9,0,0,1-1.209,4.6Zm-19.8,0h8.033a4.624,4.624,0,1,0,0-9.2H12714.2v11.427Z" transform="translate(3.87 1.327)" fill="url(#linear-gradient-3)"/>
    <path id="Path_119" data-name="Path 119" d="M12735.712,7912.106v-5.016h1.584v-21.044h5.016v26.06Z" transform="translate(5.061 1.327)" fill="url(#linear-gradient-4)"/>
    <path id="Path_120" data-name="Path 120" d="M12748.832,7912.107h-5.018v-26.1h5.018Z" transform="translate(5.405 1.325)" fill="url(#linear-gradient-5)"/>
    <path id="Path_121" data-name="Path 121" d="M12656.852,7936.331v-18.913h8.072a5.551,5.551,0,0,1,2.492.56,6.389,6.389,0,0,1,1.941,1.465,6.983,6.983,0,0,1,1.281,2.052,6.105,6.105,0,0,1,.467,2.316,6.643,6.643,0,0,1-.441,2.4,6.835,6.835,0,0,1-1.225,2.049,5.765,5.765,0,0,1-1.906,1.44,5.687,5.687,0,0,1-2.477.531h-3.834v6.1Zm4.371-9.909h3.566a1.69,1.69,0,0,0,1.332-.665,2.945,2.945,0,0,0,.563-1.946,3.371,3.371,0,0,0-.176-1.144,2.339,2.339,0,0,0-.465-.8,1.775,1.775,0,0,0-.666-.465,2.016,2.016,0,0,0-.746-.146h-3.408Z" transform="translate(1.721 2.655)" fill="url(#linear-gradient-6)"/>
    <path id="Path_122" data-name="Path 122" d="M12681.313,7925.8a8.158,8.158,0,0,0-2.8.507,3.392,3.392,0,0,0-1.811,1.438v8.391h-4.262v-13.985h3.916v2.823a5.943,5.943,0,0,1,1.85-2.211,4.289,4.289,0,0,1,2.412-.826h.426a1.382,1.382,0,0,1,.268.027Z" transform="translate(2.38 2.847)" fill="url(#linear-gradient-7)"/>
    <path id="Path_123" data-name="Path 123" d="M12688.691,7936.408a8.181,8.181,0,0,1-3.184-.586,6.906,6.906,0,0,1-2.355-1.586,6.687,6.687,0,0,1-1.453-2.316,7.97,7.97,0,0,1,0-5.515,6.7,6.7,0,0,1,1.453-2.317,7.077,7.077,0,0,1,2.355-1.6,8.022,8.022,0,0,1,3.184-.6,7.907,7.907,0,0,1,3.17.6,7.134,7.134,0,0,1,2.346,1.6,6.877,6.877,0,0,1,1.465,2.317,7.658,7.658,0,0,1,.506,2.757,7.823,7.823,0,0,1-.492,2.758,6.687,6.687,0,0,1-1.453,2.316,6.915,6.915,0,0,1-2.357,1.586A8.167,8.167,0,0,1,12688.691,7936.408Zm-3.115-7.246a3.857,3.857,0,0,0,.879,2.651,2.847,2.847,0,0,0,2.236,1,2.812,2.812,0,0,0,1.227-.266,2.921,2.921,0,0,0,.971-.746,3.572,3.572,0,0,0,.654-1.159,4.45,4.45,0,0,0,.238-1.479,3.867,3.867,0,0,0-.877-2.65,2.825,2.825,0,0,0-2.213-1,2.908,2.908,0,0,0-2.225,1.012,3.626,3.626,0,0,0-.652,1.159A4.448,4.448,0,0,0,12685.576,7929.162Z" transform="translate(2.752 2.845)" fill="url(#linear-gradient-8)"/>
    <path id="Path_124" data-name="Path 124" d="M12719.7,7936.142h-4.264v-7.857a3.211,3.211,0,0,0-.506-2.012,1.6,1.6,0,0,0-1.3-.626,2.221,2.221,0,0,0-.867.187,2.947,2.947,0,0,0-.811.519,4.287,4.287,0,0,0-.68.786,4.208,4.208,0,0,0-.492.985v8.019h-4.264v-7.857a3.212,3.212,0,0,0-.5-2.012,1.606,1.606,0,0,0-1.307-.626,2.576,2.576,0,0,0-1.664.679,3.872,3.872,0,0,0-1.186,1.8v8.019h-4.264v-13.985h3.836v2.345a5.069,5.069,0,0,1,2.092-1.945,6.759,6.759,0,0,1,3.076-.666,4.972,4.972,0,0,1,1.533.214,3.692,3.692,0,0,1,1.131.587,3.12,3.12,0,0,1,.773.865,3.766,3.766,0,0,1,.426,1.052,5.509,5.509,0,0,1,2.1-2.011,6.176,6.176,0,0,1,2.984-.707,4.111,4.111,0,0,1,2.145.493,3.6,3.6,0,0,1,1.266,1.278,4.944,4.944,0,0,1,.6,1.719,11.682,11.682,0,0,1,.148,1.812Z" transform="translate(3.446 2.845)" fill="url(#linear-gradient-9)"/>
    <path id="Path_125" data-name="Path 125" d="M12728.2,7936.408a8.279,8.279,0,0,1-3.156-.572,7.031,7.031,0,0,1-2.373-1.559,6.692,6.692,0,0,1-1.479-2.277,7.34,7.34,0,0,1-.5-2.7,8.052,8.052,0,0,1,.5-2.863,6.942,6.942,0,0,1,1.467-2.358,6.835,6.835,0,0,1,2.357-1.6,8.156,8.156,0,0,1,3.184-.588,8.056,8.056,0,0,1,3.168.588,6.9,6.9,0,0,1,2.344,1.584,6.729,6.729,0,0,1,1.453,2.3,7.708,7.708,0,0,1,.492,2.743c0,.249-.01.493-.025.733a5.683,5.683,0,0,1-.08.625h-10.336a2.871,2.871,0,0,0,1.025,2.145,3.268,3.268,0,0,0,2.092.732,3.815,3.815,0,0,0,1.8-.453,2.316,2.316,0,0,0,1.16-1.226l3.621,1.013a6.5,6.5,0,0,1-2.557,2.69A7.93,7.93,0,0,1,12728.2,7936.408Zm2.957-8.578a3.222,3.222,0,0,0-.959-2.1,2.891,2.891,0,0,0-2.053-.772,2.842,2.842,0,0,0-2.062.786,3.254,3.254,0,0,0-.947,2.091Z" transform="translate(4.424 2.845)" fill="url(#linear-gradient-10)"/>
    <path id="Path_126" data-name="Path 126" d="M12750.4,7936.142h-4.264v-7.857a3.144,3.144,0,0,0-.52-2.012,1.693,1.693,0,0,0-1.371-.626,2.371,2.371,0,0,0-.906.187,3.735,3.735,0,0,0-.877.519,4.006,4.006,0,0,0-.76.786,3.769,3.769,0,0,0-.521.985v8.019h-4.262v-13.985h3.836v2.345a5.075,5.075,0,0,1,2.186-1.932,7.417,7.417,0,0,1,3.25-.68,4.239,4.239,0,0,1,2.184.493,3.538,3.538,0,0,1,1.277,1.278,4.911,4.911,0,0,1,.6,1.719,11.919,11.919,0,0,1,.146,1.812Z" transform="translate(5.111 2.845)" fill="url(#linear-gradient-11)"/>
    <path id="Path_127" data-name="Path 127" d="M12761.525,7935.566a17.172,17.172,0,0,1-2.014.692,8.342,8.342,0,0,1-2.275.318,5.537,5.537,0,0,1-1.508-.2,3.357,3.357,0,0,1-1.236-.639,2.936,2.936,0,0,1-.838-1.158,4.4,4.4,0,0,1-.307-1.732v-7.3h-1.787v-3.224h1.787v-4.448h4.26v4.448h2.852v3.224h-2.852v5.834a1.141,1.141,0,0,0,1.227,1.3,3.247,3.247,0,0,0,.984-.159,6.209,6.209,0,0,0,.881-.347Z" transform="translate(5.732 2.675)" fill="url(#linear-gradient-12)"/>
    <path id="Path_128" data-name="Path 128" d="M12766.709,7936.408a5.5,5.5,0,0,1-1.932-.333,4.422,4.422,0,0,1-2.543-2.344,4.179,4.179,0,0,1-.373-1.772,4.05,4.05,0,0,1,.439-1.892,4.356,4.356,0,0,1,1.238-1.465,6.151,6.151,0,0,1,1.891-.959,8.025,8.025,0,0,1,2.426-.346,9.728,9.728,0,0,1,1.7.146,5.562,5.562,0,0,1,1.438.439v-.64q0-2.423-2.795-2.424a6.223,6.223,0,0,0-2.184.386,10.484,10.484,0,0,0-2.186,1.16l-1.252-2.665a11.211,11.211,0,0,1,2.875-1.357,10.857,10.857,0,0,1,3.172-.454,7.294,7.294,0,0,1,4.9,1.491,5.457,5.457,0,0,1,1.732,4.37v3.6a1.486,1.486,0,0,0,.2.893,1,1,0,0,0,.707.307v3.6a7.064,7.064,0,0,1-1.014.173c-.3.026-.578.04-.824.04a2.963,2.963,0,0,1-1.812-.466,2.058,2.058,0,0,1-.771-1.318l-.08-.64a6.412,6.412,0,0,1-2.225,1.839A6.088,6.088,0,0,1,12766.709,7936.408Zm1.252-3.063a3.85,3.85,0,0,0,1.346-.24,3.121,3.121,0,0,0,1.078-.639,1.323,1.323,0,0,0,.611-1.013v-1.332a6.83,6.83,0,0,0-1.209-.332,6.756,6.756,0,0,0-1.215-.12,3.288,3.288,0,0,0-1.93.532,1.626,1.626,0,0,0-.76,1.386,1.58,1.58,0,0,0,.586,1.266A2.242,2.242,0,0,0,12767.961,7933.345Z" transform="translate(6.167 2.845)" fill="url(#linear-gradient-13)"/>
    <path id="Path_129" data-name="Path 129" d="M12777.628,7916.906h4.262v14.465q0,1.6,1.359,1.6a3.019,3.019,0,0,0,.705-.093,2.621,2.621,0,0,0,.707-.28l.559,3.2a8.225,8.225,0,0,1-1.838.586,9.751,9.751,0,0,1-1.943.213,3.886,3.886,0,0,1-2.824-.959,3.687,3.687,0,0,1-.986-2.771Z" transform="translate(6.836 2.634)" fill="url(#linear-gradient-14)"/>
    <path id="Path_130" data-name="Path 130" d="M12694.18,7870.045a21.337,21.337,0,0,0-13.32-.246,14.527,14.527,0,0,0-9.312,9.142c-.773,2.547-.463,5.768,1.764,7.222a5.87,5.87,0,0,0,5.621.008,25.455,25.455,0,0,0,4.754-3.425,23.013,23.013,0,0,1,8.328-4.471,13.7,13.7,0,0,1,8.393.292c1.438.555,4.543,2.853,5.088.225C12706.438,7874.262,12697.1,7870.987,12694.18,7870.045Z" transform="translate(2.325 0.598)" fill="url(#linear-gradient-15)"/>
    <path id="Path_131" data-name="Path 131" d="M12641.682,7922.723c2.025-.1,4.115-.334,6.039.311s3.633,2.5,3.318,4.5-2.377,3.191-4.279,3.886a26.459,26.459,0,0,1-16.818.528,22.954,22.954,0,0,1-13.084-10.416c-1.373-2.441-.455-4.521,2.539-4.29,1.941.149,3.16,1.626,4.8,2.481C12629.289,7922.374,12636.045,7923,12641.682,7922.723Z" transform="translate(0.001 2.648)" fill="url(#linear-gradient-16)"/>
    <path id="Path_132" data-name="Path 132" d="M12637.074,7876.784a.871.871,0,0,0-1.061-.63l-3.955,1.009a.873.873,0,0,0,.215,1.718.891.891,0,0,0,.217-.027l3.955-1.009A.871.871,0,0,0,12637.074,7876.784Z" transform="translate(0.642 0.907)" fill="url(#linear-gradient-17)"/>
    <path id="Path_133" data-name="Path 133" d="M12642.969,7877.845l3.957,1.009a.853.853,0,0,0,.215.027.872.872,0,0,0,.215-1.718l-3.953-1.009a.873.873,0,0,0-.434,1.69Z" transform="translate(1.105 0.907)" fill="url(#linear-gradient-18)"/>
    <path id="Path_134" data-name="Path 134" d="M12633.771,7880.645v.97a.871.871,0,1,0,1.742,0v-.97a.871.871,0,1,0-1.742,0Z" transform="translate(0.743 1.062)" fill="url(#linear-gradient-19)"/>
    <path id="Path_135" data-name="Path 135" d="M12644.612,7879.772a.873.873,0,0,0-.873.873v.97a.873.873,0,0,0,1.746,0v-.97A.873.873,0,0,0,12644.612,7879.772Z" transform="translate(1.166 1.062)" fill="url(#linear-gradient-20)"/>
    <path id="Path_136" data-name="Path 136" d="M12639.684,7885.85a2.837,2.837,0,0,0,2.014-.832.873.873,0,0,0-1.234-1.234,1.1,1.1,0,0,1-1.557,0,.872.872,0,0,0-1.232,1.234A2.828,2.828,0,0,0,12639.684,7885.85Z" transform="translate(0.897 1.22)" fill="url(#linear-gradient-21)"/>
    <path id="Path_137" data-name="Path 137" d="M12638.992,7889.344c-2.977-.327-3.668-2.308-3.7-2.409a.873.873,0,0,0-1.67.509c.041.13,1,3.175,5.182,3.634a.624.624,0,0,0,.094.007.873.873,0,0,0,.1-1.74Z" transform="translate(0.738 1.338)" fill="url(#linear-gradient-22)"/>
    <path id="Path_138" data-name="Path 138" d="M12650.422,7894.3a14.3,14.3,0,0,0,2.414-3.205,2.94,2.94,0,0,0,.822.115c2.65,0,5.008-3.32,5.008-5.937a4.9,4.9,0,0,0-1.373-3.538v-11.678a13.121,13.121,0,0,0-2.295-7.425.873.873,0,1,0-1.441.984,11.369,11.369,0,0,1,1.99,6.44v10.651a4.575,4.575,0,0,0-.947-.17V7874.8a.872.872,0,1,0-1.744,0v.943c-3.408-.227-15.723-1.507-22.023-8.368a.888.888,0,0,0-.252-.191.876.876,0,0,0-1.053.211,14.259,14.259,0,0,0-3.453,9.308v3.829a4.545,4.545,0,0,0-.738.113v-14.328a2.911,2.911,0,0,1,3.77-2.78.872.872,0,0,0,1.09-.573,9.267,9.267,0,0,1,12.215-5.85l5.871,2.3a11.469,11.469,0,0,1,2.986,1.724.872.872,0,0,0,1.09-1.361,13.166,13.166,0,0,0-3.439-1.987l-5.873-2.3a11.014,11.014,0,0,0-14.25,6.2,4.656,4.656,0,0,0-5.2,4.624v15.216a4.83,4.83,0,0,0-1.584,3.733c0,2.617,2.357,5.938,5.006,5.938a2.848,2.848,0,0,0,.83-.119,14.337,14.337,0,0,0,7.781,6.587v3.218l-4.287,2.485a.872.872,0,0,0,.438,1.628.861.861,0,0,0,.438-.117l.879-.512,1,4.983a.869.869,0,0,0,.539.642.876.876,0,0,0,.832-.11l4-2.936v5.574a.873.873,0,0,0,1.746,0v-5.574l4,2.936a.872.872,0,0,0,1.371-.531l1-4.983,5.072,2.941,1.418,5.433a.876.876,0,0,0,.844.652.9.9,0,0,0,.225-.028.872.872,0,0,0,.621-1.064l-1.512-5.786a.873.873,0,0,0-.406-.533l-8.793-5.1v-3.213A14.2,14.2,0,0,0,12650.422,7894.3Zm6.5-9.027c0,1.731-1.687,4.192-3.262,4.192h-.053a14.173,14.173,0,0,0,.617-1.979c.193-.685.715-1.8,1.273-1.8a.873.873,0,1,0,0-1.745,2.247,2.247,0,0,0-.9.186v-1.831A2.734,2.734,0,0,1,12656.92,7885.271Zm-29.906,4.192c-1.574,0-3.262-2.461-3.262-4.192a2.736,2.736,0,0,1,2.322-2.98v1.831a2.208,2.208,0,0,0-.9-.186.873.873,0,1,0,0,1.745c.6,0,1.148,1.267,1.309,1.945l.008.021a13.95,13.95,0,0,0,.582,1.813A.6.6,0,0,1,12627.014,7889.463Zm.8-5.25v-7.506a12.517,12.517,0,0,1,2.436-7.42c3.3,3.22,8.133,5.576,14.383,7.011a51.6,51.6,0,0,0,8.219,1.2v6.715a12.519,12.519,0,0,1-25.037,0Zm6.869,19.242,1.148-.667a4.732,4.732,0,0,0,2.467,2.857l-2.77,2.03Zm10.449,4.221-2.768-2.03a4.74,4.74,0,0,0,2.469-2.856l1.146.666Zm-1.834-6.332a.66.66,0,0,0,0,.088,2.966,2.966,0,0,1-5.932-.037v-3.229a14.362,14.362,0,0,0,5.932,0Z" transform="translate(0.244 0.001)" fill="url(#linear-gradient-23)"/>
    <path id="Path_139" data-name="Path 139" d="M12628.65,7902.838l-1.937,1.122a.883.883,0,0,0-.406.534l-1.512,5.785a.874.874,0,0,0,.625,1.063.82.82,0,0,0,.223.029.869.869,0,0,0,.84-.652l1.424-5.433,1.619-.939a.873.873,0,0,0-.875-1.51Z" transform="translate(0.362 2.033)" fill="url(#linear-gradient-24)"/>
  </g>
</svg>
