<svg xmlns="http://www.w3.org/2000/svg" width="159.946" height="158.506" viewBox="0 0 159.946 158.506">
  <g id="Group_79" data-name="Group 79" transform="translate(-7216.737 -406.384)">
    <path id="Path_217" data-name="Path 217" d="M7282.306,542.862c2.865-1.392,4.973-3.976,4.9-6.709,3.16,2.611,7.482,4.049,11.812,5,16.2,3.551,33.343,1.1,49.841-1.359a75.015,75.015,0,0,0-15.78,7.37c-1.046.649-2.162,1.468-2.192,2.544-.038,1.361,1.635,2.279,3.127,2.869,7.422,2.937,15.493,4.565,23.5,6.174-6.117-1.247-13.195-1.194-19.475-1.654-5.714-.418-12.732-1.751-18.192-.227a2.889,2.889,0,0,0-.966.4c-.714.54-.492,1.514-.031,2.215a10.324,10.324,0,0,0,3.844,3.1,27.117,27.117,0,0,0,5.795,2.3l-3.65-1.415a112.572,112.572,0,0,0-28.755-7.11c-10.371-1.138-20.086-.3-30.36.806a136.7,136.7,0,0,0,21.037-3.942c1.486-.4,3.275-1.222,3.047-2.494-.171-.954-1.415-1.476-2.511-1.823a101.317,101.317,0,0,0-25.131-4.54C7268.017,544.734,7277.025,545.427,7282.306,542.862Z" fill="#e7d76d"/>
    <g id="Group_72" data-name="Group 72">
      <path id="Path_218" data-name="Path 218" d="M7261.186,543.2l6.681.525a12.236,12.236,0,0,0,3.556-.068c.65-.142,1.274-.39,1.924-.537a12.822,12.822,0,0,1,2.735-.224q18.45-.2,36.9-.472l7.679-.115,20.433-.309c3.942-.059,7.983-.1,11.7,1.221" fill="none" stroke="#2a2835" stroke-linecap="round" stroke-linejoin="round" stroke-width="0.567" style="mix-blend-mode: multiply;isolation: isolate"/>
      <path id="Path_219" data-name="Path 219" d="M7243.182,509.638c.127-.018.284-.023.355.083s.011.243-.049.353l-.253.466c-.024.045-.057.1-.109.1a.162.162,0,0,1-.084-.023c-.191-.1-.727-.437-.727-.691C7242.314,509.627,7242.944,509.671,7243.182,509.638Z" fill="#2a2835" style="mix-blend-mode: multiply;isolation: isolate"/>
      <path id="Path_220" data-name="Path 220" d="M7328.476,507.221c-.067-.11-.16-.235-.289-.224s-.195.144-.243.26l-.2.489a.163.163,0,0,0-.011.149.154.154,0,0,0,.071.051c.2.087.8.291.994.132C7329.03,507.889,7328.6,507.427,7328.476,507.221Z" fill="#2a2835" style="mix-blend-mode: multiply;isolation: isolate"/>
      <path id="Path_221" data-name="Path 221" d="M7264.641,514.829c.149-.1.341-.2.492-.1s.155.3.144.469c-.014.243-.029.487-.044.73a.225.225,0,0,1-.077.191.214.214,0,0,1-.118.02c-.3-.01-1.163-.122-1.312-.439C7263.55,515.321,7264.363,515.009,7264.641,514.829Z" fill="#2a2835" style="mix-blend-mode: multiply;isolation: isolate"/>
      <path id="Path_222" data-name="Path 222" d="M7363.348,507.09c.092-.152.221-.325.4-.309s.269.2.335.358l.281.675a.225.225,0,0,1,.015.206.218.218,0,0,1-.1.07c-.27.12-1.1.4-1.371.181C7362.584,508.012,7363.177,507.374,7363.348,507.09Z" fill="#2a2835" style="mix-blend-mode: multiply;isolation: isolate"/>
    </g>
    <path id="Path_223" data-name="Path 223" d="M7294.305,529.8c-.737,5.095-2.185,10.7-6.546,13.432-2.6,1.634-5.966,2.019-8.179,4.154a56.274,56.274,0,0,0,13.63-2.624q-.61,2.909-1.22,5.817c2.671-.723,4.372-4.226,7.116-3.868a5.862,5.862,0,0,1,2.59,1.328,74.661,74.661,0,0,0,25.61,12.174,145.3,145.3,0,0,1-14.24-12.231,34.519,34.519,0,0,0,20.019,2.384c-2.584-3.02-6.966-3.52-10.646-5.02-5.585-2.277-9.817-7.134-12.487-12.542s-3.946-11.384-5.055-17.313c-1.533-8.2-2.8-16.6-1.717-24.872s4.787-16.532,11.525-21.457a25.077,25.077,0,0,0-12.9,11.913,16.607,16.607,0,0,0-4.787-8.188l-1.866,5.316a95.648,95.648,0,0,0-7.767-6.266c.477,2.9,2.53,6.117,3.41,9.094a115.206,115.206,0,0,1,3.509,48.769Z" fill="#88bcce"/>
    <g id="Group_73" data-name="Group 73">
      <path id="Path_224" data-name="Path 224" d="M7287.759,543.234c-2.6,1.634-5.966,2.019-8.179,4.154a56.274,56.274,0,0,0,13.63-2.624q-.61,2.909-1.22,5.817c2.671-.723,4.372-4.226,7.116-3.868a5.862,5.862,0,0,1,2.59,1.328,74.661,74.661,0,0,0,25.61,12.174,145.3,145.3,0,0,1-14.24-12.231,34.519,34.519,0,0,0,20.019,2.384c-2.584-3.02-6.966-3.52-10.646-5.02a20.824,20.824,0,0,1-6.093-3.915,13.747,13.747,0,0,0-3.757,2.365,5.05,5.05,0,0,0-6.63-6.035c.477-2.842.921-5.836-.063-8.545s-3.913-4.94-6.674-4.112a5.744,5.744,0,0,0-3.555,3.871,15.109,15.109,0,0,0-.418,5.422c-.031-.565-.744-.989-1.546-1.265C7292.805,537.179,7291.18,541.088,7287.759,543.234Z" fill="#3a8ca3"/>
    </g>
    <path id="Path_225" data-name="Path 225" d="M7296.96,503.945a1.776,1.776,0,0,1,2.038,1.107,5.181,5.181,0,0,1,.208,2.515c.428-.96.442-2.071.915-3.009s1.774-1.623,2.563-.929a3.177,3.177,0,0,1,.3-1.642,55.508,55.508,0,0,1,.2-11.366c1.079-8.276,4.787-16.532,11.525-21.457a25.077,25.077,0,0,0-12.9,11.913,16.607,16.607,0,0,0-4.787-8.188l-1.866,5.316a95.648,95.648,0,0,0-7.767-6.266c.477,2.9,2.53,6.117,3.41,9.094a113.879,113.879,0,0,1,3.511,16.174c.443,3.1.745,6.225.935,9.354C7295.513,505.395,7295.873,504.322,7296.96,503.945Z" fill="#3a8ca3"/>
    <path id="Path_226" data-name="Path 226" d="M7250.521,471.351a16.607,16.607,0,0,1-2.54.309c-1.293-.055-2.583-.766-3.826-.4-.375.109-.72.313-1.1.4a6.1,6.1,0,0,1-2.12-.2,4.719,4.719,0,0,0-3.318.8,5.228,5.228,0,0,1-1.749,1.076,6.408,6.408,0,0,1-1.285.021,3.5,3.5,0,0,0-3.048,1.952,1.63,1.63,0,0,1-.468.715,1.936,1.936,0,0,1-1.01.149,4.28,4.28,0,0,0-2.492,1.417c-1.209,1.113-2.435,2.207-3.662,3.3l-3.857,3.44a5.352,5.352,0,0,0-1.073,1.168,9.691,9.691,0,0,0-.474,1.012,32.767,32.767,0,0,0-1.6,2.948c-.362,1.059-.138,2.473.888,2.921a2.835,2.835,0,0,0,2.257-2.947,9.838,9.838,0,0,1,3.612-3.33c1.316-.7,2.777-1.1,4.107-1.775a4.744,4.744,0,0,1,1.344-.55,9.133,9.133,0,0,1,1.216-.014,3.426,3.426,0,0,0,2.783-1.614,2.909,2.909,0,0,0,3.037.3,1.051,1.051,0,0,1,.639-.192c.341.065.471.468.618.782a2.255,2.255,0,0,0,3.429.642,3.676,3.676,0,0,0,4.387,1.919,2.253,2.253,0,0,1,.886-.212c.679.056,1.01.821,1.4,1.378a4.02,4.02,0,0,0,3.764,1.467,7.907,7.907,0,0,0,3.8-1.776,15.675,15.675,0,0,0,4.522-5.671c1.193-2.541.76-4.717-1.546-6.215C7255.655,473.017,7253.6,471.005,7250.521,471.351Z" fill="#3a8ca3"/>
    <path id="Path_227" data-name="Path 227" d="M7216.9,489.454a32.767,32.767,0,0,1,1.6-2.948,9.691,9.691,0,0,1,.474-1.012,5.352,5.352,0,0,1,1.073-1.168l3.857-3.44c1.227-1.094,2.453-2.188,3.662-3.3a4.274,4.274,0,0,1,2.492-1.417,1.936,1.936,0,0,0,1.01-.149,1.63,1.63,0,0,0,.468-.715,3.5,3.5,0,0,1,3.048-1.952,6.408,6.408,0,0,0,1.285-.021,5.228,5.228,0,0,0,1.749-1.076,4.719,4.719,0,0,1,3.318-.8,6.1,6.1,0,0,0,2.12.2c.381-.084.726-.288,1.1-.4,1.243-.363,2.533.348,3.826.4a16.607,16.607,0,0,0,2.54-.309,6.208,6.208,0,0,1,3.288.545,5,5,0,0,0-2.852,1.686,3.873,3.873,0,0,0-5.127.055,1.7,1.7,0,0,0-2.467-.321,2.15,2.15,0,0,0-2.977.491,3.185,3.185,0,0,0-3.813,1.292,2.854,2.854,0,0,0-3.592,1.462,3.92,3.92,0,0,0-2.4.738c-.731.668-.862,1.795-1.534,2.524a4.014,4.014,0,0,1-2.814.975c-.02,1.211-1.2,2.086-2.366,2.426a7.283,7.283,0,0,0-1.6.527,1.426,1.426,0,0,0-.8,1.368,3.243,3.243,0,0,0-2.366,2.8,2.234,2.234,0,0,0-1.532,2.579,2.371,2.371,0,0,0,.364,1.84c-.049.011-.1.032-.146.041C7216.761,491.927,7216.537,490.513,7216.9,489.454Z" fill="#e7d76d"/>
    <path id="Path_228" data-name="Path 228" d="M7330.071,444.864a16.547,16.547,0,0,0,2.287-1.147c1.047-.762,1.728-2.067,2.964-2.453.373-.116.772-.137,1.137-.278a6.074,6.074,0,0,0,1.653-1.341,4.726,4.726,0,0,1,3.209-1.168,5.227,5.227,0,0,0,2.052-.069,6.5,6.5,0,0,0,1.082-.695,3.5,3.5,0,0,1,3.619-.06,1.627,1.627,0,0,0,.786.337,1.944,1.944,0,0,0,.924-.434,4.276,4.276,0,0,1,2.859-.2c1.623.258,3.25.491,4.877.724l5.116.732a5.315,5.315,0,0,1,1.54.379,9.881,9.881,0,0,1,.956.581,32.543,32.543,0,0,1,2.962,1.571c.888.682,1.484,1.984.876,2.925a2.838,2.838,0,0,1-3.511-1.207,9.842,9.842,0,0,0-4.851-.776c-1.485.142-2.921.621-4.4.795a4.719,4.719,0,0,0-1.424.285,9.064,9.064,0,0,0-1.02.661,3.43,3.43,0,0,1-3.212.195,2.908,2.908,0,0,1-2.364,1.928,1.046,1.046,0,0,0-.639.194c-.248.242-.134.65-.082.993a2.255,2.255,0,0,1-2.5,2.432,3.676,3.676,0,0,1-2.592,4.026,2.253,2.253,0,0,0-.856.313c-.534.422-.386,1.243-.405,1.923a4.019,4.019,0,0,1-2.324,3.3,7.894,7.894,0,0,1-4.145.62,15.677,15.677,0,0,1-6.9-2.221c-2.4-1.458-3.243-3.51-2.15-6.033C7326.716,449.093,7327.312,446.281,7330.071,444.864Z" fill="#3a8ca3"/>
    <path id="Path_229" data-name="Path 229" d="M7368.094,441.344a32.543,32.543,0,0,0-2.962-1.571,9.881,9.881,0,0,0-.956-.581,5.323,5.323,0,0,0-1.54-.379l-5.116-.732c-1.627-.233-3.254-.466-4.877-.724a4.269,4.269,0,0,0-2.859.2,1.944,1.944,0,0,1-.924.434,1.627,1.627,0,0,1-.786-.337,3.5,3.5,0,0,0-3.619.06,6.5,6.5,0,0,1-1.082.695,5.227,5.227,0,0,1-2.052.069,4.726,4.726,0,0,0-3.209,1.168,6.074,6.074,0,0,1-1.653,1.341c-.365.141-.764.162-1.137.278-1.236.386-1.917,1.691-2.964,2.453a16.547,16.547,0,0,1-2.287,1.147,6.216,6.216,0,0,0-2.438,2.273,5.011,5.011,0,0,1,3.309-.173,3.873,3.873,0,0,1,4.3-2.79,1.7,1.7,0,0,1,1.877-1.633,2.151,2.151,0,0,1,2.753-1.237,3.184,3.184,0,0,1,3.89-1.034,2.853,2.853,0,0,1,3.8-.769,3.919,3.919,0,0,1,2.409-.714c.979.152,1.712,1.019,2.674,1.254a4.016,4.016,0,0,0,2.885-.745c.686,1,2.156,1.072,3.313.712a7.281,7.281,0,0,1,1.622-.445,1.426,1.426,0,0,1,1.423.7,3.243,3.243,0,0,1,3.518,1.02,2.233,2.233,0,0,1,2.7,1.3,2.371,2.371,0,0,1,.715,1.734c.047-.018.1-.026.144-.047C7369.578,443.328,7368.982,442.026,7368.094,441.344Z" fill="#e7d76d"/>
    <path id="Path_230" data-name="Path 230" d="M7268.314,435.422c-.891-1.153-2.408-2.237-3.7-1.556-1.608-2.276-3.332-4.652-5.865-5.814a7.533,7.533,0,0,1-1.745-.9,16.771,16.771,0,0,1-1.392-1.676,7.4,7.4,0,0,0-3.752-1.757l-9.028-2.274a6.268,6.268,0,0,0-1.987-.278,12.19,12.19,0,0,0-1.48.3,19.713,19.713,0,0,1-4.131.084,17.758,17.758,0,0,0-6.582,1.192,3.05,3.05,0,0,0-1,.553,1.663,1.663,0,0,0,2.107,2.565c.192-.139.353-.319.551-.449a2.817,2.817,0,0,1,2.579.191l.72.3c.436.184.872.368,1.32.521.255.088.513.166.771.243.414.124.828.249,1.229.407a7.833,7.833,0,0,1,3.519,2.775c.342.488,1,1.071,1.407.634.574,1.716,2.391,2.625,4,3.446a3.686,3.686,0,0,1,1.308.94c.775,1,.4,2.512,1,3.631.442.828,1.371,1.351,1.682,2.237a7.189,7.189,0,0,1,.193,1.534c.309,2.5,3.008,4.181,3.378,6.676.139.933-.069,1.887.021,2.825.238,2.465,2.556,4.337,4.987,4.809a14.572,14.572,0,0,0,7.283-.949c3.13-1.044,6.54-2.763,7.372-5.955.672-2.577-.529-4.683-1.586-6.9C7270.3,440.279,7270.079,437.7,7268.314,435.422Z" fill="#3a8ca3"/>
    <path id="Path_231" data-name="Path 231" d="M7228.616,424.111a1.107,1.107,0,0,1,2.1-.5,1.776,1.776,0,0,1,2.885-.312.864.864,0,0,1,.536-1.007,2.517,2.517,0,0,1,1.24-.1l3.177.29c.643.059,1.468.3,1.491.943a2.194,2.194,0,0,1,3.293.238,2.464,2.464,0,0,1,3.382,1,2.021,2.021,0,0,1,2.877,1.334,2.609,2.609,0,0,1,4.042.747,2.457,2.457,0,0,1,2.4,2.544,1.705,1.705,0,0,1,2.431,1.331,2.941,2.941,0,0,1,2.227.431,1.654,1.654,0,0,1,.525,2.064c.352-.59,1.622.5,1.789.791.355.61.179,1.351.484,1.97.468.948,2.636,1.7,3.466.935.562-.519.369-1.429.17-2.168-.039-.141-.064-.285-.1-.427a2.328,2.328,0,0,0-2.424-.347c-1.608-2.276-3.332-4.652-5.865-5.814a7.533,7.533,0,0,1-1.745-.9,16.771,16.771,0,0,1-1.392-1.676,7.391,7.391,0,0,0-3.752-1.757l-9.028-2.274a6.268,6.268,0,0,0-1.987-.278,12.19,12.19,0,0,0-1.48.3,19.713,19.713,0,0,1-4.131.084,17.738,17.738,0,0,0-6.582,1.192,3.05,3.05,0,0,0-1,.553,1.659,1.659,0,0,0-.5,1.2,6.24,6.24,0,0,1,.7-.551A.66.66,0,0,1,7228.616,424.111Z" fill="#e7d76d"/>
    <path id="Path_232" data-name="Path 232" d="M7317.543,426.736a1.813,1.813,0,0,0-1.409-3.281,3.347,3.347,0,0,0-.525-4.177,2.043,2.043,0,0,1-.541-.59c-.258-.55.183-1.186.122-1.79-.086-.852-1.059-1.268-1.88-1.512a1.9,1.9,0,0,0-.278-2.811,1.35,1.35,0,0,1-.47-.377,1.242,1.242,0,0,1-.108-.551,2.45,2.45,0,0,0-1.979-2.151,2.538,2.538,0,0,0-3.106-2.007,2.089,2.089,0,0,0-3.176-.421,4.638,4.638,0,0,0-1.5-.655,1.574,1.574,0,0,0-1.5.464,2.234,2.234,0,0,0-2.7.656.769.769,0,0,0-.162.35c-.049.378.4.668.773.611a1.762,1.762,0,0,0,.939-.613,17.963,17.963,0,0,0,4.411.253,1.718,1.718,0,0,0,1.935,1.315,2.1,2.1,0,0,0,.7,2.749c.262.159.611.345.567.648a.749.749,0,0,1-.224.362,2.663,2.663,0,0,0,1.452,4.356,1.846,1.846,0,0,0,.023,3.406,2.374,2.374,0,0,0-.326,3.775,2.134,2.134,0,0,0-.2,4.119,1.977,1.977,0,0,0-1.439,2.394,5.738,5.738,0,0,0,1.65,2.625,9.851,9.851,0,0,0,2.047,1.841,5.265,5.265,0,0,0,2.627.745,3.513,3.513,0,0,0,3.825-3.77C7317.147,430.564,7318.953,428.889,7317.543,426.736Z" fill="#3a8ca3"/>
    <path id="Path_233" data-name="Path 233" d="M7277.1,434.739c-3.643-1.593-7.77-2.623-11.584-1.5s-7.013,5-6.231,8.894c-5.012.123-10.209,2.527-12.52,6.975s-.716,10.862,3.908,12.8c-5.4.368-9.862,5.328-10.451,10.713s2.225,10.8,6.477,14.156,9.753,4.838,15.167,5.047c9.2.355,19.238-3.529,23.268-11.805,4.547,6.86,15.5,8.214,21.577,2.668.606,4.569,6.027,7.18,10.578,6.457s8.341-3.765,11.9-6.7c1.482,6.729,7.389,12.025,14.085,13.649s13.94-.117,19.744-3.83c6.177-3.95,11.159-11.372,8.984-18.373-1.524-4.9-6.144-8.238-10.924-10.115-5.008-1.966-11.015-2.614-15.528.315a13,13,0,0,0-18.035-14.217c2.273-3.5,3.871-7.589,3.627-11.752s-2.617-8.347-6.466-9.953a8.42,8.42,0,0,0-10.489,3.731C7309.426,420.353,7273.911,418.976,7277.1,434.739Z" fill="#88bcce"/>
    <g id="Group_74" data-name="Group 74">
      <path id="Path_234" data-name="Path 234" d="M7248.641,457.1a15.785,15.785,0,0,1,14.764-12.605,3.754,3.754,0,0,1,1.181-3.89,9.042,9.042,0,0,1,3.846-1.853c3.8-1.042,8.345-1.22,11.165,1.525-.973-4.036,2.458-7.864,6.156-9.752a20.73,20.73,0,0,1,16.319-1.145,18.317,18.317,0,0,1,11.208,11.73,13.063,13.063,0,0,1,12.409-7.312,12.4,12.4,0,0,1,4.928,1.44,10.856,10.856,0,0,0-5.943-7.066,8.42,8.42,0,0,0-10.489,3.731c-4.759-11.546-40.274-12.923-37.082,2.84-3.643-1.593-7.77-2.623-11.584-1.5s-7.013,5-6.231,8.893c-5.012.124-10.209,2.528-12.52,6.976a9.955,9.955,0,0,0,1.739,11.371,6.834,6.834,0,0,1-.081-1.26A13.277,13.277,0,0,1,7248.641,457.1Z" fill="#e7d76d"/>
    </g>
    <path id="Path_235" data-name="Path 235" d="M7304.016,480.829a18.305,18.305,0,0,0,12.8-12.224,19.134,19.134,0,0,1,1.749-5,4.2,4.2,0,0,1,3.69-2.027c-2.855-.522-5.836,1.22-7.942,3.34-2.31,2.325-4.147,5.2-6.937,6.919a11.157,11.157,0,0,1-14.83-3.6,15.423,15.423,0,0,1-7.017,3c-2.561.234-5.4-.9-6.459-3.246a23.82,23.82,0,0,1-32.432,13.929,20.11,20.11,0,0,1-5.974-4.14,17.53,17.53,0,0,0,6.042,8.989c4.253,3.356,9.753,4.838,15.166,5.047,9.2.354,19.239-3.529,23.269-11.805.02.031.046.057.067.088q.927-1.963,1.749-3.967A18.3,18.3,0,0,0,7304.016,480.829Z" fill="#3a8ca3"/>
    <g id="Group_75" data-name="Group 75">
      <path id="Path_236" data-name="Path 236" d="M7317.292,489.141c4.551-.723,8.341-3.765,11.9-6.7,1.482,6.729,7.388,12.025,14.085,13.649,6.355,1.541,13.2.047,18.845-3.282a45.01,45.01,0,0,1-7.739.613c-5.348-.019-10.861-.817-15.431-3.594s-8.012-7.862-7.652-13.2A19.577,19.577,0,0,1,7316.108,485c-2.181.119-7.068-1.982-8.709-1.392a2.183,2.183,0,0,0-.412.205C7308.261,487.673,7313.134,489.8,7317.292,489.141Z" fill="#3a8ca3"/>
    </g>
    <path id="Path_237" data-name="Path 237" d="M7317.913,446.508a8.875,8.875,0,0,0-3.667,1.249c-2.44,1.55-3.708,4.367-4.845,7.025a12.269,12.269,0,0,0-10.215-6,10.021,10.021,0,0,0-7.405,3.493,8.8,8.8,0,0,0-1.089,1.617c-.119.231-.827,1.438-.157,1.318.271-.048,1.028-1.282,1.275-1.518a8.542,8.542,0,0,1,1.7-1.251,9.157,9.157,0,0,1,3.926-1.155,11.956,11.956,0,0,1,8.182,2.924,19.879,19.879,0,0,1,5.175,7.147,5.892,5.892,0,0,1,4.376-6.057,6.684,6.684,0,0,1,7.035,2.944,4.927,4.927,0,0,1,2.988-3.441,9.857,9.857,0,0,1,4.663-.578,20.464,20.464,0,0,1,15.689,9.691c.012-.013.022-.028.034-.041a12.991,12.991,0,0,0-18.044-14.008l-.012.013-.007-.006h0l0,0A11.626,11.626,0,0,0,7317.913,446.508Z" fill="#e7d76d"/>
    <path id="Path_238" data-name="Path 238" d="M7341.443,426.251c-.244.532.143,1.328.721,1.238a1.123,1.123,0,0,0,1.609,1.47,1.81,1.81,0,0,0,2.756,1.515,1.585,1.585,0,0,0,3.1.395,2.086,2.086,0,0,0,2.291.171,4.388,4.388,0,0,0,1.67-1.737,2.486,2.486,0,0,0,.452-1.889c-.183-.641-1.066-1.073-1.548-.612a2.211,2.211,0,0,0-.559-2.705c-.524-.41-1.46-.448-1.712.167a2.446,2.446,0,0,0-3.677-.465c.111-.112-1.2-.3-1.361-.261-.674.176-.673.661-1.116,1.014C7343.314,425.157,7341.93,425.193,7341.443,426.251Z" fill="#3a8ca3"/>
    <path id="Path_239" data-name="Path 239" d="M7364.511,448.846a1.476,1.476,0,0,1,.933,1.774,3.633,3.633,0,0,1,3.836,2.7,1.962,1.962,0,0,1-.088,1.315,1.061,1.061,0,0,1-1.1.606,1.748,1.748,0,0,1-.485,1.53c-.472.326-1.1.11-1.674.044-.546-.064-1.1.025-1.646-.006a1.8,1.8,0,0,1-1.436-.676,2.344,2.344,0,0,1-.085-1.781,1.924,1.924,0,0,1-1.488-.26.96.96,0,0,1-.2-1.361c-.552.563-1.5-1.038-1.554-1.385a2.2,2.2,0,0,1,.484-1.691A4.959,4.959,0,0,1,7364.511,448.846Z" fill="#3a8ca3"/>
    <g id="Group_76" data-name="Group 76">
      <path id="Path_240" data-name="Path 240" d="M7354.047,427.414c-.183-.641-1.066-1.073-1.548-.612a2.211,2.211,0,0,0-.559-2.705c-.524-.41-1.46-.448-1.712.167a2.446,2.446,0,0,0-3.677-.465c.111-.112-1.2-.3-1.361-.261-.674.176-.673.661-1.116,1.014-.76.605-2.144.641-2.631,1.7a.931.931,0,0,0,.469,1.214,1.273,1.273,0,0,1,.156-.284,1.767,1.767,0,0,1,1.571-.661.907.907,0,0,1,.811.654,2.111,2.111,0,0,1,3.992-1.005,1.306,1.306,0,0,1,1.254-1.244,1.731,1.731,0,0,1,1.551,1.011,1.106,1.106,0,0,1-.114,1.276,3.036,3.036,0,0,1,2.868,1.215A1.751,1.751,0,0,0,7354.047,427.414Z" fill="#e7d76d"/>
    </g>
    <g id="Group_77" data-name="Group 77">
      <path id="Path_241" data-name="Path 241" d="M7365.444,450.62a1.475,1.475,0,0,0-.934-1.774,4.957,4.957,0,0,0-4.5.8,2.2,2.2,0,0,0-.484,1.691c0,.006.007.019.008.026a2.719,2.719,0,0,1,1.532-1.107,1.853,1.853,0,0,1,1.286.012.975.975,0,0,1,.59,1.056c.025-.248.307-.373.549-.436a3.489,3.489,0,0,1,1.345-.132,1.656,1.656,0,0,1,1.15.651,2.205,2.205,0,0,1,.143,1.782,3.1,3.1,0,0,1,1.858-1.07,2.382,2.382,0,0,1,.762.03A3.647,3.647,0,0,0,7365.444,450.62Z" fill="#e7d76d"/>
    </g>
    <path id="Path_242" data-name="Path 242" d="M7236.623,440.525a1.476,1.476,0,0,1,.934,1.775,3.632,3.632,0,0,1,3.836,2.7,1.962,1.962,0,0,1-.089,1.316,1.06,1.06,0,0,1-1.1.6,1.745,1.745,0,0,1-.485,1.53c-.472.326-1.1.11-1.674.044-.546-.063-1.1.025-1.646-.006a1.8,1.8,0,0,1-1.436-.676,2.34,2.34,0,0,1-.085-1.781,1.923,1.923,0,0,1-1.489-.26.961.961,0,0,1-.2-1.361c-.553.564-1.5-1.038-1.554-1.384a2.195,2.195,0,0,1,.483-1.691A4.961,4.961,0,0,1,7236.623,440.525Z" fill="#3a8ca3"/>
    <g id="Group_78" data-name="Group 78">
      <path id="Path_243" data-name="Path 243" d="M7237.557,442.3a1.476,1.476,0,0,0-.934-1.775,4.961,4.961,0,0,0-4.5.806,2.2,2.2,0,0,0-.483,1.691c0,.006.007.018.008.025a2.72,2.72,0,0,1,1.532-1.107,1.854,1.854,0,0,1,1.285.012.975.975,0,0,1,.591,1.057c.025-.249.307-.374.549-.437a3.488,3.488,0,0,1,1.345-.131,1.654,1.654,0,0,1,1.15.65,2.207,2.207,0,0,1,.143,1.783,3.094,3.094,0,0,1,1.857-1.071,2.384,2.384,0,0,1,.763.031A3.641,3.641,0,0,0,7237.557,442.3Z" fill="#e7d76d"/>
    </g>
    <path id="Path_244" data-name="Path 244" d="M7267.9,493.09a8.535,8.535,0,0,0,2.611-1.272c-.949,1.34-2.609,1.939-4.165,2.463-2.1.708-6,2.086-7.869.148C7261.673,494.037,7264.731,494.141,7267.9,493.09Z" fill="#e7d76d"/>
    <path id="Path_245" data-name="Path 245" d="M7375.5,472.749c.1,1.68.116,3.364.127,5.046,1.159-1.746,1.139-4,.961-6.09a10.864,10.864,0,0,0-.67-3.315c-.364-.866-3.925-4.638-3.481-2.246.182.981,1.451,1.63,1.976,2.441A8.425,8.425,0,0,1,7375.5,472.749Z" fill="#e7d76d"/>
    <path id="Path_246" data-name="Path 246" d="M7288.431,420.985a3.127,3.127,0,0,0-1.682-.931c-2.227-.634-4.739-.806-6.76.326-.924.518-3.275,2.348-2.464,3.568C7281.065,421.878,7284.074,420.019,7288.431,420.985Z" fill="#e7d76d"/>
    <path id="Path_247" data-name="Path 247" d="M7295.37,490.766s4.9,30.266-1.749,47.411C7293.621,538.177,7302.543,515.784,7295.37,490.766Z" fill="#e7d76d"/>
    <path id="Path_248" data-name="Path 248" d="M7301.046,499.514s.446,23.061,10.063,39.252C7311.109,538.766,7300.073,523.132,7301.046,499.514Z" fill="#e7d76d"/>
    <path id="Path_249" data-name="Path 249" d="M7318.212,539.659s-3.061-14.941,4.531-23.514C7322.743,516.145,7316.743,528.025,7318.212,539.659Z" fill="#e7d76d"/>
    <path id="Path_250" data-name="Path 250" d="M7287.386,532.066s-3.341-10.912-12.281-12.926C7275.1,519.14,7286.687,518.962,7287.386,532.066Z" fill="#e7d76d"/>
  </g>
</svg>
