<svg xmlns="http://www.w3.org/2000/svg" width="312.708" height="312.713" viewBox="0 0 312.708 312.713">
  <g id="Group_1227" data-name="Group 1227" transform="translate(-669.021 450.523)">
    <path id="Path_1742" data-name="Path 1742" d="M825.372-137.81a155.53,155.53,0,0,1-123-59.821,154.792,154.792,0,0,1-33.352-96.536,155.336,155.336,0,0,1,45.8-110.561,155.323,155.323,0,0,1,110.555-45.8,155.337,155.337,0,0,1,110.561,45.8,155.334,155.334,0,0,1,45.8,110.561,154.678,154.678,0,0,1-33.981,97.326A155.633,155.633,0,0,1,825.372-137.81Zm0-299.264c-78.8,0-142.9,64.108-142.9,142.907a141.468,141.468,0,0,0,30.477,88.226A142.159,142.159,0,0,0,825.372-151.26a142.253,142.253,0,0,0,111.854-53.959,141.353,141.353,0,0,0,31.053-88.948C968.279-372.966,904.171-437.074,825.372-437.074Z" fill="#414141"/>
    <circle id="Ellipse_72" data-name="Ellipse 72" cx="69.498" cy="69.498" r="69.498" transform="translate(755.718 -388.963)" fill="#414141"/>
    <path id="Path_1743" data-name="Path 1743" d="M942.487-200.7a149.2,149.2,0,0,1-117.115,56.33,149.138,149.138,0,0,1-117.711-57,45.151,45.151,0,0,1,44.992-39.3H897.4A45.087,45.087,0,0,1,942.487-200.7Z" fill="#414141"/>
  </g>
</svg>
