<svg xmlns="http://www.w3.org/2000/svg" width="12.565" height="12.042" viewBox="0 0 12.565 12.042">
  <g id="Group_2177" data-name="Group 2177" transform="translate(-1656.862 -241.801)">
    <g id="Group_2176" data-name="Group 2176">
      <path id="Path_2290" data-name="Path 2290" d="M1667.464,250.832h-1.44a.392.392,0,0,1-.393-.392V249a.393.393,0,1,1,.786,0v1.047h1.047a.393.393,0,0,1,0,.785Z" fill="#2bb788"/>
      <path id="Path_2291" data-name="Path 2291" d="M1666.024,253.843a3.4,3.4,0,1,1,3.4-3.4A3.407,3.407,0,0,1,1666.024,253.843Zm0-6.021a2.618,2.618,0,1,0,2.618,2.618A2.621,2.621,0,0,0,1666.024,247.822Z" fill="#2bb788"/>
      <path id="Path_2292" data-name="Path 2292" d="M1661.7,249.131h-3.665a1.179,1.179,0,0,1-1.178-1.178v-4.974a1.179,1.179,0,0,1,1.178-1.178h9.162a1.179,1.179,0,0,1,1.178,1.178v3.141a.393.393,0,1,1-.785,0v-3.141a.394.394,0,0,0-.393-.393h-9.162a.394.394,0,0,0-.393.393v4.974a.394.394,0,0,0,.393.393h3.665a.393.393,0,0,1,0,.785Z" fill="#2bb788"/>
      <path id="Path_2293" data-name="Path 2293" d="M1662.621,246.423a1.387,1.387,0,0,1-.616-.145l-4.925-2.439a.393.393,0,0,1,.349-.7l4.926,2.44a.608.608,0,0,0,.53,0l4.928-2.44a.393.393,0,0,1,.349.7l-4.927,2.44a1.387,1.387,0,0,1-.614.144Z" fill="#2bb788"/>
    </g>
  </g>
</svg>
